<svg width="186" height="18" viewBox="0 0 186 18" fill="none" xmlns="http://www.w3.org/2000/svg">
<circle cx="9" cy="9" r="9" fill="url(#paint0_linear_389_769)"/>
<path d="M7.143 6.411V5.234H9.629V13H8.309V6.411H7.143Z" fill="white"/>
<circle cx="51" cy="9" r="9" fill="url(#paint1_linear_389_769)"/>
<path d="M48.44 12.021C49.628 11.207 50.5777 10.4113 51.289 9.634C52.0077 8.84933 52.367 8.12333 52.367 7.456C52.367 7.06 52.268 6.74467 52.07 6.51C51.8793 6.27533 51.5677 6.158 51.135 6.158C50.6877 6.158 50.3503 6.30467 50.123 6.598C49.8957 6.884 49.7673 7.29467 49.738 7.83H48.517C48.5683 6.94267 48.8397 6.26433 49.331 5.795C49.8297 5.32567 50.464 5.091 51.234 5.091C51.9893 5.091 52.5797 5.29267 53.005 5.696C53.4377 6.092 53.654 6.642 53.654 7.346C53.654 7.91067 53.478 8.48267 53.126 9.062C52.7813 9.64133 52.3413 10.1767 51.806 10.668C51.2707 11.152 50.717 11.57 50.145 11.922H53.83V12.945H48.44V12.021Z" fill="white"/>
<circle cx="93" cy="9" r="9" fill="url(#paint2_linear_389_769)"/>
<path d="M93.3 4.992C93.8133 4.992 94.2533 5.08367 94.62 5.267C94.9867 5.443 95.2617 5.68867 95.445 6.004C95.6357 6.31933 95.731 6.67133 95.731 7.06C95.731 7.55133 95.5917 7.962 95.313 8.292C95.0417 8.61467 94.6567 8.809 94.158 8.875V8.93C94.6933 9.084 95.1113 9.315 95.412 9.623C95.72 9.92367 95.874 10.3417 95.874 10.877C95.874 11.5297 95.6577 12.0613 95.225 12.472C94.7923 12.8753 94.1727 13.077 93.366 13.077C92.5373 13.077 91.87 12.868 91.364 12.45C90.858 12.0247 90.5683 11.3977 90.495 10.569H91.738C91.782 11.009 91.9397 11.361 92.211 11.625C92.4823 11.8817 92.849 12.01 93.311 12.01C93.7437 12.01 94.0737 11.8963 94.301 11.669C94.5357 11.4417 94.653 11.1483 94.653 10.789C94.653 10.3563 94.4843 10.0263 94.147 9.799C93.817 9.57167 93.3367 9.458 92.706 9.458H92.409V8.424H92.706C93.9013 8.43867 94.499 8.03167 94.499 7.203C94.499 6.84367 94.389 6.56133 94.169 6.356C93.949 6.15067 93.6483 6.048 93.267 6.048C92.8857 6.048 92.5667 6.16533 92.31 6.4C92.0533 6.62733 91.8993 6.961 91.848 7.401H90.616C90.6673 6.63833 90.924 6.048 91.386 5.63C91.848 5.20467 92.486 4.992 93.3 4.992Z" fill="white"/>
<circle cx="135" cy="9" r="9" fill="url(#paint3_linear_389_769)"/>
<path d="M131.385 11.328V10.272L135.246 5.168H136.588V10.228H137.677V11.328H136.588V13H135.323V11.328H131.385ZM135.411 6.664L132.683 10.228H135.411V6.664Z" fill="white"/>
<circle cx="177" cy="9" r="9" fill="url(#paint4_linear_389_769)"/>
<path d="M178.951 6.224H175.112V8.534C175.288 8.30667 175.537 8.127 175.86 7.995C176.183 7.85567 176.538 7.786 176.927 7.786C177.47 7.786 177.921 7.90333 178.28 8.138C178.639 8.36533 178.903 8.66967 179.072 9.051C179.248 9.43233 179.336 9.854 179.336 10.316C179.336 11.13 179.109 11.79 178.654 12.296C178.199 12.7947 177.539 13.044 176.674 13.044C175.86 13.044 175.204 12.8277 174.705 12.395C174.206 11.9623 173.935 11.3867 173.891 10.668H175.123C175.189 11.064 175.35 11.3757 175.607 11.603C175.871 11.8303 176.205 11.944 176.608 11.944C177.107 11.944 177.481 11.7937 177.73 11.493C177.979 11.1923 178.104 10.7927 178.104 10.294C178.104 9.82467 177.976 9.458 177.719 9.194C177.462 8.92267 177.096 8.787 176.619 8.787C176.282 8.787 175.985 8.86033 175.728 9.007C175.479 9.15367 175.295 9.348 175.178 9.59H173.957V5.113H178.951V6.224Z" fill="white"/>
<rect x="18" y="9" width="24" height="1" fill="url(#paint5_linear_389_769)"/>
<rect x="60" y="9" width="24" height="1" fill="url(#paint6_linear_389_769)"/>
<rect x="102" y="9" width="24" height="1" fill="url(#paint7_linear_389_769)"/>
<rect x="144" y="9" width="24" height="1" fill="url(#paint8_linear_389_769)"/>
<defs>
<linearGradient id="paint0_linear_389_769" x1="45.5806" y1="-48.1935" x2="9" y2="18" gradientUnits="userSpaceOnUse">
<stop offset="0.400859" stop-color="white"/>
<stop offset="0.983338" stop-color="#0083FD"/>
</linearGradient>
<linearGradient id="paint1_linear_389_769" x1="87.5806" y1="-48.1935" x2="51" y2="18" gradientUnits="userSpaceOnUse">
<stop offset="0.400859" stop-color="white"/>
<stop offset="0.983338" stop-color="#0083FD"/>
</linearGradient>
<linearGradient id="paint2_linear_389_769" x1="129.581" y1="-48.1935" x2="93" y2="18" gradientUnits="userSpaceOnUse">
<stop offset="0.400859" stop-color="white"/>
<stop offset="0.983338" stop-color="#0083FD"/>
</linearGradient>
<linearGradient id="paint3_linear_389_769" x1="171.581" y1="-48.1935" x2="135" y2="18" gradientUnits="userSpaceOnUse">
<stop offset="0.400859" stop-color="white"/>
<stop offset="0.983338" stop-color="#0083FD"/>
</linearGradient>
<linearGradient id="paint4_linear_389_769" x1="213.581" y1="-48.1935" x2="177" y2="18" gradientUnits="userSpaceOnUse">
<stop offset="0.400859" stop-color="white"/>
<stop offset="0.983338" stop-color="#0083FD"/>
</linearGradient>
<linearGradient id="paint5_linear_389_769" x1="78.7742" y1="6.32258" x2="78.6637" y2="11.1205" gradientUnits="userSpaceOnUse">
<stop offset="0.400859" stop-color="white"/>
<stop offset="0.983338" stop-color="#0083FD"/>
</linearGradient>
<linearGradient id="paint6_linear_389_769" x1="120.774" y1="6.32258" x2="120.664" y2="11.1205" gradientUnits="userSpaceOnUse">
<stop offset="0.400859" stop-color="white"/>
<stop offset="0.983338" stop-color="#0083FD"/>
</linearGradient>
<linearGradient id="paint7_linear_389_769" x1="162.774" y1="6.32258" x2="162.664" y2="11.1205" gradientUnits="userSpaceOnUse">
<stop offset="0.400859" stop-color="white"/>
<stop offset="0.983338" stop-color="#0083FD"/>
</linearGradient>
<linearGradient id="paint8_linear_389_769" x1="204.774" y1="6.32258" x2="204.664" y2="11.1205" gradientUnits="userSpaceOnUse">
<stop offset="0.400859" stop-color="white"/>
<stop offset="0.983338" stop-color="#0083FD"/>
</linearGradient>
</defs>
</svg>
