<svg width="23" height="23" viewBox="0 0 23 23" fill="none" xmlns="http://www.w3.org/2000/svg">
<path d="M16.8792 10.1415V0.769357C16.8792 0.349791 16.5296 0 16.1099 0H0.769357C0.349624 0 0 0.349641 0 0.769357V16.1099C0 16.5294 0.349641 16.8792 0.769357 16.8792H10.1415C10.5146 19.8401 13.0325 22.1481 16.1099 22.1481C19.4437 22.1481 22.1481 19.4437 22.1481 16.1099C22.1481 13.0324 19.84 10.5145 16.8792 10.1415ZM4.75602 4.26643H12.1232C12.4728 4.26643 12.7527 4.54615 12.7527 4.89595C12.7527 5.24559 12.473 5.52546 12.1232 5.52546L4.75602 5.5253C4.40638 5.5253 4.12651 5.24558 4.12651 4.89578C4.10325 4.54614 4.40639 4.26644 4.75602 4.26644V4.26643ZM4.75602 7.78678H12.1232C12.4728 7.78678 12.7527 8.0665 12.7527 8.4163C12.7527 8.76594 12.473 9.04581 12.1232 9.04581H4.75602C4.40638 9.04581 4.12651 8.7661 4.12651 8.4163C4.12667 8.06666 4.40639 7.78678 4.75602 7.78678ZM8.6961 12.6127H4.73279C4.38315 12.6127 4.10328 12.333 4.10328 11.9832C4.10328 11.6336 4.38299 11.3537 4.73279 11.3537H8.6961C9.04574 11.3537 9.32562 11.6334 9.32562 11.9832C9.34887 12.3329 9.0459 12.6127 8.6961 12.6127ZM16.1099 20.6094C13.6152 20.6094 11.6103 18.5811 11.6103 16.1098C11.6103 13.6386 13.6386 11.6103 16.1099 11.6103C18.6046 11.6103 20.6095 13.6385 20.6095 16.1098C20.6095 18.581 18.5812 20.6094 16.1099 20.6094Z" fill="#191B1D"/>
<path d="M18.0917 15.3405H16.8561V13.6619C16.8561 13.2424 16.5065 12.8926 16.0867 12.8926C15.6672 12.8926 15.3174 13.2422 15.3174 13.6619V16.1099C15.3174 16.5295 15.667 16.8793 16.0867 16.8793H18.0685C18.4881 16.8793 18.8379 16.5296 18.8379 16.1099C18.8611 15.6902 18.5115 15.3406 18.0917 15.3406V15.3405Z" fill="#191B1D"/>
</svg>
