<svg width="23" height="21" viewBox="0 0 23 21" fill="none" xmlns="http://www.w3.org/2000/svg">
<path d="M15.918 14.6279H22.6005V20.4899H15.918V14.6279Z" fill="#191B1D"/>
<path d="M0 12.4293H6.68255V20.4903H0V12.4293Z" fill="#191B1D"/>
<path d="M7.95947 20.4905V8.7666H14.642V20.4905H7.95947Z" fill="#191B1D"/>
<path d="M11.3004 0L12.2078 2.79273H15.1443L12.7685 4.51878L13.676 7.31151L11.3004 5.58545L8.92487 7.31151L9.83231 4.51878L7.45654 2.79273H10.393L11.3004 0Z" fill="#191B1D"/>
<path d="M11.7286 13C10.7385 13 9.90089 13.659 9.6212 14.5592H9.25985C9.11646 14.5592 9 14.6756 9 14.819C9 14.9626 9.11647 15.0789 9.25985 15.0789H9.52786C9.52523 15.1226 9.51979 15.1645 9.51979 15.2089C9.51979 15.2961 9.52605 15.3841 9.53602 15.4687H9.25995C9.11657 15.4687 9.00011 15.5851 9.00011 15.7285C9.00011 15.8721 9.11657 15.9884 9.25995 15.9884H9.666C9.9825 16.8229 10.7857 17.4177 11.7287 17.4177C12.436 17.4177 12.9251 17.1027 13.3366 16.6909L13.3364 16.691C13.3858 16.6426 13.4138 16.5764 13.4143 16.5074C13.4148 16.4382 13.3877 16.3717 13.3392 16.3226C13.2906 16.2735 13.2244 16.2457 13.1554 16.2455C13.0863 16.2454 13.0199 16.2726 12.971 16.3215C12.6035 16.6893 12.2946 16.8981 11.7284 16.8981C11.0733 16.8981 10.5113 16.5303 10.2301 15.9886H11.8543C11.9977 15.9886 12.1141 15.8722 12.1141 15.7288C12.1141 15.5853 11.9977 15.4689 11.8543 15.4689H10.0595C10.0465 15.3843 10.0392 15.2975 10.0392 15.2091C10.0392 15.1645 10.044 15.1229 10.0473 15.0791H11.8542C11.9976 15.0791 12.114 14.9627 12.114 14.8192C12.114 14.6758 11.9976 14.5594 11.8542 14.5594H10.1692C10.4235 13.9482 11.0227 13.5199 11.7284 13.5199C12.2945 13.5199 12.6034 13.7246 12.9709 14.0925L12.971 14.0924C13.0198 14.1412 13.0862 14.1685 13.1553 14.1683C13.2243 14.1681 13.2905 14.1404 13.3391 14.0913C13.3876 14.0421 13.4147 13.9756 13.4142 13.9065C13.4137 13.8374 13.3857 13.7712 13.3364 13.7228C12.925 13.311 12.4358 13.0001 11.7285 13.0001L11.7286 13Z" fill="white"/>
</svg>
