<svg width="31" height="31" viewBox="0 0 31 31" fill="none" xmlns="http://www.w3.org/2000/svg">
<rect x="0.5" y="0.5" width="30" height="30" rx="15" fill="white" stroke="#246EE9"/>
<path fill-rule="evenodd" clip-rule="evenodd" d="M14.0635 11.8813L12.9455 9.99849C12.4475 9.16001 11.3617 8.88245 10.5201 9.37856C10.3696 9.46727 10.2331 9.5777 10.1151 9.70625C9.27533 10.6212 8.89939 11.4923 9.02301 12.3183C9.27634 14.0111 10.4708 15.9446 12.593 18.1397L12.7773 18.3211L12.9596 18.505L12.9632 18.5024C15.1628 20.6194 17.1034 21.8095 18.8024 22.0619C19.6315 22.1851 20.5058 21.8105 21.4241 20.9738C21.5531 20.8562 21.6639 20.7203 21.753 20.5703C22.2509 19.7318 21.9723 18.6499 21.1308 18.1538L19.2411 17.0399L19.1471 16.9889C18.7022 16.768 18.1728 16.7828 17.7389 17.034L17.1501 17.3748L17.0817 17.4102C16.7805 17.548 16.4211 17.4866 16.183 17.2493L13.8533 14.9282L13.8015 14.8714C13.5906 14.6166 13.5581 14.2548 13.7273 13.9646L14.0695 13.378C14.3396 12.9148 14.3373 12.3423 14.0635 11.8813ZM20.9226 20.4276C20.1457 21.1355 19.4796 21.4142 18.9119 21.3299C17.4527 21.1131 15.7102 20.0725 13.6961 18.1765L13.3493 17.8449L13.115 17.6132C11.094 15.5224 9.98281 13.7138 9.75763 12.2092C9.67297 11.6435 9.95269 10.9798 10.6632 10.2058C10.7317 10.1311 10.8109 10.067 10.8982 10.0156C11.3596 9.7436 11.9474 9.87219 12.2548 10.2973L12.306 10.3754L13.4241 12.2581C13.5609 12.4886 13.562 12.7746 13.427 13.0061L13.0849 13.5928C12.7602 14.1495 12.8189 14.8476 13.2282 15.3422L13.3034 15.4259L15.6576 17.7727C16.1146 18.228 16.8069 18.3503 17.3916 18.0828L17.492 18.0318L18.112 17.6739C18.3281 17.5488 18.5927 17.5406 18.8156 17.6513L18.8859 17.69L20.7524 18.7908C21.2409 19.0788 21.4025 19.7068 21.1135 20.1934C21.0618 20.2805 20.9975 20.3594 20.9226 20.4276Z" fill="#246EE9"/>
</svg>
