<svg width="263" height="34" viewBox="0 0 263 34" fill="none" xmlns="http://www.w3.org/2000/svg">
<path fill-rule="evenodd" clip-rule="evenodd" d="M254 14.5301C254 19.4196 256.491 22.8385 261.474 24.7867L261.81 24.9144C262.328 25.1059 262.592 25.6811 262.401 26.1991C262.329 26.3933 262.199 26.5605 262.028 26.6775C260.267 27.8827 257.427 28.5809 253.507 28.7719C252.379 31.8244 249.443 34 246 34H8.00001C3.58173 34 0 30.4183 0 26V8C0 3.58172 3.58172 0 8 0L245.774 0C250.086 0 253.623 3.41846 253.769 7.72862L254 14.5301Z" fill="#BFD7FF"/>
</svg>
