<svg width="126" height="126" viewBox="0 0 126 126" fill="none" xmlns="http://www.w3.org/2000/svg">
<circle opacity="0.58" cx="63" cy="63" r="63" fill="white"/>
<circle cx="63" cy="63" r="47" fill="white"/>
<path d="M77.5911 51.2139L57.7827 71.4212L48.4096 61.8619L48.4095 61.8619C47.801 61.2415 46.8125 61.2415 46.2041 61.8619L46.2039 61.862C45.5987 62.4801 45.5987 63.48 46.2039 64.098L46.204 64.0981L56.6773 74.7846L56.6774 74.7848C57.2864 75.4051 58.2743 75.4051 58.8832 74.7848L58.8833 74.7847L79.796 53.4507L79.7961 53.4506C80.4013 52.8325 80.4013 51.8326 79.7961 51.2146L79.7957 51.2142C79.495 50.9085 79.0835 50.7401 78.6567 50.7504L78.6567 50.7503C78.2553 50.7594 77.8741 50.9262 77.5914 51.2136L77.5911 51.2139Z" fill="#0FCE16" stroke="white" stroke-width="0.5"/>
</svg>
