<svg width="60" height="10" viewBox="0 0 60 10" fill="none" xmlns="http://www.w3.org/2000/svg">
<path d="M21.9326 3.96909L18.9045 3.56534L17.5924 0.840057C17.5924 0.73912 17.4914 0.638184 17.3905 0.638184C17.2896 0.638184 17.1886 0.73912 17.1886 0.840057L15.8765 3.56534L12.8484 3.96909C12.7474 3.96909 12.6465 4.07002 12.6465 4.17096C12.6465 4.2719 12.6465 4.37283 12.7474 4.47377L14.968 6.59344L14.4633 9.62153C14.4633 9.72247 14.4633 9.8234 14.5643 9.92434C14.6652 10.0253 14.7662 10.0253 14.8671 9.92434L17.5924 8.51123L20.3177 9.92434H20.4186C20.5195 9.92434 20.5195 9.92434 20.6205 9.8234C20.7214 9.72247 20.7214 9.62153 20.7214 9.52059L20.2167 6.4925L22.4373 4.37283C22.5383 4.2719 22.5383 4.17096 22.5383 4.07002C22.1345 4.07002 22.0336 3.96909 21.9326 3.96909Z" fill="#246EE9"/>
<path d="M10.2744 3.96909L7.24634 3.56534L5.93417 0.840057C5.93417 0.73912 5.83323 0.638184 5.7323 0.638184C5.63136 0.638184 5.53042 0.73912 5.53042 0.840057L4.21825 3.56534L1.19015 3.96909C1.08922 3.96909 0.988281 4.07002 0.988281 4.17096C0.988281 4.2719 0.988281 4.37283 1.08922 4.47377L3.30982 6.59344L2.80514 9.62153C2.80514 9.72247 2.80514 9.8234 2.90607 9.92434C3.00701 10.0253 3.10795 10.0253 3.20888 9.92434L5.93417 8.51123L8.65945 9.92434H8.76039C8.86133 9.92434 8.86133 9.92434 8.96226 9.8234C9.0632 9.72247 9.0632 9.62153 9.0632 9.52059L8.55852 6.4925L10.7791 4.37283C10.8801 4.2719 10.8801 4.17096 10.8801 4.07002C10.4763 4.07002 10.3754 3.96909 10.2744 3.96909Z" fill="#246EE9"/>
<path d="M34.253 3.96909L31.2249 3.56534L29.9127 0.840057C29.9127 0.73912 29.8117 0.638184 29.7108 0.638184C29.6099 0.638184 29.5089 0.73912 29.5089 0.840057L28.1968 3.56534L25.1687 3.96909C25.0677 3.96909 24.9668 4.07002 24.9668 4.17096C24.9668 4.2719 24.9668 4.37283 25.0677 4.47377L27.2883 6.59344L26.7837 9.62153C26.7837 9.72247 26.7837 9.8234 26.8846 9.92434C26.9855 10.0253 27.0865 10.0253 27.1874 9.92434L29.9127 8.51123L32.638 9.92434H32.7389C32.8398 9.92434 32.8398 9.92434 32.9408 9.8234C33.0417 9.72247 33.0417 9.62153 33.0417 9.52059L32.537 6.4925L34.7576 4.37283C34.8586 4.2719 34.8586 4.17096 34.8586 4.07002C34.4548 4.07002 34.3539 3.96909 34.253 3.96909Z" fill="#246EE9"/>
<path d="M46.5733 3.96909L43.5452 3.56534L42.233 0.840057C42.233 0.73912 42.1321 0.638184 42.0311 0.638184C41.9302 0.638184 41.8293 0.73912 41.8293 0.840057L40.5171 3.56534L37.489 3.96909C37.388 3.96909 37.2871 4.07002 37.2871 4.17096C37.2871 4.2719 37.2871 4.37283 37.388 4.47377L39.6086 6.59344L39.104 9.62153C39.104 9.72247 39.104 9.8234 39.2049 9.92434C39.3058 10.0253 39.4068 10.0253 39.5077 9.92434L42.233 8.51123L44.9583 9.92434H45.0592C45.1602 9.92434 45.1602 9.92434 45.2611 9.8234C45.362 9.72247 45.362 9.62153 45.362 9.52059L44.8573 6.4925L47.0779 4.37283C47.1789 4.2719 47.1789 4.17096 47.1789 4.07002C46.7751 4.07002 46.6742 3.96909 46.5733 3.96909Z" fill="#246EE9"/>
<path d="M58.8936 3.96909L55.8655 3.56534L54.5533 0.840057C54.5533 0.73912 54.4524 0.638184 54.3514 0.638184C54.2505 0.638184 54.1496 0.73912 54.1496 0.840057L52.8374 3.56534L49.8093 3.96909C49.7084 3.96909 49.6074 4.07002 49.6074 4.17096C49.6074 4.2719 49.6074 4.37283 49.7084 4.47377L51.929 6.59344L51.4243 9.62153C51.4243 9.72247 51.4243 9.8234 51.5252 9.92434C51.6262 10.0253 51.7271 10.0253 51.828 9.92434L54.5533 8.51123L57.2786 9.92434H57.3795C57.4805 9.92434 57.4805 9.92434 57.5814 9.8234C57.6823 9.72247 57.6823 9.62153 57.6823 9.52059L57.1777 6.4925L59.3983 4.37283C59.4992 4.2719 59.4992 4.17096 59.4992 4.07002C59.0955 4.07002 58.9945 3.96909 58.8936 3.96909Z" fill="#C4CAD3"/>
</svg>
