<svg width="48" height="48" viewBox="0 0 48 48" fill="none" xmlns="http://www.w3.org/2000/svg">
<circle cx="24" cy="24" r="24" fill="#E9F4FE"/>
<path d="M16.7629 21.0114L17.1729 21.2163L17.5828 21.0114L19.4276 21.9338H21.3749L22.8098 21.0114H24.2446L26.8068 22.0363L30.189 25.4184L31.4189 25.9308L34.1861 23.1636L35.8259 21.5238L36.8508 21.0114L37.7732 20.8064L38.3881 20.2939L39.003 19.7815L39.413 19.884L39.823 20.3964L39.7205 21.0114L33.2637 30.3379L32.1363 30.9528H31.1114H30.189L27.1143 28.3906L26.8068 28.8005V30.3379L26.3969 31.2603L25.9869 32.4901V34.4374L26.3969 38.127L25.9869 38.742H12.7659L12.2534 38.127L11.2285 28.8005V26.2383L11.6385 25.1109L12.2534 23.8811L13.0733 22.8562L14.5082 21.8313L15.6355 21.2163L16.7629 21.0114Z" fill="#B1DAFF"/>
<path d="M18.4028 12.8123L21.2725 11.8899L24.9621 13.9397V15.9895L24.5521 17.9367L23.0148 19.1666L21.8874 19.7815L19.8376 20.1915L18.0953 19.4741L16.9679 18.7567L15.3281 16.9119V15.1695L18.4028 12.8123Z" fill="#B1DAFF"/>
<path d="M39.6599 19.6571C39.4974 19.552 39.3143 19.5012 39.133 19.5012C38.8448 19.5012 38.5607 19.6293 38.3701 19.8706L38.0885 20.2271C37.8822 20.4882 37.5679 20.6405 37.2351 20.6405C36.4221 20.6405 35.6513 21.0021 35.1316 21.6272L34.37 22.5434L34.3717 22.5447L31.4907 25.7301C31.4416 25.7848 31.3739 25.8164 31.3004 25.8195C31.2206 25.8221 31.1566 25.7962 31.1032 25.7458L27.4542 22.314C26.3405 21.2667 24.8854 20.6899 23.3568 20.6899H22.786C22.7584 20.6899 22.7313 20.6952 22.7051 20.7035C22.7007 20.7048 22.6967 20.7072 22.6922 20.7088C22.6777 20.7141 22.663 20.7188 22.6495 20.7265L22.3115 20.9225C21.0593 21.6491 19.5022 21.6513 18.2484 20.9288L17.8963 20.7261C17.8902 20.7226 17.8826 20.7225 17.8762 20.7197C17.8522 20.7081 17.8268 20.6995 17.8002 20.6951C17.7941 20.6942 17.788 20.6932 17.7818 20.6927C17.7747 20.6921 17.7678 20.6899 17.7605 20.6899H17.3225C15.9267 20.6899 14.5504 21.1611 13.4476 22.0166C11.738 23.3427 10.8325 25.4212 11.0257 27.576L11.9549 38.0772C11.9944 38.5146 12.3552 38.8444 12.7943 38.8444H25.7548C25.9847 38.8444 26.2074 38.7487 26.3659 38.582C26.5265 38.4127 26.6083 38.1911 26.5963 37.9586L26.429 34.5929C26.348 33.0322 26.5206 31.5655 26.9421 30.2334C26.9686 30.1496 26.9917 30.0646 27.0145 29.9796C27.0148 29.9779 27.0158 29.9766 27.0162 29.9749C27.0164 29.9739 27.0165 29.9729 27.0166 29.9718C27.1082 29.6276 27.1709 29.2739 27.2011 28.913L29.5403 30.6925C30.0399 31.0726 30.6611 31.282 31.289 31.282C32.2439 31.282 33.1357 30.8111 33.6746 30.0224L37.4046 24.5595L39.9224 21.0375C40.2448 20.587 40.1253 19.9584 39.6599 19.6574L39.6599 19.6571ZM37.2352 21.1842C37.7374 21.1842 38.2039 20.9581 38.5153 20.564L38.7968 20.2076C38.8785 20.1043 39.001 20.0449 39.133 20.0449C39.2151 20.0449 39.2952 20.0686 39.3647 20.1136C39.4638 20.1777 39.5304 20.2768 39.5525 20.3927C39.5746 20.5085 39.5488 20.6252 39.4802 20.7213L37.1531 23.9768L35.1568 22.4478L35.55 21.9749C35.9676 21.4725 36.5819 21.1843 37.2353 21.1843L37.2352 21.1842ZM14.3124 30.1311C14.019 29.0494 13.8983 27.6344 13.9532 25.9253C13.9583 25.7753 13.8404 25.6497 13.6904 25.6449C13.6874 25.6447 13.6845 25.6447 13.6813 25.6447C13.5353 25.6447 13.4146 25.7607 13.41 25.9079C13.353 27.6709 13.4802 29.1396 13.7878 30.2735C14.1446 31.5897 14.2928 32.8892 14.228 34.1359L14.0188 38.3006H12.7944C12.6385 38.3006 12.5107 38.1834 12.4965 38.0286L11.5673 27.5277C11.3907 25.5578 12.2183 23.6583 13.7812 22.4462C14.6016 21.8096 15.5884 21.4108 16.6151 21.2826C16.3239 21.5186 16.0307 21.8381 15.8194 22.2673C15.3778 23.1624 15.4142 24.2678 15.9274 25.5527C15.9313 25.5625 15.9381 25.57 15.9429 25.579C15.5977 25.853 15.3754 26.2752 15.3754 26.7491C15.3754 27.5736 16.0463 28.2443 16.8705 28.2443C17.6948 28.2443 18.3657 27.5736 18.3657 26.7491C18.3657 25.9246 17.6948 25.254 16.8705 25.254C16.7143 25.254 16.5637 25.2783 16.4221 25.3229C15.9804 24.2026 15.94 23.2571 16.304 22.5133C16.6917 21.7212 17.4458 21.368 17.7246 21.2607L19.7969 24.6122C19.8524 24.702 19.9268 24.7694 20.0105 24.8145V38.3004H14.563L14.7709 34.1633C14.8384 32.8593 14.6841 31.5026 14.3123 30.1306L14.3124 30.1311ZM16.8705 25.798C17.3951 25.798 17.822 26.2249 17.822 26.7495C17.822 27.274 17.395 27.7009 16.8705 27.7009C16.346 27.7009 15.919 27.274 15.919 26.7495C15.919 26.2249 16.346 25.798 16.8705 25.798ZM33.2257 29.7159C32.7885 30.3562 32.0645 30.7385 31.2893 30.7385C30.7796 30.7385 30.2754 30.5685 29.8698 30.2598L27.2194 28.2436C27.3038 26.7046 27.0683 25.8837 27.0549 25.8389C27.0122 25.695 26.8603 25.6136 26.7177 25.656C26.5739 25.6984 26.4917 25.8493 26.5338 25.9933C26.5377 26.0067 26.9158 27.3525 26.4879 29.8361C26.467 29.914 26.4483 29.9927 26.4242 30.0694C25.9827 31.4639 25.8019 32.9953 25.8861 34.6206L26.0534 37.9863C26.0579 38.069 26.0287 38.1476 25.9718 38.2078C25.9147 38.2678 25.8377 38.3008 25.7549 38.3008L20.5542 38.3009V24.8153C20.638 24.7702 20.7124 24.7027 20.768 24.6128L22.8188 21.296C23.3143 21.614 24.7657 22.7826 23.9808 25.1834C23.9678 25.2228 23.9663 25.2626 23.9711 25.3012C23.8702 25.2877 23.768 25.2783 23.6635 25.2783C22.3884 25.2783 21.3509 26.3157 21.3509 27.5909V28.814C21.3509 28.8417 21.359 28.8668 21.3667 28.8919C21.4178 29.293 21.7567 29.6042 22.1717 29.6042C22.6221 29.6042 22.9873 29.239 22.9873 28.7886C22.9873 28.3383 22.6221 27.9731 22.1717 27.9731C22.074 27.9731 21.9814 27.9931 21.8945 28.0246V27.5909C21.8945 26.6155 22.688 25.822 23.6634 25.822C24.6388 25.822 25.4322 26.6155 25.4322 27.5909V28.0225C25.3474 27.9926 25.2573 27.9731 25.1621 27.9731C24.7117 27.9731 24.3465 28.3383 24.3465 28.7886C24.3465 29.239 24.7117 29.6042 25.1621 29.6042C25.6006 29.6042 25.9554 29.2574 25.9741 28.8235C25.9742 28.8201 25.9761 28.8174 25.9761 28.814V28.8045C25.9762 28.7991 25.9776 28.7941 25.9776 28.7886C25.9776 28.7832 25.9762 28.7782 25.9761 28.7729V27.591C25.9761 26.5964 25.3437 25.749 24.4609 25.4231C24.4759 25.4017 24.4888 25.3786 24.4973 25.3526C25.1927 23.2261 24.318 21.9095 23.6167 21.2463C24.9103 21.3077 26.133 21.8182 27.0816 22.7106L30.7304 26.1421C30.8913 26.2933 31.1016 26.3717 31.3221 26.3629C31.543 26.3539 31.7461 26.2588 31.8939 26.0951L34.8062 22.8752L36.8397 24.4233L33.2257 29.7159Z" fill="#0083FD"/>
<path d="M14.991 19.034H16.9265C17.8017 19.8547 18.9754 20.3611 20.2699 20.3611C21.5645 20.3611 22.7381 19.8547 23.6134 19.034H25.3956C25.7803 19.034 26.0379 18.6467 25.8992 18.2879C25.3165 16.781 25.4216 15.5269 25.4216 15.5269C25.5956 12.5277 23.2103 10 20.2061 10C17.2017 10 14.8166 12.5277 14.9906 15.5269C14.9906 15.5269 15.0451 16.766 14.4835 18.2992C14.3528 18.6554 14.6117 19.034 14.9912 19.034H14.991ZM20.2698 19.8174C19.3467 19.8174 18.4916 19.5263 17.7867 19.034C16.8832 18.4029 16.2287 17.4394 16.0052 16.3209C19.4887 16.1489 20.8133 12.7635 20.8133 12.7635C22.1303 14.4612 24.0891 14.7285 24.5577 14.7688C24.5949 14.997 24.6192 15.2293 24.6192 15.4676C24.6192 16.943 23.8792 18.2471 22.7526 19.0337C22.0477 19.526 21.1926 19.8171 20.2696 19.8171L20.2698 19.8174Z" fill="#0083FD"/>
<path d="M29.5125 17.3706H31.1436V19.0017C31.1436 19.302 31.387 19.5455 31.6873 19.5455H33.3184C33.6187 19.5455 33.8621 19.302 33.8621 19.0017V17.3706H35.4932C35.7935 17.3706 36.0369 17.1272 36.0369 16.8269V15.1958C36.0369 14.8955 35.7935 14.6521 35.4932 14.6521H33.8621V13.021C33.8621 12.7207 33.6187 12.4773 33.3184 12.4773H31.6873C31.387 12.4773 31.1436 12.7207 31.1436 13.021V14.6521H29.5125C29.2122 14.6521 28.9688 14.8955 28.9688 15.1958V16.8269C28.9688 17.1272 29.2122 17.3706 29.5125 17.3706Z" fill="#0083FD"/>
</svg>
