<svg width="8" height="11" viewBox="0 0 8 11" fill="none" xmlns="http://www.w3.org/2000/svg">
<path d="M7.50013 9.38976H0.50197C0.369396 9.38976 0.242253 9.44243 0.148509 9.53619C0.0547656 9.62996 0.00210092 9.75712 0.00210092 9.88972C0.00210092 10.0223 0.0547656 10.1495 0.148509 10.2432C0.242253 10.337 0.369396 10.3897 0.50197 10.3897H7.50013C7.6327 10.3897 7.75985 10.337 7.85359 10.2432C7.94734 10.1495 8 10.0223 8 9.88972C8 9.75712 7.94734 9.62996 7.85359 9.53619C7.75985 9.44243 7.6327 9.38976 7.50013 9.38976ZM0.50197 8.38983H0.546958L2.63141 8.19985C2.85975 8.1771 3.07331 8.07647 3.23625 7.91487L7.73507 3.41521C7.90968 3.2307 8.00405 2.98449 7.99749 2.73053C7.99093 2.47656 7.88398 2.23555 7.70008 2.06031L6.33044 0.690412C6.15168 0.522472 5.91744 0.426111 5.67228 0.419658C5.42711 0.413205 5.18813 0.497111 5.00079 0.655414L0.50197 5.15508C0.340395 5.31805 0.239791 5.53165 0.217044 5.76003L0.00210092 7.84487C-0.00463283 7.9181 0.00486736 7.99192 0.0299242 8.06105C0.0549811 8.13019 0.0949776 8.19294 0.147063 8.24484C0.193771 8.29118 0.249164 8.32784 0.310067 8.35272C0.37097 8.3776 0.436184 8.39021 0.50197 8.38983ZM5.63562 1.39036L7.00026 2.75526L6.00052 3.73018L4.66088 2.39028L5.63562 1.39036Z" fill="#246EE9"/>
</svg>
