<svg width="46" height="49" viewBox="0 0 46 49" fill="none" xmlns="http://www.w3.org/2000/svg">
<path d="M27.3454 29.9177H18.626V34.5309H27.3454V29.9177Z" fill="#ECB79E"/>
<path d="M21.0617 33.4527C22.4658 33.4074 23.829 32.9959 24.9097 32.3663C25.7857 31.856 26.4898 31.2511 27.022 30.5432C27.1243 30.4033 27.243 30.2469 27.3454 30.0782V29.9177H18.626V33.3663C19.4365 33.4445 20.2552 33.4774 21.0617 33.4527Z" fill="#D1D3D4"/>
<path d="M22.9897 4.5885C22.9856 4.5885 22.9856 4.5885 22.9897 4.5885C22.9856 4.5885 22.9856 4.5885 22.9815 4.5885C17.4101 4.74488 13.1569 7.04941 13.1773 14.9836C13.1896 19.6873 13.6153 21.0782 14.9785 26.4486C15.92 30.1646 20.9429 32.1235 22.8546 32.2511C22.8956 32.2469 22.9406 32.2428 22.9815 32.2387C23.0266 32.2428 23.0675 32.2469 23.1084 32.2511C25.0202 32.1235 30.043 30.1646 30.9846 26.4486C32.3477 21.0782 32.7735 19.6914 32.7858 14.9836C32.8144 7.04941 28.5611 4.74899 22.9897 4.5885Z" fill="#ECB79E"/>
<path d="M31.7257 17.6873L31.1157 22.3746C33.5064 23.4322 33.883 17.9178 33.883 17.9178C33.3304 16.5433 31.7257 17.6873 31.7257 17.6873Z" fill="#ECB79E"/>
<path d="M11.7937 18.4815C11.7937 18.4815 12.1662 23.9959 14.561 22.9383L13.951 18.251C13.951 18.251 12.3463 17.1029 11.7937 18.4815Z" fill="#ECB79E"/>
<path d="M27.4191 35.0906L39.1964 38.1729C39.1964 38.1729 43.2163 38.7902 44.2397 42.4198L45.9959 49H23.1003H22.8997H0L1.75616 42.4198C2.77957 38.7902 6.7995 38.1729 6.7995 38.1729L18.5441 35.0906H27.4191Z" fill="#ECB79E"/>
<path d="M0 49L1.75616 42.4198C2.77957 38.7902 6.7995 38.1729 6.7995 38.1729L18.5441 35.0906H27.4191L39.1964 38.1729C39.1964 38.1729 43.2163 38.7902 44.2397 42.4198L45.9959 49" fill="white"/>
<path d="M23.7594 34.5267H23.0143H22.9857H22.2447L20.0874 37.9465L22.0155 40.1276H22.9857H23.0143H23.9845L25.9167 37.9465L23.7594 34.5267Z" fill="#D83633"/>
<path d="M24.0746 39.7119C22.8138 38.3745 22.2816 36.3539 22.605 34.5267H22.2447L20.0874 37.9424L22.0155 40.1234H23.9886L24.2261 39.856C24.1687 39.8107 24.1196 39.7613 24.0746 39.7119Z" fill="#BCBEC0"/>
<path d="M27.3575 32.3704L22.9651 34.6749L25.8634 39.0576L31.1155 35.8765L27.3575 32.3704Z" fill="#BCBEC0"/>
<path d="M27.3575 32.3704L22.9651 34.6749L25.9125 38.4732L30.8289 35.6132L27.3575 32.3704Z" fill="white"/>
<path d="M18.6014 32.2223L22.9652 34.5268L20.0997 38.9095L14.8435 35.7285L18.6014 32.2223Z" fill="#BCBEC0"/>
<path d="M18.6015 32.2223L22.994 34.5268L20.0466 38.3293L15.1301 35.4692L18.6015 32.2223Z" fill="white"/>
<path d="M15.1873 35.9754L6.7995 38.1688C6.7995 38.1688 2.77957 38.7861 1.75616 42.4157L0 49.0001H46L44.2438 42.4198C43.2163 38.7902 39.2005 38.1729 39.2005 38.1729L30.4156 35.6379L22.9652 48.675L15.1873 35.9754Z" fill="#002331"/>
<path d="M21.9827 40.1276L20.9307 44.7901L22.9652 48.1111L24.8687 44.7901L23.9518 40.1276H21.9827Z" fill="#D83633"/>
<path d="M15.1874 35.9753L11.2166 37.0165L13.4558 37.8889L12.0721 39.4692L20.0874 49H23.1986L15.1874 35.9753Z" fill="#001221"/>
<path d="M30.4157 35.0782L34.7877 36.3375L32.5485 37.3293L33.9321 38.9095L25.9168 48.4404H22.8057L30.4157 35.0782Z" fill="#001221"/>
<path d="M13.3042 18.2716L14.1761 23.5391L14.9007 24.0124L14.1761 16.6173L15.4206 13.6667L15.7194 11.2387L15.7563 11.2181C16.6446 8.09469 23.4932 8.4774 23.4932 8.4774C31.6354 8.64201 30.5342 14.3334 30.5342 14.3334L31.7296 16.8889L31.005 24.284L31.7296 23.8107L32.6015 18.5432C33.9156 15.6461 33.1296 8.92185 33.1296 8.92185C33.1296 8.92185 32.1389 6.18111 30.0266 5.86835C30.0266 5.86835 29.0401 1.27987 22.5599 2.10703C22.5599 2.10703 16.53 3.51032 14.5609 0.00415039C14.5609 0.00415039 14.4832 2.36217 15.7563 3.19345C15.7563 3.19345 14.4668 2.42802 14.258 1.72843C14.258 1.72843 14.3522 3.19757 15.1504 3.70785C14.7533 3.47329 13.2878 2.52678 12.7597 1.1523C12.7597 1.1523 12.3381 3.38275 14.0533 4.59674C14.0533 4.59674 11.6995 3.25929 11.7977 1.72843C11.7977 1.72843 11.065 4.85189 13.1814 5.61732C13.1814 5.61732 12.4036 6.18934 10.5656 4.02473C10.5656 4.02473 10.0375 7.72432 12.6574 8.10292C12.6533 8.09469 11.6176 10.2017 13.3042 18.2716ZM15.2487 3.76135C15.2487 3.76135 15.2446 3.75724 15.2364 3.75724C15.2405 3.75724 15.2446 3.75724 15.2487 3.76135Z" fill="#852A00"/>
<path d="M13.2879 11.0289C13.4639 11.0906 13.9347 11.4692 14.2294 11.6009C14.2048 10.6297 13.9224 9.64614 13.992 8.61733C14.4996 8.81898 15.0686 9.13585 15.6253 9.28811C15.2856 8.81075 15.0563 8.20992 15.1341 7.60087C15.8668 7.50622 16.4563 8.13174 17.1441 8.0947C17.2055 7.5803 16.9967 7.04943 17.0335 6.51445C18.1101 6.68729 19.2318 7.15231 20.3166 7.32927C20.1283 6.89717 19.809 6.45272 19.7026 5.99593C21.0657 6.26754 22.433 6.69964 23.8085 6.94655C23.6938 6.57618 23.2763 6.24696 23.309 5.81486C24.7582 5.6626 26.3547 6.9342 27.7261 7.26342C27.4436 7.0947 27.198 6.81075 27.0629 6.49799C27.9676 6.88894 29.0401 7.67906 29.8384 8.27165C29.7074 8.15643 29.6009 8.05766 29.4863 7.92186C29.8916 8.23462 30.2969 8.55972 30.6694 8.90951C30.2436 7.8519 28.8886 7.51445 28.5939 6.39511C28.7658 6.65025 29.0074 6.91363 29.2489 7.07001C28.8805 6.21816 27.853 5.48564 27.1652 4.9054C26.8541 4.64202 26.5676 4.3375 26.1623 4.24285C26.4366 4.7984 26.8705 5.27165 27.2184 5.78606C26.5798 5.36219 25.9003 4.55149 25.1512 4.40746C25.229 4.88894 25.7407 5.34573 25.8962 5.7984C24.926 5.37453 24.0664 3.87248 22.9856 3.7696C23.1289 4.02885 23.3541 4.32104 23.481 4.57618C22.9324 4.22227 21.8967 3.6626 21.2213 3.7696C21.2213 4.24696 21.5897 4.7696 21.8394 5.16054C21.0576 4.82721 20.2716 4.04532 19.371 4.02885C19.5839 4.27165 19.8909 4.46918 20.1037 4.7161C19.5184 4.7161 17.8359 3.80663 17.3365 4.22227C16.9926 4.51034 17.4224 4.89305 17.4674 5.29223C17.1031 5.11527 15.8668 4.284 15.437 4.65437C15.0686 4.96713 15.9119 5.60499 15.9978 5.99182C15.3838 5.87248 14.8434 5.44038 14.1844 5.49799C14.2662 5.7984 14.5528 6.02885 14.7247 6.30869C14.3236 6.27577 13.9674 5.97947 13.5499 6.08647C13.5171 6.30869 13.5294 6.54326 13.5785 6.75725C13.3984 6.69141 13.1773 6.58441 12.9727 6.51445C13.0709 6.79017 13.2879 7.04532 13.337 7.32927C13.3001 7.3375 13.2633 7.34573 13.2265 7.34984C13.3616 7.6091 13.4762 7.91363 13.4639 8.20993C13.3656 8.13174 13.1978 8.11116 13.1037 8.04532C13.0341 8.53503 13.1732 9.06178 13.1487 9.56383C13.1159 9.59264 13.03 9.57206 12.9849 9.5803C13.1077 9.66672 13.1487 9.78606 13.2633 9.87659C13.2306 9.88894 13.1978 9.89717 13.1651 9.90128C13.3779 10.3128 13.4639 11.0659 13.1487 11.4445C13.1773 11.2634 13.2592 11.1194 13.3452 10.9712" fill="#963209"/>
<path d="M33.5309 16.856L31.7543 16.2964V16.3458C27.7957 15.1565 24.2957 16.3622 24.2957 16.3622C24.2957 16.3622 24.2957 16.3663 24.2916 16.3663C23.2723 16.605 22.3349 16.4939 21.7781 16.3787C21.6635 16.3458 21.4875 16.2923 21.25 16.2388C20.0793 15.963 17.5249 15.5515 14.7003 16.3375V16.3046L12.9441 16.6462V18.1894L14.4424 18.6174C14.6962 20.2552 15.6623 22.1606 18.8307 21.8272C18.8307 21.8272 22.0401 21.4898 22.1547 18.2223C22.1547 18.2223 22.1711 17.996 22.1588 17.6791C23.0308 16.8519 23.7635 17.4445 24.0583 17.7655C24.0542 18.0001 24.0665 18.1565 24.0665 18.1565C24.1811 21.4281 27.3905 21.7614 27.3905 21.7614C30.473 22.0865 31.4718 20.2923 31.7584 18.6832L33.49 18.3951L33.5309 16.856ZM21.4343 18.3416C21.3401 21.0124 18.7161 21.2881 18.7161 21.2881C14.2868 21.7532 15.1301 16.8684 15.1301 16.8684C18.3763 15.8849 21.246 16.8766 21.246 16.8766C21.4998 17.498 21.4343 18.3416 21.4343 18.3416ZM27.501 21.2223C27.501 21.2223 24.877 20.9466 24.7869 18.2758C24.7869 18.2758 24.7214 17.4322 24.9752 16.8108C24.9752 16.8108 27.8449 15.819 31.0911 16.8025C31.087 16.8025 31.9303 21.6873 27.501 21.2223Z" fill="#003A54"/>
</svg>
