<svg  class="w100" width="85" height="20" viewBox="0 0 85 20" fill="none" xmlns="http://www.w3.org/2000/svg">
                        <g clip-path="url(#clip0_42_52)">
                        <path d="M6.66667 17.9111C2.88889 17.2444 0 13.9556 0 10C0 5.6 3.6 2 8 2C12.4 2 16 5.6 16 10C16 13.9556 13.1111 17.2444 9.33333 17.9111L8.88889 17.5556H7.11111L6.66667 17.9111Z" fill="url(#paint0_linear_42_52)"/>
                        <path d="M11.1109 12.2222L11.4665 9.99997H9.33317V8.44442C9.33317 7.8222 9.55539 7.33331 10.5332 7.33331H11.5554V5.28886C10.9776 5.19997 10.3554 5.11108 9.77762 5.11108C7.95539 5.11108 6.6665 6.2222 6.6665 8.2222V9.99997H4.6665V12.2222H6.6665V17.8666C7.11095 17.9555 7.55539 18 7.99984 18C8.44428 18 8.88873 17.9555 9.33317 17.8666V12.2222H11.1109Z" fill="white"/>
                        </g>
                        <path d="M26.4746 5.04688V15H25.1553V5.04688H26.4746ZM30.6445 9.52441V10.6045H26.1875V9.52441H30.6445ZM31.3213 5.04688V6.12695H26.1875V5.04688H31.3213ZM36.8311 13.7354V9.92773C36.8311 9.63607 36.7718 9.38314 36.6533 9.16895C36.5394 8.9502 36.3662 8.78158 36.1338 8.66309C35.9014 8.5446 35.6143 8.48535 35.2725 8.48535C34.9535 8.48535 34.6732 8.54004 34.4316 8.64941C34.1947 8.75879 34.0078 8.90234 33.8711 9.08008C33.7389 9.25781 33.6729 9.44922 33.6729 9.6543H32.4082C32.4082 9.38997 32.4766 9.12793 32.6133 8.86816C32.75 8.6084 32.946 8.3737 33.2012 8.16406C33.4609 7.94987 33.7708 7.78125 34.1309 7.6582C34.4954 7.5306 34.901 7.4668 35.3477 7.4668C35.8854 7.4668 36.3594 7.55794 36.7695 7.74023C37.1842 7.92253 37.5078 8.19824 37.7402 8.56738C37.9772 8.93197 38.0957 9.38997 38.0957 9.94141V13.3867C38.0957 13.6328 38.1162 13.8949 38.1572 14.1729C38.2028 14.4508 38.2689 14.6901 38.3555 14.8906V15H37.0361C36.9723 14.8542 36.9222 14.6605 36.8857 14.4189C36.8493 14.1729 36.8311 13.945 36.8311 13.7354ZM37.0498 10.5156L37.0635 11.4043H35.7852C35.4251 11.4043 35.1038 11.4339 34.8213 11.4932C34.5387 11.5479 34.3018 11.6322 34.1104 11.7461C33.9189 11.86 33.7731 12.0036 33.6729 12.1768C33.5726 12.3454 33.5225 12.5436 33.5225 12.7715C33.5225 13.0039 33.5749 13.2158 33.6797 13.4072C33.7845 13.5986 33.9417 13.7513 34.1514 13.8652C34.3656 13.9746 34.6276 14.0293 34.9375 14.0293C35.3249 14.0293 35.6667 13.9473 35.9629 13.7832C36.2591 13.6191 36.4938 13.4186 36.667 13.1816C36.8447 12.9447 36.9404 12.7145 36.9541 12.4912L37.4941 13.0996C37.4622 13.291 37.3757 13.5029 37.2344 13.7354C37.0931 13.9678 36.904 14.1911 36.667 14.4053C36.4346 14.6149 36.1566 14.7904 35.833 14.9316C35.514 15.0684 35.154 15.1367 34.7529 15.1367C34.2516 15.1367 33.8118 15.0387 33.4336 14.8428C33.0599 14.6468 32.7682 14.3848 32.5586 14.0566C32.3535 13.724 32.251 13.3525 32.251 12.9424C32.251 12.5459 32.3285 12.1973 32.4834 11.8965C32.6383 11.5911 32.8617 11.3382 33.1533 11.1377C33.445 10.9326 33.7959 10.7777 34.2061 10.6729C34.6162 10.568 35.0742 10.5156 35.5801 10.5156H37.0498ZM43.0449 14.0977C43.3457 14.0977 43.6237 14.0361 43.8789 13.9131C44.1341 13.79 44.3438 13.6214 44.5078 13.4072C44.6719 13.1885 44.7653 12.9401 44.7881 12.6621H45.9912C45.9684 13.0996 45.8203 13.5075 45.5469 13.8857C45.278 14.2594 44.9248 14.5625 44.4873 14.7949C44.0498 15.0228 43.569 15.1367 43.0449 15.1367C42.4889 15.1367 42.0036 15.0387 41.5889 14.8428C41.1787 14.6468 40.8369 14.3779 40.5635 14.0361C40.2946 13.6943 40.0918 13.3024 39.9551 12.8604C39.8229 12.4137 39.7568 11.9421 39.7568 11.4453V11.1582C39.7568 10.6615 39.8229 10.1921 39.9551 9.75C40.0918 9.30339 40.2946 8.90918 40.5635 8.56738C40.8369 8.22559 41.1787 7.95671 41.5889 7.76074C42.0036 7.56478 42.4889 7.4668 43.0449 7.4668C43.6237 7.4668 44.1296 7.58529 44.5625 7.82227C44.9954 8.05469 45.335 8.3737 45.5811 8.7793C45.8317 9.18034 45.9684 9.63607 45.9912 10.1465H44.7881C44.7653 9.84115 44.6787 9.56543 44.5283 9.31934C44.3825 9.07324 44.182 8.87728 43.9268 8.73145C43.6761 8.58105 43.3822 8.50586 43.0449 8.50586C42.6576 8.50586 42.3317 8.58333 42.0674 8.73828C41.8076 8.88867 41.6003 9.09375 41.4453 9.35352C41.2949 9.60872 41.1855 9.89355 41.1172 10.208C41.0534 10.5179 41.0215 10.8346 41.0215 11.1582V11.4453C41.0215 11.7689 41.0534 12.0879 41.1172 12.4023C41.181 12.7168 41.2881 13.0016 41.4385 13.2568C41.5934 13.512 41.8008 13.7171 42.0605 13.8721C42.3249 14.0225 42.653 14.0977 43.0449 14.0977ZM50.4824 15.1367C49.9674 15.1367 49.5003 15.0501 49.0811 14.877C48.6663 14.6992 48.3086 14.4508 48.0078 14.1318C47.7116 13.8128 47.4837 13.4346 47.3242 12.9971C47.1647 12.5596 47.085 12.0811 47.085 11.5615V11.2744C47.085 10.6729 47.1738 10.1374 47.3516 9.66797C47.5293 9.19401 47.7708 8.79297 48.0762 8.46484C48.3815 8.13672 48.7279 7.88835 49.1152 7.71973C49.5026 7.55111 49.9036 7.4668 50.3184 7.4668C50.847 7.4668 51.3027 7.55794 51.6855 7.74023C52.0729 7.92253 52.3896 8.17773 52.6357 8.50586C52.8818 8.82943 53.0641 9.21224 53.1826 9.6543C53.3011 10.0918 53.3604 10.5703 53.3604 11.0898V11.6572H47.8369V10.625H52.0957V10.5293C52.0775 10.2012 52.0091 9.88216 51.8906 9.57227C51.7767 9.26237 51.5944 9.00716 51.3438 8.80664C51.0931 8.60612 50.7513 8.50586 50.3184 8.50586C50.0312 8.50586 49.7669 8.56738 49.5254 8.69043C49.2839 8.80892 49.0765 8.98665 48.9033 9.22363C48.7301 9.46061 48.5957 9.75 48.5 10.0918C48.4043 10.4336 48.3564 10.8278 48.3564 11.2744V11.5615C48.3564 11.9124 48.4043 12.2428 48.5 12.5527C48.6003 12.8581 48.7438 13.127 48.9307 13.3594C49.1221 13.5918 49.3522 13.7741 49.6211 13.9062C49.8945 14.0384 50.2044 14.1045 50.5508 14.1045C50.9974 14.1045 51.3757 14.0133 51.6855 13.8311C51.9954 13.6488 52.2666 13.4049 52.499 13.0996L53.2646 13.708C53.1051 13.9495 52.9023 14.1797 52.6562 14.3984C52.4102 14.6172 52.1071 14.7949 51.7471 14.9316C51.3916 15.0684 50.9701 15.1367 50.4824 15.1367ZM54.8301 4.5H56.1016V13.5645L55.9922 15H54.8301V4.5ZM61.0986 11.2402V11.3838C61.0986 11.9215 61.0348 12.4206 60.9072 12.8809C60.7796 13.3366 60.5928 13.7331 60.3467 14.0703C60.1006 14.4076 59.7998 14.6696 59.4443 14.8564C59.0889 15.0433 58.681 15.1367 58.2207 15.1367C57.7513 15.1367 57.3389 15.057 56.9834 14.8975C56.6325 14.7334 56.3363 14.4987 56.0947 14.1934C55.8532 13.888 55.6595 13.5189 55.5137 13.0859C55.3724 12.653 55.2744 12.1654 55.2197 11.623V10.9941C55.2744 10.4473 55.3724 9.95736 55.5137 9.52441C55.6595 9.09147 55.8532 8.72233 56.0947 8.41699C56.3363 8.1071 56.6325 7.8724 56.9834 7.71289C57.3343 7.54883 57.7422 7.4668 58.207 7.4668C58.6719 7.4668 59.0843 7.55794 59.4443 7.74023C59.8044 7.91797 60.1051 8.17318 60.3467 8.50586C60.5928 8.83854 60.7796 9.2373 60.9072 9.70215C61.0348 10.1624 61.0986 10.6751 61.0986 11.2402ZM59.8271 11.3838V11.2402C59.8271 10.8711 59.793 10.5247 59.7246 10.2012C59.6562 9.87305 59.5469 9.58594 59.3965 9.33984C59.2461 9.08919 59.0479 8.89323 58.8018 8.75195C58.5557 8.60612 58.2526 8.5332 57.8926 8.5332C57.5736 8.5332 57.2956 8.58789 57.0586 8.69727C56.8262 8.80664 56.6279 8.95475 56.4639 9.1416C56.2998 9.32389 56.1654 9.53353 56.0605 9.77051C55.9603 10.0029 55.8851 10.2445 55.835 10.4951V12.1426C55.9079 12.4616 56.0264 12.7692 56.1904 13.0654C56.359 13.3571 56.5824 13.5964 56.8604 13.7832C57.1429 13.9701 57.4915 14.0635 57.9062 14.0635C58.248 14.0635 58.5397 13.9951 58.7812 13.8584C59.0273 13.7171 59.2256 13.5234 59.376 13.2773C59.5309 13.0312 59.6449 12.7464 59.7178 12.4229C59.7907 12.0993 59.8271 11.7529 59.8271 11.3838ZM62.3633 11.3838V11.2266C62.3633 10.6934 62.4408 10.1989 62.5957 9.74316C62.7507 9.28288 62.974 8.88411 63.2656 8.54688C63.5573 8.20508 63.9105 7.94076 64.3252 7.75391C64.7399 7.5625 65.2048 7.4668 65.7197 7.4668C66.2393 7.4668 66.7064 7.5625 67.1211 7.75391C67.5404 7.94076 67.8958 8.20508 68.1875 8.54688C68.4837 8.88411 68.7093 9.28288 68.8643 9.74316C69.0192 10.1989 69.0967 10.6934 69.0967 11.2266V11.3838C69.0967 11.917 69.0192 12.4115 68.8643 12.8672C68.7093 13.3229 68.4837 13.7217 68.1875 14.0635C67.8958 14.4007 67.5426 14.665 67.1279 14.8564C66.7178 15.0433 66.2529 15.1367 65.7334 15.1367C65.2139 15.1367 64.7467 15.0433 64.332 14.8564C63.9173 14.665 63.5618 14.4007 63.2656 14.0635C62.974 13.7217 62.7507 13.3229 62.5957 12.8672C62.4408 12.4115 62.3633 11.917 62.3633 11.3838ZM63.6279 11.2266V11.3838C63.6279 11.7529 63.6712 12.1016 63.7578 12.4297C63.8444 12.7533 63.9743 13.0404 64.1475 13.291C64.3252 13.5417 64.5462 13.7399 64.8105 13.8857C65.0749 14.027 65.3825 14.0977 65.7334 14.0977C66.0798 14.0977 66.3828 14.027 66.6426 13.8857C66.9069 13.7399 67.1257 13.5417 67.2988 13.291C67.472 13.0404 67.6019 12.7533 67.6885 12.4297C67.7796 12.1016 67.8252 11.7529 67.8252 11.3838V11.2266C67.8252 10.862 67.7796 10.5179 67.6885 10.1943C67.6019 9.86621 67.4697 9.57682 67.292 9.32617C67.1188 9.07096 66.9001 8.87044 66.6357 8.72461C66.376 8.57878 66.0706 8.50586 65.7197 8.50586C65.3734 8.50586 65.068 8.57878 64.8037 8.72461C64.5439 8.87044 64.3252 9.07096 64.1475 9.32617C63.9743 9.57682 63.8444 9.86621 63.7578 10.1943C63.6712 10.5179 63.6279 10.862 63.6279 11.2266ZM70.3477 11.3838V11.2266C70.3477 10.6934 70.4251 10.1989 70.5801 9.74316C70.735 9.28288 70.9583 8.88411 71.25 8.54688C71.5417 8.20508 71.8949 7.94076 72.3096 7.75391C72.7243 7.5625 73.1891 7.4668 73.7041 7.4668C74.2236 7.4668 74.6908 7.5625 75.1055 7.75391C75.5247 7.94076 75.8802 8.20508 76.1719 8.54688C76.4681 8.88411 76.6937 9.28288 76.8486 9.74316C77.0036 10.1989 77.0811 10.6934 77.0811 11.2266V11.3838C77.0811 11.917 77.0036 12.4115 76.8486 12.8672C76.6937 13.3229 76.4681 13.7217 76.1719 14.0635C75.8802 14.4007 75.527 14.665 75.1123 14.8564C74.7021 15.0433 74.2373 15.1367 73.7178 15.1367C73.1982 15.1367 72.7311 15.0433 72.3164 14.8564C71.9017 14.665 71.5462 14.4007 71.25 14.0635C70.9583 13.7217 70.735 13.3229 70.5801 12.8672C70.4251 12.4115 70.3477 11.917 70.3477 11.3838ZM71.6123 11.2266V11.3838C71.6123 11.7529 71.6556 12.1016 71.7422 12.4297C71.8288 12.7533 71.9587 13.0404 72.1318 13.291C72.3096 13.5417 72.5306 13.7399 72.7949 13.8857C73.0592 14.027 73.3669 14.0977 73.7178 14.0977C74.0641 14.0977 74.3672 14.027 74.627 13.8857C74.8913 13.7399 75.11 13.5417 75.2832 13.291C75.4564 13.0404 75.5863 12.7533 75.6729 12.4297C75.764 12.1016 75.8096 11.7529 75.8096 11.3838V11.2266C75.8096 10.862 75.764 10.5179 75.6729 10.1943C75.5863 9.86621 75.4541 9.57682 75.2764 9.32617C75.1032 9.07096 74.8844 8.87044 74.6201 8.72461C74.3604 8.57878 74.055 8.50586 73.7041 8.50586C73.3577 8.50586 73.0524 8.57878 72.7881 8.72461C72.5283 8.87044 72.3096 9.07096 72.1318 9.32617C71.9587 9.57682 71.8288 9.86621 71.7422 10.1943C71.6556 10.5179 71.6123 10.862 71.6123 11.2266ZM79.9385 4.5V15H78.667V4.5H79.9385ZM84.457 7.60352L81.2305 11.0557L79.4258 12.9287L79.3232 11.582L80.6152 10.0371L82.9121 7.60352H84.457ZM83.3018 15L80.6631 11.4727L81.3193 10.3447L84.792 15H83.3018Z" fill="#475569"/>
                        <defs>
                        <linearGradient id="paint0_linear_42_52" x1="8" y1="17.4462" x2="8" y2="2" gradientUnits="userSpaceOnUse">
                        <stop stop-color="#0062E0"/>
                        <stop offset="1" stop-color="#19AFFF"/>
                        </linearGradient>
                        <clipPath id="clip0_42_52">
                        <rect width="16" height="16" fill="white" transform="translate(0 2)"/>
                        </clipPath>
                        </defs>
                        </svg>