<svg width="366" height="269" viewBox="0 0 366 269" fill="none" xmlns="http://www.w3.org/2000/svg">
<path fill-rule="evenodd" clip-rule="evenodd" d="M244.767 2.90061C282.564 -5.56015 317.58 4.47812 336.401 33.1505C355.222 61.8228 350.298 107.32 346.221 127.403C342.144 147.486 331.802 165.88 318.966 181.849C295.125 211.51 262.907 234.208 226.889 246.46C190.872 258.713 151.766 261.225 114.232 255.027C93.176 251.55 27.3125 234.516 13.095 183.111C-1.12254 131.706 -10.1205 87.7707 20.6678 69.9238C51.456 52.077 72.7819 65.5 88.0237 72.1009C159.231 102.94 206.971 11.3614 244.767 2.90061Z" fill="url(#paint0_linear_709_289)"/>
<path fill-rule="evenodd" clip-rule="evenodd" d="M309.172 66.4855C315.338 66.0094 321.983 66.3174 327.008 69.9223C332.032 73.5273 334.314 81.4434 330.189 86.0498C334.853 84.2263 340.335 87.3191 342.671 91.7487C345.008 96.1783 344.885 101.486 344.183 106.444C342.442 118.724 337.436 130.525 329.817 140.312C329.466 141.343 329.116 142.375 328.766 143.407C337.772 145.728 372.938 159.386 363.436 193.054C353.935 226.722 312.438 239.536 308.191 243.566C300.787 250.589 289.487 251.069 279.287 250.746C254.209 249.95 229.207 246.763 204.73 241.241C202.649 240.772 200.013 240.486 198.814 242.25C190.131 255.016 171.975 256.157 156.577 255.046C136.797 253.618 117.131 250.618 97.826 246.084C86.8756 243.512 75.2472 239.93 68.4254 230.986C60.4726 220.56 61.391 206.103 62.6815 193.054C57.4543 195.96 48.7848 197.534 36.6728 197.776C29.5416 196.321 25.0933 193.736 23.328 190.021C15.2553 173.03 12.487 151.135 22.5397 134.387C23.7473 132.376 25.1406 130.393 27.107 129.113C29.1917 127.756 31.7332 127.309 34.2112 127.09C43.9847 126.224 54.0125 128.506 62.4497 133.514C62.3744 106.092 62.299 78.6698 62.2237 51.2477C62.2194 49.6773 62.2412 48.0109 63.0785 46.6824C64.2894 44.7607 66.77 44.1651 69.0027 43.7483C89.3133 39.9568 109.854 37.3997 130.475 36.0958C137.212 35.6698 146.433 37.5449 146.463 44.2958C146.581 70.1492 146.698 96.0026 146.816 121.856C146.844 128.009 147.239 127.495 150.122 125.712C148.31 125.9 148.714 122.826 150.088 121.629C155.214 117.159 162.686 116.995 169.487 117.064C184.7 117.22 199.913 117.376 215.127 117.531C229.867 117.682 247.544 119.551 254.217 132.695C254.024 128.789 257.564 125.103 261.475 125.139C265.74 125.178 269.307 121.478 270.552 117.398C271.797 113.318 271.248 108.935 270.688 104.706C263.811 98.047 262.01 86.7268 266.482 78.2624C270.954 69.7981 281.32 64.9057 290.697 66.834C296.754 68.0795 303.007 66.9617 309.172 66.4855ZM132.645 193.303C132.443 198.746 132.229 204.263 130.627 209.469L132.645 193.303ZM126.342 126.501C127.758 126.916 129.51 128.171 128.767 129.446C134.918 130.06 133.081 129.775 133.358 122.527C133.639 115.172 133.662 107.039 128.847 101.472C124.586 96.5464 117.637 95.0057 111.148 94.4517C103.573 93.805 95.9174 94.1157 88.4202 95.3741C84.7622 95.9881 80.7999 97.046 78.6771 100.088C77.489 101.79 77.0519 103.892 76.7029 105.939C75.3299 113.988 74.9012 122.198 75.4281 130.347C91.198 123.01 109.649 121.616 126.342 126.501ZM263.201 180.541C263.586 180.152 264.171 180.057 264.714 179.982C266.881 179.684 269.048 179.386 271.215 179.088C266.241 176.842 263.227 171.506 262.326 166.123C261.426 160.741 262.305 155.238 263.194 149.853C260.012 153.394 260.241 158.735 260.658 163.477C261.57 173.855 262.816 180.93 263.201 180.541ZM222.284 231.658C222.71 230.272 224.161 229.527 225.223 228.54C227.135 226.763 227.846 224.076 228.469 221.541C230.625 212.78 232.794 203.913 232.767 194.892C232.761 192.98 232.664 191.017 233.297 189.213C233.93 187.41 235.516 185.779 237.427 185.77C239.442 185.76 239.924 182.964 239.743 180.957C239.122 174.035 238.501 167.114 237.88 160.193C237.681 157.982 237.479 155.751 236.808 153.635C234.328 145.813 224.769 141.083 217.046 143.856C216.101 144.196 215.848 145.39 215.741 146.389C214.552 157.46 213.363 168.531 212.175 179.602C211.963 181.569 214.503 182.824 216.421 182.337C218.338 181.85 219.802 180.352 221.46 179.273C223.118 178.193 225.455 177.572 226.977 178.835C228.698 180.263 231.245 178.677 232.739 177.014C234.234 175.351 236.18 173.346 238.306 174.04C235.813 176.425 233.319 178.81 230.826 181.195C229.999 181.986 229.27 183.566 230.315 184.033C233.18 183.017 235.769 181.236 237.744 178.925C238.657 178.896 238.7 180.33 238.191 181.088C236.271 183.945 231.753 184.581 230.589 187.82C227.874 195.381 219.406 200.403 211.469 199.16C209.841 198.905 209.03 201.046 208.834 202.682C208.053 209.206 207.271 215.73 206.49 222.254C206.31 223.755 206.143 225.342 206.76 226.722C207.791 229.023 210.549 229.894 212.994 230.514C216.226 231.332 219.495 232.155 222.798 232.513C224.189 232.663 224.183 232.154 222.284 231.658ZM93.5347 219.697C98.1523 221.243 103.04 221.767 107.882 222.282C109.936 222.5 112.123 222.695 113.965 221.762C116.133 220.664 117.289 218.283 118.222 216.039C123.423 203.52 126.392 190.078 126.949 176.533C127.028 174.608 124.564 173.759 122.642 173.63C107.299 172.6 92.6249 179.344 78.7291 185.931C78.0631 186.247 77.3503 186.607 77.0212 187.266C76.7759 187.758 76.7887 188.334 76.807 188.883C77.0559 196.366 77.3699 204.117 80.7164 210.814C81.6202 212.623 82.7698 214.364 84.3975 215.563C85.3835 216.29 86.512 216.794 87.6309 217.293C89.5728 218.157 91.5191 219.022 93.5347 219.697ZM192.792 192.003C194.837 181.004 196.278 169.893 197.107 158.737C197.391 154.92 197.599 151.04 196.774 147.303C195.949 143.566 193.958 139.933 190.704 137.919C188.699 136.677 186.351 136.12 184.03 135.706C179.793 134.951 175.483 134.608 171.18 134.684C167.383 134.751 163.398 135.214 160.298 137.408C159.273 138.134 158.342 139.083 157.968 140.282C157.593 141.481 157.908 142.954 158.948 143.658C161.576 145.438 162.648 148.767 163.14 151.903C163.633 155.039 163.751 158.322 165.18 161.156C165.917 162.618 166.973 163.893 168.081 165.098C174.089 171.63 181.926 176.462 190.46 178.898C191.96 179.326 193.869 180.253 193.552 181.78C198.272 184.758 192.713 192.425 192.792 192.003ZM179.785 224.443C181.522 223.387 182.701 221.63 183.738 219.881C188.139 212.461 191.025 204.146 192.167 195.594C176.337 195.522 160.601 189.55 148.709 179.099C148.302 180.732 148.38 182.442 148.436 184.124C148.783 194.627 148.16 205.162 146.577 215.551C146.199 218.027 147.679 220.504 149.713 221.966C151.747 223.429 154.252 224.057 156.712 224.531C162.258 225.599 167.924 226.037 173.568 225.834C175.714 225.756 177.949 225.558 179.785 224.443ZM279.68 133.847C278.757 131.623 278.065 129.116 276.151 127.656C274.236 126.196 270.631 126.91 270.519 129.315C272.414 128.966 273.862 131.305 273.539 133.205C273.216 135.104 271.836 136.614 270.739 138.198C269.223 140.386 268.186 142.863 267.161 145.319C264.721 151.164 263.771 157.623 264.425 163.923C264.811 167.631 265.827 171.441 268.335 174.2C270.843 176.96 275.141 178.34 278.446 176.613C281.284 175.129 282.7 171.859 283.351 168.723C284.002 165.587 284.118 162.305 285.347 159.348C287.616 153.893 293.21 150.597 298.744 148.528C290.425 147.398 282.898 141.601 279.68 133.847ZM256.675 139.748C257.045 141.178 257.558 142.571 258.202 143.9C258.589 142.028 259.21 140.203 260.046 138.483C259.2 138.387 258.349 138.341 257.497 138.346C257.29 138.347 257.072 138.355 256.897 138.465C256.504 138.715 256.559 139.297 256.675 139.748ZM156.4 138.276C155.876 138.698 155.569 139.605 156.122 139.987C156.969 139.14 157.816 138.292 158.663 137.444C158.487 137.227 158.233 137.075 157.959 137.025C157.623 137.607 156.924 137.855 156.4 138.276Z" fill="white"/>
<path d="M303.049 132.201C304.858 132.201 306.325 130.735 306.325 128.926C306.325 127.117 304.858 125.65 303.049 125.65C301.24 125.65 299.773 127.117 299.773 128.926C299.773 130.735 301.24 132.201 303.049 132.201Z" fill="#FFB61D"/>
<path d="M284.287 128.926C285.274 128.926 286.073 128.126 286.073 127.139C286.073 126.152 285.274 125.352 284.287 125.352C283.3 125.352 282.5 126.152 282.5 127.139C282.5 128.126 283.3 128.926 284.287 128.926Z" fill="#FFB61D"/>
<path fill-rule="evenodd" clip-rule="evenodd" d="M115.1 81.9207C120.46 81.9547 125.82 81.9887 131.18 82.0227C131.431 82.0243 131.701 82.0318 131.903 82.1803C132.317 82.4838 132.152 83.1946 131.726 83.4808C131.3 83.7669 130.748 83.7547 130.236 83.7369C125.519 83.5732 120.787 83.8182 116.113 84.4683C115.402 84.5671 114.652 84.671 113.987 84.4007C113.322 84.1304 112.813 83.3343 113.119 82.685C113.439 82.0067 114.35 81.9159 115.1 81.9207ZM97.1755 81.3943C97.5151 81.7329 97.3524 82.3545 96.9751 82.6504C96.5977 82.9464 96.0923 83.0057 95.6152 83.054C90.8632 83.5351 86.1112 84.0163 81.3592 84.4974C80.7973 84.5543 80.2162 84.6094 79.6785 84.4364C79.1408 84.2633 78.6544 83.7984 78.6417 83.2337C78.6285 82.6511 79.1233 82.1564 79.6756 81.9704C80.2279 81.7845 80.8279 81.8366 81.4088 81.8823C86.2778 82.2654 91.1941 82.0445 96.0092 81.2263C96.4125 81.1577 96.8858 81.1055 97.1755 81.3943ZM96.5099 72.2727C96.865 72.5592 96.7386 73.1734 96.3823 73.4584C96.026 73.7434 95.5411 73.7907 95.0863 73.8266L79.8256 75.0306C79.2542 75.0757 78.6624 75.1182 78.1235 74.9232C77.5846 74.7283 77.112 74.2263 77.1429 73.654C77.1742 73.0743 77.7096 72.6246 78.2738 72.4877C78.838 72.3508 79.4287 72.4531 80.0031 72.538C85.1825 73.3035 90.4493 72.6055 95.6635 72.1314C95.956 72.1048 96.2813 72.0883 96.5099 72.2727ZM117.823 69.2491C121.007 69.6559 124.235 69.7178 127.433 69.4333C128.704 69.3202 130.241 69.2672 130.963 70.3193C130.106 71.0123 128.928 71.1107 127.827 71.18C124.181 71.4099 120.535 71.6397 116.888 71.8695C116.057 71.9219 115.02 71.859 114.677 71.0992C114.37 70.4174 114.911 69.5975 115.606 69.3214C116.301 69.0452 117.081 69.1544 117.823 69.2491ZM90.3138 65.3506C90.3176 65.9014 89.6275 66.139 89.0826 66.2189L81.0686 67.3935C80.4966 67.4773 79.9056 67.5603 79.3471 67.4111C78.7885 67.262 78.2662 66.8176 78.214 66.2418C78.1501 65.537 78.8118 64.9421 79.5027 64.7886C80.1936 64.635 80.9094 64.7956 81.6113 64.8861C84.032 65.1979 86.4739 64.666 88.9131 64.5822C89.51 64.5617 90.3095 64.7534 90.3138 65.3506ZM128.982 63.4324C129.602 63.5017 130.238 63.8716 130.404 64.4731C129.303 65.3059 127.848 65.4575 126.472 65.5794C124.118 65.7881 121.764 65.9967 119.41 66.2054C118.581 66.2789 117.752 66.3524 116.922 66.4259C116.316 66.4796 115.685 66.5303 115.116 66.3151C114.546 66.0999 114.06 65.5348 114.145 64.932C114.278 63.9821 115.525 63.7355 116.484 63.7561C120.043 63.8326 123.646 64.3696 127.132 63.6533C127.743 63.5277 128.362 63.363 128.982 63.4324ZM132.108 54.4466C114.665 56.7985 96.7817 55.5807 79.5791 59.3014C78.5589 59.5221 77.1349 59.533 76.8711 58.523C76.8948 57.333 78.4339 56.9035 79.6211 56.8189C96.3559 55.6254 113.091 54.4319 129.825 53.2384C130.807 53.1684 132.185 53.4653 132.108 54.4466Z" fill="#E7EAEE"/>
<path fill-rule="evenodd" clip-rule="evenodd" d="M70.7504 235.253C70.9327 237.363 68.0238 238.078 65.9057 238.086C54.8975 238.13 43.9004 240.172 33.6102 244.083C32.0398 244.68 30.3591 245.431 29.5947 246.927C28.5827 248.908 29.6873 251.444 31.4778 252.764C33.2683 254.084 35.5537 254.487 37.7493 254.844C94.8219 264.137 152.743 268.211 210.555 266.998L211.484 266.977C218.152 266.823 224.956 266.465 231.065 263.825C226.008 260.281 220.951 256.737 215.895 253.192C224.648 251.444 233.68 252.69 242.563 253.566C262.895 255.573 283.42 255.614 303.759 253.689C302.327 255.977 299.179 256.294 296.481 256.352C270.896 256.903 245.28 255.994 219.799 253.631C223.124 255.819 226.448 258.007 229.773 260.195C230.977 260.988 232.31 261.994 232.38 263.435C232.484 265.599 229.825 266.68 227.686 267.033C220.59 268.205 213.372 268.392 206.181 268.497C150.019 269.318 93.7869 265.3 38.3123 256.5C35.6055 256.071 32.8008 255.592 30.5437 254.037C28.2867 252.482 26.748 249.526 27.6964 246.954C28.6398 244.397 31.51 243.196 34.1015 242.349C45.9603 238.476 58.3029 236.086 70.7504 235.253ZM146.464 44.2958C146.581 70.1492 146.699 96.0026 146.816 121.856C146.844 128.009 148.057 135.796 154.007 137.363C162.23 133.567 171.498 132.067 180.499 133.077C185.651 133.655 191.001 135.212 194.489 139.048C199.274 144.31 199.281 152.234 198.767 159.328C197.726 173.706 195.675 188.011 192.635 202.102C195.05 201.95 197.514 202.919 199.178 204.676C196.615 205.849 193.562 205.898 190.962 204.808C192.748 214.486 184.863 224.035 175.42 226.807C165.977 229.58 155.73 226.966 146.85 222.722C146.017 225.965 150.356 227.871 153.668 228.36C162.076 229.603 170.484 230.846 178.892 232.088C168.509 232.4 158.091 231.55 147.895 229.559C146.017 232.218 150.269 234.903 153.482 235.423C162.005 236.802 170.527 238.181 179.05 239.561C169.424 239.496 159.801 238.855 150.252 237.64C156.325 243.118 164.615 246.064 172.783 245.645C168.176 247.161 163.057 247.07 158.506 245.391C164.199 253.015 175.846 254.427 184.352 250.163C192.858 245.899 198.412 237.175 201.129 228.056C203.846 218.937 204.11 209.299 204.591 199.796C205.48 182.255 207.178 164.737 210.251 147.444C212.32 135.799 217.403 121.914 229.116 120.269C208.249 119.307 187.362 118.788 166.474 118.713C160.127 118.69 152.242 119.729 150.123 125.712C148.31 125.9 148.715 122.826 150.088 121.629C155.215 117.159 162.686 116.995 169.488 117.064L215.127 117.531C229.868 117.682 247.544 119.551 254.218 132.695C254.024 128.789 257.565 125.103 261.476 125.139C265.741 125.178 269.308 121.478 270.553 117.398C271.798 113.318 271.249 108.935 270.688 104.706C263.811 98.047 262.011 86.7268 266.483 78.2624C267.748 75.8684 269.617 70.1599 280.054 66.4855C287.013 64.036 293.891 64.3053 300.689 67.2935C313.456 64.8248 322.229 65.7011 327.008 69.9223C334.177 76.2542 334.315 81.4434 330.189 86.0498C334.854 84.2263 340.335 87.3191 342.672 91.7487C345.008 96.1783 344.886 101.486 344.183 106.444C342.442 118.724 337.436 130.525 329.817 140.312L328.767 143.407C347.198 148.159 362.108 164.449 365.213 183.228C359.085 169.416 350.79 154.789 336.497 149.885C333.273 153.268 329.956 156.798 328.442 161.22C326.927 165.641 327.745 171.228 331.586 173.892C329.174 174.451 326.762 175.01 324.35 175.569C325.153 176.993 325.956 178.417 326.758 179.841C317.644 186.77 316.595 199.876 316.651 211.325C316.706 222.774 316.497 235.686 308.191 243.566C300.788 250.589 289.488 251.069 279.288 250.746C254.209 249.95 229.207 246.763 204.731 241.241C202.65 240.772 200.014 240.486 198.814 242.25C190.132 255.016 171.976 256.157 156.577 255.046C136.798 253.618 117.132 250.618 97.8266 246.084C86.8762 243.512 75.2478 239.93 68.426 230.986C60.4732 220.56 61.3916 206.103 62.682 193.054C54.8413 197.413 45.5461 199.101 36.6734 197.776C46.0262 191.661 50.5617 179.963 50.6469 168.789C50.7321 157.615 47.0023 146.785 42.8528 136.409C33.71 141.712 28.8996 152.89 29.6149 163.435C30.3303 173.98 35.9252 183.768 43.432 191.209C34.1782 185.369 28.0549 174.847 27.5481 163.917C27.0412 152.986 32.1647 141.943 40.8384 135.272C39.4524 130.532 32.3017 129.953 28.554 133.169C24.8062 136.385 23.6301 141.604 22.666 146.448C20.8847 155.397 19.0961 164.555 20.3903 173.588C21.6846 182.62 26.6741 191.662 35.0351 195.317C31.1277 198.133 25.9235 194.079 23.3285 190.021C12.8054 173.565 12.4876 151.135 22.5403 134.387C23.7479 132.376 25.1412 130.393 27.1076 129.113C29.1923 127.756 31.7338 127.309 34.2118 127.09C43.9853 126.224 54.0131 128.506 62.4503 133.514C62.3749 106.092 62.2996 78.6698 62.2242 51.2477C62.2199 49.6773 62.2418 48.0109 63.079 46.6824C64.29 44.7607 66.7705 44.1651 69.0033 43.7483C89.3139 39.9568 109.855 37.3997 130.475 36.0958C137.213 35.6698 146.433 37.5449 146.464 44.2958ZM132.692 37.748C110.83 38.7771 89.0467 41.4797 67.5958 45.8243C66.6829 46.0092 65.7162 46.2251 65.0526 46.8787C64.1486 47.7691 64.0787 49.18 64.0668 50.4488C63.8107 77.7538 63.919 105.062 64.3917 132.364C67.0168 131.71 69.6419 131.055 72.267 130.401C71.2409 124.798 70.2103 119.12 70.6491 113.442C71.0879 107.763 73.1718 101.988 77.458 98.2371C82.097 94.1777 88.5707 93.0307 94.7199 92.5989C100.633 92.1837 106.582 92.2799 112.479 92.886C118.499 93.5048 124.84 94.8414 129.182 99.0554C135.455 105.143 135.557 115.004 135.232 123.739C134.37 146.927 133.508 170.115 132.646 193.303C132.443 198.746 132.229 204.263 130.627 209.469C129.025 214.675 125.846 219.622 121.035 222.177C116.315 224.684 110.666 224.613 105.355 224.01C100.285 223.433 95.2636 222.428 90.3622 221.008C87.3848 220.146 84.4058 219.107 81.8755 217.317C73.5026 211.391 72.5127 199.568 72.3094 189.313C69.0944 188.732 65.9515 191.179 64.624 194.164C63.2966 197.149 63.3554 200.541 63.4378 203.807C63.6435 211.954 63.961 220.507 68.1198 227.515C74.5363 238.328 88.0141 242.323 100.32 244.905C122.161 249.488 144.337 252.477 166.613 253.84C156.672 248.776 147.858 240.11 145.761 229.153C145.191 226.176 145.13 223.129 145.071 220.099C143.91 160.852 142.749 101.604 141.589 42.3571C141.515 38.6103 136.436 37.5718 132.692 37.748ZM217.441 135.021C216.888 136.369 216.486 137.866 216.855 139.276C217.223 140.686 218.593 141.918 220.031 141.678C226.471 140.606 233.413 143.778 236.817 149.348C239.626 153.945 240.016 159.568 240.332 164.946L243.212 213.929C243.52 219.164 243.672 224.924 240.419 229.036C236.198 234.371 228.272 234.549 221.501 233.887C215.914 233.341 210.037 232.411 205.699 228.848C205.853 230.922 205.249 233.044 204.025 234.726C202.515 236.801 204.953 239.533 207.325 240.514C210.222 241.713 213.372 242.13 216.482 242.534C230.723 244.382 244.973 246.165 259.23 247.881C270.204 249.202 281.354 250.481 292.265 248.708C285.362 246.772 278.758 243.778 272.752 239.864C269.755 237.912 266.857 235.681 264.814 232.746C261.477 227.955 260.775 221.866 260.219 216.054C258.569 198.772 257.34 181.449 256.535 164.107C255.941 151.315 251.84 138.704 244.795 128.01C243.536 126.098 241.995 124.114 239.768 123.582C230.913 121.465 220.896 126.598 217.441 135.021ZM176.84 245.714C177.592 245.842 178.362 246.01 178.982 246.454C179.601 246.898 180.033 247.687 179.842 248.424C179.651 249.162 178.678 249.647 178.063 249.198C177.384 248.702 176.481 248.684 175.672 248.456C174.863 248.227 174.015 247.555 174.161 246.727C174.345 245.678 175.79 245.536 176.84 245.714ZM145.657 246.026C146.589 246.219 147.68 246.884 147.489 247.816C147.321 248.639 146.303 248.913 145.471 249.024C144.539 249.148 143.544 249.264 142.697 248.854C141.85 248.444 141.301 247.287 141.857 246.528C142.231 246.016 142.932 245.88 143.566 245.854C144.267 245.825 144.971 245.883 145.657 246.026ZM201.408 235.662C200.524 236.3 199.916 237.24 199.292 238.134C196.447 242.211 192.841 245.754 188.716 248.527C188.819 248.965 189.475 248.854 189.863 248.629C194.64 245.861 198.049 241.289 201.321 236.842C201.588 236.478 201.809 235.869 201.408 235.662ZM244.121 125.543C246.67 128.552 249.238 131.59 251.102 135.065C253.124 138.833 254.259 143.007 255.173 147.184C260.288 170.547 258.923 194.836 262.237 218.522C262.835 222.795 263.626 227.16 265.85 230.859C268.455 235.191 272.778 238.195 277.183 240.677C280.745 242.684 284.463 244.446 288.376 245.635C294.597 247.526 302.071 247.658 306.84 243.238C309.518 240.756 310.926 237.215 312.027 233.733C316.743 218.811 317.261 202.586 313.508 187.392C313.602 196.479 314.782 205.545 314.512 214.628C314.242 223.711 312.377 233.065 307.038 240.418C305.98 241.875 304.754 243.273 303.156 244.101C301.051 245.191 298.55 245.17 296.196 244.883C292.086 244.381 288.067 243.139 284.39 241.234C281.597 239.788 279.012 237.97 276.509 236.066C273.598 233.852 270.741 231.468 268.701 228.434C266.68 225.426 265.554 221.912 264.66 218.4C258.136 192.756 262.801 165.094 255.059 139.791C253.234 133.828 250.065 127.43 244.121 125.543ZM88.4688 238.358C103.531 240.683 118.593 243.008 133.655 245.333C133.273 246.329 131.896 246.364 130.838 246.223C117.957 244.502 105.076 242.781 92.1946 241.06C90.7384 240.866 89.2822 240.671 87.826 240.477C87.1348 240.384 86.2766 240.134 86.1892 239.442C86.0661 238.467 87.4975 238.208 88.4688 238.358ZM263.194 149.853C260.013 153.394 260.242 158.735 260.659 163.477C261.571 173.855 262.483 184.233 263.395 194.611C263.437 195.096 263.49 195.608 263.774 196.003C264.24 196.65 265.141 196.763 265.936 196.819C276.765 197.582 287.594 198.345 298.423 199.108C297.613 200.388 295.788 200.407 294.278 200.29C284.083 199.503 273.847 199.248 263.626 199.527C263.45 204.768 264.222 210.041 265.895 215.011C266.62 217.166 269.411 217.625 271.683 217.717C280.344 218.068 289.006 218.418 297.668 218.769C298.066 219.666 296.667 220.227 295.685 220.215C286.782 220.113 277.878 220.011 268.975 219.908C267.756 219.894 267.315 221.622 267.774 222.752C268.975 225.704 272.799 226.34 275.98 226.539L295.885 227.785C296.34 227.814 296.434 228.528 296.103 228.84C295.771 229.151 295.265 229.16 294.81 229.15L271.504 228.656C277.53 235.828 285.982 240.924 295.137 242.906C297.11 243.333 299.202 243.613 301.118 242.981C303.412 242.223 305.103 240.276 306.427 238.256C313.449 227.543 312.982 213.759 312.264 200.969L311.451 186.473C311.735 186.083 312.319 185.947 312.746 186.173C312.91 185.463 311.986 185.041 311.269 184.909C295.427 181.999 279.172 179.085 263.318 181.927C262.811 181.719 262.816 180.93 263.202 180.541C263.587 180.152 264.171 180.057 264.714 179.982C266.881 179.684 269.048 179.386 271.215 179.088C266.242 176.842 263.228 171.506 262.327 166.123C261.426 160.741 262.306 155.238 263.194 149.853ZM185.336 237.978C186.747 238.24 188.376 238.671 188.927 239.997C187.356 241.067 185.293 240.958 183.398 240.806C182.877 240.764 182.307 240.701 181.941 240.328C181.293 239.667 181.776 238.45 182.61 238.049C183.444 237.647 184.426 237.808 185.336 237.978ZM77.875 228.294C94.1025 233.393 110.918 236.617 127.881 237.88C129.197 237.978 130.966 238.605 130.713 239.901C112.773 237.872 94.9431 234.873 77.3265 230.922C76.2023 230.67 74.76 229.87 75.1786 228.796C75.5465 227.853 76.9091 227.99 77.875 228.294ZM137.312 236.164C138.141 236.162 138.941 236.446 139.715 236.741C140.109 236.891 140.542 237.084 140.695 237.477C141.021 238.314 139.866 238.912 138.982 239.073C138.387 239.181 137.792 239.289 137.198 239.397C136.696 239.488 136.155 239.574 135.694 239.358C134.943 239.006 134.748 237.924 135.179 237.215C135.609 236.507 136.483 236.166 137.312 236.164ZM213.727 234.375C220.905 235.74 228.257 235.818 235.563 235.891C236.129 235.896 236.281 236.786 235.877 237.182C235.473 237.578 234.843 237.595 234.278 237.584C227.457 237.45 220.628 236.731 213.827 237.267C213.087 237.325 212.318 237.395 211.623 237.134C210.928 236.874 210.335 236.171 210.467 235.441C210.581 234.811 211.195 234.369 211.823 234.248C212.451 234.126 213.098 234.255 213.727 234.375ZM229.943 121.848C221.816 123.062 214.988 130.295 214.245 138.479C213.551 146.122 211.441 153.555 209.939 161.082C205.116 185.251 206.579 210.3 202.315 234.574C203.873 231.738 204.293 228.438 204.685 225.226L215.024 140.553C215.299 138.301 215.581 136.022 216.39 133.901C218.602 128.106 224.319 124.465 229.943 121.848ZM192.99 231.513C193.432 231.654 193.886 231.838 194.181 232.197C194.476 232.556 194.55 233.135 194.228 233.47C193.984 233.722 193.603 233.767 193.254 233.798C192.112 233.899 190.97 234 189.827 234.101C189.211 234.155 188.573 234.208 187.986 234.013C187.398 233.818 186.868 233.309 186.851 232.69C186.822 231.642 188.116 231.115 189.162 231.047C190.452 230.963 191.758 231.121 192.99 231.513ZM217.047 143.856C216.101 144.196 215.849 145.39 215.741 146.389L212.175 179.602C211.964 181.569 214.504 182.824 216.421 182.337C218.339 181.85 219.803 180.352 221.46 179.273C223.118 178.193 225.455 177.572 226.978 178.835C228.698 180.263 231.245 178.677 232.74 177.014C234.235 175.351 236.181 173.346 238.307 174.04C235.813 176.425 233.32 178.81 230.826 181.195C229.999 181.986 229.27 183.566 230.315 184.033C233.18 183.017 235.77 181.236 237.745 178.925C238.658 178.896 238.701 180.33 238.191 181.088C236.271 183.945 231.753 184.581 230.59 187.82C227.875 195.381 219.407 200.403 211.47 199.16C209.842 198.905 209.03 201.046 208.834 202.682C208.053 209.206 207.272 215.73 206.491 222.254C206.311 223.755 206.143 225.342 206.761 226.722C207.792 229.023 210.55 229.894 212.995 230.514C217.587 231.677 222.255 232.849 226.989 232.682C231.724 232.514 236.619 230.822 239.617 227.154C238.787 226.075 236.938 227.458 235.729 226.834C234.546 226.224 235.174 224.192 236.444 223.792C237.714 223.393 239.055 224.028 240.234 224.645C240.975 223.2 241.737 221.652 241.584 220.035C241.432 218.418 239.948 216.819 238.364 217.182C237.324 217.421 236.9 215.618 237.739 214.958C238.578 214.298 239.783 214.512 240.821 214.759C240.879 210.856 240.937 206.953 240.994 203.05C241.006 202.253 241.009 201.417 240.631 200.715C240.253 200.014 239.358 199.523 238.64 199.869C237.662 200.34 236.814 198.674 237.469 197.808C238.123 196.942 239.359 196.83 240.444 196.792C240.528 193.326 240.304 189.852 239.775 186.425C235.69 188.472 234.976 193.874 234.564 198.425C233.773 207.152 232.184 215.807 229.821 224.246C229.292 226.136 228.696 228.069 227.459 229.594C226.222 231.118 224.184 232.154 222.284 231.658C222.71 230.272 224.161 229.527 225.224 228.54C227.136 226.763 227.846 224.076 228.47 221.541C230.626 212.78 232.795 203.913 232.767 194.892L232.764 194.287C232.749 192.569 232.731 190.827 233.298 189.213C233.93 187.41 235.516 185.779 237.428 185.77C239.443 185.76 239.924 182.964 239.744 180.957C239.123 174.035 238.501 167.114 237.88 160.193C237.682 157.982 237.479 155.751 236.808 153.635C234.328 145.813 224.77 141.083 217.047 143.856ZM247.458 228.27C248.406 228.525 249.325 229.499 248.931 230.397C248.555 231.255 247.375 231.302 246.442 231.214C245.986 231.171 245.5 231.116 245.144 230.828C244.519 230.323 244.607 229.252 245.192 228.701C245.777 228.151 246.682 228.062 247.458 228.27ZM133.625 227.311C134.248 227.446 134.898 227.628 135.346 228.081C135.793 228.535 135.942 229.344 135.496 229.8C135.133 230.173 134.546 230.18 134.025 230.161C133.276 230.135 132.528 230.109 131.779 230.083C131.346 230.067 130.882 230.042 130.534 229.783C129.79 229.23 130.117 227.934 130.915 227.464C131.714 226.994 132.719 227.115 133.625 227.311ZM75.9438 220.519C80.1346 222.468 84.7389 223.318 89.2921 224.111C98.5094 225.717 107.754 227.164 117.022 228.45C118.318 228.629 119.755 228.884 120.545 229.928C116.956 230.173 113.369 229.575 109.822 228.98C98.128 227.016 86.4339 225.052 74.7399 223.089C73.5141 222.883 71.9315 222.202 72.1702 220.982C72.4532 219.536 74.6079 219.898 75.9438 220.519ZM148.71 179.099C148.303 180.732 148.381 182.442 148.436 184.124C148.784 194.627 148.16 205.162 146.577 215.551C146.2 218.027 147.68 220.504 149.713 221.966C151.747 223.429 154.253 224.057 156.713 224.531C162.258 225.599 167.925 226.037 173.568 225.834C175.715 225.756 177.95 225.558 179.785 224.443C181.523 223.387 182.701 221.63 183.738 219.881C188.14 212.461 191.026 204.146 192.168 195.594C176.337 195.522 160.601 189.55 148.71 179.099ZM190.114 220.741C191.195 221.098 192.276 221.455 193.357 221.811C193.717 221.93 194.104 222.068 194.318 222.382C194.679 222.912 194.328 223.687 193.769 224.002C193.21 224.316 192.531 224.299 191.89 224.274C190.724 224.227 189.435 224.129 188.62 223.292C187.806 222.456 188.085 220.65 189.25 220.574C189.545 220.555 189.834 220.649 190.114 220.741ZM246.771 220.898C247.414 221.001 248.092 221.119 248.588 221.541C249.083 221.964 249.286 222.8 248.83 223.264C248.646 223.451 248.391 223.547 248.143 223.634C247.186 223.967 246.123 224.232 245.177 223.87C244.231 223.507 243.586 222.256 244.181 221.436C244.728 220.683 245.852 220.751 246.771 220.898ZM78.7296 185.931C78.0636 186.247 77.3509 186.607 77.0218 187.266C76.7764 187.758 76.7893 188.334 76.8076 188.883C77.0565 196.366 77.3704 204.117 80.717 210.814C81.6207 212.623 82.7704 214.364 84.398 215.563C85.384 216.29 86.5126 216.794 87.6315 217.293C89.5734 218.157 91.5196 219.022 93.5353 219.697C98.1529 221.243 103.04 221.767 107.883 222.282C109.936 222.5 112.123 222.695 113.965 221.762C116.134 220.664 117.289 218.283 118.222 216.039C123.423 203.52 126.393 190.078 126.949 176.533C127.028 174.608 124.564 173.759 122.642 173.63C107.299 172.6 92.6255 179.344 78.7296 185.931ZM129.332 175.99C128.938 176.508 128.889 177.201 128.85 177.85C127.932 193.168 124.12 208.307 117.674 222.233C123.815 219.125 128.391 213.089 129.726 206.336C130.184 204.015 130.278 201.639 130.371 199.274C130.663 191.818 130.955 184.361 131.247 176.905C131.262 176.512 131.265 176.08 131.015 175.776C130.601 175.274 129.726 175.472 129.332 175.99ZM131.876 213.299C132.655 213.341 133.387 213.665 134.145 213.853C134.823 214.022 135.028 214.988 134.649 215.576C134.271 216.163 133.54 216.419 132.848 216.516C132.126 216.617 131.348 216.579 130.727 216.197C130.106 215.814 129.702 215.016 129.951 214.329C130.216 213.595 131.096 213.257 131.876 213.299ZM247.218 211.274C247.946 211.425 248.571 211.876 249.171 212.316C249.497 212.555 249.843 212.823 249.95 213.213C250.086 213.71 249.758 214.245 249.306 214.493C248.854 214.741 248.312 214.759 247.798 214.718C247.068 214.659 246.314 214.478 245.763 213.996C245.212 213.513 244.932 212.666 245.275 212.019C245.624 211.361 246.489 211.123 247.218 211.274ZM73.8734 188.11C73.6741 188.465 73.7144 188.901 73.7603 189.306L74.843 198.838C75.4305 204.011 76.1999 209.586 79.8156 213.331C80.4184 213.046 80.0782 212.139 79.6982 211.591C76.7694 207.364 76.2054 201.99 75.7303 196.87C75.4519 193.869 75.1734 190.868 74.895 187.866C74.6151 187.57 74.0727 187.754 73.8734 188.11ZM266.677 207.636C276.611 207.881 286.545 208.127 296.478 208.372C297.999 208.409 299.524 208.447 301.028 208.673C300.714 209.759 299.286 209.964 298.155 209.953C288.194 209.859 278.199 209.242 268.291 210.278C267.444 210.367 266.529 210.454 265.794 210.024C265.059 209.594 264.73 208.413 265.406 207.895C265.756 207.626 266.236 207.625 266.677 207.636ZM239.385 205.684C239.604 205.756 239.827 205.832 240.006 205.977C240.6 206.46 240.378 207.493 239.771 207.959C239.164 208.426 238.345 208.48 237.58 208.498C236.783 208.518 235.854 208.455 235.4 207.8C234.83 206.978 235.507 205.761 236.451 205.427C237.394 205.094 238.434 205.373 239.385 205.684ZM246.648 203.677C247.574 203.777 248.476 204.102 249.253 204.616C249.847 205.008 249.728 205.994 249.188 206.458C248.647 206.921 247.876 206.986 247.164 206.96C246.445 206.934 245.693 206.825 245.111 206.401C244.529 205.977 244.183 205.159 244.495 204.51C244.851 203.769 245.831 203.589 246.648 203.677ZM146.577 181.007C146.036 188.804 145.794 196.621 145.851 204.436C145.853 204.766 146.078 205.236 146.36 205.064C146.958 198.495 147.252 191.898 147.239 185.302C147.237 183.841 147.207 182.326 146.577 181.007ZM135.958 201.008C136.81 201.072 137.562 201.568 138.257 202.066C138.471 202.219 138.691 202.383 138.81 202.617C139.058 203.103 138.761 203.728 138.296 204.012C137.831 204.296 137.255 204.318 136.71 204.293C135.471 204.235 133.914 203.561 134.052 202.329C134.148 201.479 135.106 200.944 135.958 201.008ZM248.711 195.756C249.541 196.097 250.394 196.986 249.966 197.774C249.676 198.307 248.969 198.422 248.362 198.428C247.657 198.435 246.952 198.378 246.257 198.257C245.281 198.086 245.131 196.55 245.889 195.911C246.648 195.273 247.794 195.38 248.711 195.756ZM345.374 180.501C345.716 181.073 345.722 181.778 345.718 182.444C345.689 187.162 345.66 191.88 345.631 196.598C345.627 197.171 345.55 197.865 345.03 198.106C344.581 198.314 344.027 198.022 343.777 197.594C343.527 197.167 343.504 196.648 343.496 196.153C343.423 191.941 343.892 187.629 342.7 183.589C342.345 182.388 341.921 180.889 342.848 180.048C343.572 179.39 344.872 179.661 345.374 180.501ZM224.081 179.955C220.505 182.174 216.743 184.455 212.546 184.758C211.782 184.813 211.438 185.725 211.287 186.476C210.609 189.853 210.235 193.291 210.171 196.735C210.167 196.945 210.169 197.172 210.291 197.344C210.484 197.617 210.879 197.628 211.213 197.611C214.488 197.439 217.808 197.097 220.849 195.871C223.891 194.645 226.658 192.424 227.897 189.388C229.136 186.352 228.54 182.48 226.009 180.395C225.465 179.946 224.681 179.583 224.081 179.955ZM196.703 193.234C197.852 193.536 199.001 193.838 200.15 194.14C200.579 194.252 201.057 194.402 201.262 194.796C201.504 195.259 201.223 195.857 200.785 196.143C200.348 196.43 199.803 196.484 199.282 196.53C198.456 196.604 197.606 196.675 196.813 196.431C196.021 196.187 195.291 195.548 195.201 194.723C195.11 193.899 195.901 193.024 196.703 193.234ZM37.3178 130.365C41.618 132.106 44.8548 135.874 46.8623 140.056C48.8699 144.239 49.784 148.851 50.5807 153.422C51.8992 160.986 52.9492 168.708 51.9878 176.326C51.0264 183.945 47.8417 191.542 41.9378 196.452C46.2384 196.681 51.3733 196.511 53.7081 192.892C54.7558 191.268 57.0109 190.549 58.8052 191.267C57.6771 190.292 58.5286 188.476 59.3659 187.242C62.7962 182.186 65.1499 176.375 65.9909 170.323C67.6218 158.589 63.5216 146.697 57.4376 136.531C53.4903 129.935 44.2829 127.114 37.3178 130.365ZM139.279 191.15C140.166 191.5 139.96 192.966 139.13 193.437C138.301 193.908 137.267 193.696 136.343 193.461C135.912 193.352 135.455 193.223 135.162 192.889C134.479 192.107 135.263 190.785 136.274 190.552C137.286 190.319 138.313 190.77 139.279 191.15ZM171.181 134.684C167.384 134.751 163.398 135.214 160.299 137.408C159.274 138.134 158.343 139.083 157.968 140.282C157.594 141.481 157.909 142.954 158.949 143.658C161.577 145.438 162.648 148.767 163.141 151.903C163.633 155.039 163.752 158.322 165.18 161.156C165.917 162.618 166.974 163.893 168.082 165.098C174.09 171.63 181.926 176.462 190.46 178.898C191.961 179.326 193.87 180.253 193.552 181.78C181.274 179.205 170.078 171.796 162.909 161.501C160.73 168.192 156.433 174.175 150.789 178.377C161.799 187.746 176.047 193.236 190.497 193.676C191.152 193.696 191.892 193.671 192.334 193.187C192.623 192.87 192.714 192.425 192.792 192.003C194.838 181.004 196.279 169.893 197.108 158.737C197.392 154.92 197.599 151.04 196.774 147.303C195.949 143.566 193.959 139.933 190.704 137.919C188.699 136.677 186.352 136.12 184.03 135.706C179.794 134.951 175.483 134.608 171.181 134.684ZM246.622 188.212C247.618 188.212 248.874 188.503 249.048 189.483C249.222 190.46 248.11 191.188 247.126 191.313C246.406 191.405 245.623 191.318 245.052 190.87C244.481 190.422 244.215 189.545 244.612 188.937C245.019 188.314 245.878 188.211 246.622 188.212ZM320.179 168.598C318.351 175.677 317.285 182.926 316.222 190.158C316.169 190.518 316.138 190.944 316.41 191.186C319.258 187.647 321.871 183.919 324.226 180.034C324.458 179.651 324.686 179.15 324.426 178.785C323.836 177.96 323.246 177.135 322.656 176.31C322.218 175.698 321.767 174.892 322.152 174.245C322.465 173.719 323.166 173.608 323.775 173.552L328.779 173.091C328.725 172.781 328.536 172.514 328.353 172.259C327.013 170.394 325.552 168.433 323.406 167.616C322.217 167.162 320.497 167.366 320.179 168.598ZM88.4208 95.3741C84.7627 95.9881 80.8005 97.046 78.6776 100.088C77.4895 101.79 77.0525 103.892 76.7034 105.939C75.3305 113.988 74.9017 122.198 75.4287 130.347C91.1986 123.01 109.65 121.616 126.343 126.501C127.759 126.916 129.511 128.171 128.767 129.446C116.245 124.814 102.298 124.123 89.3793 127.495C85.1992 128.586 81.1369 130.086 76.9806 131.265C70.8038 133.016 64.4243 134.052 58.0106 134.344C69.6915 150.204 71.2031 172.913 61.7272 190.181C67.6229 189.065 73.1627 186.588 78.5988 184.048C86.7151 180.255 94.7965 176.255 103.418 173.82C112.04 171.385 121.361 170.589 129.913 173.258C130.914 173.571 131.465 172.127 131.505 171.08L133.358 122.527C133.639 115.172 133.663 107.039 128.847 101.472C124.587 96.5464 117.638 95.0057 111.148 94.4517C103.574 93.805 95.918 94.1157 88.4208 95.3741ZM201.402 185.49C201.641 185.646 201.888 185.843 201.944 186.124C202.058 186.693 201.365 187.055 200.807 187.213C199.996 187.443 199.161 187.673 198.323 187.585C197.485 187.497 196.632 187.016 196.357 186.219C196.081 185.423 196.635 184.378 197.478 184.362C198.859 184.337 200.245 184.735 201.402 185.49ZM320.35 154.938C317.3 156.649 313.655 157.274 310.209 156.677C310.65 157.906 312.583 158.335 312.592 159.641C312.598 160.436 311.849 160.996 311.423 161.667C311.096 162.184 310.954 162.794 310.823 163.392C309.595 169.014 308.891 174.75 308.721 180.502C308.691 181.493 308.938 182.802 309.923 182.91C311.965 183.134 313.888 184.278 315.058 185.967C316.016 179.936 316.974 173.905 317.933 167.874C318.155 166.474 318.342 164.911 317.522 163.756C316.394 162.166 317.376 159.988 318.365 158.308L320.35 154.938ZM138.719 181.006C139.76 181.214 140.944 182.113 140.55 183.099C140.307 183.706 139.573 183.951 138.92 183.986C138.267 184.021 137.587 183.924 136.975 184.156C136.255 184.429 135.408 183.791 135.32 183.026C135.232 182.262 135.764 181.519 136.457 181.183C137.149 180.847 137.964 180.855 138.719 181.006ZM246.61 180.074C247.266 180.165 247.958 180.31 248.436 180.769C248.914 181.228 249.045 182.102 248.536 182.527C248.368 182.667 248.156 182.742 247.949 182.812C247.047 183.12 246.083 183.422 245.157 183.193C244.232 182.965 243.428 181.983 243.748 181.086C244.117 180.051 245.521 179.924 246.61 180.074ZM306.36 167.676C305.664 167.844 305.158 168.424 304.7 168.972L301.939 172.278C301.4 172.924 302.349 173.824 303.188 173.894C304.026 173.965 305.006 173.767 305.603 174.361C306.228 174.983 305.97 176.066 305.458 176.784C304.946 177.502 304.22 178.088 303.911 178.914C303.448 180.148 304.214 181.695 305.476 182.075C306.161 182.281 307.123 181.964 307.129 181.248C307.165 177.064 307.409 172.881 307.862 168.721C307.939 168.01 307.055 167.509 306.36 167.676ZM166.301 169.754C166.829 170.106 167.172 170.668 167.524 171.196C170.552 175.73 175.617 178.846 181.03 179.506C182.282 179.658 183.759 179.81 184.387 180.904C183.207 182.072 181.286 181.93 179.669 181.553C173.938 180.22 168.687 176.91 165.014 172.313C164.428 171.581 163.893 170.465 164.547 169.792C164.989 169.336 165.772 169.403 166.301 169.754ZM303.383 149.718C299.336 150.712 295.295 152.115 292.015 154.686C288.735 157.256 286.296 161.162 286.321 165.329C286.354 170.614 283.757 175.851 279.531 179.025L286.647 179.862C287.48 179.96 288.414 180.031 289.066 179.503C290.02 178.732 289.776 177.251 289.535 176.047C289.294 174.844 289.347 173.254 290.492 172.812C291.913 172.262 293.089 174.234 292.874 175.743C292.659 177.251 291.783 178.703 292.058 180.202C295.427 180.68 298.808 181.083 302.196 181.41C301.522 180.857 301.448 179.809 301.789 179.006C302.13 178.204 302.792 177.589 303.436 177.001C304.121 176.374 303.133 175.27 302.209 175.17C301.286 175.071 300.199 175.293 299.548 174.631C298.739 173.807 299.346 172.426 300.037 171.5C301.377 169.703 303.038 167.537 302.176 165.468C300.072 160.423 300.535 154.383 303.383 149.718ZM148.186 135.932C147.622 149.743 147.7 163.58 148.418 177.384C153.693 174.522 157.548 169.485 159.939 163.979C161.397 160.62 162.374 156.918 161.791 153.302C161.356 150.606 160.079 148.116 158.595 145.823C155.962 141.757 152.526 138.086 148.186 135.932ZM270.52 129.315C272.414 128.966 273.862 131.305 273.54 133.205C273.217 135.104 271.836 136.614 270.739 138.198C269.223 140.386 268.187 142.863 267.161 145.319C264.721 151.164 263.771 157.623 264.426 163.923C264.811 167.631 265.828 171.441 268.335 174.2C270.843 176.96 275.142 178.34 278.446 176.613C281.284 175.129 282.7 171.859 283.351 168.723C284.002 165.587 284.118 162.305 285.348 159.348C287.616 153.893 293.211 150.597 298.745 148.528C290.426 147.398 282.899 141.601 279.681 133.847C278.758 131.623 278.066 129.116 276.151 127.656C274.237 126.196 270.632 126.91 270.52 129.315ZM200.2 173.806C200.785 173.918 201.359 174.088 201.911 174.312C202.822 174.683 203.8 175.707 203.214 176.497C202.894 176.928 202.28 176.98 201.743 176.994C200.764 177.019 199.708 177.022 198.908 176.456C198.108 175.891 197.832 174.523 198.638 173.967C199.081 173.662 199.672 173.704 200.2 173.806ZM244.304 171.474C245.096 171.541 245.885 171.651 246.665 171.803C247.052 171.879 247.468 171.983 247.71 172.293C248.078 172.762 247.847 173.498 247.381 173.871C246.916 174.243 246.298 174.348 245.709 174.44C244.809 174.581 243.849 174.715 243.019 174.34C242.188 173.965 241.622 172.868 242.129 172.112C242.572 171.452 243.513 171.407 244.304 171.474ZM17.8847 167.214C17.2138 167.207 16.9818 168.102 17.0021 168.773C17.0606 170.7 17.4507 172.616 18.1501 174.413C18.3447 174.612 18.5708 174.197 18.5436 173.92L17.8847 167.214ZM146.792 172.175C146.373 172.402 146.214 173.004 146.465 173.409L146.475 173.423L146.466 173.433C146.455 173.447 146.443 173.463 146.43 173.482C146.262 173.737 146.498 174.141 146.803 174.12C147.009 173.493 147.005 172.8 146.792 172.175ZM138.073 169.448C138.98 169.649 139.966 170.402 139.74 171.304C139.59 171.902 138.961 172.252 138.36 172.386C137.759 172.519 137.123 172.51 136.549 172.734C135.819 173.017 134.939 172.428 134.789 171.659C134.638 170.89 135.109 170.088 135.789 169.698C136.469 169.308 137.307 169.279 138.073 169.448ZM143.326 42.2329C143.379 83.8087 144.334 125.383 146.191 166.918L146.386 171.212L146.415 169.831C146.469 166.602 146.421 163.373 146.374 160.144C145.82 122.3 145.266 84.4553 144.711 46.6109C144.688 45.0263 144.563 43.2228 143.326 42.2329ZM202.792 163.368C203.302 163.521 203.812 163.752 204.143 164.169C204.473 164.585 204.568 165.225 204.241 165.644C203.925 166.05 203.351 166.127 202.839 166.173L200.652 166.367C200.294 166.399 199.91 166.425 199.599 166.245C199.348 166.1 199.181 165.835 199.105 165.555C198.875 164.713 199.445 163.799 200.233 163.424C201.021 163.048 201.956 163.118 202.792 163.368ZM26.5992 130.824C24.325 133.058 23.1422 136.147 22.0493 139.142C19.0039 147.488 16.1099 156.346 17.6125 165.103C18.0771 165.188 18.2986 164.556 18.333 164.084C18.9508 155.637 20.6388 147.269 23.344 139.242C24.3762 136.18 25.6177 133.07 27.9106 130.792C27.8792 130.238 26.9955 130.434 26.5992 130.824ZM306.181 149.081C305.784 149.178 305.527 149.552 305.32 149.904C303.363 153.225 302.442 157.146 302.715 160.991C302.828 162.578 303.339 164.407 304.821 164.986C306.027 163.829 307.232 162.671 308.438 161.514C308.629 161.33 308.825 161.14 308.931 160.897C309.195 160.288 308.817 159.608 308.47 159.043C306.752 156.247 305.462 152.705 306.893 149.752C307.071 149.385 306.577 148.983 306.181 149.081ZM331.227 145.498C331.035 145.598 330.886 145.764 330.743 145.927C327.185 149.951 323.748 154.083 320.439 158.315C319.748 159.198 319.027 160.195 319.095 161.315C319.156 162.31 319.856 163.178 320.705 163.701C321.553 164.225 322.542 164.464 323.512 164.695C323.772 164.756 324.054 164.816 324.298 164.708C324.522 164.609 324.665 164.389 324.794 164.18C326.82 160.914 328.874 157.583 329.831 153.861C330.035 153.067 330.723 152.513 331.273 151.905C332.354 150.712 332.987 149.122 333.023 147.513C333.036 146.968 332.972 146.393 332.656 145.948C332.341 145.503 331.711 145.245 331.227 145.498ZM244.567 161.428C245.058 161.549 245.598 161.735 245.818 162.19C246.206 162.991 245.296 163.827 244.446 164.09C243.786 164.294 243.052 164.364 242.419 164.088C241.787 163.812 241.307 163.114 241.451 162.439C241.705 161.241 243.378 161.133 244.567 161.428ZM138.884 159.678C139.116 159.885 139.33 160.129 139.418 160.427C139.595 161.027 139.176 161.688 138.601 161.935C138.027 162.182 137.356 162.086 136.777 161.85C136.167 161.602 135.573 161.126 135.496 160.473C135.407 159.725 136.084 159.037 136.83 158.929C137.575 158.82 138.323 159.176 138.884 159.678ZM204.83 153.104C205.425 153.346 205.487 154.246 205.076 154.74C204.666 155.234 203.982 155.398 203.343 155.452C202.703 155.506 202.041 155.483 201.443 155.717C200.525 156.076 199.525 154.966 199.744 154.005C199.963 153.043 200.996 152.445 201.981 152.399C202.967 152.353 203.917 152.732 204.83 153.104ZM243.548 151.657C244.391 151.699 245.225 151.92 245.977 152.302C246.304 152.468 246.641 152.697 246.734 153.052C246.925 153.781 246.01 154.282 245.27 154.424C244.613 154.55 243.947 154.625 243.279 154.648C242.455 154.677 241.46 154.518 241.131 153.761C240.876 153.173 241.187 152.452 241.709 152.081C242.232 151.709 242.908 151.626 243.548 151.657ZM297.899 97.8118C292.981 98.6055 288.04 99.2633 283.086 99.7842C279.496 100.162 276.116 102.198 274.104 105.194C273.691 105.81 273.407 106.792 274.045 107.169C275.851 105.086 278.302 103.57 280.973 102.885C281.928 102.64 282.973 102.507 283.873 102.908C284.773 103.309 285.416 104.413 285.009 105.31C284.384 106.688 282.388 106.303 280.878 106.211C276.677 105.955 273.045 110.762 274.438 114.733C275.416 110.942 280.828 109.297 283.861 111.771C286.895 114.246 286.524 119.681 283.28 121.872C282.208 122.596 280.831 123.101 280.342 124.299C279.922 125.326 280.326 126.485 280.728 127.519C281.36 129.141 281.991 130.763 282.623 132.385C283.947 135.786 285.354 139.311 288.034 141.789C290.095 143.694 292.768 144.827 295.495 145.492C305.325 147.888 316.392 144.074 322.661 136.131C323.163 135.495 324.309 136.099 324.399 136.904C324.488 137.71 323.938 138.435 323.393 139.035C320.586 142.125 317.048 144.545 313.152 146.042C311.31 146.75 309.122 147.516 308.555 149.405C308.087 150.971 309.073 152.7 310.489 153.515C311.906 154.329 313.632 154.398 315.256 154.22C318.495 153.866 321.629 152.598 324.204 150.601C324.984 149.996 325.74 149.288 326.086 148.363C326.415 147.487 326.34 146.519 326.26 145.587L326.191 144.786C325.887 141.311 325.494 137.795 324.077 134.618C323.396 133.089 322.484 131.657 321.982 130.06C321.364 128.091 321.401 125.979 320.985 123.957C320.569 121.936 319.516 119.836 317.592 119.091C318.1 117.799 319.369 116.986 320.19 115.867C321.011 114.748 321.132 112.793 319.839 112.288C319.221 112.046 318.517 112.254 317.927 112.56C315.444 113.85 314.105 117.006 314.902 119.688C315.422 121.438 312.657 122.613 311.168 121.555C309.679 120.498 309.312 118.485 309.019 116.682C307.881 109.696 305.596 102.164 299.63 98.3559C299.108 98.023 298.51 97.7133 297.899 97.8118ZM138.363 147.37C139.147 147.624 139.929 148.329 139.766 149.137C139.612 149.902 138.732 150.259 137.964 150.391C136.874 150.578 135.452 150.364 135.146 149.301C134.854 148.29 135.913 147.321 136.959 147.21C137.431 147.16 137.912 147.224 138.363 147.37ZM264.171 132.818C263.44 133.511 263.083 134.501 262.751 135.452C262.001 137.598 261.241 139.807 261.328 142.078C261.383 143.541 260.535 144.858 259.929 146.19C259.324 147.522 258.995 149.229 259.945 150.342C262.212 148.436 262.756 145.226 263.255 142.306C263.851 138.815 264.661 135.196 266.919 132.467C266.129 131.842 264.902 132.125 264.171 132.818ZM204.423 142.548C205.007 142.735 205.667 143.11 205.675 143.723C205.683 144.469 204.765 144.812 204.032 144.946C203.664 145.014 203.297 145.081 202.929 145.148C201.992 145.32 200.988 145.484 200.117 145.098C199.246 144.713 198.666 143.537 199.234 142.772C199.602 142.278 200.278 142.143 200.893 142.105C202.084 142.032 203.288 142.183 204.423 142.548ZM119.215 131.779C120.24 132.269 121.387 133.235 121.007 134.307C110.445 132.004 99.1602 133.143 89.2707 137.51C84.8207 139.475 80.6436 142.073 76.0381 143.64C74.4625 144.176 72.7424 144.587 71.1507 144.101C69.559 143.615 68.2316 141.926 68.6971 140.328C69.1342 138.828 70.8043 138.116 72.284 137.615C79.5771 135.146 86.9971 133.052 94.505 131.344C102.697 129.481 111.636 128.154 119.215 131.779ZM270.882 131.652C270.127 131.649 269.493 132.203 268.997 132.771C267.794 134.149 266.939 135.802 266.303 137.518C265.513 139.649 265.046 141.899 264.922 144.169C267.106 140.412 269.441 136.742 271.92 133.172C272.35 132.553 271.636 131.655 270.882 131.652ZM257.498 138.346C257.291 138.347 257.072 138.355 256.898 138.465C256.505 138.715 256.559 139.297 256.676 139.748C257.046 141.178 257.558 142.571 258.203 143.9C258.59 142.028 259.211 140.203 260.047 138.483C259.201 138.387 258.349 138.341 257.498 138.346ZM91.9821 133.518C85.7299 135.439 79.4777 137.361 73.2255 139.282C72.4787 139.512 71.6121 139.866 71.453 140.631C71.9613 141.373 72.9295 141.688 73.8277 141.644C74.7258 141.601 75.5783 141.256 76.4107 140.916C82.7537 138.324 89.0966 135.733 95.4396 133.141C94.3067 132.825 93.1064 133.172 91.9821 133.518ZM157.959 137.025C157.623 137.607 156.924 137.855 156.401 138.276C155.877 138.698 155.569 139.605 156.123 139.987C156.969 139.14 157.816 138.292 158.663 137.444C158.488 137.227 158.234 137.075 157.959 137.025ZM223.926 136.574C228.471 137.047 233.057 137.289 237.609 136.897C238.787 136.795 240.196 136.748 240.894 137.701C240.012 138.6 238.625 138.708 237.367 138.762C232.642 138.965 227.917 139.167 223.191 139.369C222.27 139.409 221.102 139.291 220.803 138.419C220.568 137.731 221.103 136.974 221.775 136.698C222.447 136.422 223.204 136.499 223.926 136.574ZM294.187 131.608C295.287 132.946 295.688 134.828 295.23 136.497C295.117 136.91 294.952 137.314 294.689 137.65C293.998 138.533 292.721 138.794 291.631 138.532C290.541 138.271 289.607 137.577 288.775 136.826C287.918 136.051 287.113 135.169 286.702 134.089C286.29 133.01 286.338 131.696 287.068 130.801C287.67 130.063 288.642 129.709 289.592 129.639C291.319 129.513 293.088 130.271 294.187 131.608ZM140.985 134.718C141.419 135.069 141.346 135.798 140.975 136.215C140.605 136.632 140.039 136.81 139.497 136.945C138.858 137.105 138.185 137.23 137.544 137.077C136.903 136.925 136.301 136.427 136.222 135.773C136.108 134.823 137.102 134.08 138.046 133.931C139.078 133.769 140.172 134.062 140.985 134.718ZM289.155 131.923C288.674 132.547 288.99 133.671 289.771 133.778C290.672 133.901 291.374 134.848 291.228 135.746C291.114 136.452 291.974 137.041 292.656 136.829C293.339 136.618 293.733 135.853 293.718 135.139C293.703 134.424 293.362 133.759 292.976 133.158C292.55 132.496 292.029 131.852 291.31 131.53C290.592 131.207 289.637 131.3 289.155 131.923ZM286.755 67.9013C280.203 69.1013 273.713 71.9631 269.487 77.1117C265.261 82.2603 263.8 89.9657 267.103 95.7494C268.271 97.7933 270.053 99.5757 272.294 100.295C274.536 101.015 277.246 100.485 278.741 98.6673C280.437 96.6053 283.861 98.5829 286.414 97.8002C289.945 96.7176 293.615 96.0894 297.305 95.936C298.18 95.8996 299.082 95.8941 299.899 96.2108C300.785 96.5545 301.485 97.2434 302.159 97.9143C304.495 100.241 306.878 102.636 308.261 105.629C310.454 110.375 309.911 116.163 312.681 120.597C313.005 117.816 313.328 115.036 313.652 112.255C313.772 111.223 313.906 110.152 314.464 109.275C315.022 108.399 316.136 107.784 317.113 108.139C318.835 108.764 320.628 109.436 321.865 110.789C323.101 112.142 323.558 114.396 322.37 115.791C321.221 117.139 322.524 119.087 323.134 120.75C324.191 123.63 322.948 126.921 323.779 129.874C324.467 132.321 326.454 134.148 328.353 135.837C328.908 136.331 329.556 136.857 330.296 136.79C330.916 136.733 331.414 136.271 331.837 135.815C334.36 133.095 336.089 129.646 336.757 125.997C337.027 124.524 336.515 122.379 335.031 122.58C335.437 119.047 338.684 116.64 340.592 113.638C342.649 110.401 343.135 106.421 343.229 102.586C343.323 98.7325 342.947 94.5443 340.379 91.6694C337.293 88.2156 331.298 87.9575 327.927 91.1334C327.087 91.9251 325.98 92.9714 324.977 92.3986C325.763 90.9892 326.549 89.5799 327.334 88.1705C328.615 85.8737 329.922 83.4935 330.182 80.8769C330.696 75.7142 326.766 70.826 321.906 69.0104C317.045 67.1949 311.558 67.9477 306.683 69.7233C305.461 70.1684 304.018 71.1243 304.349 72.3818C304.541 73.11 305.279 73.5497 305.657 74.2008C305.893 74.6067 305.87 74.7367 305.603 75.0652C305.442 75.2636 305.151 75.838 304.891 75.726C302.127 72.5249 299.137 69.1736 295.085 67.9631C292.399 67.1606 289.512 67.3962 286.755 67.9013ZM255.364 133.919C255.019 133.715 254.357 133.58 254.422 133.977C254.609 134.946 255.482 135.667 256.424 135.964C257.365 136.26 258.377 136.21 259.363 136.157C259.748 136.137 260.16 136.107 260.467 135.872C260.724 135.676 260.865 135.367 260.996 135.071C261.22 134.564 261.445 134.056 261.669 133.549C259.837 132.357 257.245 135.034 255.364 133.919ZM202.446 130.607C203.217 130.665 203.982 130.8 204.726 131.008C205.371 131.189 206.112 131.567 206.144 132.235C206.186 133.116 205.04 133.476 204.162 133.552C203.268 133.629 202.374 133.706 201.48 133.783C200.829 133.84 200.092 133.868 199.614 133.423C198.971 132.826 199.23 131.666 199.926 131.132C200.623 130.597 201.571 130.542 202.446 130.607ZM223.351 130.416C227.626 130.988 231.96 131.126 236.263 130.827C236.768 130.792 237.317 130.762 237.733 131.051C238.149 131.34 238.252 132.084 237.798 132.308C237.661 132.376 237.502 132.383 237.349 132.388C232.147 132.585 226.945 132.781 221.743 132.977C221.268 132.995 220.746 132.998 220.381 132.694C219.728 132.15 220.103 130.988 220.852 130.586C221.601 130.185 222.509 130.303 223.351 130.416ZM264.861 126.179C263.2 126.268 261.51 126.422 259.977 127.066C258.443 127.71 257.068 128.922 256.61 130.521C256.517 130.846 256.482 131.245 256.731 131.473C256.925 131.651 257.217 131.653 257.479 131.643C260.238 131.535 262.985 131.124 265.655 130.42C266.983 130.07 268.583 129.227 268.403 127.866C268.309 127.149 267.691 126.589 267.008 126.352C266.325 126.115 265.583 126.14 264.861 126.179ZM73.2552 125.979C72.9903 127.38 72.9256 128.819 73.0635 130.239C73.4066 130.61 73.8582 129.886 73.8292 129.382C73.7629 128.231 73.5701 127.088 73.2552 125.979ZM162.093 124.264C171.656 124.697 181.219 125.129 190.783 125.561C191.675 125.601 192.861 125.943 192.808 126.835C191.667 127.568 190.195 127.416 188.847 127.259C180.323 126.266 171.698 126.129 163.146 126.85C162.408 126.913 161.624 126.973 160.965 126.634C160.306 126.296 159.881 125.393 160.309 124.788C160.683 124.259 161.445 124.235 162.093 124.264ZM138.903 123.261C139.324 123.325 139.762 123.435 140.068 123.731C140.767 124.408 140.335 125.695 139.495 126.186C138.654 126.676 137.614 126.607 136.644 126.524C135.58 126.432 135.235 124.836 135.934 124.028C136.633 123.221 137.847 123.102 138.903 123.261ZM172.538 119.724C188.124 120.533 203.71 121.341 219.296 122.15C220.131 122.193 221.236 122.514 221.192 123.349C218.622 123.812 215.96 123.76 213.41 123.198L215.674 125.147C214.595 125.828 213.445 126.531 212.169 126.559C210.893 126.587 209.504 125.646 209.54 124.371C210.185 124.073 210.831 123.775 211.477 123.477C198.886 122.398 186.237 122.004 173.603 122.298C172.874 122.315 172.097 122.322 171.481 121.931C170.865 121.54 170.554 120.59 171.063 120.068C171.428 119.695 172.018 119.697 172.538 119.724ZM273.459 121.808C272.898 121.839 272.421 122.212 271.986 122.568C271.47 122.99 270.954 123.413 270.438 123.835C269.897 124.277 269.312 124.805 269.28 125.503C269.263 125.881 269.551 126.331 269.92 126.246C270.024 126.222 270.113 126.16 270.199 126.098C271.429 125.232 272.658 124.365 273.887 123.498C274.138 123.321 274.406 123.121 274.487 122.825C274.636 122.282 274.021 121.778 273.459 121.808ZM292.578 117.267C292.627 118.531 291.999 119.716 291.776 120.961C291.553 122.207 291.978 123.793 293.21 124.084C293.573 124.17 293.678 124.69 293.473 125.002C293.268 125.313 292.88 125.448 292.513 125.515C291.373 125.722 290.022 125.356 289.498 124.322C289.235 123.804 289.215 123.202 289.2 122.622C289.16 121.068 289.12 119.515 289.08 117.961C289.053 116.899 289.172 115.592 290.144 115.163C291.302 114.652 292.529 116.003 292.578 117.267ZM275.625 124.314C275.4 124.419 275.247 124.661 275.249 124.91L275.193 124.924C275.318 125.201 275.767 125.244 275.942 124.996C276.117 124.748 275.927 124.339 275.625 124.314ZM273.474 116.195C272.959 116.208 272.382 116.302 272.077 116.718C271.751 117.163 271.883 117.815 272.218 118.254C272.553 118.692 273.046 118.974 273.507 119.278C275.446 120.557 276.994 122.42 277.897 124.561C278.51 123.753 279.124 122.945 279.738 122.138C280.196 121.534 280.679 120.844 280.582 120.093C280.513 119.55 280.148 119.094 279.761 118.706C278.121 117.066 275.793 116.136 273.474 116.195ZM75.8016 103.698C75.0807 103.757 74.7072 104.566 74.4805 105.253C74.1353 106.299 73.79 107.346 73.4447 108.392C73.0675 109.536 72.6876 110.692 72.5841 111.891C72.5155 112.686 72.5698 113.486 72.6241 114.282C72.7937 116.768 72.9633 119.254 73.1329 121.739C73.1657 122.22 73.5314 122.884 73.9288 122.611C73.7638 116.262 74.3945 109.892 75.8016 103.698ZM279.679 112.838C279.024 113.087 278.329 113.526 278.235 114.219C278.14 114.913 279.161 115.557 279.557 114.98C280.063 114.243 281.327 114.628 281.745 115.417C282.163 116.207 282.04 117.157 282.034 118.051C282.028 118.944 282.233 119.969 283.012 120.407C283.143 119.212 283.273 118.016 283.404 116.821C283.565 115.345 283.556 113.515 282.259 112.793C281.482 112.361 280.509 112.522 279.679 112.838ZM300.689 112.163C301.751 112.21 302.885 112.58 303.466 113.471C304.047 114.361 303.739 115.82 302.715 116.106C301.255 116.516 299.889 114.457 298.461 114.968C297.568 115.288 297.016 116.544 296.085 116.364C295.508 116.252 295.188 115.56 295.303 114.983C295.418 114.406 295.848 113.945 296.309 113.579C297.538 112.606 299.123 112.093 300.689 112.163ZM138.062 111.112C139.085 111.277 140.088 112.398 139.548 113.283C139.396 113.532 139.15 113.709 138.892 113.844C138.254 114.18 137.466 114.295 136.807 114.002C136.148 113.708 135.684 112.948 135.863 112.249C136.087 111.371 137.167 110.967 138.062 111.112ZM302.354 105.283C303.059 105.953 303.608 107.215 302.819 107.783C301.985 108.384 300.985 107.369 300.187 106.721C299.295 105.997 298.086 105.677 296.953 105.865C296.228 105.986 295.545 106.301 294.818 106.407C294.09 106.512 293.244 106.345 292.847 105.727C292.431 105.078 292.696 104.159 293.268 103.643C293.841 103.127 294.636 102.938 295.404 102.868C297.922 102.638 300.522 103.541 302.354 105.283ZM138.026 103.23C138.655 103.599 138.994 104.468 138.644 105.107C138.181 105.952 136.97 105.94 136.035 105.708C135.699 105.624 135.345 105.514 135.122 105.248C134.59 104.614 135.186 103.619 135.928 103.253C136.582 102.93 137.398 102.862 138.026 103.23Z" fill="#00160A"/>
<path fill-rule="evenodd" clip-rule="evenodd" d="M53.6523 188.176C53.7382 188.415 53.8176 188.682 53.7193 188.915C53.5431 189.335 52.9693 189.351 52.5145 189.347C49.3155 189.322 46.3414 192.069 46.1142 195.26C46.0902 195.597 45.6269 195.752 45.3272 195.596C45.0274 195.439 44.8732 195.102 44.7695 194.781C44.185 192.967 44.5616 190.935 45.4933 189.273C46.425 187.611 47.8667 186.285 49.4329 185.201C50.0405 184.78 50.797 184.376 51.4844 184.647C51.9386 184.827 52.2353 185.26 52.4826 185.681C52.9484 186.474 53.3405 187.311 53.6523 188.176ZM51.7942 187.813C51.5126 186.952 50.3699 186.643 49.5163 186.947C48.6627 187.251 48.0404 187.977 47.4595 188.672C46.9088 189.332 46.3327 190.051 46.2678 190.908C47.7397 189.349 49.6958 188.254 51.7942 187.813Z" fill="#FFB61D"/>
<defs>
<linearGradient id="paint0_linear_709_289" x1="175" y1="0" x2="175" y2="258.29" gradientUnits="userSpaceOnUse">
<stop stop-color="#0083FD"/>
<stop offset="1" stop-color="#246EE9" stop-opacity="0"/>
</linearGradient>
</defs>
</svg>
