 <svg class="w100" width="69" height="20" viewBox="0 0 69 20" fill="none" xmlns="http://www.w3.org/2000/svg">
                        <path d="M14.5372 8.69437H14.0002V8.66671H8.00016V11.3334H11.7678C11.2182 12.8857 9.74116 14 8.00016 14C5.79116 14 4.00016 12.209 4.00016 10C4.00016 7.79104 5.79116 6.00004 8.00016 6.00004C9.01983 6.00004 9.9475 6.38471 10.6538 7.01304L12.5395 5.12737C11.3488 4.01771 9.75616 3.33337 8.00016 3.33337C4.3185 3.33337 1.3335 6.31837 1.3335 10C1.3335 13.6817 4.3185 16.6667 8.00016 16.6667C11.6818 16.6667 14.6668 13.6817 14.6668 10C14.6668 9.55304 14.6208 9.11671 14.5372 8.69437Z" fill="#FFC107"/>
                        <path d="M2.10205 6.89704L4.29238 8.50337C4.88505 7.03604 6.32038 6.00004 8.00005 6.00004C9.01972 6.00004 9.94738 6.38471 10.6537 7.01304L12.5394 5.12737C11.3487 4.01771 9.75605 3.33337 8.00005 3.33337C5.43938 3.33337 3.21872 4.77904 2.10205 6.89704Z" fill="#FF3D00"/>
                        <path d="M7.99994 16.6667C9.72194 16.6667 11.2866 16.0077 12.4696 14.936L10.4063 13.19C9.71445 13.7161 8.86909 14.0007 7.99994 14C6.26594 14 4.79361 12.8943 4.23894 11.3513L2.06494 13.0263C3.16827 15.1853 5.40894 16.6667 7.99994 16.6667Z" fill="#4CAF50"/>
                        <path d="M14.537 8.69429H14V8.66663H8V11.3333H11.7677C11.5047 12.0721 11.0311 12.7177 10.4053 13.1903L10.4063 13.1896L12.4697 14.9356C12.3237 15.0683 14.6667 13.3333 14.6667 9.99996C14.6667 9.55296 14.6207 9.11663 14.537 8.69429Z" fill="#1976D2"/>
                        <path d="M32.5107 10.0439V13.6875C32.3877 13.8698 32.1917 14.0749 31.9229 14.3027C31.654 14.526 31.2826 14.722 30.8086 14.8906C30.3392 15.0547 29.7331 15.1367 28.9902 15.1367C28.3841 15.1367 27.8258 15.0319 27.3154 14.8223C26.8096 14.6081 26.3698 14.2982 25.9961 13.8926C25.627 13.4824 25.3398 12.9857 25.1348 12.4023C24.9342 11.8145 24.834 11.1491 24.834 10.4062V9.63379C24.834 8.89095 24.9206 8.22786 25.0938 7.64453C25.2715 7.0612 25.5312 6.56673 25.873 6.16113C26.2148 5.75098 26.6341 5.44108 27.1309 5.23145C27.6276 5.01725 28.1973 4.91016 28.8398 4.91016C29.6009 4.91016 30.2367 5.04232 30.7471 5.30664C31.262 5.56641 31.6631 5.92643 31.9502 6.38672C32.2419 6.84701 32.4287 7.37109 32.5107 7.95898H31.1914C31.1322 7.59896 31.0137 7.27083 30.8359 6.97461C30.6628 6.67839 30.4144 6.44141 30.0908 6.26367C29.7673 6.08138 29.3503 5.99023 28.8398 5.99023C28.3796 5.99023 27.9808 6.07454 27.6436 6.24316C27.3063 6.41178 27.0283 6.65332 26.8096 6.96777C26.5908 7.28223 26.4268 7.66276 26.3174 8.10938C26.2126 8.55599 26.1602 9.05957 26.1602 9.62012V10.4062C26.1602 10.9805 26.2262 11.4932 26.3584 11.9443C26.4951 12.3955 26.6888 12.7806 26.9395 13.0996C27.1901 13.4141 27.4886 13.6533 27.835 13.8174C28.1859 13.9814 28.5732 14.0635 28.9971 14.0635C29.4665 14.0635 29.847 14.0247 30.1387 13.9473C30.4303 13.8652 30.6582 13.7695 30.8223 13.6602C30.9863 13.5462 31.1117 13.4391 31.1982 13.3389V11.1104H28.8945V10.0439H32.5107ZM34.1719 11.3838V11.2266C34.1719 10.6934 34.2493 10.1989 34.4043 9.74316C34.5592 9.28288 34.7826 8.88411 35.0742 8.54688C35.3659 8.20508 35.7191 7.94076 36.1338 7.75391C36.5485 7.5625 37.0133 7.4668 37.5283 7.4668C38.0479 7.4668 38.515 7.5625 38.9297 7.75391C39.349 7.94076 39.7044 8.20508 39.9961 8.54688C40.2923 8.88411 40.5179 9.28288 40.6729 9.74316C40.8278 10.1989 40.9053 10.6934 40.9053 11.2266V11.3838C40.9053 11.917 40.8278 12.4115 40.6729 12.8672C40.5179 13.3229 40.2923 13.7217 39.9961 14.0635C39.7044 14.4007 39.3512 14.665 38.9365 14.8564C38.5264 15.0433 38.0615 15.1367 37.542 15.1367C37.0225 15.1367 36.5553 15.0433 36.1406 14.8564C35.7259 14.665 35.3704 14.4007 35.0742 14.0635C34.7826 13.7217 34.5592 13.3229 34.4043 12.8672C34.2493 12.4115 34.1719 11.917 34.1719 11.3838ZM35.4365 11.2266V11.3838C35.4365 11.7529 35.4798 12.1016 35.5664 12.4297C35.653 12.7533 35.7829 13.0404 35.9561 13.291C36.1338 13.5417 36.3548 13.7399 36.6191 13.8857C36.8835 14.027 37.1911 14.0977 37.542 14.0977C37.8883 14.0977 38.1914 14.027 38.4512 13.8857C38.7155 13.7399 38.9342 13.5417 39.1074 13.291C39.2806 13.0404 39.4105 12.7533 39.4971 12.4297C39.5882 12.1016 39.6338 11.7529 39.6338 11.3838V11.2266C39.6338 10.862 39.5882 10.5179 39.4971 10.1943C39.4105 9.86621 39.2783 9.57682 39.1006 9.32617C38.9274 9.07096 38.7087 8.87044 38.4443 8.72461C38.1846 8.57878 37.8792 8.50586 37.5283 8.50586C37.182 8.50586 36.8766 8.57878 36.6123 8.72461C36.3525 8.87044 36.1338 9.07096 35.9561 9.32617C35.7829 9.57682 35.653 9.86621 35.5664 10.1943C35.4798 10.5179 35.4365 10.862 35.4365 11.2266ZM42.1562 11.3838V11.2266C42.1562 10.6934 42.2337 10.1989 42.3887 9.74316C42.5436 9.28288 42.7669 8.88411 43.0586 8.54688C43.3503 8.20508 43.7035 7.94076 44.1182 7.75391C44.5329 7.5625 44.9977 7.4668 45.5127 7.4668C46.0322 7.4668 46.4993 7.5625 46.9141 7.75391C47.3333 7.94076 47.6888 8.20508 47.9805 8.54688C48.2767 8.88411 48.5023 9.28288 48.6572 9.74316C48.8122 10.1989 48.8896 10.6934 48.8896 11.2266V11.3838C48.8896 11.917 48.8122 12.4115 48.6572 12.8672C48.5023 13.3229 48.2767 13.7217 47.9805 14.0635C47.6888 14.4007 47.3356 14.665 46.9209 14.8564C46.5107 15.0433 46.0459 15.1367 45.5264 15.1367C45.0068 15.1367 44.5397 15.0433 44.125 14.8564C43.7103 14.665 43.3548 14.4007 43.0586 14.0635C42.7669 13.7217 42.5436 13.3229 42.3887 12.8672C42.2337 12.4115 42.1562 11.917 42.1562 11.3838ZM43.4209 11.2266V11.3838C43.4209 11.7529 43.4642 12.1016 43.5508 12.4297C43.6374 12.7533 43.7673 13.0404 43.9404 13.291C44.1182 13.5417 44.3392 13.7399 44.6035 13.8857C44.8678 14.027 45.1755 14.0977 45.5264 14.0977C45.8727 14.0977 46.1758 14.027 46.4355 13.8857C46.6999 13.7399 46.9186 13.5417 47.0918 13.291C47.265 13.0404 47.3949 12.7533 47.4814 12.4297C47.5726 12.1016 47.6182 11.7529 47.6182 11.3838V11.2266C47.6182 10.862 47.5726 10.5179 47.4814 10.1943C47.3949 9.86621 47.2627 9.57682 47.085 9.32617C46.9118 9.07096 46.693 8.87044 46.4287 8.72461C46.1689 8.57878 45.8636 8.50586 45.5127 8.50586C45.1663 8.50586 44.861 8.57878 44.5967 8.72461C44.3369 8.87044 44.1182 9.07096 43.9404 9.32617C43.7673 9.57682 43.6374 9.86621 43.5508 10.1943C43.4642 10.5179 43.4209 10.862 43.4209 11.2266ZM55.2676 7.60352H56.416V14.8428C56.416 15.4945 56.2839 16.0505 56.0195 16.5107C55.7552 16.971 55.3861 17.3197 54.9121 17.5566C54.4427 17.7982 53.9004 17.9189 53.2852 17.9189C53.0299 17.9189 52.7292 17.8779 52.3828 17.7959C52.041 17.7184 51.7038 17.584 51.3711 17.3926C51.043 17.2057 50.7673 16.9528 50.5439 16.6338L51.207 15.8818C51.5169 16.2555 51.8405 16.5153 52.1777 16.6611C52.5195 16.807 52.8568 16.8799 53.1895 16.8799C53.5905 16.8799 53.9368 16.8047 54.2285 16.6543C54.5202 16.5039 54.7458 16.2806 54.9053 15.9844C55.0693 15.6927 55.1514 15.3327 55.1514 14.9043V9.23047L55.2676 7.60352ZM50.1748 11.3838V11.2402C50.1748 10.6751 50.2409 10.1624 50.373 9.70215C50.5098 9.2373 50.7035 8.83854 50.9541 8.50586C51.2093 8.17318 51.5169 7.91797 51.877 7.74023C52.237 7.55794 52.6426 7.4668 53.0938 7.4668C53.5586 7.4668 53.9642 7.54883 54.3105 7.71289C54.6615 7.8724 54.9577 8.1071 55.1992 8.41699C55.4453 8.72233 55.639 9.09147 55.7803 9.52441C55.9215 9.95736 56.0195 10.4473 56.0742 10.9941V11.623C56.0241 12.1654 55.9261 12.653 55.7803 13.0859C55.639 13.5189 55.4453 13.888 55.1992 14.1934C54.9577 14.4987 54.6615 14.7334 54.3105 14.8975C53.9596 15.057 53.5495 15.1367 53.0801 15.1367C52.638 15.1367 52.237 15.0433 51.877 14.8564C51.5215 14.6696 51.2161 14.4076 50.9609 14.0703C50.7057 13.7331 50.5098 13.3366 50.373 12.8809C50.2409 12.4206 50.1748 11.9215 50.1748 11.3838ZM51.4395 11.2402V11.3838C51.4395 11.7529 51.4759 12.0993 51.5488 12.4229C51.6263 12.7464 51.7425 13.0312 51.8975 13.2773C52.057 13.5234 52.2598 13.7171 52.5059 13.8584C52.752 13.9951 53.0459 14.0635 53.3877 14.0635C53.807 14.0635 54.1533 13.9746 54.4268 13.7969C54.7002 13.6191 54.9167 13.3844 55.0762 13.0928C55.2402 12.8011 55.3678 12.4844 55.459 12.1426V10.4951C55.4089 10.2445 55.3314 10.0029 55.2266 9.77051C55.1263 9.53353 54.9941 9.32389 54.8301 9.1416C54.6706 8.95475 54.4723 8.80664 54.2354 8.69727C53.9984 8.58789 53.7204 8.5332 53.4014 8.5332C53.055 8.5332 52.7565 8.60612 52.5059 8.75195C52.2598 8.89323 52.057 9.08919 51.8975 9.33984C51.7425 9.58594 51.6263 9.87305 51.5488 10.2012C51.4759 10.5247 51.4395 10.8711 51.4395 11.2402ZM59.7109 4.5V15H58.4395V4.5H59.7109ZM64.8105 15.1367C64.2956 15.1367 63.8285 15.0501 63.4092 14.877C62.9945 14.6992 62.6367 14.4508 62.3359 14.1318C62.0397 13.8128 61.8118 13.4346 61.6523 12.9971C61.4928 12.5596 61.4131 12.0811 61.4131 11.5615V11.2744C61.4131 10.6729 61.502 10.1374 61.6797 9.66797C61.8574 9.19401 62.099 8.79297 62.4043 8.46484C62.7096 8.13672 63.056 7.88835 63.4434 7.71973C63.8307 7.55111 64.2318 7.4668 64.6465 7.4668C65.1751 7.4668 65.6309 7.55794 66.0137 7.74023C66.401 7.92253 66.7178 8.17773 66.9639 8.50586C67.21 8.82943 67.3923 9.21224 67.5107 9.6543C67.6292 10.0918 67.6885 10.5703 67.6885 11.0898V11.6572H62.165V10.625H66.4238V10.5293C66.4056 10.2012 66.3372 9.88216 66.2188 9.57227C66.1048 9.26237 65.9225 9.00716 65.6719 8.80664C65.4212 8.60612 65.0794 8.50586 64.6465 8.50586C64.3594 8.50586 64.0951 8.56738 63.8535 8.69043C63.612 8.80892 63.4046 8.98665 63.2314 9.22363C63.0583 9.46061 62.9238 9.75 62.8281 10.0918C62.7324 10.4336 62.6846 10.8278 62.6846 11.2744V11.5615C62.6846 11.9124 62.7324 12.2428 62.8281 12.5527C62.9284 12.8581 63.0719 13.127 63.2588 13.3594C63.4502 13.5918 63.6803 13.7741 63.9492 13.9062C64.2227 14.0384 64.5326 14.1045 64.8789 14.1045C65.3255 14.1045 65.7038 14.0133 66.0137 13.8311C66.3236 13.6488 66.5947 13.4049 66.8271 13.0996L67.5928 13.708C67.4333 13.9495 67.2305 14.1797 66.9844 14.3984C66.7383 14.6172 66.4352 14.7949 66.0752 14.9316C65.7197 15.0684 65.2982 15.1367 64.8105 15.1367Z" fill="#475569"/>
                        </svg>