 <svg  width="191" height="76" viewBox="0 0 191 76" fill="none" xmlns="http://www.w3.org/2000/svg">
          <path fill-rule="evenodd" clip-rule="evenodd" d="M47.2957 26.3205L52.6939 20.9539H61.6312L51.4421 31.1114L47.2957 26.3205Z" fill="white"/>
          <path fill-rule="evenodd" clip-rule="evenodd" d="M82.3263 0H5.51448H0L2.79949 4.75915L37.6506 63.8707L41.2371 57.5534L17.8111 17.8217H64.2035L67.7319 11.4991H14.0873L11.0342 6.32263H76.8118L76.8065 6.32792H84.1169L85.0465 4.75915L87.846 0H82.3263Z" fill="white"/>
          <path fill-rule="evenodd" clip-rule="evenodd" d="M56.365 41.0311L38.9658 20.954H30.5515L52.9844 46.7727L47.1953 56.6026L40.3973 68.5771L41.2054 69.9504L43.9204 74.5616L46.6407 69.9504L81.0692 11.5043H73.7588L56.365 41.0311Z" fill="white"/>
          <path fill-rule="evenodd" clip-rule="evenodd" d="M33.4248 40.355L38.9234 34.8299L43.1068 39.5838L36.7419 45.9804L33.4248 40.355Z" fill="white"/>
          <path fill-rule="evenodd" clip-rule="evenodd" d="M94.3589 15.4448V26.104H96.9101V21.6512H105.002V19.5278H96.9101V17.5629H105.251V15.4448H94.3589Z" fill="white"/>
          <path fill-rule="evenodd" clip-rule="evenodd" d="M110.532 18.5189H107.981V26.104H110.532V18.5189ZM107.981 15.4448V17.5629H110.532V15.4448H107.981Z" fill="white"/>
          <path fill-rule="evenodd" clip-rule="evenodd" d="M115.889 18.5189H113.337V26.104H115.889V22.3431C115.889 20.9909 116.628 20.2673 117.917 20.2673H119.174C120.479 20.2673 120.97 20.8219 120.97 22.1424V26.104H123.521V21.6353C123.521 19.6704 122.386 18.5189 120.141 18.5189H118.081C116.486 18.5189 116.005 19.3007 115.883 19.5965V18.5189H115.889Z" fill="white"/>
          <path fill-rule="evenodd" clip-rule="evenodd" d="M133.869 26.104H136.42V15.4448H133.869V19.6704C133.805 19.5489 133.288 18.5189 131.671 18.5189H129.4C127.329 18.5189 126.099 19.6863 126.099 21.5456V23.1249C126.099 24.8733 127.129 26.104 129.4 26.104H131.671C133.082 26.104 133.869 25.1215 133.869 25.1215V26.104ZM132.12 20.2673C133.208 20.2673 133.869 20.9276 133.869 21.7093V22.9242C133.869 23.7059 133.208 24.3503 132.12 24.3503H130.398C129.141 24.3503 128.65 23.8591 128.65 22.9242V21.7251C128.65 20.8166 129.109 20.2673 130.398 20.2673H132.12Z" fill="white"/>
          <path fill-rule="evenodd" clip-rule="evenodd" d="M94.3218 30.4775L99.8045 37.5396V41.1367H102.356V37.5396L107.839 30.4775H104.627L101.067 35.4374L97.5333 30.4775H94.3218Z" fill="white"/>
          <path fill-rule="evenodd" clip-rule="evenodd" d="M111.769 33.5147C109.529 33.5147 108.436 34.8828 108.436 36.5572V38.1418C108.436 39.8902 109.635 41.1367 111.769 41.1367H115.334C117.5 41.1367 118.651 39.906 118.651 38.1735V36.5625C118.651 34.8722 117.547 33.52 115.318 33.52H111.769V33.5147ZM116.1 36.7579V37.9728C116.1 38.9869 115.577 39.3831 114.457 39.3831H112.719C111.536 39.3831 110.981 38.9394 110.981 37.9833V36.7368C110.981 35.7543 111.536 35.2631 112.719 35.2631H114.457C115.577 35.2684 116.1 35.8652 116.1 36.7579Z" fill="white"/>
          <path fill-rule="evenodd" clip-rule="evenodd" d="M121.229 33.5464V37.9252C121.229 40.1701 122.597 41.1367 124.53 41.1367H126.97C128.058 41.1367 128.798 40.7194 129.168 40.1701V41.1367H131.719V33.5517H129.168V37.3125C129.168 38.6489 128.259 39.3831 126.97 39.3831H125.972C124.498 39.3831 123.775 38.7545 123.775 37.3125V33.5517H121.229V33.5464Z" fill="white"/>
          <path fill-rule="evenodd" clip-rule="evenodd" d="M136.848 33.5464H134.296V41.1314H136.848V37.1223C136.848 36.0923 137.571 35.2947 138.596 35.2947H139.531C140.667 35.2947 140.899 35.8652 141.068 36.6311H143.619C143.619 35.0201 143.033 33.5464 140.302 33.5464H139.029C137.967 33.5464 137.466 33.8686 136.848 34.6503V33.5464Z" fill="white"/>
          <path fill-rule="evenodd" clip-rule="evenodd" d="M89.5997 51.5107H84.529C84.529 50.7712 84.8195 50.1268 85.8178 50.1268H88.1683C89.267 50.1321 89.5997 50.7765 89.5997 51.5107ZM92.0453 52.9263V51.6375C92.0453 50.1162 91.2953 48.5527 88.7916 48.5527H85.1681C82.8968 48.5527 81.9883 50.0106 81.9883 51.3469V53.2643C81.9883 54.9229 82.9866 56.1695 85.1205 56.1695H88.855C91.422 56.1695 92.0506 55.018 92.0506 53.6816H89.6103C89.6103 54.2785 89.3198 54.5848 88.7018 54.5848H85.7544C84.7085 54.5848 84.5395 53.877 84.5395 53.2168V52.9263H92.0453Z" fill="white"/>
          <path fill-rule="evenodd" clip-rule="evenodd" d="M94.3747 45.505L99.2923 50.6814L93.7778 56.1642H97.5228L101.305 51.9597L105.081 56.1642H108.832L103.317 50.6814L108.23 45.505H104.775L101.305 49.3926L97.8345 45.505H94.3747Z" fill="white"/>
          <path fill-rule="evenodd" clip-rule="evenodd" d="M113.253 48.5792H110.701V59.2384H113.253V55.1237C113.527 55.5673 114.341 56.1695 115.466 56.1695H117.753C120.024 56.1695 121.07 54.849 121.07 53.1904V51.5318C121.07 49.5986 119.887 48.5844 117.753 48.5844H115.45C114.283 48.5844 113.686 49.0915 113.253 49.493V48.5792ZM118.519 52.9897C118.519 53.9563 117.948 54.4158 116.739 54.4158H114.911C113.791 54.4158 113.253 53.9088 113.253 52.9897V51.759C113.253 50.8504 113.791 50.3328 114.911 50.3328H116.739C117.954 50.3328 118.519 50.824 118.519 51.759V52.9897Z" fill="white"/>
          <path fill-rule="evenodd" clip-rule="evenodd" d="M131.265 51.5107H126.199C126.199 50.7712 126.49 50.1268 127.488 50.1268H129.839C130.927 50.1321 131.265 50.7765 131.265 51.5107ZM133.705 52.9263V51.6375C133.705 50.1162 132.955 48.5527 130.451 48.5527H126.828C124.556 48.5527 123.648 50.0106 123.648 51.3469V53.2643C123.648 54.9229 124.646 56.1695 126.78 56.1695H130.515C133.082 56.1695 133.71 55.018 133.71 53.6816H131.27C131.27 54.2785 130.979 54.5848 130.361 54.5848H127.414C126.368 54.5848 126.199 53.877 126.199 53.2168V52.9263H133.705Z" fill="white"/>
          <path fill-rule="evenodd" clip-rule="evenodd" d="M138.76 48.5792H136.208V56.1642H138.76V52.1551C138.76 51.1251 139.483 50.3275 140.508 50.3275H141.443C142.579 50.3275 142.811 50.898 142.98 51.6639H145.531C145.531 50.0529 144.945 48.5792 142.214 48.5792H140.941C139.88 48.5792 139.378 48.9014 138.76 49.6831V48.5792Z" fill="white"/>
          <path fill-rule="evenodd" clip-rule="evenodd" d="M148.368 47.1055V48.5792H147.444V50.3275H148.368V53.3383C148.368 55.0867 149.472 56.1642 151.442 56.1642H153.053C156.307 56.1642 156.74 54.6588 156.74 53.0636H154.189C154.189 53.8295 153.93 54.4158 153.19 54.4158H152.129C151.389 54.4158 150.914 54.0144 150.914 53.0636V50.3275H155.673V48.5792H150.914V47.1055H148.368Z" fill="white"/>
          <path d="M88.3409 67.5455H89.25L90.6847 71.6932L92.0909 67.5455H93L91.0966 72.8864V75.0455H90.2585V72.8864L88.3409 67.5455ZM94.0804 67.5455H94.9185V71.6506C94.9185 71.9062 94.9848 72.0696 95.1174 72.1406C95.2523 72.2116 95.3944 72.2472 95.5435 72.2472C95.6145 72.2472 95.6915 72.2389 95.7743 72.2223C95.8596 72.2057 95.9199 72.1903 95.9554 72.1761V72.9716C95.8844 72.9929 95.7909 73.0142 95.6749 73.0355C95.5589 73.0592 95.4157 73.071 95.2452 73.071C94.9114 73.071 94.6332 72.9657 94.4107 72.755C94.1905 72.5443 94.0804 72.1761 94.0804 71.6506V67.5455ZM98.7679 73.1136C98.3134 73.1089 97.9168 72.9858 97.5783 72.7443C97.2398 72.5005 96.977 72.1655 96.79 71.7393C96.6029 71.3132 96.5094 70.8243 96.5094 70.2727C96.5094 69.7259 96.6077 69.2429 96.8042 68.8239C97.003 68.4025 97.2765 68.0722 97.6245 67.8331C97.9725 67.594 98.3726 67.4744 98.8248 67.4744C99.1562 67.4744 99.4426 67.5384 99.6841 67.6662C99.9256 67.7917 100.13 67.9669 100.298 68.1918C100.469 68.4167 100.612 68.6747 100.728 68.9659H101.055L101.183 70.2585L101.893 73H101.112L100.444 70.2585C100.409 70.0857 100.354 69.8845 100.281 69.6548C100.207 69.4252 100.109 69.2015 99.986 68.9837C99.8629 68.7659 99.7054 68.5859 99.5137 68.4439C99.3243 68.2995 99.0946 68.2273 98.8248 68.2273C98.5359 68.2273 98.2802 68.3149 98.0577 68.4901C97.8352 68.6652 97.6612 68.9079 97.5357 69.218C97.4102 69.5282 97.3475 69.8845 97.3475 70.2869C97.3475 70.6799 97.4067 71.0339 97.525 71.3487C97.6434 71.6612 97.8091 71.9086 98.0222 72.0909C98.2353 72.2708 98.4838 72.3608 98.7679 72.3608C99.0307 72.3608 99.2592 72.2886 99.4533 72.1442C99.6474 71.9974 99.8108 71.8139 99.9434 71.5938C100.076 71.3712 100.182 71.1428 100.263 70.9084C100.346 70.6716 100.406 70.4645 100.444 70.2869L101.041 67.5455H101.822L101.183 70.2869L101.055 71.6222H100.771C100.648 71.9157 100.494 72.1761 100.309 72.4034C100.127 72.6283 99.9078 72.8035 99.6522 72.929C99.3989 73.0545 99.1041 73.116 98.7679 73.1136ZM107.774 70.1591H108.512V70.5568H107.859C107.603 70.5568 107.382 70.5982 107.195 70.6811C107.008 70.764 106.863 70.8752 106.762 71.0149C106.66 71.1522 106.609 71.3073 106.609 71.4801C106.609 71.7358 106.733 71.9418 106.982 72.098C107.23 72.2543 107.561 72.3324 107.972 72.3324C108.37 72.3324 108.677 72.2566 108.892 72.1051C109.108 71.9536 109.251 71.7216 109.322 71.4091H110.203C110.172 71.6648 110.097 71.8968 109.979 72.1051C109.86 72.3134 109.703 72.4922 109.507 72.6413C109.31 72.7881 109.079 72.9018 108.814 72.9822C108.549 73.0604 108.254 73.0994 107.93 73.0994C107.508 73.0994 107.131 73.0343 106.797 72.9041C106.466 72.7715 106.204 72.5869 106.012 72.3501C105.823 72.1134 105.728 71.8376 105.728 71.5227C105.728 71.3783 105.755 71.2268 105.81 71.0682C105.867 70.9096 105.967 70.7616 106.112 70.6243C106.258 70.487 106.466 70.3757 106.733 70.2905C107.003 70.2029 107.35 70.1591 107.774 70.1591ZM108.512 70.3864H107.774C107.359 70.3864 107.023 70.3461 106.765 70.2656C106.509 70.1851 106.313 70.081 106.176 69.9531C106.041 69.8229 105.948 69.6809 105.899 69.527C105.851 69.3731 105.828 69.224 105.828 69.0795C105.828 68.7434 105.915 68.4557 106.09 68.2166C106.266 67.9775 106.509 67.794 106.822 67.6662C107.137 67.5384 107.501 67.4744 107.916 67.4744C108.33 67.4744 108.692 67.5372 109.002 67.6626C109.315 67.7881 109.565 67.9692 109.752 68.206C109.941 68.4403 110.058 68.7221 110.103 69.0511H109.222C109.163 68.8049 109.022 68.6061 108.8 68.4545C108.577 68.303 108.283 68.2273 107.916 68.2273C107.542 68.2273 107.242 68.3066 107.017 68.4652C106.792 68.6214 106.68 68.8262 106.68 69.0795C106.68 69.3068 106.777 69.4891 106.971 69.6264C107.168 69.7637 107.463 69.8324 107.859 69.8324H108.512V70.3864ZM111.395 67.5455H112.233V71.6506C112.233 71.9062 112.299 72.0696 112.432 72.1406C112.567 72.2116 112.709 72.2472 112.858 72.2472C112.929 72.2472 113.006 72.2389 113.089 72.2223C113.174 72.2057 113.234 72.1903 113.27 72.1761V72.9716C113.199 72.9929 113.105 73.0142 112.989 73.0355C112.873 73.0592 112.73 73.071 112.56 73.071C112.226 73.071 111.948 72.9657 111.725 72.755C111.505 72.5443 111.395 72.1761 111.395 71.6506V67.5455ZM114.25 66.7855C114.25 66.3665 114.415 66.0303 114.744 65.777C115.073 65.5213 115.528 65.3935 116.111 65.3935C116.366 65.3935 116.595 65.4148 116.796 65.4574C117 65.5 117.212 65.5639 117.432 65.6491V66.4872C117.29 66.4304 117.097 66.3688 116.853 66.3026C116.609 66.2363 116.366 66.2031 116.125 66.2031C115.841 66.2031 115.623 66.2576 115.472 66.3665C115.32 66.473 115.244 66.6103 115.244 66.7784C115.244 66.8636 115.272 66.956 115.326 67.0554C115.383 67.1548 115.488 67.2578 115.642 67.3643C115.798 67.4709 116.026 67.5786 116.324 67.6875C117.041 67.9432 117.563 68.2983 117.89 68.7528C118.219 69.2074 118.384 69.7614 118.384 70.4148V70.5142C118.384 71.0019 118.289 71.4411 118.099 71.8317C117.912 72.2223 117.643 72.5312 117.29 72.7585C116.939 72.9858 116.518 73.0994 116.026 73.0994C115.524 73.0994 115.095 72.9858 114.74 72.7585C114.387 72.5312 114.117 72.2223 113.93 71.8317C113.746 71.4411 113.653 71.0019 113.653 70.5142V70.4148C113.653 70.036 113.726 69.6892 113.87 69.3743C114.014 69.0594 114.207 68.7955 114.449 68.5824C114.69 68.3693 114.955 68.2273 115.244 68.1562V68.1278C114.939 68.0071 114.696 67.8319 114.516 67.6023C114.339 67.3726 114.25 67.1004 114.25 66.7855ZM114.634 70.4148V70.5142C114.634 70.8409 114.682 71.1416 114.779 71.4162C114.879 71.6884 115.03 71.9074 115.234 72.0732C115.44 72.2365 115.704 72.3182 116.026 72.3182C116.343 72.3182 116.603 72.2365 116.807 72.0732C117.01 71.9074 117.161 71.6884 117.258 71.4162C117.355 71.1416 117.403 70.8409 117.403 70.5142V70.4148C117.403 70.1496 117.347 69.888 117.233 69.63C117.119 69.3696 116.96 69.1446 116.754 68.9553C116.548 68.7635 116.305 68.6392 116.026 68.5824C115.704 68.5824 115.44 68.6676 115.234 68.8381C115.03 69.0062 114.879 69.2299 114.779 69.5092C114.682 69.7862 114.634 70.0881 114.634 70.4148ZM119.452 67.5455H120.29V71.6506C120.29 71.9062 120.356 72.0696 120.488 72.1406C120.623 72.2116 120.765 72.2472 120.915 72.2472C120.986 72.2472 121.063 72.2389 121.145 72.2223C121.231 72.2057 121.291 72.1903 121.327 72.1761V72.9716C121.256 72.9929 121.162 73.0142 121.046 73.0355C120.93 73.0592 120.787 73.071 120.616 73.071C120.282 73.071 120.004 72.9657 119.782 72.755C119.562 72.5443 119.452 72.1761 119.452 71.6506V67.5455ZM123.202 67.5455V73H122.221V67.5455H123.202ZM126.817 67.5455L124.132 70.6634H122.875L122.719 69.8253H123.692L125.638 67.5455H126.817ZM125.588 73L123.557 70.6278L124.182 69.9318L126.824 73H125.588ZM130.661 73.1136C130.168 73.1136 129.736 72.9964 129.365 72.7621C128.995 72.5277 128.706 72.1998 128.498 71.7784C128.292 71.357 128.189 70.8646 128.189 70.3011C128.189 69.733 128.292 69.237 128.498 68.8132C128.706 68.3894 128.995 68.0604 129.365 67.826C129.736 67.5916 130.168 67.4744 130.661 67.4744C131.153 67.4744 131.584 67.5916 131.953 67.826C132.325 68.0604 132.614 68.3894 132.82 68.8132C133.028 69.237 133.132 69.733 133.132 70.3011C133.132 70.8646 133.028 71.357 132.82 71.7784C132.614 72.1998 132.325 72.5277 131.953 72.7621C131.584 72.9964 131.153 73.1136 130.661 73.1136ZM130.661 72.3608C131.035 72.3608 131.343 72.2649 131.584 72.0732C131.825 71.8814 132.004 71.6293 132.12 71.3168C132.236 71.0043 132.294 70.6657 132.294 70.3011C132.294 69.9366 132.236 69.5968 132.12 69.282C132.004 68.9671 131.825 68.7126 131.584 68.5185C131.343 68.3243 131.035 68.2273 130.661 68.2273C130.287 68.2273 129.979 68.3243 129.737 68.5185C129.496 68.7126 129.317 68.9671 129.201 69.282C129.085 69.5968 129.027 69.9366 129.027 70.3011C129.027 70.6657 129.085 71.0043 129.201 71.3168C129.317 71.6293 129.496 71.8814 129.737 72.0732C129.979 72.2649 130.287 72.3608 130.661 72.3608ZM134.412 67.5455H135.25V70.8977C135.25 71.2528 135.302 71.5357 135.406 71.7464C135.512 71.9548 135.65 72.1051 135.818 72.1974C135.988 72.2874 136.168 72.3324 136.358 72.3324C136.661 72.3324 136.928 72.2389 137.16 72.0518C137.395 71.8648 137.577 71.6127 137.707 71.2955C137.84 70.9782 137.906 70.6231 137.906 70.2301C137.901 69.9602 137.869 69.669 137.81 69.3565C137.753 69.044 137.677 68.7315 137.583 68.419C137.49 68.1065 137.39 67.8153 137.281 67.5455H138.162C138.261 67.7443 138.353 67.9929 138.439 68.2912C138.526 68.5895 138.596 68.9079 138.648 69.2464C138.703 69.585 138.73 69.9129 138.73 70.2301C138.73 70.6018 138.685 70.9605 138.595 71.3061C138.505 71.6494 138.365 71.956 138.176 72.2259C137.986 72.4934 137.744 72.7064 137.448 72.8651C137.152 73.0213 136.798 73.0994 136.386 73.0994C135.804 73.0994 135.329 72.9219 134.962 72.5668C134.595 72.2116 134.412 71.6506 134.412 70.8835V67.5455ZM136.159 66.9347L136.4 65.2727H137.309L136.741 66.9347H136.159ZM142.349 67.4744C142.759 67.4744 143.116 67.5573 143.422 67.723C143.729 67.8887 143.969 68.1255 144.139 68.4332C144.309 68.741 144.395 69.108 144.395 69.5341H143.471C143.471 69.1293 143.366 68.8156 143.155 68.593C142.947 68.3681 142.674 68.2557 142.335 68.2557C142.034 68.2557 141.773 68.3421 141.55 68.5149C141.33 68.6854 141.16 68.9209 141.039 69.2216C140.918 69.5223 140.858 69.8679 140.858 70.2585V70.4574C140.858 70.7344 140.926 70.9901 141.064 71.2244C141.203 71.4588 141.407 71.6636 141.675 71.8388C141.944 72.0116 142.273 72.1477 142.662 72.2472C143.041 72.3442 143.329 72.4425 143.528 72.5419C143.729 72.6413 143.867 72.7502 143.94 72.8686C144.016 72.9846 144.054 73.1184 144.054 73.2699C144.054 73.5563 143.966 73.8381 143.791 74.1151C143.618 74.3944 143.412 74.6335 143.173 74.8324L142.662 74.392C142.856 74.1719 142.983 74.0026 143.042 73.8842C143.101 73.7682 143.131 73.651 143.131 73.5327C143.131 73.3717 143.078 73.2592 142.974 73.1953C142.872 73.1314 142.674 73.0663 142.378 73C141.852 72.8793 141.413 72.7053 141.06 72.478C140.71 72.2507 140.446 71.969 140.268 71.6328C140.093 71.2943 140.006 70.9025 140.006 70.4574V70.2585C140.006 69.7045 140.1 69.2192 140.29 68.8026C140.481 68.3835 140.752 68.058 141.103 67.826C141.456 67.5916 141.871 67.4744 142.349 67.4744Z" fill="white"/>
          </svg> 