<svg width="48" height="48" viewBox="0 0 48 48" fill="none" xmlns="http://www.w3.org/2000/svg">
<circle cx="24" cy="24" r="24" fill="#E9F4FE"/>
<path d="M12.7069 23.4778C13.4689 25.4679 16.5191 25.5063 17.2961 23.4778H12.7069ZM26.582 26.8926V26.2326H21.98V26.8926H26.582ZM26.0045 28.4551V33.596L24.4421 28.4551H21.6525V36.695H26.9095V28.4551H26.0045ZM20.4176 26.8926V24.67H21.2725V23.4699C19.8637 22.4838 19.0133 20.8799 19.0133 19.156V17.8547C19.3738 18.3786 19.9519 18.6962 20.5758 18.7806C20.5758 20.6899 21.163 21.6354 22.8346 22.5988V24.67H25.7271V22.5988C27.0844 21.8166 27.9857 20.8297 27.9857 19.1562V16.5545H24.8066C25.0376 16.9815 25.4906 17.2573 25.9823 17.2573H27.2831V20.6745H25.7206V18.8077C24.2371 18.6742 23.0847 17.4161 23.0847 15.9219V14.9918H29.5486V19.156C29.5486 20.8795 28.6988 22.4843 27.2898 23.4698V24.67H28.1447V26.8926H28.4722V38.2576H20.0906V26.8926H20.4179L20.4176 26.8926ZM27.302 13.8896V14.6014H25.7525V13.8896C25.7525 13.4368 25.0555 13.4176 25.0555 13.8896V14.6014H23.506V13.8896C23.506 13.4349 22.809 13.4241 22.809 13.8896V15.9221C22.809 16.8326 23.1995 17.7129 23.8628 18.3292C23.2916 18.4963 22.5263 18.4136 22.0339 18.0817C20.9237 18.8295 19.0133 18.3115 19.0133 16.5262V13.8897C19.0133 12.0731 20.8989 11.5944 22.0123 12.3324C22.6615 11.8852 23.5964 11.8935 24.2588 12.332C24.9081 11.8848 25.8432 11.8937 26.5052 12.3324C27.6116 11.5704 29.548 12.1308 29.548 13.8897V14.6016H27.9985V13.8897C27.9985 13.4331 27.3019 13.4189 27.3019 13.8897L27.302 13.8896ZM20.5623 13.8896V16.5261C20.5623 16.9873 21.2595 16.9859 21.2595 16.5261V13.8896C21.2595 13.4274 20.5623 13.4306 20.5623 13.8896ZM12.6479 14.9574H14.3089L15.0483 13.2131L15.7872 14.9574H18.5791V16.4044H16.4004L18.7351 21.9155H19.0021V22.6963C19.0021 27.8229 11 27.7166 11 22.6963V21.9155H11.3604L13.6962 16.4044H12.6481L12.6479 14.9574ZM29.9819 14.9574H32.8681L33.6074 13.2131L34.3464 14.9574H36.0062V16.4044H34.9595L37.2943 21.9155H37.5612V22.6963C37.5612 27.7166 29.5592 27.8229 29.5592 22.6963V21.9155H29.9196L32.2553 16.4044H29.9821L29.9819 14.9574ZM31.2654 23.4779C32.042 25.5065 35.0922 25.468 35.8546 23.4779H31.2654ZM35.6036 21.9158L33.607 17.2026L31.6096 21.9158H35.6036ZM17.0441 21.9158L15.0475 17.2026L13.0501 21.9158H17.0441Z" fill="#0083FD" stroke="#E9F4FE" stroke-width="0.5"/>
</svg>
