<svg width="284" height="15" viewBox="0 0 284 15" fill="none" xmlns="http://www.w3.org/2000/svg">
<rect opacity="0.4" y="7" width="93" height="1" fill="#191B1D"/>
<rect opacity="0.4" x="191" y="7" width="93" height="1" fill="#191B1D"/>
<path opacity="0.6" d="M112.42 7.63636C112.42 8.55682 112.254 9.35227 111.922 10.0227C111.589 10.6932 111.134 11.2102 110.554 11.5739C109.974 11.9375 109.313 12.1193 108.568 12.1193C107.824 12.1193 107.162 11.9375 106.582 11.5739C106.003 11.2102 105.547 10.6932 105.214 10.0227C104.882 9.35227 104.716 8.55682 104.716 7.63636C104.716 6.71591 104.882 5.92045 105.214 5.25C105.547 4.57955 106.003 4.0625 106.582 3.69886C107.162 3.33523 107.824 3.15341 108.568 3.15341C109.313 3.15341 109.974 3.33523 110.554 3.69886C111.134 4.0625 111.589 4.57955 111.922 5.25C112.254 5.92045 112.42 6.71591 112.42 7.63636ZM111.398 7.63636C111.398 6.88068 111.271 6.2429 111.018 5.72301C110.768 5.20312 110.429 4.80966 110 4.54261C109.574 4.27557 109.097 4.14205 108.568 4.14205C108.04 4.14205 107.561 4.27557 107.132 4.54261C106.706 4.80966 106.366 5.20312 106.114 5.72301C105.864 6.2429 105.739 6.88068 105.739 7.63636C105.739 8.39205 105.864 9.02983 106.114 9.54972C106.366 10.0696 106.706 10.4631 107.132 10.7301C107.561 10.9972 108.04 11.1307 108.568 11.1307C109.097 11.1307 109.574 10.9972 110 10.7301C110.429 10.4631 110.768 10.0696 111.018 9.54972C111.271 9.02983 111.398 8.39205 111.398 7.63636ZM114.061 12V5.45455H115.033V6.44318H115.101C115.22 6.11932 115.436 5.85653 115.749 5.65483C116.061 5.45312 116.413 5.35227 116.805 5.35227C116.879 5.35227 116.972 5.35369 117.082 5.35653C117.193 5.35937 117.277 5.36364 117.334 5.36932V6.39205C117.3 6.38352 117.222 6.37074 117.099 6.35369C116.98 6.33381 116.854 6.32386 116.72 6.32386C116.402 6.32386 116.118 6.39062 115.868 6.52415C115.621 6.65483 115.425 6.83665 115.28 7.0696C115.138 7.29972 115.067 7.5625 115.067 7.85795V12H114.061ZM122.037 12V3.27273H123.094V11.0625H127.151V12H122.037ZM131.31 12.1364C130.719 12.1364 130.201 11.9957 129.755 11.7145C129.311 11.4332 128.965 11.0398 128.715 10.5341C128.468 10.0284 128.344 9.4375 128.344 8.76136C128.344 8.07955 128.468 7.48437 128.715 6.97585C128.965 6.46733 129.311 6.07244 129.755 5.79119C130.201 5.50994 130.719 5.36932 131.31 5.36932C131.901 5.36932 132.418 5.50994 132.861 5.79119C133.307 6.07244 133.654 6.46733 133.901 6.97585C134.151 7.48437 134.276 8.07955 134.276 8.76136C134.276 9.4375 134.151 10.0284 133.901 10.5341C133.654 11.0398 133.307 11.4332 132.861 11.7145C132.418 11.9957 131.901 12.1364 131.31 12.1364ZM131.31 11.233C131.759 11.233 132.128 11.1179 132.418 10.8878C132.708 10.6577 132.922 10.3551 133.061 9.98011C133.201 9.60511 133.27 9.19886 133.27 8.76136C133.27 8.32386 133.201 7.91619 133.061 7.53835C132.922 7.16051 132.708 6.85511 132.418 6.62216C132.128 6.3892 131.759 6.27273 131.31 6.27273C130.861 6.27273 130.492 6.3892 130.202 6.62216C129.912 6.85511 129.698 7.16051 129.559 7.53835C129.419 7.91619 129.35 8.32386 129.35 8.76136C129.35 9.19886 129.419 9.60511 129.559 9.98011C129.698 10.3551 129.912 10.6577 130.202 10.8878C130.492 11.1179 130.861 11.233 131.31 11.233ZM138.453 14.5909C137.967 14.5909 137.55 14.5284 137.2 14.4034C136.851 14.2812 136.56 14.1193 136.327 13.9176C136.097 13.7188 135.913 13.5057 135.777 13.2784L136.578 12.7159C136.669 12.8352 136.784 12.9716 136.923 13.125C137.063 13.2812 137.253 13.4162 137.494 13.5298C137.739 13.6463 138.058 13.7045 138.453 13.7045C138.982 13.7045 139.418 13.5767 139.761 13.321C140.105 13.0653 140.277 12.6648 140.277 12.1193V10.7898H140.192C140.118 10.9091 140.013 11.0568 139.876 11.233C139.743 11.4062 139.55 11.5611 139.297 11.6974C139.047 11.831 138.709 11.8977 138.283 11.8977C137.754 11.8977 137.28 11.7727 136.859 11.5227C136.442 11.2727 136.111 10.9091 135.866 10.4318C135.625 9.95455 135.504 9.375 135.504 8.69318C135.504 8.02273 135.622 7.43892 135.858 6.94176C136.094 6.44176 136.422 6.0554 136.842 5.78267C137.263 5.5071 137.749 5.36932 138.3 5.36932C138.726 5.36932 139.064 5.44034 139.314 5.58239C139.567 5.72159 139.76 5.88068 139.893 6.05966C140.03 6.2358 140.135 6.38068 140.209 6.49432H140.311V5.45455H141.283V12.1875C141.283 12.75 141.155 13.2074 140.899 13.5597C140.646 13.9148 140.305 14.1747 139.876 14.3395C139.45 14.5071 138.976 14.5909 138.453 14.5909ZM138.419 10.9943C138.822 10.9943 139.163 10.902 139.442 10.7173C139.72 10.5327 139.932 10.267 140.077 9.92045C140.222 9.57386 140.294 9.15909 140.294 8.67614C140.294 8.20455 140.223 7.78835 140.081 7.42756C139.939 7.06676 139.729 6.78409 139.45 6.57955C139.172 6.375 138.828 6.27273 138.419 6.27273C137.993 6.27273 137.638 6.38068 137.354 6.59659C137.072 6.8125 136.861 7.10227 136.719 7.46591C136.58 7.82955 136.51 8.23295 136.51 8.67614C136.51 9.13068 136.581 9.53267 136.723 9.8821C136.868 10.2287 137.081 10.5014 137.362 10.7003C137.646 10.8963 137.999 10.9943 138.419 10.9943ZM143.124 12V5.45455H144.129V12H143.124ZM143.635 4.36364C143.439 4.36364 143.27 4.29688 143.128 4.16335C142.989 4.02983 142.919 3.86932 142.919 3.68182C142.919 3.49432 142.989 3.33381 143.128 3.20028C143.27 3.06676 143.439 3 143.635 3C143.831 3 143.999 3.06676 144.138 3.20028C144.28 3.33381 144.351 3.49432 144.351 3.68182C144.351 3.86932 144.28 4.02983 144.138 4.16335C143.999 4.29688 143.831 4.36364 143.635 4.36364ZM146.977 8.0625V12H145.971V5.45455H146.943V6.47727H147.028C147.181 6.14489 147.414 5.87784 147.727 5.67614C148.039 5.47159 148.443 5.36932 148.937 5.36932C149.38 5.36932 149.768 5.46023 150.1 5.64205C150.433 5.82102 150.691 6.09375 150.876 6.46023C151.061 6.82386 151.153 7.28409 151.153 7.84091V12H150.147V7.90909C150.147 7.39489 150.014 6.99432 149.747 6.70739C149.48 6.41761 149.113 6.27273 148.647 6.27273C148.326 6.27273 148.039 6.34233 147.787 6.48153C147.537 6.62074 147.339 6.82386 147.194 7.09091C147.049 7.35795 146.977 7.68182 146.977 8.0625ZM158.087 12L155.701 3.27273H156.775L158.599 10.3807H158.684L160.542 3.27273H161.735L163.593 10.3807H163.678L165.502 3.27273H166.576L164.19 12H163.099L161.173 5.04545H161.104L159.178 12H158.087ZM167.756 12V5.45455H168.762V12H167.756ZM168.268 4.36364C168.072 4.36364 167.903 4.29688 167.761 4.16335C167.621 4.02983 167.552 3.86932 167.552 3.68182C167.552 3.49432 167.621 3.33381 167.761 3.20028C167.903 3.06676 168.072 3 168.268 3C168.464 3 168.631 3.06676 168.771 3.20028C168.913 3.33381 168.984 3.49432 168.984 3.68182C168.984 3.86932 168.913 4.02983 168.771 4.16335C168.631 4.29688 168.464 4.36364 168.268 4.36364ZM173.451 5.45455V6.30682H170.059V5.45455H173.451ZM171.047 3.88636H172.053V10.125C172.053 10.4091 172.094 10.6222 172.176 10.7642C172.262 10.9034 172.37 10.9972 172.5 11.0455C172.634 11.0909 172.775 11.1136 172.922 11.1136C173.033 11.1136 173.124 11.108 173.195 11.0966C173.266 11.0824 173.323 11.071 173.365 11.0625L173.57 11.9659C173.502 11.9915 173.407 12.017 173.284 12.0426C173.162 12.071 173.007 12.0852 172.82 12.0852C172.536 12.0852 172.257 12.0241 171.985 11.902C171.715 11.7798 171.49 11.5938 171.311 11.3438C171.135 11.0938 171.047 10.7784 171.047 10.3977V3.88636ZM176.11 8.0625V12H175.104V3.27273H176.11V6.47727H176.195C176.348 6.1392 176.578 5.87074 176.885 5.67188C177.195 5.47017 177.607 5.36932 178.121 5.36932C178.567 5.36932 178.958 5.45881 179.293 5.63778C179.628 5.81392 179.888 6.08523 180.073 6.4517C180.26 6.81534 180.354 7.27841 180.354 7.84091V12H179.348V7.90909C179.348 7.3892 179.213 6.98722 178.944 6.70312C178.676 6.41619 178.306 6.27273 177.831 6.27273C177.502 6.27273 177.206 6.34233 176.945 6.48153C176.686 6.62074 176.482 6.82386 176.331 7.09091C176.184 7.35795 176.11 7.68182 176.11 8.0625Z" fill="#191B1D"/>
</svg>
