<svg width="157" height="75" viewBox="0 0 157 75" fill="none" xmlns="http://www.w3.org/2000/svg">
<path fill-rule="evenodd" clip-rule="evenodd" d="M47.2954 26.3206L52.6937 20.954H61.6309L51.4418 31.1114L47.2954 26.3206Z" fill="white"/>
<path fill-rule="evenodd" clip-rule="evenodd" d="M82.3263 0H5.51448H0L2.79949 4.75915L37.6506 63.8707L41.2371 57.5534L17.8111 17.8217H64.2035L67.7319 11.4991H14.0873L11.0342 6.32263H76.8118L76.8065 6.32792H84.1169L85.0465 4.75915L87.846 0H82.3263Z" fill="white"/>
<path fill-rule="evenodd" clip-rule="evenodd" d="M56.3647 41.0311L38.9656 20.954H30.5513L52.9842 46.7727L47.1951 56.6027L40.397 68.5771L41.2052 69.9504L43.9202 74.5617L46.6404 69.9504L81.0689 11.5044H73.7586L56.3647 41.0311Z" fill="white"/>
<path fill-rule="evenodd" clip-rule="evenodd" d="M33.4248 40.355L38.9234 34.83L43.1068 39.5838L36.7419 45.9804L33.4248 40.355Z" fill="white"/>
<path fill-rule="evenodd" clip-rule="evenodd" d="M94.3589 15.4447V26.1039H96.9101V21.6511H105.002V19.5277H96.9101V17.5628H105.251V15.4447H94.3589Z" fill="white"/>
<path fill-rule="evenodd" clip-rule="evenodd" d="M110.533 18.5189H107.981V26.1039H110.533V18.5189ZM107.981 15.4447V17.5628H110.533V15.4447H107.981Z" fill="white"/>
<path fill-rule="evenodd" clip-rule="evenodd" d="M115.889 18.5189H113.337V26.104H115.889V22.3431C115.889 20.9909 116.628 20.2673 117.917 20.2673H119.174C120.479 20.2673 120.97 20.8219 120.97 22.1424V26.104H123.521V21.6353C123.521 19.6704 122.386 18.5189 120.141 18.5189H118.081C116.486 18.5189 116.005 19.3007 115.883 19.5965V18.5189H115.889Z" fill="white"/>
<path fill-rule="evenodd" clip-rule="evenodd" d="M133.869 26.1039H136.42V15.4447H133.869V19.6704C133.805 19.5489 133.288 18.5189 131.671 18.5189H129.4C127.329 18.5189 126.099 19.6862 126.099 21.5455V23.1248C126.099 24.8732 127.129 26.1039 129.4 26.1039H131.671C133.082 26.1039 133.869 25.1215 133.869 25.1215V26.1039ZM132.12 20.2672C133.208 20.2672 133.869 20.9275 133.869 21.7092V22.9241C133.869 23.7059 133.208 24.3503 132.12 24.3503H130.398C129.141 24.3503 128.65 23.859 128.65 22.9241V21.7251C128.65 20.8166 129.109 20.2672 130.398 20.2672H132.12Z" fill="white"/>
<path fill-rule="evenodd" clip-rule="evenodd" d="M94.3218 30.4775L99.8045 37.5397V41.1367H102.356V37.5397L107.839 30.4775H104.627L101.067 35.4374L97.5333 30.4775H94.3218Z" fill="white"/>
<path fill-rule="evenodd" clip-rule="evenodd" d="M111.769 33.5148C109.529 33.5148 108.436 34.8828 108.436 36.5572V38.1418C108.436 39.8902 109.635 41.1368 111.769 41.1368H115.334C117.5 41.1368 118.651 39.9061 118.651 38.1735V36.5625C118.651 34.8723 117.547 33.52 115.318 33.52H111.769V33.5148ZM116.1 36.758V37.9728C116.1 38.987 115.577 39.3831 114.457 39.3831H112.719C111.536 39.3831 110.981 38.9394 110.981 37.9834V36.7368C110.981 35.7544 111.536 35.2631 112.719 35.2631H114.457C115.577 35.2684 116.1 35.8653 116.1 36.758Z" fill="white"/>
<path fill-rule="evenodd" clip-rule="evenodd" d="M121.229 33.5464V37.9252C121.229 40.1701 122.597 41.1367 124.53 41.1367H126.97C128.058 41.1367 128.798 40.7194 129.167 40.1701V41.1367H131.719V33.5517H129.167V37.3125C129.167 38.6489 128.259 39.3831 126.97 39.3831H125.972C124.498 39.3831 123.774 38.7545 123.774 37.3125V33.5517H121.229V33.5464Z" fill="white"/>
<path fill-rule="evenodd" clip-rule="evenodd" d="M136.848 33.5464H134.296V41.1314H136.848V37.1223C136.848 36.0923 137.571 35.2947 138.596 35.2947H139.531C140.667 35.2947 140.899 35.8652 141.068 36.6311H143.619C143.619 35.0201 143.033 33.5464 140.302 33.5464H139.029C137.967 33.5464 137.466 33.8686 136.848 34.6503V33.5464Z" fill="white"/>
<path fill-rule="evenodd" clip-rule="evenodd" d="M89.5997 51.5107H84.529C84.529 50.7712 84.8195 50.1268 85.8178 50.1268H88.1683C89.267 50.1321 89.5997 50.7765 89.5997 51.5107ZM92.0453 52.9263V51.6375C92.0453 50.1162 91.2953 48.5527 88.7916 48.5527H85.1681C82.8968 48.5527 81.9883 50.0106 81.9883 51.3469V53.2643C81.9883 54.9229 82.9866 56.1695 85.1205 56.1695H88.855C91.422 56.1695 92.0506 55.018 92.0506 53.6816H89.6103C89.6103 54.2785 89.3198 54.5848 88.7018 54.5848H85.7544C84.7085 54.5848 84.5395 53.877 84.5395 53.2168V52.9263H92.0453Z" fill="white"/>
<path fill-rule="evenodd" clip-rule="evenodd" d="M94.3747 45.505L99.2923 50.6814L93.7778 56.1642H97.5228L101.305 51.9597L105.081 56.1642H108.832L103.317 50.6814L108.23 45.505H104.775L101.305 49.3926L97.8345 45.505H94.3747Z" fill="white"/>
<path fill-rule="evenodd" clip-rule="evenodd" d="M113.253 48.5792H110.702V59.2384H113.253V55.1237C113.528 55.5674 114.341 56.1695 115.466 56.1695H117.753C120.025 56.1695 121.07 54.849 121.07 53.1905V51.5319C121.07 49.5987 119.887 48.5845 117.753 48.5845H115.45C114.283 48.5845 113.686 49.0916 113.253 49.493V48.5792ZM118.519 52.9898C118.519 53.9564 117.949 54.4159 116.739 54.4159H114.911C113.792 54.4159 113.253 53.9088 113.253 52.9898V51.759C113.253 50.8505 113.792 50.3329 114.911 50.3329H116.739C117.954 50.3329 118.519 50.8241 118.519 51.759V52.9898Z" fill="white"/>
<path fill-rule="evenodd" clip-rule="evenodd" d="M131.265 51.5107H126.199C126.199 50.7712 126.49 50.1268 127.488 50.1268H129.839C130.927 50.1321 131.265 50.7765 131.265 51.5107ZM133.705 52.9263V51.6375C133.705 50.1162 132.955 48.5527 130.451 48.5527H126.828C124.556 48.5527 123.648 50.0106 123.648 51.3469V53.2643C123.648 54.9229 124.646 56.1695 126.78 56.1695H130.515C133.082 56.1695 133.71 55.018 133.71 53.6816H131.27C131.27 54.2785 130.979 54.5848 130.361 54.5848H127.414C126.368 54.5848 126.199 53.877 126.199 53.2168V52.9263H133.705Z" fill="white"/>
<path fill-rule="evenodd" clip-rule="evenodd" d="M138.76 48.5792H136.208V56.1643H138.76V52.1552C138.76 51.1252 139.483 50.3276 140.508 50.3276H141.443C142.579 50.3276 142.811 50.898 142.98 51.6639H145.531C145.531 50.0529 144.945 48.5792 142.214 48.5792H140.941C139.88 48.5792 139.378 48.9014 138.76 49.6832V48.5792Z" fill="white"/>
<path fill-rule="evenodd" clip-rule="evenodd" d="M148.368 47.1055V48.5792H147.443V50.3275H148.368V53.3383C148.368 55.0867 149.472 56.1642 151.442 56.1642H153.053C156.307 56.1642 156.74 54.6588 156.74 53.0636H154.189C154.189 53.8295 153.93 54.4158 153.19 54.4158H152.129C151.389 54.4158 150.914 54.0144 150.914 53.0636V50.3275H155.673V48.5792H150.914V47.1055H148.368Z" fill="white"/>
</svg>
