<svg width="21" height="22" viewBox="0 0 21 22" fill="none" xmlns="http://www.w3.org/2000/svg">
<path d="M15.9216 0H4.58759C2.04638 0 0 2.04646 0 4.58759V11.3115C0 13.8527 2.04646 15.8991 4.58759 15.8991H6.81395C6.85897 16.9337 6.76893 18.4628 6.11686 20.1494C5.82447 20.914 6.65662 21.6561 7.37616 21.2514C9.82733 19.8571 11.8963 17.4058 12.9982 15.8992H15.9217C18.4629 15.8992 20.5093 13.8527 20.5093 11.3116V4.58763C20.5093 2.04658 18.4404 4.01737e-05 15.9217 4.01737e-05L15.9216 0ZM15.067 11.2441H5.4421C4.87989 11.2441 4.43017 10.7944 4.43017 10.2322C4.43017 9.66995 4.87989 9.22023 5.4421 9.22023H15.067C15.6292 9.22023 16.079 9.66995 16.079 10.2322C16.079 10.7944 15.6292 11.2441 15.067 11.2441ZM15.067 6.49908H5.4421C4.87989 6.49908 4.43017 6.04936 4.43017 5.48715C4.43017 4.92495 4.87989 4.47522 5.4421 4.47522H15.067C15.6292 4.47522 16.079 4.92495 16.079 5.48715C16.079 6.04936 15.6292 6.49908 15.067 6.49908Z" fill="#191B1D"/>
</svg>
