 <svg width="350" height="255" viewBox="0 0 350 255" fill="none" xmlns="http://www.w3.org/2000/svg">
            <path fill-rule="evenodd" clip-rule="evenodd" d="M349.448 96.4464C345.115 128.75 340.225 145.814 311.68 179.643C283.135 213.473 152.51 235.728 104.219 235.728C55.9271 235.728 -3.58686 198.49 0.16924 155.344C3.92534 112.197 23.5215 76.9327 70.4256 72.5915C118.359 68.1551 160.465 88.6995 207.524 77.6811C248.21 68.1551 260.658 31.8452 288.601 20.3897C345.115 -2.77843 352.395 74.4702 349.448 96.4464Z" fill="url(#paint0_linear_691_1580)"/>
            <path d="M320.372 112.224C318.776 114.93 298.564 128.624 286.304 130.65C283.931 131.043 281.34 131.177 279.279 129.938C278.062 129.207 277.155 128.065 276.293 126.936C274.323 124.354 272.443 121.704 270.659 118.99C269.721 117.564 268.791 116.076 268.473 114.399C267.629 109.959 271.208 105.971 274.745 103.158C282.875 96.6915 292.395 91.9806 302.468 89.4392C304.251 88.9893 306.141 88.6083 307.908 89.1194C310.775 89.9488 312.489 92.8498 313.583 95.6267C314.677 98.4036 315.53 101.441 317.717 103.472C318.216 103.936 321.969 109.517 320.372 112.224Z" fill="white"/>
            <path fill-rule="evenodd" clip-rule="evenodd" d="M211.768 230.2C192.152 233.555 201.501 219.298 204.206 201.453C208.651 172.131 214.133 127.571 214.133 127.571C214.133 127.571 217.707 195.469 217.707 212.002C217.707 228.535 214.132 229.796 211.768 230.2Z" fill="white"/>
            <path d="M190.807 214.046C191.308 218.767 191.836 223.589 193.842 227.892C192.748 218.148 191.653 208.403 190.558 198.658C190.423 197.455 190.463 195.923 191.57 195.432C192.507 206.436 193.903 217.4 195.755 228.287C195.975 229.58 194.033 230.318 192.943 229.59C191.853 228.862 191.504 227.445 191.256 226.157C189.449 216.776 188.456 207.238 188.29 197.685C185.99 198.138 184.377 200.368 183.912 202.666C183.446 204.964 183.895 207.337 184.343 209.639C185.786 217.046 187.228 224.453 188.671 231.861C189.346 235.325 190.02 238.905 189.276 242.356C186.413 229.284 184.111 216.089 182.379 202.819C160.41 216.253 132.102 218.751 108.12 209.373C102.883 207.324 97.6809 204.61 94.2214 200.176C91.4962 196.683 90.0419 192.346 89.2801 187.982C86.5744 172.482 92.119 156.671 99.6447 142.853C102.5 137.61 105.752 132.149 105.522 126.183C105.442 124.129 105 121.855 106.199 120.186C106.369 120.495 98.347 63.113 101.565 50.4204C109.312 19.8638 134.479 15.7255 150.592 16.1024C161.404 16.3553 229.934 29.9745 239.836 48.4952C252.849 72.8366 250.086 93.3016 247.775 106.796C247.087 110.814 214.141 127.275 214.132 127.358C212.249 144.868 199.609 183.02 189.008 197.083C189.608 202.737 190.208 208.391 190.807 214.046Z" fill="white"/>
            <path fill-rule="evenodd" clip-rule="evenodd" d="M32.6226 142.8C26.4441 140.334 19.0813 141.065 13.511 144.699C12.9717 145.051 12.1964 144.659 11.9294 144.073C11.6624 143.488 11.7623 142.807 11.8989 142.179C13.6779 133.992 20.7651 127.728 28.6466 124.849C36.5282 121.97 45.1493 121.962 53.5274 122.454C54.3588 122.503 55.2277 122.568 55.9368 123.004C56.6459 123.439 57.123 124.371 56.7696 125.124C53.4738 132.142 50.9911 139.54 49.3868 147.124C49.1267 148.354 47.8525 149.169 46.5975 149.272C45.3426 149.374 44.1129 148.911 42.9741 148.375C39.4248 146.705 36.2661 144.255 32.6226 142.8Z" fill="white"/>
            <path fill-rule="evenodd" clip-rule="evenodd" d="M222.533 19.2098C222.84 14.5133 222.486 9.77417 221.485 5.17545L221.463 5.07737C221.293 4.29981 221.119 3.50001 221.275 2.72182C221.621 1.00073 223.533 -0.0352166 225.288 0.000915157C227.043 0.0370469 228.669 0.874912 230.223 1.69315C237.671 5.61716 245.255 9.6402 251.119 15.6807C251.303 20.5709 250.151 25.3968 249.013 30.1608L248.906 30.6085C244.157 50.5202 240.267 70.637 237.253 90.8841C236.964 92.8248 236.416 95.114 234.575 95.7937C233.255 96.2812 231.72 95.6582 230.782 94.6088C229.844 93.5594 229.395 92.1661 229.083 90.7938C228.311 87.4081 228.218 83.869 228.811 80.4474C229.174 78.355 229.787 76.3197 230.4 74.2839L230.4 74.2837L230.4 74.2835L230.4 74.2833L230.4 74.2831L230.4 74.283L230.4 74.2828L230.4 74.2826C230.951 72.4552 231.501 70.6275 231.871 68.7576C232.241 66.8873 232.427 64.9863 232.608 63.0885C233.569 52.9965 234.384 42.8907 235.054 32.7751C235.148 31.3457 235.234 29.8713 234.766 28.5175C233.933 26.1094 231.507 24.5875 229.057 23.8896C228.634 23.7693 228.205 23.667 227.776 23.5648C226.778 23.3267 225.78 23.0888 224.869 22.6248C223.567 21.9614 222.438 20.668 222.533 19.2098ZM227.085 18.8237C230.549 19.5547 233.934 20.6584 237.163 22.1098C237.813 22.402 238.497 22.7441 238.848 23.3643C239.135 23.8709 239.151 24.481 239.16 25.0631C239.261 31.9 239.283 38.7551 238.559 45.5543C238.125 49.6257 237.426 53.6615 236.727 57.697C236.506 58.9744 236.284 60.2517 236.071 61.5301C235.018 67.856 234.17 74.2162 233.529 80.5972C233.064 85.2271 232.724 90.0125 234.164 94.4372C234.903 94.3022 235.188 93.4123 235.328 92.6743L248.637 22.5228C248.959 20.8231 249.282 19.0657 248.902 17.378C248.236 14.4231 245.614 12.3685 243.085 10.7014C238.217 7.49207 233.036 4.75875 227.638 2.55303C227.189 7.9633 227.004 13.3955 227.085 18.8237ZM233.929 64.8961C236.365 52.3855 237.466 39.6151 237.206 26.872C237.187 25.9096 237.135 24.8753 236.546 24.1136C236.115 23.5555 235.456 23.2286 234.812 22.9402C232.395 21.8572 229.853 21.0514 227.253 20.5435C226.5 20.3965 225.394 20.5558 225.427 21.3219L234.772 25.1836C235.32 25.4101 235.904 25.6663 236.214 26.1721C236.518 26.6682 236.488 27.2913 236.449 27.8717L233.929 64.8961ZM225.232 1.31559C224.462 0.804846 223.349 1.33133 222.92 2.15C222.49 2.96868 222.556 3.94874 222.653 4.86794C222.796 6.21661 222.984 7.56598 223.172 8.91555C223.693 12.6597 224.214 16.4054 223.771 20.1418C224.478 20.3843 225.267 19.8862 225.61 19.2223C225.953 18.5583 225.962 17.7785 225.963 17.0312L225.986 3.55727C225.988 2.73378 225.919 1.77061 225.232 1.31559ZM232.152 94.1332C231.727 90.8034 231.616 87.4338 231.82 84.0833C231.929 82.2917 232.128 80.5064 232.327 78.7215L232.327 78.7213C232.59 76.3608 232.852 74.001 232.907 71.628C230.966 77.405 230.233 83.5849 230.769 89.6556C230.909 91.2348 231.167 92.8907 232.152 94.1332ZM233.22 68.2154C233.532 68.0754 233.664 67.6368 233.479 67.3483C233.162 67.5047 233.027 67.9474 233.204 68.254L233.22 68.2154ZM230.318 39.2818C214.872 29.7557 197.406 24.0483 179.939 19.1234C174.356 17.549 168.726 16.0405 162.96 15.3946C145.878 13.4808 128.56 19.3748 114.356 29.0556C108.659 32.9382 103.163 37.714 100.702 44.1535C98.8758 48.9314 98.8884 54.1914 99.0645 59.3034C99.672 76.934 101.934 94.4608 104.194 111.956C105.96 111.638 106.135 109.194 105.879 107.418C103.529 91.1017 102.212 74.637 101.937 58.155C101.86 53.5332 101.885 48.7949 103.484 44.4581C106.379 36.6074 113.847 31.4731 121.174 27.4325C130.403 22.3432 140.436 18.0651 150.972 17.838C163.736 17.563 175.834 23.2245 186.983 29.4425C193.199 32.909 199.502 36.78 203.456 42.6976C207.047 48.0708 208.351 54.6193 209.293 61.0129C212.284 81.3048 212.393 101.897 212.497 122.408C212.501 123.238 212.45 124.189 211.8 124.704C211.356 125.057 210.749 125.101 210.183 125.131L189.36 126.215C199.063 129.004 209.827 127.904 218.764 123.209L241.901 111.054C244.061 109.92 246.289 108.728 247.778 106.796C249.826 104.136 250.12 100.558 250.216 97.2025C250.573 84.8093 249.334 72.371 246.539 60.2918C247.508 73.3586 247.642 86.4872 246.941 99.571C246.821 101.805 246.642 104.15 245.427 106.028C244.129 108.035 241.873 109.172 239.724 110.217L214.754 122.353C215.787 102.952 214.986 83.4539 212.364 64.2034C211.482 57.7286 210.357 51.1633 207.394 45.3392C200.391 31.5755 184.892 24.7671 170.568 18.9979C191.984 25.2633 213.644 31.6324 232.911 42.888C233.161 41.333 231.659 40.1086 230.318 39.2818ZM310.116 98.5032C311.226 101.365 312.787 104.414 315.655 105.505C316.335 105.557 316.741 104.656 316.518 104.012C316.332 103.474 315.894 103.083 315.464 102.698L315.463 102.698C315.418 102.657 315.372 102.616 315.328 102.576C315.289 102.54 315.25 102.505 315.212 102.47C313.386 100.774 312.49 98.3764 311.607 96.0149C311.433 95.548 311.259 95.0824 311.078 94.624C309.984 91.8471 308.27 88.946 305.403 88.1166C303.636 87.6056 301.746 87.9866 299.963 88.4364C289.89 90.9779 280.37 95.6888 272.24 102.155C268.703 104.969 265.124 108.956 265.968 113.396C266.286 115.073 267.216 116.561 268.154 117.987C269.938 120.701 271.818 123.352 273.788 125.933C274.65 127.063 275.557 128.204 276.774 128.936C278.835 130.174 281.426 130.04 283.799 129.648C296.059 127.621 306.553 120.001 316.538 112.604C317.058 112.219 317.598 111.809 317.867 111.221C318.137 110.633 318.022 109.815 317.451 109.511C316.796 109.163 316.024 109.644 315.44 110.101C306.148 117.376 296.222 124.485 284.701 127.04C282.517 127.525 280.11 127.81 278.145 126.741C276.675 125.94 275.682 124.502 274.744 123.115L268.932 114.516C268.443 113.791 267.935 113.013 267.917 112.139C267.899 111.265 268.605 110.319 269.472 110.432C277.619 111.492 285.805 112.253 294.007 112.715C294.66 112.751 295.343 112.781 295.938 112.509C296.704 112.159 297.172 111.384 297.58 110.647C301.053 104.387 303.706 97.673 305.449 90.7299C307.767 92.3918 308.848 95.2068 309.88 97.8929L309.881 97.895L309.974 98.1358L310.046 98.3226L310.116 98.5032ZM302.945 90.1804C301.393 95.987 299.097 101.594 296.13 106.822C295.633 107.698 295.081 108.601 294.212 109.11C293.105 109.758 291.729 109.635 290.455 109.493L270.161 107.229C273.528 102.78 278.53 99.8922 283.528 97.4111C288.258 95.0625 293.115 92.9676 298.069 91.1382C299.638 90.559 301.283 89.9979 302.945 90.1804ZM190.81 214.046C191.311 218.767 191.839 223.589 193.845 227.892L190.561 198.658C190.426 197.455 190.466 195.923 191.573 195.432C192.51 206.436 193.906 217.4 195.758 228.287C195.978 229.58 194.036 230.318 192.946 229.59C191.855 228.862 191.507 227.445 191.259 226.157C189.452 216.776 188.458 207.238 188.293 197.685C185.993 198.138 184.38 200.368 183.914 202.666C183.449 204.964 183.898 207.337 184.346 209.638L188.674 231.861C189.348 235.325 190.023 238.905 189.279 242.356C186.415 229.284 184.114 216.089 182.382 202.819C160.413 216.253 132.105 218.751 108.123 209.373C102.885 207.324 97.6837 204.61 94.2242 200.176C91.4989 196.683 90.0447 192.346 89.2829 187.982C86.5772 172.481 92.1218 156.671 99.6475 142.853C99.8435 142.493 100.041 142.132 100.24 141.77C102.933 136.857 105.739 131.739 105.525 126.183C105.51 125.816 105.485 125.442 105.459 125.065C105.339 123.335 105.217 121.557 106.202 120.186C107.523 122.589 108.026 125.433 107.61 128.144C130.353 127.165 153.131 126.968 175.888 127.553C176.153 128.599 174.638 129.086 173.558 129.069C152.321 128.753 131.073 129.114 109.859 130.154C109.187 130.187 108.482 130.231 107.912 130.589C107.313 130.965 106.964 131.625 106.642 132.255C100.621 144.036 94.5806 155.988 91.6703 168.894C90.1737 175.531 89.6006 182.795 92.6679 188.868C93.8315 191.172 95.4773 193.206 97.3149 195.019C107.18 204.749 121.952 207.732 135.806 207.499C144.649 207.351 153.471 206.08 161.996 203.726C171.034 201.231 180.047 197.299 186.215 190.238C189.838 186.092 192.3 181.071 194.456 176.005C198.573 166.332 201.731 156.251 203.868 145.958C205.207 146.24 205.226 148.133 204.917 149.465C201.096 165.949 196.654 183.52 184.069 194.831C172.702 205.047 156.684 208.215 141.425 209.07C132.611 209.563 123.658 209.409 115.12 207.162C106.583 204.915 98.4312 200.42 93.0112 193.452C94.592 199.479 99.9467 203.781 105.521 206.564C120.158 213.873 137.443 213.487 153.605 210.946C164.371 209.254 175.422 206.476 183.801 199.507C190.962 193.55 195.527 185.041 198.962 176.382C202.765 166.797 205.403 156.751 206.799 146.534C207.669 145.985 208.314 147.522 208.204 148.545C206.32 166.054 199.612 183.02 189.011 197.083L190.81 214.046ZM180.631 243.987C179.697 242.41 179.096 240.637 178.878 238.817L177.536 243.364L174.149 230.45C173.887 229.448 173.247 228.194 172.234 228.409C171.249 228.619 171.139 229.97 171.286 230.966C172.023 235.977 173.43 240.888 175.458 245.528L171.856 242.368C171.681 243.873 172.077 245.437 172.947 246.677C171.071 245.295 168.555 244.824 166.307 245.434C167.913 247.666 170.095 249.481 172.582 250.655L169.539 246.408C171.999 247.828 174.576 249.044 177.235 250.041L174.657 246.808L177.843 247.691C175.405 242.146 172.921 236.388 172.98 230.331C173.903 235.259 175.254 240.106 177.012 244.801C177.31 245.597 177.641 246.419 178.276 246.984C178.911 247.548 179.943 247.761 180.608 247.232C181.125 246.822 181.276 246.113 181.393 245.463L182.828 237.506L184.404 247.374C185.599 244.356 189.485 243.599 192.731 243.579C197.018 243.552 201.336 244.024 205.644 244.495C213.409 245.344 221.137 246.19 228.577 244.101C228.358 245.251 227.976 246.37 227.445 247.414C233.448 246.54 239.523 246.157 245.588 246.268C248.151 246.316 250.72 246.451 253.29 246.585C260.083 246.942 266.875 247.298 273.53 246.037L229.361 245.649C230.19 245.601 230.826 244.636 230.543 243.855C230.261 243.074 229.155 242.739 228.487 243.233C228.052 241.852 226.1 241.238 224.953 242.121C225.618 240.072 226.932 238.238 228.66 236.951C226.71 236.846 224.729 237.443 223.162 238.608L227.913 216.621C227.511 216.275 226.841 216.507 226.544 216.946C226.251 217.381 226.218 217.933 226.187 218.457V218.458L226.186 218.474C225.741 225.982 223.093 233.347 218.656 239.419L216.913 234.378L214.416 240.4C213.284 239.523 211.678 239.302 210.351 239.84C210.69 241.128 211.72 242.211 212.989 242.614L213.58 241.03L217.482 243.644C215.991 242.081 215.668 239.525 216.723 237.64L219.084 241.6L223.661 232.549C223.686 236.183 222.129 239.618 220.602 242.916C222.261 241.617 223.688 240.02 224.793 238.226C225.86 240.116 224.695 242.65 222.839 243.774C220.983 244.899 218.688 244.96 216.52 244.869C213.211 244.729 209.878 244.313 206.548 243.898L206.548 243.898C199.071 242.966 191.615 242.037 184.512 244.238L183.488 234.795C181.924 237.622 180.945 240.771 180.631 243.987ZM225.194 244.239C225.033 244.048 225.034 243.74 225.196 243.549L225.325 243.598C225.542 243.079 226.454 243.121 226.622 243.658C226.201 243.962 225.707 244.163 225.194 244.239ZM249.325 143.906C244.181 141.306 238.059 142.007 232.349 142.79C230.735 143.011 229.09 143.243 227.629 143.962C226.167 144.68 224.894 145.981 224.642 147.59C210.696 145.849 197.332 139.711 186.924 130.266C184.665 128.216 182.361 125.297 183.376 122.421C183.696 121.517 184.317 120.754 184.963 120.045C189.815 114.725 196.505 111.526 203.018 108.455C195.637 109.102 188.554 112.692 183.669 118.263C182.549 119.54 181.517 120.966 181.132 122.62C180.18 126.704 183.351 130.534 186.525 133.274C196.654 142.015 209.393 147.692 222.665 149.378C223.461 149.479 223.502 150.598 223.43 151.397C223.106 154.951 225.044 158.419 227.729 160.77C230.414 163.121 233.777 164.532 237.114 165.796C247.45 169.711 258.175 172.594 269.08 174.389C269.801 174.508 270.79 174.452 270.942 173.737C268.425 172.073 265.397 171.438 262.435 170.818L262.424 170.816L262.413 170.814L262.129 170.754L261.956 170.718C254.447 169.137 247.039 167.078 239.791 164.558C236.818 163.524 233.837 162.395 231.245 160.609C228.652 158.823 226.45 156.301 225.621 153.264C225.212 151.764 225.767 149.526 227.31 149.714C233.593 150.483 240.049 151.241 246.184 149.683C247.572 149.33 249.019 148.798 249.865 147.643C250.711 146.487 250.603 144.552 249.325 143.906ZM233.477 148.058C231.321 147.686 229.117 147.587 226.936 147.763C227.996 145.749 230.585 145.219 232.84 144.912C237.74 144.245 242.843 143.594 247.537 145.148C247.848 145.25 248.179 145.381 248.346 145.662C248.567 146.031 248.406 146.533 248.092 146.827C247.778 147.121 247.351 147.254 246.936 147.37C242.574 148.589 237.941 148.826 233.477 148.058ZM162.11 249.632C165.72 249.531 169.351 250.329 172.585 251.934C171.721 253.176 169.983 253.35 168.47 253.408L128.934 254.908C128.571 254.863 128.503 254.304 128.76 254.044C129.017 253.784 129.418 253.751 129.782 253.733L168.378 251.851C166.148 251.646 163.972 250.876 162.11 249.632ZM86.0245 118.877C85.4611 121.571 87.7406 124.446 90.4859 124.65C85.9967 131.415 77.9104 134.754 70.1408 137.11C65.2916 138.581 59.9126 139.789 55.2898 137.714C54.7161 138.064 55.3279 138.928 55.9335 139.219C60.4323 141.387 65.7659 140.179 70.5511 138.751C77.5686 136.657 84.8022 133.95 89.5773 128.398C89.7729 128.17 89.9677 127.936 90.1639 127.7C91.3929 126.223 92.6745 124.683 94.5223 124.341C100.471 123.241 105.426 119.515 110.322 115.833L110.323 115.833C111.433 114.998 112.54 114.165 113.656 113.365C120.435 108.507 127.953 104.682 135.872 102.065C136.571 101.833 137.422 101.404 137.36 100.67C127.542 101.571 118.96 107.426 111.047 113.307L110.783 113.503L110.783 113.503C105.406 117.501 99.786 121.679 93.169 122.67C95.3304 120.965 94.8741 117.026 92.4355 115.749C89.9969 114.472 86.5879 116.182 86.0245 118.877ZM87.857 120.523C87.4157 119.216 88.0968 117.661 89.3072 116.999C89.6508 116.811 90.0352 116.686 90.4269 116.686C91.7194 116.684 92.6634 118.067 92.6719 119.359C92.6804 120.652 92.0252 121.844 91.3883 122.969C89.8987 122.741 88.339 121.951 87.857 120.523ZM234.766 91.721C234.4 91.3136 234.512 90.7648 234.629 90.1964C234.711 89.7946 234.795 89.3831 234.714 89.0047C234.644 88.6765 234.453 88.3971 234.261 88.1168C234.091 87.8688 233.921 87.6201 233.833 87.3363C233.853 86.9613 234.355 86.7688 234.696 86.9244C235.038 87.0799 235.23 87.4469 235.349 87.8031C235.784 89.1026 235.561 90.6047 234.766 91.721ZM201.669 63.2037C202.584 61.0348 204.397 59.1115 206.71 58.6713C207.458 58.5288 207.435 57.2952 206.779 56.9073C206.124 56.5195 205.281 56.7488 204.594 57.0761C201.39 58.601 199.367 61.9577 198.575 65.4161C197.782 68.8746 198.044 72.4764 198.311 76.0144L199.727 94.8207C199.775 95.4601 199.834 96.1315 200.19 96.6648C200.915 97.7511 202.471 97.7851 203.774 97.7023L210.372 97.2833C208.905 96.1343 206.937 95.6505 205.106 95.9888C204.036 96.1864 202.961 95.4808 202.394 94.5522C201.827 93.6237 201.661 92.5124 201.521 91.4337C200.601 84.3757 200.264 77.242 200.513 70.1288C200.596 67.7763 200.754 65.3725 201.669 63.2037ZM218.515 230.134C218.14 230.405 217.764 229.786 217.71 229.327C215.16 207.895 214.776 186.272 214.394 164.692L214.137 150.145C214.129 149.73 214.135 149.276 214.402 148.959C214.86 148.412 215.824 148.663 216.225 149.253C216.625 149.844 216.626 150.608 216.613 151.322C216.22 172.557 216.478 193.834 218.511 214.975C218.536 215.232 218.561 215.489 218.586 215.747C219.052 220.55 219.525 225.425 218.515 230.134ZM197.318 95.0407C196.759 94.734 196.07 94.9076 195.459 95.0883C167.193 103.448 138.992 112.068 111.207 121.907C110.686 122.091 110.092 122.356 109.972 122.895C109.846 123.466 110.383 124.011 110.958 124.117C111.532 124.222 112.114 124.017 112.662 123.815C140.508 113.571 168.773 104.467 197.363 96.5329C197.976 96.3625 197.876 95.3474 197.318 95.0407Z" fill="#00160A"/>
            <path fill-rule="evenodd" clip-rule="evenodd" d="M298.024 222.921C297.366 223.21 296.653 223.479 295.945 223.358C295.237 223.236 294.574 222.571 294.716 221.866C296.017 215.424 294.384 208.449 290.358 203.254C288.947 201.434 287.268 199.832 285.893 197.984C285.027 196.82 284.256 195.355 284.696 193.972C285.321 192.004 287.838 191.525 289.899 191.385C294.688 191.058 299.478 190.732 304.268 190.405C306.475 190.255 309.016 190.233 310.49 191.883C314.591 196.476 322.584 196.785 327.027 192.521C327.714 191.861 328.58 193.175 328.553 194.127C328.467 197.122 327.232 200.07 325.159 202.232C324.669 202.742 324.044 203.242 323.341 203.169C322.638 203.096 322.119 202.086 322.68 201.656C323.882 200.732 325.107 199.785 325.95 198.524C326.794 197.264 327.203 195.611 326.627 194.208C323.534 198.122 320.41 202.013 317.257 205.88C311.791 212.584 305.944 219.442 298.024 222.921ZM306.663 203.192C305.876 203.41 305.037 203.243 304.251 203.021C298.598 201.423 293.39 197.006 287.607 198.04C294.35 203.471 297.93 212.576 296.691 221.145C301.134 220.193 304.643 216.877 307.789 213.599C312.447 208.748 316.869 203.671 321.035 198.393C318.041 198.368 315.057 197.504 312.513 195.925C309.369 196.703 309.784 202.329 306.663 203.192ZM310.768 194.273C308.896 192.066 305.53 192.134 302.646 192.387C298.885 192.718 295.123 193.048 291.362 193.378C289.834 193.513 288.08 193.781 287.284 195.091C293.795 196.454 300.142 198.594 306.148 201.453C306.92 199.026 308.469 196.854 310.51 195.331C310.739 195.16 311.002 194.94 310.972 194.656C310.956 194.51 310.863 194.385 310.768 194.273V194.273Z" fill="#FFB61D"/>
            <path fill-rule="evenodd" clip-rule="evenodd" d="M31.8948 141.627C26.2292 139.361 19.4776 140.033 14.3697 143.371C13.8752 143.694 13.1642 143.334 12.9194 142.797C12.6746 142.259 12.7662 141.634 12.8914 141.056C14.5227 133.535 21.0216 127.78 28.2489 125.136C35.4762 122.491 43.3816 122.484 51.0643 122.936C51.8266 122.981 52.6234 123.04 53.2737 123.441C53.9239 123.841 54.3614 124.697 54.0373 125.388C51.0152 131.836 48.7386 138.632 47.2674 145.599C47.0289 146.729 45.8604 147.478 44.7097 147.572C43.5589 147.666 42.4314 147.241 41.387 146.749C38.1324 145.214 35.2359 142.963 31.8948 141.627ZM32.5425 134.017C32.0375 134.427 31.2483 134.211 30.7732 133.766C30.2981 133.322 30.0273 132.707 29.6539 132.174C27.6507 129.316 23.0537 129.554 20.3288 131.734C17.6039 133.914 16.2854 137.359 15.0847 140.636C23.0788 137.163 32.9249 138.41 39.8019 143.764C40.7409 144.495 41.6725 145.319 42.8287 145.6C43.985 145.881 45.4415 145.376 45.7344 144.222C47.2989 138.061 49.2269 131.991 51.5049 126.056C47.1339 131.489 37.9545 129.62 32.5425 134.017ZM30.8025 130.734C31.2514 131.298 32.0665 131.447 32.776 131.32C33.4856 131.193 34.1302 130.839 34.7913 130.552C37.0674 129.563 39.5883 129.342 42.0286 128.889C44.4688 128.437 46.9858 127.671 48.7036 125.88C44.8277 125.869 40.9518 125.857 37.076 125.845C33.1808 125.834 28.9834 125.916 25.8543 128.236C27.7592 128.305 29.6154 129.242 30.8025 130.734Z" fill="#FFB61D"/>
            <path fill-rule="evenodd" clip-rule="evenodd" d="M213.916 141.108C213.907 137.698 213.898 134.289 213.889 130.88C213.886 129.901 213.884 128.922 213.881 127.943C213.879 127.268 213.992 126.423 214.634 126.213C215.119 126.054 215.653 126.403 215.88 126.86C216.107 127.318 216.105 127.851 216.097 128.361C216.026 133.119 215.955 137.876 215.885 142.634C215.874 143.318 215.76 144.16 215.119 144.4C214.051 143.795 213.92 142.335 213.916 141.108H213.916Z" fill="#00160A"/>
            <path fill-rule="evenodd" clip-rule="evenodd" d="M207.111 137.952C206.617 138.169 206.363 137.356 206.439 136.822C206.712 134.913 206.986 133 207.45 131.128C207.739 129.963 208.156 128.737 209.118 128.019C210.081 127.302 211.733 127.427 212.204 128.531C212.432 129.066 212.337 129.678 212.233 130.25C211.585 133.791 210.712 137.292 209.622 140.723C209.575 140.869 209.525 141.021 209.414 141.126C209.146 141.384 208.662 141.211 208.476 140.889C208.29 140.567 208.314 140.17 208.344 139.799C208.787 139.767 208.994 139.246 209.1 138.814C209.535 137.053 209.969 135.291 210.404 133.529C210.742 132.158 211.051 130.597 210.264 129.424C209.455 129.922 209.151 130.929 208.911 131.847C208.427 133.695 207.943 135.543 207.459 137.391C207.401 137.612 207.32 137.861 207.111 137.952L207.111 137.952Z" fill="#00160A"/>
            <defs>
            <linearGradient id="paint0_linear_691_1580" x1="175" y1="16.1023" x2="175" y2="297.5" gradientUnits="userSpaceOnUse">
            <stop stop-color="#0083FD"/>
            <stop offset="1" stop-color="#246EE9" stop-opacity="0"/>
            </linearGradient>
            </defs>
            </svg>