<svg width="249" height="204" viewBox="0 0 249 204" fill="none" xmlns="http://www.w3.org/2000/svg">
<path fill-rule="evenodd" clip-rule="evenodd" d="M71.5719 176.261C27.1889 158.619 27.4625 180.765 7.68039 148.108C-12.1017 115.452 6.18379 67.3369 64.2347 52.4734C122.286 37.6098 202.951 -32.5286 246.014 84.103C258.115 116.878 234.796 204.174 151.018 204C91.0453 203.874 101.568 187.853 71.5719 176.261Z" fill="url(#paint0_linear_720_261)"/>
<path fill-rule="evenodd" clip-rule="evenodd" d="M138.467 108.635C138.258 108.473 138.312 107.976 138.374 107.642C138.769 105.523 140.672 104.103 142.35 102.779C144.028 101.455 145.765 99.6764 145.59 97.5265C145.355 94.6219 146.714 91.8675 147.544 89.0774C148.374 86.2872 148.521 82.8498 146.406 80.8779C145.673 80.1946 144.739 79.7662 144.001 79.0889C143.262 78.4115 142.732 77.3123 143.151 76.3966C142.794 76.6077 142.436 76.8188 142.078 77.0299C141.979 75.6136 140.345 74.9833 139.115 74.3049C137.007 73.1413 135.464 70.7906 135.634 68.3612C135.803 65.9318 137.955 63.6944 140.351 63.8314C141.38 63.8902 142.702 64.2108 143.213 63.3028C145.101 59.9487 149.998 59.5622 152.222 56.4271C152.707 55.744 155.045 53.7041 154.814 55.1467C154.301 58.3541 157.154 57.4234 158.28 58.766C163.185 64.6183 163.563 73.4864 162.678 81.8908C160.785 99.8747 149.497 117.179 138.467 108.635Z" fill="white"/>
<path fill-rule="evenodd" clip-rule="evenodd" d="M151.784 60.389C152.926 59.1792 154.591 58.4639 156.268 58.4639C159.041 59.8788 161.783 61.7932 164.495 64.207C166.195 63.5443 167.394 63.4096 168.09 63.8031C169.134 64.3932 169.773 65.5127 170.076 66.6601C171.047 70.3394 168.982 74.1461 166.442 77.0084C165.334 78.2567 164.1 79.4492 163.421 80.9664C162.743 82.4837 162.773 84.4629 164.008 85.5897C167.095 88.4068 168.125 92.8512 167.953 96.9926C167.781 101.134 166.581 105.159 165.91 109.251C165.164 113.793 165.071 118.437 165.634 123.004C165.808 124.414 166.058 125.858 166.806 127.073C167.554 128.287 168.908 129.236 170.346 129.132C169.837 129.85 168.608 129.9 168.041 129.226C168.6 129.798 169.159 130.37 169.718 130.943C169.042 130.803 168.365 130.664 167.689 130.524C173.343 133.69 179.199 136.506 185.21 138.952C184.858 137.789 183.62 137.156 182.5 136.652C179.37 135.243 176.241 133.834 173.112 132.425C177.813 132.844 182.352 134.855 185.79 138.04C189.932 141.877 196.636 141.662 201.127 145.097C202.09 145.833 202.957 146.774 203.28 147.932C203.734 149.558 203.007 151.337 201.811 152.545C200.614 153.752 199.012 154.481 197.41 155.079C192.623 156.864 187.476 157.707 182.361 157.542C181.927 156.791 182.361 155.79 183.067 155.277C183.773 154.764 184.673 154.607 185.531 154.425C189.181 153.652 192.677 152.175 195.761 150.103C196.454 149.637 197.206 148.801 196.761 148.101C196.596 147.841 196.303 147.692 196.022 147.56C191.178 145.283 185.767 144.189 180.405 144.401C181.988 144.119 183.571 143.837 185.154 143.556C180.97 141.098 176.571 138.994 172.023 137.276C170.609 136.742 168.887 136.282 167.685 137.19C164.751 139.405 161.817 141.62 158.884 143.836C162.667 143.901 166.432 144.818 169.81 146.495C169.037 148.159 167.3 149.346 165.447 149.476C166.324 148.591 167.2 147.705 168.077 146.82C161.832 143.007 152.925 146.992 146.671 143.194C143.882 141.5 142.032 138.446 139.008 137.203C136.124 136.016 132.837 136.74 129.802 137.478C127.812 137.963 125.721 138.501 124.252 139.91C124.293 138.493 125.661 137.467 127.006 136.962C128.351 136.457 129.845 136.223 130.978 135.347C132.127 134.459 132.714 133.055 133.62 131.927C134.526 130.798 136.131 129.909 137.411 130.602C137.017 127.605 139.602 125.162 141.354 122.682C143.35 119.858 144.417 116.408 144.357 112.968C142.134 114.131 141.134 117.131 142.225 119.367C142.709 120.359 141.744 121.612 140.629 121.69C139.513 121.768 138.49 120.96 137.986 119.977C137.481 118.994 137.39 117.862 137.314 116.763C137.208 115.211 137.119 113.626 137.525 112.122C138.294 109.272 140.708 107.153 143.213 105.538C145.718 103.923 148.468 102.601 150.567 100.5C152.884 98.1815 154.256 94.9729 154.323 91.7209C155.289 96.0542 153.111 60.0933 151.784 60.389ZM141.596 120.016C141.62 119.12 141.337 118.219 140.805 117.492C140.619 118.392 140.928 119.375 141.596 120.016Z" fill="white"/>
<path fill-rule="evenodd" clip-rule="evenodd" d="M110.239 118.602C108.414 119.865 106.525 121.196 105.464 123.123C104.402 125.05 104.451 127.756 106.183 129.139C110.423 132.521 109.067 139.257 111.598 144.009C112.987 146.617 115.66 149.087 114.91 151.936C114.322 154.169 111.884 155.334 109.711 156.214C108.691 156.626 107.612 157.048 106.518 156.907C105.424 156.767 104.351 155.841 104.486 154.767C104.728 152.844 108.157 152.497 108.218 150.561C108.236 150.017 107.953 149.513 107.678 149.041C105.822 145.847 103.966 142.654 102.11 139.46C99.9383 143.924 99.0665 148.987 99.623 153.902C99.7976 155.445 98.6255 156.89 97.2004 157.563C95.7754 158.237 94.1428 158.309 92.562 158.369C91.267 158.418 89.8886 158.447 88.7766 157.794C87.6647 157.141 87.0411 155.531 87.8782 154.56C88.6315 153.687 90.0126 153.804 91.1114 153.42C94.0295 152.402 94.1546 148.453 93.7397 145.441C92.9381 139.623 92.1364 133.805 91.3347 127.987C90.9288 125.04 90.475 121.97 88.7425 119.531C82.7835 111.14 90.58 98.3463 84.9457 89.743C83.2161 87.102 81.4764 84.3607 80.8971 81.2734C80.3177 78.1861 81.1578 74.6357 83.7574 72.8055C85.7086 71.4318 85.9429 68.7392 86.2099 66.3977C86.6988 62.1095 87.8935 57.8995 89.7336 53.9804C85.5372 50.9773 80.4504 49.1868 75.2651 48.8876C75.4257 49.8175 75.7678 50.717 76.2674 51.5228C73.2827 50.4225 70.9826 47.6986 70.436 44.6168C69.9583 45.7059 69.4806 46.795 69.0028 47.8842C64.8938 39.6401 67.8511 29.8463 70.8592 21.1569C71.735 18.6268 72.6109 16.0966 73.4867 13.5665C74.5405 10.5223 76.0473 7.04687 79.2228 6.25274C81.1773 5.76397 83.8116 7.61167 82.7802 9.31219C80.2173 8.68011 81.6071 11.2197 82.5727 10.1451C84.7627 7.7077 86.5485 4.81122 89.1699 2.81288C94.1677 -0.997023 101.604 -0.754366 107.029 2.44302C112.455 5.64041 116.01 11.311 117.769 17.2756C118.024 18.1388 118.24 19.0926 117.862 19.9115C117.485 20.7304 116.25 21.1885 115.626 20.5306C114.757 19.6141 113.549 21.3468 113.607 22.5975C113.899 29.0079 118.053 34.5648 119.985 40.6952C121.869 46.6742 121.601 53.0734 121.315 59.3254C120.917 68.0196 119.816 92.0734 119.459 95.3898C118.785 101.638 117.384 107.837 117.47 114.12C117.58 122.192 120.136 130.022 122.831 137.65C123.952 140.824 125.148 144.068 127.379 146.617C129.61 149.165 133.131 150.904 136.464 150.133C134.1 152.461 130.062 152.379 127.126 150.796C124.191 149.213 122.125 146.464 120.247 143.743C119.049 142.007 115.793 145.461 114.378 143.89C116.118 143.531 117.764 142.74 119.118 141.61C116.158 133.941 113.199 126.271 110.239 118.602ZM95.0385 27.3813C94.7356 27.0796 94.2628 26.7805 93.9102 27.0248C94.2985 27.4107 94.1831 28.1559 93.6955 28.4112C93.1152 28.2028 93.3218 27.3586 93.1593 26.7736C92.9503 26.021 92.0645 25.694 91.2904 25.5162C87.317 24.6039 82.6965 24.4484 80.0563 21.3957C79.8106 21.1116 79.5788 20.7992 79.2457 20.6203C78.5646 20.2547 77.6667 20.5934 77.1832 21.1892C76.6997 21.7851 76.5373 22.5668 76.4245 23.3203C75.8531 27.1361 76.1854 31.0794 77.3877 34.7514C77.6047 35.4141 77.8614 36.0875 78.3449 36.5969C79.6667 37.9895 81.9522 37.5983 83.8643 37.2788C85.6433 36.9814 87.45 36.8429 89.2546 36.8657C90.091 36.8763 90.9154 36.6889 91.73 36.5027C93.8829 36.0105 96.0358 35.5183 98.1886 35.0261C98.2156 32.2054 97.056 29.3912 95.0385 27.3813Z" fill="white"/>
<path fill-rule="evenodd" clip-rule="evenodd" d="M174.276 192.829L179.399 193.575C180.337 193.712 181.372 193.902 181.942 194.636C181.679 194.861 181.281 194.826 180.934 194.777C178.952 194.497 176.97 194.217 174.987 193.938L177.346 196.605C177.752 197.065 178.19 197.545 178.785 197.728C179.307 197.888 180.056 197.939 180.118 198.465C179.4 198.761 178.547 198.578 177.885 198.178C177.223 197.777 176.714 197.185 176.216 196.603C175.416 195.668 174.616 194.733 173.816 193.797C173.607 193.553 173.395 193.19 173.609 192.949C173.763 192.776 174.042 192.795 174.276 192.829ZM201.71 172.074C201.868 172.747 201.162 173.267 200.581 173.631C195.919 176.543 193.613 182.042 191.587 187.194C191.431 187.592 191.39 188.217 191.808 188.282C192.62 186.776 194.213 185.733 195.903 185.599C194.621 186.479 194.107 188.153 194.027 189.719C193.947 191.285 194.207 192.859 194.061 194.42C193.264 194.344 193.059 193.273 193.069 192.463C193.088 190.859 193.107 189.256 193.126 187.652C190.182 189.438 189.474 193.365 189.059 196.814C188.895 197.059 188.48 196.954 188.335 196.696C188.191 196.439 188.234 196.12 188.284 195.829C189.489 188.809 192.23 182.064 196.253 176.218C192.366 178.269 189.048 181.412 186.769 185.201C186.185 184.13 187.017 182.851 187.842 181.956C191.724 177.74 196.479 174.351 201.71 172.074ZM165.554 168.343C167.607 169.748 169.659 171.153 171.712 172.558C174.968 174.787 178.256 177.044 180.895 179.957C180.714 177.295 181.393 174.583 182.81 172.31C182.978 172.041 183.272 171.74 183.564 171.87C183.771 171.962 183.83 172.218 183.863 172.439C184.445 176.259 185.027 180.079 185.608 183.899C183.937 180.84 183.118 177.335 183.265 173.864C182.248 175.474 181.414 177.332 181.671 179.211C182.299 183.796 188.841 186.02 189.1 190.639C183.398 183.721 177.464 176.649 169.512 172.394C173.215 177.57 177.442 182.384 182.111 186.739C183.428 187.968 184.892 189.412 184.798 191.196C181.692 187.603 176.391 186.01 171.775 187.284C174.427 188.254 177.012 189.403 179.504 190.719C180.967 191.491 182.523 192.474 182.96 194.05C178.751 190.949 173.87 188.736 168.74 187.602C172.624 185.375 177.689 185.293 181.644 187.394C175.669 182.091 170.776 175.733 165.922 169.418C165.68 169.103 165.425 168.716 165.554 168.343ZM140.696 147.2C150.293 149.011 159.726 151.659 168.849 155.103C169.93 155.511 171.041 155.952 171.856 156.761C172.829 157.727 173.253 159.088 173.645 160.392C175.287 165.863 176.93 171.334 178.573 176.805C175.618 171.094 173.506 164.962 172.323 158.66C165.049 161.516 156.942 161.113 149.113 160.888C137.05 160.541 124.971 160.724 112.925 161.435C113.729 161.612 114.534 161.79 115.339 161.967C113.501 162.573 111.516 162.523 109.58 162.456C94.9639 161.947 80.3711 160.8 65.8588 159.018C62.7651 158.638 59.513 158.164 57.0554 156.278L50.4073 175.705C50.028 176.814 48.7717 178.156 47.9593 177.301C47.0056 176.299 45.356 177.343 44.4135 178.356C40.8322 182.205 37.2509 186.055 33.6696 189.904C35.7679 186.329 38.4203 183.069 41.5067 180.272C38.092 180.211 34.6813 181.714 32.4551 184.261C33.3101 179.168 38.6358 175.22 43.8507 175.813C40.3731 176.285 37.0982 178.078 34.8581 180.736C38.6381 180.252 42.2799 178.762 45.2926 176.465C46.378 175.638 48.0714 175.714 49.0756 176.635C51.1703 170.47 53.2649 164.305 55.3595 158.14C55.6629 157.248 55.9165 156.129 55.2274 155.475C67.015 151.633 79.4003 149.568 91.8174 149.376C81.9473 150.885 72.0773 152.393 62.2072 153.902C60.6895 154.134 58.8598 154.634 58.5022 156.102C60.2047 156.527 61.9075 156.953 63.6199 157.338C89.8257 163.232 117.134 159.592 144.015 159.911C153.306 160.021 162.835 160.577 171.661 157.721C158.317 151.633 143.843 147.949 129.17 146.908C132.91 145.899 136.887 146.48 140.696 147.2ZM29.7962 152.888C34.0297 153.883 37.8357 156.114 41.5666 158.315C44.3232 159.94 47.3943 162.052 47.6627 165.169L47.6701 165.278L47.593 165.191C44.635 161.915 41.1381 159.106 37.2775 156.911C39.9305 159.859 42.5835 162.807 45.2365 165.755C45.9225 166.517 46.6355 167.475 46.8206 168.424C46.8572 168.38 46.9144 168.351 46.9797 168.356L46.9595 168.343C47.1538 168.393 47.2547 168.608 47.1531 168.754C47.049 168.766 46.9341 168.743 46.8569 168.687C46.893 169.088 46.8239 169.484 46.6081 169.86C45.6828 168.381 44.5191 167.046 43.1735 165.92C44.2379 168.181 45.3022 170.443 46.3665 172.705C45.2839 172.352 44.3308 171.629 43.7098 170.69C43.5679 171.47 43.9188 172.315 44.5754 172.775C43.4917 173.311 42.2659 173.567 41.0536 173.512C41.5419 173.86 42.0303 174.208 42.5186 174.557L32.4049 174.977C32.7161 174.441 33.1473 173.972 33.6592 173.614C25.7749 172.782 20.0122 166.286 23.5449 168.632C29.3259 172.472 36.7353 173.869 43.5558 172.404C39.7805 171.322 36.2328 169.482 33.1955 167.031C35.3488 166.509 37.7349 167.021 39.4748 168.369L39.6003 168.468L34.8983 162.027C33.3308 159.88 31.7633 157.733 30.1958 155.586C34.8532 160.353 39.5106 165.119 44.1681 169.886C41.705 162.757 36.4836 156.581 29.7962 152.888ZM40.2741 173.572L40.2262 173.625C40.0726 173.513 39.9187 173.827 40.0558 173.957C40.2257 174.01 40.4233 173.965 40.5523 173.845C40.4595 173.754 40.3668 173.663 40.2741 173.572ZM209.889 152.186C213.459 152.949 217.029 153.713 220.599 154.477C221.694 154.711 223.078 155.339 222.895 156.441C222.82 156.891 222.479 157.244 222.144 157.554C220.926 158.675 219.549 159.624 218.067 160.363L221.791 161.282C222.778 161.525 223.816 161.797 224.54 162.51C225.264 163.223 225.502 164.533 224.759 165.227C225.823 167.042 226.813 168.9 227.728 170.795C228.182 171.736 228.584 172.961 227.88 173.733C226.668 171.026 225.457 168.319 224.246 165.612C222.655 166.573 220.709 166.931 218.879 166.601C219.39 165.909 220.334 165.725 221.189 165.633C222.045 165.54 222.977 165.456 223.604 164.867C224.23 164.278 224.196 162.986 223.365 162.763C221.035 162.134 218.704 161.506 216.374 160.878C218.113 159.301 219.972 157.856 221.928 156.557C222.029 156.047 221.403 155.727 220.9 155.593C215.434 154.138 209.871 153.047 204.259 152.329C205.943 151.407 208.011 151.784 209.889 152.186ZM29.1503 167.103C29.3893 167.141 29.5787 167.328 29.7571 167.501C31.264 168.956 33.1398 169.981 35.1346 170.439C36.1318 170.668 37.2463 170.806 37.9293 171.608C34.5517 171.961 31.0489 170.491 28.8191 167.785C28.7539 167.706 28.6874 167.621 28.6697 167.518C28.6266 167.267 28.9113 167.065 29.1503 167.103ZM36.0424 168.045C37.7544 169.377 39.7607 170.343 41.8821 170.858C40.1902 169.497 38.1745 168.527 36.0424 168.045ZM39.9306 167.051C40.564 168.637 41.8985 169.941 43.5188 170.555C42.537 169.198 41.3178 168.008 39.9306 167.051ZM72.6151 78.2608C70.2426 79.3979 68.0703 80.9354 66.2224 82.7853C62.0667 86.9454 56.7051 89.9338 50.9343 91.3066L65.5443 83.165C65.3123 81.5845 62.8959 81.8193 61.4432 82.5404C58.9246 83.7908 56.4716 85.1842 54.2151 86.8478C52.876 87.835 51.6085 88.9158 50.4255 90.0792C45.7981 94.6296 42.5417 100.366 40.0868 106.325C36.5592 114.888 34.5724 124.188 35.4187 133.386C36.2651 142.584 40.1051 151.668 46.9265 158.035C47.1657 157.31 47.4048 156.586 47.644 155.861C48.6949 156.376 49.9404 156.496 51.0733 156.192C49.7143 155.416 48.2848 154.57 47.5659 153.198C46.847 151.827 47.2281 149.787 48.7111 149.274C47.2653 148.002 46.2718 146.244 45.9374 144.367C47.5687 144.072 49.2001 143.777 50.8314 143.482C49.2317 139.881 49.5516 135.518 51.6604 132.178C51.9911 131.655 52.5246 131.091 53.1337 131.242C54.1063 131.482 54.3909 133.335 55.3192 132.962L58.9459 127.911L62.4575 123.02L62.3997 123.104C61.0125 125.172 60.9577 128.04 62.2947 130.146C64.1583 128.21 66.6929 126.908 69.3763 126.506C69.5964 127.707 69.8166 128.908 70.0368 130.109C71.0249 129.303 72.0871 128.464 73.3614 128.303C74.6357 128.141 76.1287 128.983 76.1347 130.244C76.1397 131.281 75.2148 132.434 75.8915 133.231C76.8683 132.612 77.9186 131.97 79.0818 131.974C80.245 131.978 81.4785 132.938 81.2883 134.063C80.9981 135.78 80.7079 137.497 80.4177 139.214C82.3898 138.581 85.0788 138.201 86.0705 139.988C86.7841 141.274 86.0414 142.881 85.0748 143.997C84.1082 145.113 82.8749 146.093 82.413 147.485C81.7723 146.189 82.978 144.795 83.9936 143.754C85.0092 142.713 85.921 140.976 84.8646 139.975C83.4551 138.639 81.0286 140.808 79.2225 140.06C79.6162 137.75 80.01 135.44 80.4038 133.129C78.3599 133.122 76.3175 133.707 74.5993 134.793C74.4386 132.967 74.5515 131.119 74.9334 129.325C72.9356 129.738 70.9713 130.306 69.0653 131.024C68.6227 129.866 68.4384 128.613 68.5292 127.379L61.8837 131.192C61.7104 130.546 61.259 129.976 60.6634 129.652C61.2676 133.089 61.8718 136.527 62.476 139.964C60.5871 136.572 59.7066 132.648 59.9694 128.791C57.9018 130.093 56.4133 132.248 55.9487 134.614C54.6336 134.318 53.4729 133.42 52.874 132.235C50.4562 135.572 50.1397 140.257 52.0875 143.878C50.5096 144.555 48.8361 145.016 47.1301 145.245L50.1627 149.965C49.3709 150.067 48.6162 150.43 48.0489 150.981C48.6237 153.537 50.7794 155.685 53.3762 156.289C52.1598 157.037 50.7074 157.41 49.2732 157.343C51.0556 157.85 52.734 158.706 54.1808 159.846C52.1258 159.524 50.1362 158.807 48.3583 157.746C49.2485 159.595 50.8704 161.095 52.8055 161.857C51.6508 161.902 50.4851 161.634 49.4709 161.091C50.5758 162.532 51.134 164.367 51.0147 166.166C50.2325 164.657 49.4502 163.147 48.6679 161.638C48.5822 163.134 48.4964 164.629 48.4106 166.125C48.2321 165.915 48.0515 165.706 47.8687 165.5L47.6861 165.296L47.7284 165.197C48.4084 163.514 47.8887 161.537 46.8785 160.012C45.8424 158.447 44.3511 157.237 42.9684 155.955C37.0902 150.508 32.9724 143.526 28.9388 136.651C27.4212 134.065 25.9036 131.478 24.386 128.891C22.3483 125.418 20.2369 121.473 21.2718 117.596C21.4198 117.042 21.6539 116.473 22.1243 116.133C21.3937 116.947 21.9476 118.244 22.698 119.041C23.4484 119.837 24.4281 120.572 24.5854 121.645C26.2759 133.182 33.5594 143.076 40.6184 152.452C31.9015 137.821 33.3194 118.984 40.3742 103.515C44.2123 95.0994 49.9997 87.0275 58.5084 83.1093C60.4031 82.2368 62.3952 81.5879 64.3818 80.9411C67.1262 80.0477 69.8707 79.1542 72.6151 78.2608ZM182.321 159.955C182.559 160.01 182.838 160.116 182.882 160.357C182.92 160.561 182.763 160.744 182.613 160.886C181.843 161.613 180.924 162.179 179.93 162.54C179.617 162.653 179.626 163.149 179.874 163.372C180.123 163.594 180.484 163.619 180.817 163.633C193.123 164.128 205.429 164.624 217.734 165.119C217.615 165.745 216.79 165.871 216.157 165.853C204.498 165.526 192.842 165.092 181.191 164.549C179.985 164.493 178.35 163.93 178.584 162.739C178.807 161.609 180.436 161.596 181.314 160.855L176.046 160.12C178.08 159.536 180.261 159.479 182.321 159.955ZM110.881 161.578L110.95 161.625C111.283 161.852 111.782 161.799 112.058 161.508C111.706 161.281 111.203 161.311 110.881 161.578ZM107.029 2.44302C112.455 5.64041 116.01 11.311 117.769 17.2756C118.024 18.1388 118.24 19.0926 117.862 19.9115C117.495 20.7083 116.316 21.1635 115.678 20.5816L115.626 20.5306C114.757 19.6141 113.549 21.3468 113.607 22.5975C113.899 29.0079 118.053 34.5648 119.985 40.6952C121.87 46.6742 121.601 53.0734 121.315 59.3254C120.917 68.0196 120.519 76.7137 120.121 85.4079C119.969 88.7394 119.816 92.0734 119.459 95.3898C118.785 101.638 117.384 107.837 117.47 114.12C117.58 122.192 120.136 130.022 122.831 137.65C123.952 140.824 125.148 144.068 127.379 146.617C129.611 149.165 133.131 150.904 136.464 150.133C134.1 152.461 130.062 152.379 127.126 150.796C124.191 149.213 122.125 146.464 120.247 143.743C119.049 142.007 115.793 145.461 114.378 143.89C116.118 143.531 117.764 142.74 119.118 141.61C116.158 133.941 113.199 126.271 110.239 118.602C108.414 119.865 106.525 121.196 105.464 123.123C104.402 125.05 104.451 127.756 106.183 129.139C110.423 132.521 109.067 139.257 111.598 144.009C112.987 146.617 115.66 149.087 114.91 151.936C114.322 154.169 111.884 155.334 109.711 156.214C108.691 156.626 107.612 157.048 106.518 156.907C105.424 156.767 104.351 155.841 104.486 154.767C104.728 152.844 108.157 152.497 108.218 150.561C108.236 150.017 107.953 149.513 107.678 149.041C105.822 145.847 103.966 142.654 102.11 139.46C99.9383 143.924 99.0665 148.987 99.623 153.902C99.7977 155.445 98.6255 156.89 97.2005 157.563C95.7754 158.237 94.1429 158.309 92.5621 158.369C91.267 158.418 89.8886 158.447 88.7766 157.794C87.6647 157.141 87.0412 155.531 87.8782 154.56C88.6315 153.687 90.0126 153.804 91.1114 153.42C94.0296 152.402 94.1547 148.453 93.7398 145.441L91.3347 127.987C90.9288 125.04 90.4751 121.97 88.7426 119.531C82.7836 111.14 90.5801 98.3463 84.9458 89.743C83.2161 87.102 81.4765 84.3607 80.8971 81.2734C80.3178 78.1861 81.1578 74.6357 83.7575 72.8055C85.7086 71.4318 85.9429 68.7392 86.2099 66.3977C86.6989 62.1095 87.8936 57.8995 89.7337 53.9804C85.5372 50.9773 80.4505 49.1868 75.2652 48.8876C75.4257 49.8175 75.7678 50.717 76.2675 51.5228C73.2827 50.4225 70.9827 47.6986 70.4361 44.6168C69.9583 45.7059 69.4806 46.7951 69.0029 47.8842C64.8939 39.6401 67.8512 29.8463 70.8592 21.1569C71.7351 18.6268 72.6109 16.0966 73.4868 13.5665C74.5406 10.5223 76.0474 7.04687 79.2229 6.25274C81.1773 5.76397 83.8116 7.61167 82.7802 9.31219C80.2173 8.68011 77.4888 10.047 75.7984 12.0398C74.108 14.0326 73.2422 16.5575 72.4116 19.0187C69.6253 27.2747 66.8098 36.0706 68.9172 44.518C69.2382 43.9303 69.8498 43.5042 70.5211 43.4006C71.2139 45.3133 72.2778 47.096 73.6388 48.6249C76.5167 47.5859 79.692 47.3536 82.6951 47.9623C82.4664 48.239 82.2377 48.5158 82.009 48.7925C84.3948 50.3898 87.1578 51.4411 90.0175 51.8394C91.5552 49.2783 93.0928 46.7172 94.6304 44.1561L94.9137 43.6834C96.2818 41.3938 97.6142 39.0281 98.0421 36.4155C93.3669 37.5658 88.581 38.2826 83.7689 38.5533C81.6714 38.6713 79.3383 38.6245 77.7929 37.2282C76.8539 36.3798 76.3666 35.1596 76.0082 33.9576C74.7134 29.6149 74.7327 24.9037 76.0629 20.5713C74.1716 20.4604 73.6394 17.7023 74.7368 16.1871C75.8342 14.6718 77.7432 13.9945 79.3341 12.9849C83.3505 10.4363 85.3928 5.69225 89.1699 2.81288C94.1677 -0.997023 101.604 -0.754366 107.029 2.44302ZM156.269 58.4638C160.428 60.5863 164.16 63.5172 167.186 67.0383C167.342 68.9374 167.648 70.8245 168.1 72.6769C168.721 70.8972 169.349 69.0052 168.936 67.168C168.522 65.3308 166.628 63.6817 164.799 64.2271C165.56 63.3082 167.046 63.2129 168.09 63.803C169.134 64.3932 169.774 65.5127 170.077 66.6601C171.047 70.3394 168.982 74.1461 166.443 77.0084C165.335 78.2567 164.1 79.4492 163.422 80.9664C162.743 82.4837 162.774 84.4628 164.008 85.5896C167.095 88.4068 168.125 92.8511 167.953 96.9926C167.781 101.134 166.582 105.159 165.91 109.251C165.165 113.793 165.072 118.437 165.634 123.004C165.808 124.414 166.059 125.858 166.807 127.072C167.554 128.287 168.908 129.236 170.347 129.132C169.885 129.783 168.833 129.885 168.217 129.396L168.163 129.35L168.88 130.084C169.159 130.37 169.439 130.656 169.719 130.943C169.042 130.803 168.366 130.664 167.689 130.524C173.344 133.69 179.199 136.506 185.21 138.952C184.859 137.789 183.62 137.156 182.5 136.652C179.371 135.243 176.242 133.834 173.113 132.425C177.813 132.844 182.353 134.855 185.791 138.04C189.933 141.877 196.636 141.662 201.128 145.097C202.091 145.833 202.957 146.774 203.281 147.932C203.735 149.558 203.008 151.337 201.811 152.545C200.614 153.752 199.012 154.481 197.41 155.079C192.624 156.864 187.477 157.707 182.361 157.542C181.927 156.791 182.361 155.79 183.068 155.277C183.774 154.764 184.674 154.607 185.532 154.425C189.182 153.652 192.677 152.175 195.762 150.103C196.454 149.637 197.207 148.801 196.762 148.101C196.597 147.841 196.303 147.692 196.022 147.56C191.179 145.283 185.768 144.189 180.405 144.401L185.154 143.556C180.97 141.098 176.572 138.994 172.023 137.276C170.609 136.742 168.888 136.282 167.686 137.19C164.752 139.405 161.818 141.62 158.884 143.836C162.667 143.901 166.432 144.818 169.811 146.495C169.038 148.159 167.3 149.346 165.447 149.476C166.324 148.591 167.201 147.705 168.078 146.82C161.833 143.007 152.926 146.992 146.672 143.194C143.882 141.5 142.033 138.446 139.009 137.203C136.124 136.016 132.838 136.74 129.803 137.478C127.812 137.963 125.721 138.501 124.252 139.91C124.293 138.493 125.661 137.467 127.007 136.962C128.352 136.457 129.846 136.223 130.978 135.347C132.127 134.459 132.714 133.055 133.62 131.927C134.526 130.798 136.132 129.909 137.412 130.602C137.017 127.605 139.602 125.162 141.355 122.682C143.35 119.858 144.417 116.408 144.358 112.968C142.134 114.131 141.134 117.131 142.225 119.367C142.71 120.359 141.745 121.612 140.629 121.69C139.514 121.768 138.49 120.96 137.986 119.977C137.482 118.994 137.39 117.862 137.315 116.763C137.208 115.211 137.12 113.625 137.526 112.122C138.295 109.272 140.709 107.153 143.213 105.538C145.718 103.923 148.468 102.601 150.568 100.5C152.884 98.1815 154.257 94.9729 154.324 91.7209C155.29 96.0542 153.011 100.889 149.027 102.959C145.504 104.789 141.922 106.864 139.716 110.13C137.509 113.396 137.118 118.178 139.857 121.026C139.408 118.712 140.036 116.216 141.531 114.377C142.741 112.887 144.433 111.866 146.105 110.904C149.982 108.672 153.951 106.595 157.999 104.678C157.724 103.65 158.589 102.484 159.667 102.428C158.449 100.518 159.604 97.593 161.813 96.9967C161.162 97.8152 160.492 98.6728 160.275 99.6906C160.059 100.708 160.448 101.932 161.42 102.338C159.508 102.351 159.178 105.352 157.421 106.097C153.806 107.632 150.303 109.424 146.948 111.453C146.7 111.603 146.444 111.769 146.205 111.953C146.251 111.952 146.3 111.965 146.35 111.993C146.606 113.72 146.639 115.48 146.448 117.215C146.421 117.457 146.312 117.768 146.063 117.757C145.81 117.745 145.736 117.416 145.736 117.168L145.728 112.767C145.728 112.601 145.773 112.407 145.851 112.25C145.385 112.684 145.049 113.201 145.077 113.817C145.225 117.06 144.263 120.342 142.382 123.007C144.459 121.227 146.535 119.446 148.612 117.665C149.28 117.093 150.71 116.82 150.692 117.692C147.512 119.775 144.28 121.904 141.871 124.822C139.461 127.741 137.956 131.625 138.794 135.295C137.864 134.953 137.782 133.73 137.562 132.776C137.342 131.823 136.164 130.826 135.502 131.555C133.936 133.283 132.369 135.011 130.803 136.739C134.27 134.625 139.179 135.176 142.074 138.005C145.911 141.753 151.14 145.321 156.323 143.815C161.006 142.454 163.743 137.413 168.321 135.739C164.137 125.767 163.253 114.481 165.836 103.995C166.561 101.053 167.559 98.0806 167.233 95.0702C166.729 90.4047 163.17 86.5959 161.986 82.0514C161.479 83.3667 160.169 84.3444 158.746 84.4683C160.375 82.4128 162.004 80.3572 163.633 78.3016C166.126 75.1562 166.686 70.6294 165.016 66.9941C163.346 63.3588 159.511 60.7826 155.464 60.5965C155.975 61.0829 156.485 61.5694 156.995 62.0558C156.065 62.3743 155.135 62.6929 154.206 63.0114C154.031 62.3946 153.857 61.7779 153.682 61.1612C154.377 60.6081 155.072 60.0549 155.767 59.5018C154.439 59.7975 153.112 60.0933 151.784 60.389C152.927 59.1792 154.591 58.4638 156.269 58.4638ZM87.4659 6.56847C83.5646 9.32452 80.3608 12.9057 77.1935 16.4539C76.3984 17.3743 77.8981 18.5196 79.0954 18.795C84.4722 20.0318 90.0566 20.3954 95.5529 19.8667C94.0843 21.9095 91.0923 22.157 88.5726 21.7852C86.053 21.4134 83.4645 20.6254 81.0144 21.3115C86.0241 23.4593 91.3855 24.8151 96.8292 25.3111L94.993 26.3692C98.6841 28.3241 99.818 33.1851 98.9061 37.2018C97.9942 41.2185 95.5392 44.6976 93.5613 48.3265C90.0069 54.8477 87.9074 62.1275 87.4523 69.5091C92.4969 67.7084 94.2185 61.6204 94.6922 56.3745C95.1659 51.1285 95.3819 45.2252 99.3269 41.6535C96.3284 48.3073 95.2545 55.7837 96.2617 62.9913C92.0584 66.7498 87.8551 70.5082 83.6518 74.2666C80.5731 77.0194 82.1063 81.9657 83.8545 85.675C84.0671 86.1262 84.3038 86.6043 84.7396 86.8577C85.82 87.486 87.1435 86.2194 87.2562 84.9922C87.3688 83.765 86.8277 82.5599 86.849 81.3279C86.8703 80.096 87.9299 78.6881 89.1235 79.0717C87.8288 77.9478 89.402 75.9506 90.9162 75.1323C94.9379 72.9586 99.4794 71.7176 104.067 71.5386C105.451 71.4847 106.071 69.8649 106.511 68.5771C106.95 67.2893 108.144 65.8035 109.402 66.3711C107.127 58.5226 111.731 50.3536 111.621 42.1946C114.414 49.8941 107.096 58.8859 110.754 66.2281C109.33 67.1237 107.906 68.0192 106.482 68.9147C107.676 69.3922 108.693 70.2846 109.31 71.3959C102.338 72.0427 95.4912 73.9691 89.2296 77.0458C90.541 77.8906 90.115 80.2783 88.5891 80.6358C86.3266 89.9505 87.3785 100.007 91.5223 108.677C92.2096 105.035 94.797 101.79 98.2341 100.258C94.663 103.037 92.5653 107.335 91.7181 111.728C90.8709 116.122 91.165 120.648 91.6578 125.093C92.1934 129.924 92.9599 134.73 93.954 139.49C94.631 142.731 95.4156 146.076 94.7144 149.312C94.0132 152.549 91.3243 155.647 87.9514 155.645C90.1927 156.937 92.8881 157.453 95.4602 157.084C97.8913 156.734 98.9343 153.783 98.7636 151.378C98.5929 148.973 97.7401 146.515 98.4618 144.211C98.821 143.064 99.5467 142.061 99.9873 140.942C100.777 138.935 100.604 136.71 100.644 134.559C100.733 129.728 101.98 124.921 104.256 120.636C104.649 121.398 104.507 122.394 103.915 123.02C113.536 115.382 119.283 103.26 119.039 91.1205L118.222 92.4108C118.955 79.9285 119.689 67.4461 120.422 54.9638C120.604 51.8765 120.783 48.7587 120.267 45.708C118.8 37.0429 111.833 29.373 112.861 20.6473C110.805 19.9613 108.75 19.2754 106.695 18.5894C109.519 18.8101 112.343 19.0308 115.167 19.2514C115.629 19.2875 116.158 19.3 116.479 18.9711C116.807 18.634 116.758 18.0974 116.658 17.6419C115.389 11.9043 109.719 8.32422 104.542 5.37983C107.398 5.8022 110.087 7.23856 111.999 9.36291C110.254 5.10239 105.558 2.45783 100.885 2.19C96.0861 1.91488 91.3672 3.81243 87.4659 6.56847ZM192.066 153.266C189.957 154.945 187.069 155.175 184.398 155.637C183.939 155.716 183.386 155.896 183.312 156.348C183.799 156.646 184.41 156.634 184.982 156.602C189.674 156.335 194.318 155.291 198.662 153.526C198.418 152.973 197.61 153.044 197.021 153.208C196.581 153.331 196.14 153.454 195.699 153.576C195.197 153.716 194.648 153.854 194.168 153.655C193.687 153.455 193.412 152.753 193.805 152.415C193.143 152.326 192.585 152.852 192.066 153.266ZM103.143 126.974C102.271 129.877 101.878 132.964 102.416 135.944C103.203 140.302 105.878 144.063 108.273 147.814C109.008 148.966 109.751 150.277 109.473 151.608C109.172 153.051 107.79 153.988 106.52 154.773C108.625 155.773 111.021 154.262 112.848 152.829C113.125 152.611 113.422 152.363 113.482 152.02C113.538 151.705 113.379 151.397 113.224 151.116C111.463 147.903 109.702 144.691 107.94 141.479L107.9 139.22C107.877 137.907 107.851 136.58 107.525 135.306C106.746 132.264 104.358 129.874 103.143 126.974ZM54.9647 153.152C55.1152 153.286 55.1948 153.488 55.3504 153.617C55.5894 153.815 55.9332 153.791 56.2408 153.831C56.5483 153.871 56.9036 154.071 56.8769 154.381C56.004 154.85 54.8457 154.716 54.1026 154.06C53.8768 153.831 53.8728 153.42 54.0942 153.187C54.3155 152.954 54.7252 152.937 54.9647 153.152ZM181.102 151.347C181.302 151.381 181.56 151.495 181.516 151.69C181.493 151.787 181.399 151.849 181.312 151.899C180.277 152.492 179.101 152.846 177.907 152.922C177.474 152.949 177.106 153.222 176.773 153.503L176.697 153.568C176.344 153.871 175.963 154.192 175.498 154.241C175.034 154.29 174.5 153.912 174.589 153.459C174.667 153.059 175.133 152.879 175.531 152.768C176.251 152.568 176.971 152.368 177.691 152.167C177.787 152.042 177.823 151.873 177.785 151.72L172.601 151.795C172.404 151.798 172.194 151.798 172.026 151.694C171.859 151.591 171.768 151.344 171.896 151.196C174.95 150.793 178.064 150.845 181.102 151.347ZM168.58 132.63C168.035 133.368 168.366 134.471 169.052 135.084C169.739 135.697 170.675 135.942 171.573 136.166C172.426 136.38 173.279 136.593 174.132 136.807C174.363 136.865 174.63 136.917 174.823 136.779C174.942 136.694 174.964 136.513 174.909 136.392L174.901 136.376L175.367 136.643C182.317 140.595 189.642 143.907 197.214 146.523C198.402 146.933 198.671 148.601 198.044 149.675C197.416 150.749 196.225 151.358 195.093 151.9C194.647 152.114 194.268 152.881 194.764 152.919C196.188 152.241 197.831 152.018 199.388 152.292C200.81 152.542 202.201 151.294 202.405 149.885C202.609 148.476 201.852 147.063 200.777 146.112C199.702 145.162 198.341 144.594 196.997 144.071C188.654 140.826 179.776 138.622 172.243 133.825C171.333 133.246 169.97 132.692 169.326 133.55L168.58 132.63ZM123.161 146.094C124.799 148.25 127.135 149.887 129.745 150.708C130.541 150.958 131.392 151.135 132.209 150.963C132.194 150.571 131.685 150.43 131.291 150.362C129.804 150.108 128.412 149.353 127.401 148.254C126.894 147.701 126.474 147.06 125.866 146.616C125.104 146.06 124.083 145.873 123.161 146.094ZM68.9245 143.053C69.6652 143.094 69.2282 144.486 69.8551 144.878C70.1051 145.034 70.4286 144.96 70.7198 144.908C72.4474 144.602 74.3234 145.384 75.306 146.82C75.5526 147.18 75.3128 147.707 74.9264 147.916C74.5401 148.125 74.0714 148.101 73.6338 148.05C72.9507 147.972 72.4755 148.696 72.2389 149.333C72.0023 149.971 71.7237 150.729 71.0573 150.897C70.5464 151.026 70.0262 150.732 69.6252 150.394C69.2241 150.056 68.8528 149.65 68.3524 149.487C67.8519 149.323 67.1717 149.541 67.0871 150.055C66.9953 150.612 66.2215 150.686 65.6544 150.618L63.6284 150.376C63.5056 149.826 64.2989 149.548 64.8652 149.622C65.4314 149.695 66.1534 149.807 66.4433 149.321C66.5933 149.07 66.5567 148.731 66.7417 148.504C67.0473 148.128 67.6543 148.331 68.0823 148.563C68.5402 148.812 68.9981 149.06 69.456 149.309C69.8755 149.537 70.3287 149.772 70.805 149.724C71.2813 149.677 71.7407 149.207 71.5816 148.761C71.3783 148.192 71.9919 147.644 72.5854 147.499C73.1789 147.354 73.8361 147.405 74.3627 147.099C73.3256 145.795 71.2685 145.422 69.8296 146.276C69.3975 146.532 68.9958 145.869 68.999 145.372C69.0023 144.874 68.9778 144.201 68.4834 144.103C68.107 144.028 67.8059 144.385 67.5354 144.654C67.2648 144.923 66.7503 145.107 66.5468 144.786C66.8037 143.762 67.8578 142.994 68.9245 143.053ZM86.1204 146.131C86.8255 146.389 87.5915 146.698 87.9294 147.336C88.2673 147.974 87.7816 148.97 87.0373 148.844C86.9192 148.685 86.914 148.459 87.0246 148.296C87.1155 148.162 87.2805 148.056 87.2851 147.896C87.2898 147.734 87.1245 147.619 86.9775 147.534C86.2084 147.089 85.4393 146.644 84.6701 146.199C84.9907 145.812 85.6349 145.953 86.1204 146.131ZM112.542 147.712L112.546 147.856C112.558 148.128 112.741 148.387 112.997 148.493C113.18 148.179 112.91 147.716 112.542 147.712ZM59.8259 145.62C59.2176 146.246 58.3997 146.63 57.5602 146.684C57.786 146.942 57.9708 147.242 58.1043 147.567C57.5389 147.777 57.0079 147.197 56.6493 146.681C56.5101 146.481 56.3713 146.193 56.5235 146.004C56.5836 145.93 56.6752 145.896 56.7628 145.867C57.7497 145.54 58.8049 145.455 59.8259 145.62ZM116.454 109.349C114.919 112.1 113.104 114.7 111.045 117.098C110.666 117.54 110.921 118.207 111.181 118.725C115.221 126.767 117.083 135.745 121.3 143.7C121.663 144.385 122.112 145.12 122.863 145.353C123.614 145.585 124.615 144.892 124.321 144.175C119.764 133.047 115.698 121.319 116.454 109.349ZM59.6552 136.887C59.852 137.022 59.8507 137.319 59.8367 137.565C59.7472 139.136 60.0462 140.731 60.6965 142.15C60.9152 142.627 61.623 142.473 61.9952 142.115C62.3674 141.758 62.6736 141.249 63.171 141.16C63.6975 141.067 64.1962 141.531 64.3621 142.063C64.5279 142.596 64.4454 143.174 64.3612 143.727C64.31 144.064 64.2374 144.438 63.9707 144.633C63.7039 144.828 63.216 144.621 63.2914 144.289L63.5887 142.98C63.6272 142.81 63.6644 142.625 63.5924 142.468C63.4701 142.2 63.1002 142.174 62.8466 142.306C62.5931 142.437 62.4041 142.674 62.1657 142.834C61.4022 143.345 60.3261 142.904 59.792 142.136C59.2578 141.369 59.1258 140.382 59.0101 139.439C58.5408 141.017 58.3881 142.697 58.5646 144.34C58.3272 144.583 57.9931 144.162 57.9212 143.823C57.4593 141.639 57.8029 139.279 58.8651 137.339C59.0334 137.032 59.3724 136.693 59.6552 136.887ZM73.7218 140.548C72.5988 140.992 71.6569 141.851 71.1316 142.911C71.0149 143.146 70.603 143.061 70.4941 142.822C70.3852 142.583 70.4853 142.306 70.6095 142.074C70.9324 141.471 71.4228 140.954 72.0151 140.591C71.3207 140.54 70.6264 140.49 69.932 140.439C70.9239 139.454 72.7922 139.508 73.7218 140.548ZM65.0153 138.912C65.5207 138.986 65.9062 139.374 66.2267 139.757C65.905 139.788 65.5956 139.927 65.3655 140.145C65.7648 140.557 66.1641 140.969 66.5633 141.381C65.4707 141.487 64.3543 140.756 64.0572 139.741C63.9189 139.269 64.5099 138.837 65.0153 138.912ZM183.61 99.1129C186.983 109.398 188.818 120.158 189.038 130.95C191.156 129.108 193.901 127.955 196.734 127.718C195.245 128.233 194.29 129.66 193.761 131.107C193.232 132.553 193.016 134.099 192.409 135.516C197.056 134.114 202.142 134.12 206.786 135.533C202.805 136.651 199.045 138.509 195.771 140.977C195.201 140.665 195.698 139.826 196.221 139.446C198.334 137.911 200.681 136.68 203.161 135.805C199.216 135.041 195.062 135.319 191.262 136.601C191.959 134.277 192.555 131.925 193.049 129.552C190.33 130.797 187.846 132.522 185.756 134.619C185.213 134.14 186.002 133.39 186.563 132.93C188.069 131.694 188.131 129.497 188.032 127.585C187.647 120.183 186.644 112.77 184.344 105.703C184.559 113.669 182.898 121.677 179.522 128.941C179.365 129.278 178.828 129.615 178.709 129.263C178.814 128.861 178.919 128.459 179.024 128.056C178.035 126.818 177.566 125.198 177.747 123.641C175.98 125.698 174.444 127.941 173.174 130.319C172.615 130.462 172.566 129.539 172.84 129.045C174.335 126.348 176.226 123.858 178.438 121.674C178.679 123.582 178.92 125.49 179.161 127.398C183.053 118.688 184.382 108.915 182.953 99.5231C183.003 99.2433 183.327 99.041 183.61 99.1129ZM71.421 136.508C71.6498 136.643 71.6999 137.021 71.4508 137.12C71.0475 137.281 71.1135 137.818 71.2113 138.214C71.3091 138.61 71.2342 139.183 70.7954 139.206C70.4143 139.227 70.2225 138.785 70.2014 138.433C70.1802 138.081 70.1696 137.652 69.8353 137.482C68.7844 138.094 67.7336 138.706 66.6827 139.318C66.3795 138.987 66.7093 138.49 67.0553 138.197C68.058 137.347 69.3034 136.745 70.6301 136.466C70.8948 136.411 71.1922 136.373 71.421 136.508ZM165.916 134.859C166.009 135.011 165.809 135.293 165.746 135.114L165.744 135.096C165.637 135.092 165.537 134.969 165.519 134.819C165.653 134.752 165.824 134.708 165.916 134.859ZM22.4285 120.418C22.3554 121.547 22.3572 122.681 22.4339 123.811C22.5055 124.866 22.7057 126.032 23.5564 126.681C23.827 126.888 24.309 126.975 24.4433 126.666C24.4761 126.59 24.478 126.506 24.4786 126.423C24.492 124.655 24.1513 122.884 23.4815 121.242C23.2964 120.788 22.8991 120.257 22.4285 120.418ZM87.9244 101.994L87.3337 106.835C87.1468 108.366 86.9596 109.91 87.0773 111.448C87.2328 113.478 87.9133 115.43 88.6076 117.349C89.0441 118.554 89.5258 119.813 90.5116 120.651C89.9336 117.5 90.0733 114.224 90.9176 111.131C90.9922 110.857 91.073 110.581 91.0681 110.297C91.0605 109.861 90.8518 109.456 90.6584 109.063C89.5056 106.719 88.741 104.192 88.4036 101.611C88.2557 101.387 87.9567 101.73 87.9244 101.994ZM140.805 117.491C140.62 118.392 140.928 119.375 141.597 120.016C141.62 119.12 141.338 118.219 140.805 117.491ZM154.15 55.2564C153.46 58.2454 150.111 59.5351 147.479 61.0502C145.609 62.1273 143.922 63.5328 142.517 65.1855C142.183 65.578 141.57 65.2828 141.094 65.0943C139.606 64.5054 137.804 65.4398 137.128 66.9081C136.452 68.3764 136.77 70.1767 137.644 71.5328C138.518 72.8889 139.877 73.8542 141.305 74.5806C141.753 74.3667 141.616 73.6355 141.225 73.3268C140.834 73.0181 140.31 72.9388 139.895 72.6651C139.508 72.4104 139.244 72.0066 139.013 71.602C138.323 70.3933 137.829 68.9051 138.361 67.617C138.893 66.3288 140.862 65.7192 141.676 66.8451C142.916 68.5585 140.108 71.2361 141.392 72.9158C141.27 72.0919 141.742 71.2138 142.491 70.8721C142.441 72.4129 142.392 73.9537 142.342 75.4945C142.717 75.1026 143.239 74.8584 143.776 74.8226C143.829 76.2367 143.993 77.6466 144.265 79.0345C144.592 78.8244 144.745 78.3718 144.613 78.0025L153.913 86.3983C151.888 85.4677 149.997 84.2358 148.32 82.754C149.993 85.8781 148.36 89.6548 147.364 93.0639C146.521 95.9501 146.155 98.9792 146.286 101.987C145.686 101.357 144.643 101.822 143.955 102.352C141.744 104.054 139.868 106.203 138.468 108.635C138.297 108.343 138.313 107.976 138.375 107.642C138.77 105.523 140.673 104.104 142.351 102.779C144.029 101.455 145.765 99.6764 145.591 97.5266C145.356 94.6219 146.715 91.8676 147.545 89.0774C148.375 86.2872 148.522 82.8498 146.407 80.8779C145.674 80.1947 144.74 79.7662 144.001 79.0889C143.263 78.4116 142.732 77.3123 143.152 76.3966C142.795 76.6077 142.437 76.8188 142.079 77.0299C141.979 75.6136 140.345 74.9834 139.116 74.3049C137.007 73.1413 135.465 70.7906 135.635 68.3612C135.804 65.9318 137.956 63.6944 140.352 63.8314C141.381 63.8902 142.703 64.2108 143.214 63.3028C145.102 59.9487 149.999 59.5623 152.223 56.4272C152.708 55.744 153.435 54.8286 154.15 55.2564ZM85.1252 88.482L85.0684 88.5987C85.2503 88.6411 85.4322 88.6836 85.6142 88.726C85.8524 88.4766 85.7996 87.9831 85.4686 87.8766C85.1375 87.77 84.8217 88.314 85.1252 88.482ZM146.239 76.2932C146.274 76.7999 146.439 77.2983 146.716 77.7354C146.715 77.4223 147.248 77.3386 147.479 77.566C147.71 77.7935 147.711 78.1432 147.698 78.456C148.767 78.3462 149.529 79.3369 150.33 80.0058C152.197 81.5647 154.982 81.5659 157.485 81.433C158.176 81.3963 159.096 81.5156 159.203 82.153C158.027 82.5449 156.747 82.5439 155.5 82.4831C153.55 82.3881 151.574 82.1492 149.796 81.3994C148.017 80.6495 146.443 79.3269 145.821 77.6032C145.643 77.1099 145.688 76.379 146.239 76.2932ZM147.634 74.2205C148.342 76.0612 150.907 77.0223 152.765 76.1427C153.097 75.9854 153.412 75.7779 153.778 75.7131C154.393 75.6041 154.99 75.9171 155.564 76.1532C156.371 76.4857 157.274 76.6815 158.137 76.5138C159 76.346 159.805 75.7556 160.01 74.9486C160.063 74.741 160.082 74.5125 160.228 74.3494C160.374 74.1864 160.715 74.1682 160.787 74.3707C161.201 75.5367 160.279 76.8452 159.061 77.289C157.843 77.7329 156.46 77.4967 155.24 77.0585C154.83 76.9113 154.409 76.739 153.971 76.7699C153.531 76.801 153.141 77.033 152.738 77.2033C150.87 77.9938 148.443 77.3326 147.312 75.7253C147.125 75.4602 146.967 75.1553 146.994 74.8384C147.022 74.5214 147.297 74.2065 147.634 74.2205ZM166.851 72.7496C166.741 73.2686 166.812 73.823 167.049 74.299C167.418 74.131 167.641 73.6976 167.559 73.3053L167.562 73.3036C167.556 72.9633 167.189 72.677 166.851 72.7496ZM153.8 71.7385C154.113 71.7814 154.366 72.0432 154.588 72.3009C155.037 72.8225 155.454 73.3812 155.834 73.9712C154.728 74.2772 153.564 74.3014 152.448 74.0416C152.105 73.9615 151.963 73.4369 152.09 73.0596C152.217 72.6824 152.517 72.4263 152.803 72.1913C153.101 71.946 153.437 71.6886 153.8 71.7385ZM153.168 73.3166L153.274 73.3692L154.01 73.2058C154.093 73.0733 154.124 72.9002 154.095 72.7408C153.727 72.5313 153.219 72.8471 153.168 73.3166ZM139.358 67.4886C138.944 67.9079 138.862 68.5759 138.997 69.154C139.233 70.1678 140.034 70.9942 140.172 72.0265C140.46 71.9469 140.587 71.5938 140.568 71.292C140.548 70.9902 140.43 70.7011 140.417 70.399C140.375 69.3884 141.482 68.3439 140.902 67.521C140.562 67.0377 139.773 67.0694 139.358 67.4886ZM160.781 63.8593C161.957 63.9396 162.873 64.9504 163.509 65.9862C164.023 66.823 164.453 67.8416 164.162 68.7881C163.77 70.0618 162.326 70.5543 161.08 70.8657L159.767 71.1934C159.419 71.2804 159.055 71.3677 158.706 71.2833C158.223 71.1665 157.868 70.7496 157.548 70.3551C156.898 69.5558 156.211 68.6472 156.258 67.6003C156.312 66.3811 157.333 65.4761 158.309 64.8034C159.054 64.2894 159.889 63.7984 160.781 63.8593ZM151.284 65.5246C152.405 66.3041 153.125 67.6754 152.814 68.9552C152.502 70.235 150.987 71.2182 149.663 70.809C148.449 70.4339 147.193 70.0214 146.29 69.171C145.386 68.3207 144.955 66.8985 145.653 65.891C146.044 65.3268 146.719 64.9831 147.411 64.8153C148.728 64.4965 150.19 64.7643 151.284 65.5246ZM160.88 65.2884C160.143 65.3847 159.388 65.4321 158.695 65.7114C158.002 65.9907 157.363 66.5583 157.214 67.3179C157.022 68.3016 157.676 69.2258 158.29 69.9986C158.578 70.361 159.105 70.3601 159.552 70.2948C160.91 70.0961 162.225 69.5833 163.375 68.8041C162.793 68.6637 162.211 68.5233 161.629 68.3829C161.707 68.0178 162.189 68.0008 162.547 68.0146C162.905 68.0284 163.394 67.7926 163.265 67.4439C162.714 67.2723 162.136 67.1954 161.561 67.2172C161.392 67.2236 161.193 67.2583 161.118 67.4164C161.06 67.5393 161.102 67.6849 161.128 67.8195C161.301 68.7197 160.485 69.6695 159.609 69.5886C158.732 69.5077 158.089 68.4234 158.411 67.5688C158.732 66.7141 159.911 66.376 160.606 66.939C160.761 66.7938 160.746 66.4973 160.576 66.3706C161.088 66.0035 161.76 65.8906 162.357 66.0713C162.427 65.7386 162.159 65.4118 161.85 65.3034C161.541 65.195 161.204 65.2461 160.88 65.2884ZM147.884 65.7865C147.025 65.8931 146.011 66.4484 146.166 67.252C146.275 67.8162 146.971 68.1459 147.574 68.0675C148.177 67.989 148.686 67.61 149.112 67.2008L147.328 67.3395C147.094 67.3577 146.751 67.2509 146.836 67.0453C146.859 66.9877 146.915 66.9479 146.969 66.9135C147.743 66.4245 148.861 66.4887 149.566 67.0625C150.254 67.2772 150.919 67.7584 151.038 68.4326C151.158 69.1068 150.453 69.866 149.767 69.6441C149.707 70.1448 150.523 70.2999 150.987 70.0496C152.104 69.4469 152.209 67.8144 151.396 66.8738C150.583 65.9331 149.161 65.6282 147.884 65.7865ZM147.437 68.3629C147.347 69.0338 148.105 69.6737 148.803 69.516C148.598 68.9984 148.137 68.5765 147.582 68.3978L147.437 68.3629ZM149.165 68.6962L149.906 69.2782L149.928 69.1727C150.241 69.013 150.265 68.5206 149.968 68.335C149.671 68.1495 149.198 68.3618 149.165 68.6962ZM159.728 67.6739C159.337 67.712 159.109 68.2897 159.368 68.5982L159.293 68.6046C159.531 68.9314 160.103 68.8804 160.275 68.5117C160.448 68.1429 160.12 67.6358 159.728 67.6739ZM77.1832 21.1892C76.6997 21.7851 76.5373 22.5668 76.4245 23.3203C75.8532 27.1361 76.1855 31.0794 77.3878 34.7514C77.6048 35.4141 77.8615 36.0875 78.345 36.5969C79.6668 37.9895 81.9523 37.5983 83.8643 37.2788C85.6434 36.9814 87.45 36.8429 89.2546 36.8657C90.091 36.8763 90.9154 36.6889 91.7301 36.5027C93.8829 36.0105 96.0358 35.5183 98.1887 35.0261C98.2157 32.2054 97.056 29.3912 95.0385 27.3814C94.7356 27.0796 94.2628 26.7805 93.9102 27.0248C94.2986 27.4107 94.1832 28.1559 93.6956 28.4112C93.1152 28.2028 93.3219 27.3586 93.1594 26.7736C92.9503 26.021 92.0646 25.694 91.2904 25.5162C87.317 24.6039 82.6966 24.4484 80.0563 21.3957C79.8106 21.1116 79.5789 20.7992 79.2457 20.6203C78.5647 20.2547 77.6667 20.5934 77.1832 21.1892ZM105.744 9.5675C108.045 10.6258 110.091 12.2738 111.644 14.3224C111.854 14.5992 112.066 14.9172 112.039 15.2677C111.99 15.9045 111.248 16.1799 110.641 16.3067C109.568 16.5313 108.494 16.7558 107.421 16.9804C107.028 17.0625 106.41 16.8856 106.571 16.5068C107.864 15.6911 109.415 15.3197 110.923 15.4645C111.044 15.2067 110.899 14.9036 110.74 14.6695C110.212 13.8964 109.49 13.2919 108.777 12.6981C107.619 11.7333 106.461 10.7685 105.303 9.80373C105.328 9.60489 105.572 9.47393 105.744 9.5675ZM97.2863 6.43603C98.2976 6.8954 98.6635 8.08619 98.8469 9.14873C98.9609 9.8088 99.047 10.4848 98.9346 11.1451C98.7378 12.3009 97.9299 13.3102 96.9047 13.9398C95.8796 14.5695 94.6558 14.8485 93.4418 14.9125C90.6303 15.0608 87.7727 14.0575 85.7195 12.2011C84.8258 11.3931 84.9466 9.90662 85.6978 8.97366C86.449 8.0407 87.6512 7.55849 88.8329 7.24522C90.171 6.89049 91.5495 6.70179 92.9236 6.51397C93.8669 6.38502 94.8124 6.25589 95.7647 6.22459C96.2819 6.20759 96.8182 6.22341 97.2863 6.43603ZM86.0702 10.1935C85.7605 10.7248 86.2707 11.341 86.7388 11.7507C87.656 12.5533 88.8055 13.416 90.0026 13.1083C90.8054 12.9021 91.6673 12.1991 92.3369 12.6729C92.2805 12.9284 91.9758 13.0516 91.7068 13.0849C91.4378 13.1182 91.1445 13.1099 90.9248 13.263C90.705 13.4162 90.6728 13.8197 90.9331 13.8931C91.7823 14.1328 92.5736 13.4284 93.1777 12.8056C93.7819 12.1827 94.6492 11.526 95.4597 11.868C95.5673 11.9134 95.6793 11.9947 95.6807 12.1078C95.6827 12.2729 95.469 12.3436 95.3018 12.3797C94.41 12.5724 93.6126 13.1395 93.1588 13.9037C94.3464 13.7367 95.4115 13.1313 96.4418 12.5383C97.1705 12.1188 97.9708 11.6035 98.1179 10.798C97.0997 11.0879 96.0408 11.2449 94.9793 11.2635C92.7576 11.3024 90.5975 12.6203 88.4316 12.1424C87.8837 12.0215 87.5066 11.5519 87.1767 11.1136C87.5187 10.7978 88.0661 11.0581 88.5128 11.2101C88.9595 11.3621 89.6764 11.1296 89.51 10.7023C88.9859 10.4874 88.4617 10.2724 87.9376 10.0575C87.3052 9.79813 86.4067 9.61615 86.0702 10.1935ZM91.0579 10.3995C90.9025 10.4203 90.7303 10.4607 90.6481 10.5894C90.5292 10.7755 90.6909 11.0325 90.9054 11.1035C91.1199 11.1745 91.3547 11.1173 91.5735 11.0598C92.114 10.9177 92.6545 10.7757 93.195 10.6337C92.5181 10.3846 91.7755 10.3032 91.0579 10.3995ZM96.0056 9.4844C95.1765 9.78461 94.3118 10.1081 93.7302 10.7516C95.027 10.5345 96.3469 10.4461 97.6623 10.4882C98.128 10.2884 97.9543 9.53167 97.487 9.33544C97.0196 9.1392 96.4828 9.31159 96.0056 9.4844ZM96.669 7.68668C96.2084 7.7227 95.798 7.96605 95.3675 8.1281C94.1447 8.58843 92.7794 8.38848 91.4685 8.32038C90.3172 8.26057 89.1559 8.30906 88.0255 8.52806C87.4177 8.64582 86.7072 8.93087 86.6305 9.52356C87.6666 9.05485 88.8733 9.22214 90.0148 9.30331C92.599 9.48708 95.2205 9.16989 97.6773 8.37619C97.6674 7.93107 97.1296 7.65065 96.669 7.68668ZM78.446 7.83132C78.1401 7.96435 77.8248 8.14875 77.7028 8.45445C77.5809 8.76015 77.7797 9.19131 78.1142 9.18221C79.1284 8.48601 80.4101 8.175 81.6381 8.32712C82.0271 8.37531 82.4244 8.06499 82.4638 7.68228C81.1702 7.23102 79.7011 7.28551 78.446 7.83132ZM91.8301 2.60682L91.8332 2.65162C91.4509 2.51782 90.9797 2.72449 90.8264 3.09317C91.4567 3.05003 92.0804 2.91681 92.6719 2.69902C92.6701 2.35782 92.123 2.42277 91.8301 2.60682ZM99.8931 1.23966C99.6362 1.35458 99.9377 1.82638 100.155 1.6495L100.161 1.66917C100.356 1.51638 100.12 1.13903 99.8931 1.23966Z" fill="#00160A"/>
<defs>
<linearGradient id="paint0_linear_720_261" x1="124.5" y1="18" x2="125" y2="266" gradientUnits="userSpaceOnUse">
<stop stop-color="#0083FD"/>
<stop offset="1" stop-color="#3497F9" stop-opacity="0"/>
</linearGradient>
</defs>
</svg>
