<svg width="285" height="261" viewBox="0 0 285 261" fill="none" xmlns="http://www.w3.org/2000/svg">
<path fill-rule="evenodd" clip-rule="evenodd" d="M158.399 208.056C171.821 199.017 196.666 197.443 192.108 177.72C187.656 157.78 170.918 157.049 140.03 139.049C110 119.268 117.575 105.451 73.2718 103.593C31.0128 103.611 43.8768 164.503 12.7431 155.1C-18.3905 145.697 16.6198 223.468 22.1572 229.225C31.8963 239.35 57.5436 251.43 70.0534 249.718C79.5535 248.451 110.117 241.418 125.081 234.119C139.699 227.307 141.278 220.188 158.399 208.056Z" fill="url(#paint0_linear_695_808)"/>
<path d="M277.953 12.2113L278.042 12.2137C278.788 12.2578 279.357 12.8982 279.312 13.6439L279.164 16.2241L279.068 17.9503C278.078 36.2772 275.726 51.8549 276.278 64.6793L276.364 66.5361C277.027 80.3553 280.552 99.8922 284.116 129.413C284.429 129.633 284.647 129.982 284.687 130.391C284.759 131.135 284.215 131.796 283.471 131.868C266.048 133.556 249.836 134.68 234.836 135.239L232.786 135.313L230.443 135.389C215.279 135.859 193.931 136.088 166.396 136.074C165.649 136.074 165.044 135.468 165.044 134.721C165.044 134.364 155.426 16.1045 155.426 16.1045C155.426 16.1045 277.584 12.2134 277.953 12.2113Z" fill="white"/>
<path d="M254.379 235.042L255.229 235.129C267.319 236.394 275.255 238.219 278.916 240.513L279.145 240.66C281.956 242.529 281.601 244.475 277.56 247.58C273.142 250.976 262.283 254.176 246.035 256.129C225.693 258.574 198.345 258.968 164.001 256.842L160.401 256.618C140.573 255.416 125.361 255.091 97.2058 254.938L89.4338 254.894C72.6717 254.777 65.5472 254.545 58.6695 253.808L58.0155 253.736C49.3931 252.75 44.6279 250.948 43.0314 248.123L42.973 248.017C42.9427 247.96 42.9425 247.961 43.1741 247.726C43.6379 247.256 44.589 246.709 46.0039 246.138L46.3705 245.994C49.437 244.814 54.2841 243.605 60.8822 242.383L62.1319 242.155C75.3046 239.789 94.9488 237.383 121.051 234.942L125.25 234.554L128.833 234.424C187.57 232.319 229.43 232.526 254.379 235.042Z" fill="white"/>
<path fill-rule="evenodd" clip-rule="evenodd" d="M227.149 12.4934C227.655 11.9435 228.51 11.9078 229.06 12.4135C229.61 12.9192 229.646 13.7749 229.14 14.3248C229.14 14.3248 167.609 84.2701 167.05 82.3235C166.742 81.2525 192.618 50.1627 196.688 45.9719L197.817 44.8305C199.726 42.8487 209.177 32.0338 227.149 12.4934Z" fill="#E7EAEE"/>
<path fill-rule="evenodd" clip-rule="evenodd" d="M196.183 27.8379C196.796 27.4103 197.639 27.5601 198.067 28.1727C198.494 28.7852 198.344 29.6285 197.732 30.0561C195.692 31.4805 163.87 63.5818 163.194 63.3262C162.518 63.0706 165.78 59.2565 165.78 59.2565C167.864 57.0752 186.489 37.2821 186.489 37.2821C188.054 35.6124 189.5 34.107 190.883 32.7129C192.253 31.3328 194.019 29.3492 196.183 27.8379Z" fill="#E7EAEE"/>
<path fill-rule="evenodd" clip-rule="evenodd" d="M227.326 235.042L228.176 235.129C240.266 236.394 248.202 238.219 251.863 240.513L252.092 240.66C254.903 242.529 254.548 244.475 250.507 247.58C246.089 250.976 198.346 254.099 164.001 251.972L160.401 251.749C140.573 250.546 125.361 246.975 97.2058 246.823L89.4338 246.778C72.6717 246.661 65.5472 254.545 58.6695 253.808L58.0155 253.736C49.3931 252.75 44.6279 250.948 43.0314 248.123L42.973 248.017C42.9427 247.96 42.9425 247.961 43.1741 247.726C43.6379 247.256 44.589 246.709 46.0039 246.138L46.3705 245.994C49.437 244.814 54.2841 243.605 60.8822 242.383L62.1319 242.155C75.3046 239.789 94.9488 237.383 121.051 234.942L125.25 234.554L128.833 234.424C187.57 232.319 202.377 232.526 227.326 235.042Z" fill="#E7EAEE"/>
<path d="M67.0506 133.91C67.4718 135.014 81.8448 136.745 89.7222 141.401C92.743 143.187 95.0299 150.914 94.8817 151.06C91.3106 154.583 89.37 156.377 87.4476 157.459C80.6898 161.262 75.4815 160.273 70.4386 159.478C64.3769 158.521 60.7751 151.867 63.1384 146.341C63.5088 145.476 64.442 144.211 65.9867 142.431L66.1923 142.197C66.186 142.134 66.1868 142.069 66.1946 142.003C66.2652 141.406 66.274 140.795 66.2207 140.167L66.1012 139.041C65.96 137.783 65.6871 135.648 65.2813 134.585C65.0949 134.096 65.3398 133.549 65.8284 133.363C66.317 133.176 66.8642 133.421 67.0506 133.91Z" fill="white"/>
<path d="M100.24 148.011C100.239 147.783 100.296 147.553 100.417 147.341C100.627 146.972 100.984 146.74 101.372 146.675C101.463 146.593 101.524 146.565 101.559 146.598L101.618 146.657C101.837 146.661 102.058 146.719 102.262 146.835L106.24 149.094C114.488 153.809 123.353 160.822 124.208 166.147C125.177 172.18 118.86 203.578 118.13 203.42C117.4 203.262 103.715 234.36 103.707 234.444C103.68 234.728 91.5142 235.179 78.7162 236.548C74.2436 237.027 85.8591 221.422 90.2291 210.391C97.7233 191.472 100.24 148.011 100.24 148.011Z" fill="white"/>
<path d="M198.374 163.44C193.545 162.387 187.935 162.916 181.525 165.054C176.278 166.804 173.405 169.254 172.689 172.385L172.648 172.572L172.854 172.656C177.138 174.384 181.136 174.822 184.876 173.993L185.149 173.931C187.739 173.312 189.844 171.86 192.341 169.279L192.686 168.918C193.274 168.291 194.66 166.773 194.83 166.59C195.718 165.64 196.396 164.984 197.082 164.449L197.231 164.335C197.578 164.074 198 163.821 198.499 163.574L198.649 163.502L198.374 163.44Z" fill="white"/>
<path d="M150.847 156.002C147.412 154.935 143.336 154.811 138.614 155.649L138.393 155.689L138.441 155.786C140.53 159.977 142.424 162.556 144.007 163.491L144.105 163.547C145.697 164.426 149.488 164.489 155.302 163.622L156.163 163.489L156.141 163.416C156.119 163.333 156.105 163.248 156.1 163.159L156.097 163.07C156.097 159.375 154.417 157.11 150.847 156.002Z" fill="white"/>
<path d="M111.639 136.397C111.542 137.167 111.868 139.996 110.78 141.302C110.349 141.82 109.319 142.191 108.647 141.865C108.35 141.72 109.276 140.429 109.839 138.97C110.056 138.406 109.674 137.725 109.839 137.187C109.983 136.715 110.68 136.376 110.78 136.022C110.94 135.459 111.702 135.889 111.639 136.397Z" fill="white"/>
<path d="M113.519 133.093C113.423 133.863 115.707 137.448 114.567 138.597C112.627 140.551 110.763 137.125 111.326 135.666C111.543 135.102 111.555 134.421 111.719 133.882C111.863 133.411 113.583 132.584 113.519 133.093Z" fill="white"/>
<path d="M134.602 189.71C134.181 191.29 133.824 200.561 135.836 205.795C136.572 207.711 137.653 209.114 139.116 209.659C140.345 210.098 141.623 210.37 142.928 210.551C145.741 210.939 167.235 212.767 176.884 211.506C186.533 210.245 185.987 210.128 190.398 209.346C192.532 208.967 194.972 208.565 197.153 207.709C198.76 207.081 200.227 206.208 201.376 204.967C202.405 203.858 203.041 201.971 203.23 199.862C203.471 197.181 203.06 193.636 202.658 191.852C202.658 191.753 202.636 191.715 202.658 191.684C202.758 191.538 201.458 190.813 197.153 190.636C189.774 190.331 178.265 190.908 167.115 190.792C151.901 190.634 137.358 189.24 134.948 189.494C134.727 189.518 134.611 189.679 134.602 189.71Z" fill="white"/>
<path d="M65.4869 140.221C66.2339 140.217 66.8439 140.818 66.8496 141.565C66.8501 141.643 66.844 141.72 66.8318 141.794L66.9478 141.719C67.5969 141.318 68.4003 141.115 68.2285 142.097C67.9891 143.466 64.5618 145.058 64.5618 147.692C64.5618 151.602 66.0696 155.345 71.493 156.909C86.6826 161.29 94.1844 153.524 96.9925 150.175C96.9912 149.948 97.0484 149.717 97.1691 149.505C97.379 149.136 97.736 148.904 98.1242 148.84C98.2149 148.758 98.2766 148.729 98.3117 148.762L98.3704 148.822C98.5893 148.826 98.8103 148.883 99.0139 148.999L102.993 151.259C111.24 155.974 120.105 162.986 120.96 168.311C121.929 174.345 115.612 205.742 114.882 205.584C114.152 205.426 100.467 236.524 100.459 236.608C100.423 236.991 78.2806 237.679 62.3099 240.517C51.8369 242.379 45.0214 245.87 44.801 246.067C44.2444 246.565 43.5977 247.428 43.0994 246.871C39.7541 243.135 38.8624 232.633 40.1545 217.177L39.4778 217.108C25.6356 215.71 18.8075 211.817 19.2722 203.051C20.4124 181.545 26.4668 164.692 33.5099 154.257C39.7634 144.991 49.7528 140.334 65.4869 140.221Z" fill="white"/>
<path fill-rule="evenodd" clip-rule="evenodd" d="M96.9922 150.175C96.991 149.948 97.0481 149.717 97.1689 149.505C97.3788 149.136 97.7358 148.904 98.124 148.84C98.2147 148.758 98.2764 148.729 98.3114 148.762L98.3702 148.822C98.5891 148.826 98.8101 148.883 99.0137 148.999L102.992 151.259C111.24 155.974 120.105 162.986 120.96 168.311C121.929 174.345 115.612 205.742 114.882 205.584C114.152 205.426 100.467 236.524 100.459 236.608C100.432 236.892 88.2662 237.343 75.4682 238.713C70.9955 239.191 82.6111 223.587 86.981 212.555C94.4752 193.636 96.9922 150.175 96.9922 150.175Z" fill="#E7EAEE"/>
<path d="M97.7045 149.734C97.7309 150.48 97.0988 151.106 96.3519 151.087C92.6201 150.992 92.0268 144.575 92.3847 144.549C92.8802 144.513 93.7268 147.561 95.393 148.672C96.6634 149.518 97.6318 147.677 97.7045 149.734Z" fill="white"/>
<path d="M63.8822 132.592C64.3984 131.974 65.3626 132.522 65.6998 133.188C66.037 133.855 65.77 134.669 65.1034 135.006C61.7017 136.727 57.1723 136.088 54.3817 133.7C49.5344 129.551 49.3359 118.783 49.3359 115.569C49.3359 115.14 54.867 115.646 57.1613 118.648C61.2301 123.97 63.2171 133.389 63.8822 132.592Z" fill="white"/>
<path d="M63.5204 103.349L63.5721 103.064C63.6154 102.811 63.6149 102.537 63.4852 101.178L63.0526 96.926C62.9708 96.115 62.9053 95.4155 62.8485 94.7339L62.8037 94.179C62.4139 89.1708 62.6016 86.3244 63.954 85.0011C67.7713 81.266 69.8804 81.3465 73.8561 82.635L74.6895 82.9061C76.4563 83.4651 77.3413 83.0327 78.5496 82.749L78.8991 82.6697C81.7005 82.056 84.6201 81.9425 87.977 82.2343C89.9402 82.405 91.1551 82.5662 94.271 83.1018L97.9502 83.7463C100.253 84.1516 101.804 84.4038 103.446 84.6277L103.808 84.6743C106.44 84.9928 108.582 84.802 111.167 84.2187C111.22 84.2067 112.612 83.8784 113.158 83.7611L113.487 83.6954C113.999 83.6 114.432 83.5498 114.836 83.5499L114.9 83.5145C118.845 81.4675 122.599 75.0736 122.29 69.9456C121.906 63.5824 115.861 59.544 102.882 59.4638L102.25 59.4614C100.106 59.4382 98.5399 59.0834 94.0399 57.7044L91.8191 57.0185C87.9646 55.8378 85.6422 55.3007 83.155 55.1338C82.7268 55.1051 82.3071 55.0906 81.8949 55.0906C64.6518 55.0906 47.6659 69.7826 45.3281 83.5145C44.9036 86.0077 46.8264 97.0071 47.5216 102.475C47.5216 102.475 54.2201 102.549 57.481 103.019C57.792 103.064 60.4357 108.827 62.0377 108.827C63.4852 108.827 63.5204 103.349 63.5204 103.349Z" fill="white"/>
<path d="M73.4354 84.8034C75.8388 85.5936 77.1588 85.8182 78.9766 85.4256L79.6439 85.2745C83.9538 84.3327 87.2536 84.6169 96.4739 86.2335L98.6852 86.6206C100.393 86.9143 101.702 87.1205 103.079 87.3082C106.114 87.7219 108.565 87.5485 111.404 86.9365L114.302 86.2882C114.801 86.1843 114.739 86.2234 114.92 86.2523L115.003 86.2627C115.383 86.2979 116.67 86.4914 116.973 87.3656C118.836 92.7481 119.377 105.595 117.398 116.171C114.712 130.532 107.005 140.376 95.9893 143.366C79.2035 147.922 66.584 139.265 57.8477 116.904L57.5789 116.216L56.8548 116.071L56.3381 115.963C48.0226 114.182 45.2141 110.986 48.0251 105.783C49.433 103.177 51.3616 102.37 52.969 102.915C54.9247 103.578 57.3888 106.135 60.2043 110.6L60.2358 110.648C61.4706 112.434 63.1845 111.75 64.0551 109.853C64.5984 108.669 65.1146 106.69 65.6349 103.859L65.7394 103.28C65.8277 102.738 65.7864 102.305 65.3332 97.9302L65.1726 96.3631C65.1153 95.7848 65.0665 95.2631 65.0231 94.7595L65.0019 94.5091C64.8241 92.3778 64.7588 90.68 64.8257 89.3453C64.8936 87.9892 65.1114 87.1228 65.3035 86.9348L65.625 86.6253C68.4174 83.9815 70.0006 83.7171 72.8575 84.6155L73.4354 84.8034Z" fill="white"/>
<path fill-rule="evenodd" clip-rule="evenodd" d="M117.4 116.171C114.713 130.532 107.006 140.376 95.9904 143.366C92.7848 144.236 102.069 140.795 106.96 134.61C113.666 126.128 117.439 113.567 118.06 109.763C119.94 98.2551 119.378 105.595 117.4 116.171Z" fill="#E7EAEE"/>
<path fill-rule="evenodd" clip-rule="evenodd" d="M64.0566 109.853C64.5999 108.669 65.1161 106.69 65.6364 103.859L65.7409 103.28C65.8292 102.738 65.7879 102.305 65.3347 97.9302L65.1741 96.3631C65.1168 95.7848 65.068 95.2631 65.0246 94.7595L65.0034 94.5091C64.8256 92.3778 64.7603 90.68 64.8272 89.3453C64.8951 87.9892 65.1129 87.1228 65.305 86.9348L65.6265 86.6253C68.4189 83.9815 70.0021 83.7171 72.859 84.6155L73.4369 84.8034C75.8403 85.5936 77.1603 85.8182 78.9781 85.4256L79.6454 85.2745C83.9553 84.3327 87.2551 84.6169 96.4753 86.2335L98.6867 86.6206C100.395 86.9143 101.703 87.1205 103.081 87.3082C106.115 87.7219 108.566 87.5485 111.405 86.9365L114.303 86.2882C114.802 86.1843 114.741 86.2234 114.921 86.2523L115.005 86.2627C115.384 86.2979 116.672 86.4914 116.974 87.3656C116.974 87.3656 115.801 88.3163 114.921 88.381C107.257 88.9449 101.684 90.2825 95.7598 90.8497C86.4187 91.7441 78.0648 92.0509 73.4369 94.5091C71.2007 95.6968 68.8265 107.943 65.8459 112.094C64.1575 114.446 64.0566 109.853 64.0566 109.853Z" fill="#E7EAEE"/>
<path fill-rule="evenodd" clip-rule="evenodd" d="M134.755 205.795C135.491 207.711 136.572 209.114 138.034 209.659C139.264 210.098 140.541 210.37 141.847 210.551C144.659 210.939 166.153 212.767 175.803 211.506C185.452 210.245 184.906 210.128 189.316 209.346C191.45 208.967 193.89 208.565 196.072 207.709C197.679 207.081 199.146 206.208 200.295 204.967C201.323 203.858 201.959 201.971 202.149 199.862C202.39 197.181 201.979 193.636 201.576 191.852C201.487 191.373 199.88 191.72 199.969 192.199C200.21 193.858 200.285 197.149 199.971 199.585C199.778 201.094 199.481 202.497 198.741 203.294C197.813 204.292 196.617 204.973 195.32 205.482C193.267 206.291 190.967 206.67 188.959 207.034C184.608 207.828 180.543 208.859 162.52 209.346C159.597 209.425 144.958 208.669 142.123 208.263C140.957 208.097 139.813 207.856 138.714 207.46C137.432 207.026 136.757 205.435 136.158 203.651C135.435 201.495 133.756 193.793 134.755 192.138C135.127 191.521 137.815 191.655 139.497 191.833C144.886 192.404 154.773 192.634 164.367 192.74C174.929 192.857 200.113 192.863 200.113 192.378C200.113 191.942 201.114 191.834 201.576 191.852C201.726 191.858 200.738 190.636 196.072 190.636C188.636 190.636 177.184 190.908 166.034 190.792C150.819 190.634 136.277 189.24 133.866 189.494C133.815 189.5 133.767 189.504 133.721 189.506C131.958 189.61 132.743 200.561 134.755 205.795Z" fill="#00160A"/>
<path fill-rule="evenodd" clip-rule="evenodd" d="M138.326 195.248C138.401 194.699 139.037 193.501 139.298 194.13C139.762 195.248 139.289 202.716 143.665 203.492C144.399 203.623 146.331 203.901 146.331 204.518C146.331 205.134 146.032 206.064 144.43 205.629C141.603 204.862 139.985 203.278 138.994 200.766C138.289 198.978 138.102 196.884 138.326 195.248Z" fill="#00160A"/>
<path fill-rule="evenodd" clip-rule="evenodd" d="M40.7767 176.862L40.778 176.874C40.7786 176.977 40.9056 177.117 40.9281 177.42C41.0238 178.709 40.4772 181.742 40.3804 182.7C40.1271 184.943 39.6843 187.748 39.6047 190.429C39.5536 192.16 39.645 193.839 40.1374 195.262C41.1611 198.326 43.5238 200.211 46.3786 201.415C48.9323 202.495 51.8879 202.969 54.723 203.309C56.7908 203.556 58.7862 203.762 60.5558 203.862C60.8581 203.862 61.1037 204.108 61.1037 204.411C61.1037 204.713 60.8581 204.957 60.5558 204.957C58.7476 205.06 56.6941 205.185 54.5695 205.066C51.5303 204.898 48.3794 204.289 45.6494 203.16C42.2779 201.762 39.5561 199.468 38.3538 195.855C37.8302 194.223 37.707 192.307 37.8458 190.338C38.0383 187.611 38.7014 184.787 39.0939 182.516C39.2702 181.564 39.5885 178.478 40.0803 177.28C40.3208 176.69 40.7362 176.618 40.7499 176.652C40.807 176.709 40.816 176.796 40.7767 176.862Z" fill="#00160A"/>
<path fill-rule="evenodd" clip-rule="evenodd" d="M68.0439 198.939L66.4039 199.201C65.8878 199.309 65.3002 199.518 64.8085 199.839C64.4446 200.077 64.1457 200.385 63.9432 200.745C63.8486 200.918 63.7944 201.092 63.7563 201.265C63.6848 201.592 63.7048 201.922 63.6474 202.273C63.6012 202.549 63.585 202.823 63.5943 203.096C63.6071 203.472 63.6702 203.843 63.7092 204.219C63.795 204.814 63.8221 205.385 64.0546 205.911C64.1594 206.148 64.3005 206.358 64.4805 206.574C64.566 206.728 64.7601 206.784 64.9139 206.698C65.0678 206.613 65.1233 206.419 65.0378 206.265C65.0378 206.265 63.9719 201.322 65.2702 200.503C66.5684 199.683 67.2885 199.79 67.6682 199.696C67.8236 199.657 68.1619 199.241 68.1812 199.146C68.2005 199.051 68.1391 198.958 68.0439 198.939Z" fill="#00160A"/>
<path fill-rule="evenodd" clip-rule="evenodd" d="M67.9895 199.127L68.1692 199.498C68.2269 199.739 68.236 200.019 68.2422 200.288C68.2478 200.525 68.2737 200.758 68.1249 200.952C68.0444 201.033 68.0444 201.163 68.1249 201.244C68.2054 201.324 68.3358 201.324 68.4163 201.244C68.68 201.061 68.8413 200.803 68.8897 200.501C68.9524 200.11 68.7836 199.684 68.6369 199.342C68.5883 199.232 68.4026 198.964 68.2113 198.852C68.059 198.763 67.9115 198.741 67.7957 198.833C67.7149 198.886 67.6924 198.995 67.7458 199.077C67.7994 199.158 67.9086 199.18 67.9895 199.127Z" fill="#00160A"/>
<path fill-rule="evenodd" clip-rule="evenodd" d="M67.7704 201.011C67.6291 201.092 67.498 201.174 67.4466 201.198C66.949 201.424 66.6641 201.919 66.5876 202.512C66.4949 203.231 66.7586 204.066 66.9118 204.579C66.9558 204.756 67.1355 204.864 67.3125 204.819C67.4894 204.775 67.597 204.596 67.5527 204.419C67.4357 203.892 67.309 203.001 67.4367 202.317C67.485 202.059 67.5256 201.816 67.7247 201.661C67.7247 201.661 67.866 200.956 67.7704 201.011Z" fill="#00160A"/>
<path fill-rule="evenodd" clip-rule="evenodd" d="M64.3145 201.893C64.6125 202.227 64.5828 202.74 64.248 203.038C63.739 203.492 63.2928 203.837 62.9021 204.077L62.7117 204.19C62.3786 204.378 61.9354 204.596 61.3771 204.846C61.3076 204.877 60.6624 205.081 60.4273 204.898C60.3027 204.802 60.1654 204.687 60.0937 204.524C60.0602 204.448 60.1741 204.298 60.3836 204.107C60.7328 203.787 61.6618 203.616 62.3039 203.214C63.3545 202.556 64.1638 201.723 64.3145 201.893Z" fill="#00160A"/>
<path fill-rule="evenodd" clip-rule="evenodd" d="M67.1958 209.548C67.5132 209.231 68.027 209.232 68.3435 209.55C69.731 210.941 70.1442 212.274 69.2443 213.372C68.6695 214.074 67.8514 214.687 66.6915 215.151C66.1503 215.368 66.2158 215.47 64.8041 215.78C64.3663 215.876 63.9335 215.599 63.8374 215.161C63.7413 214.723 64.0183 214.291 64.4561 214.194L65.0244 214.067C66.0425 213.833 67.5839 212.837 67.9889 212.343C68.2194 212.062 68.0674 211.572 67.1941 210.696C66.8776 210.378 66.8783 209.864 67.1958 209.548Z" fill="#00160A"/>
<path fill-rule="evenodd" clip-rule="evenodd" d="M88.059 196.463C88.2482 200.191 88.3252 202.429 88.2897 203.178C88.1918 205.213 87.8198 207.821 86.9199 210.093C86.2681 211.737 85.3208 213.185 84.1082 214.184C83.2844 214.826 81.5421 216.079 76.377 215.722C66.0051 215.004 67.6523 197.418 67.7163 197.163C67.7806 196.907 68.0499 195.914 68.3064 195.977C68.7719 196.052 66.9678 214.318 76.0996 214.443C76.8085 214.452 77.5062 214.355 78.2211 214.262C79.2115 214.187 80.2534 213.962 81.2179 213.588C81.822 213.354 82.3964 213.057 82.8875 212.655C83.8951 211.875 84.6421 210.686 85.2362 209.378C86.1726 207.316 86.854 204.953 87.0765 203.077C87.1944 202.098 87.4554 196.148 87.4554 196.148C87.5922 195.677 88.0537 196.359 88.059 196.463Z" fill="#00160A"/>
<path fill-rule="evenodd" clip-rule="evenodd" d="M77.9569 194.327L78.4215 194.329C83.734 194.381 87.9666 195.329 87.9666 196.491C87.9666 197.686 85.9674 199.954 80.4392 199.954L79.9746 199.951C72.5472 200.262 67.9473 197.652 67.9473 196.491C67.9473 195.296 72.4287 194.327 77.9569 194.327Z" fill="#00160A"/>
<path fill-rule="evenodd" clip-rule="evenodd" d="M77.9569 194.868L77.5069 194.87C72.5809 194.923 68.4883 195.827 68.4883 196.491C68.4883 197.175 72.8327 198.655 77.9569 198.655L78.4069 198.653C83.3329 198.6 87.4255 197.154 87.4255 196.491C87.4255 195.807 83.0811 194.868 77.9569 194.868Z" fill="white"/>
<path fill-rule="evenodd" clip-rule="evenodd" d="M85.7355 124.485C85.9833 124.831 86.2896 125.15 86.651 125.428C87.0325 125.726 87.4758 125.911 87.9179 126.042C88.7806 126.273 89.6321 126.504 90.5123 126.647C93.2231 127.089 100.015 127.832 100.683 127.956C101.133 128.088 101.605 127.828 101.735 127.377C101.866 126.926 101.606 126.453 101.155 126.322C100.476 126.05 99.8048 125.793 99.1036 125.613C98.0653 125.345 96.9988 125.22 95.9361 125.097C94.1247 124.881 92.3074 124.702 90.487 124.59C89.7136 124.545 88.9508 124.556 88.1775 124.504C87.9382 124.495 87.6977 124.46 87.4595 124.382C87.052 124.254 86.6587 124.101 86.3277 123.876L85.4451 123.215C85.349 123.214 85.2701 123.294 85.2704 123.392C85.2707 123.489 85.6682 124.381 85.7355 124.485Z" fill="#00160A"/>
<path fill-rule="evenodd" clip-rule="evenodd" d="M94.2241 130.959C94.684 131.455 95.4401 131.87 96.2738 131.995C97.1194 132.116 97.9887 131.91 98.5763 131.583C98.7573 131.492 98.8306 131.271 98.7401 131.09C98.6496 130.909 98.4293 130.837 98.2487 130.927C97.8461 131.102 97.3085 131.13 96.7562 131.105C96.5237 131.093 96.2897 131.062 96.0569 131.043C95.4494 130.987 94.8709 130.94 94.4481 130.687C94.3732 130.628 94.2621 130.637 94.2004 130.712C94.1386 130.787 94.1492 130.896 94.2241 130.959Z" fill="#00160A"/>
<path fill-rule="evenodd" clip-rule="evenodd" d="M278.042 12.2137C278.788 12.2578 279.357 12.8982 279.313 13.6439L279.164 16.2241C278.093 35.3009 277.842 51.4541 278.412 64.6793L278.438 65.2696C279.067 79.1697 280.601 98.7664 284.116 129.414C284.429 129.633 284.647 129.982 284.687 130.391C284.759 131.135 284.215 131.796 283.471 131.868C266.048 133.556 249.836 134.68 234.836 135.239L232.786 135.313C217.509 135.835 195.381 136.088 166.396 136.074C165.649 136.074 165.044 135.468 165.044 134.721C165.044 133.974 165.65 133.369 166.397 133.369L172.497 133.368C199.046 133.345 219.421 133.081 233.617 132.577L235.805 132.495C249.926 131.946 265.123 130.897 281.395 129.35C280.82 123.57 276.338 78.2866 275.755 65.8147L275.735 65.3918C275.101 51.3652 275.394 34.0643 276.612 13.4841C276.654 12.7681 277.246 12.2153 277.953 12.2113L278.042 12.2137ZM153.906 14.9433C154.646 14.8442 155.327 15.3641 155.426 16.1045L155.916 19.7904C158.868 42.1484 160.822 59.9205 161.78 73.1125L161.87 74.3884C162.84 88.4015 163.444 108.736 163.684 135.401C163.69 136.148 163.09 136.759 162.343 136.765C161.596 136.772 160.985 136.172 160.979 135.425L160.94 131.48C160.687 107.577 160.125 89.0302 159.257 75.8477L159.171 74.5753C158.206 60.6282 156.064 41.2551 152.745 16.4635C152.645 15.723 153.165 15.0424 153.906 14.9433Z" fill="#00160A"/>
<path fill-rule="evenodd" clip-rule="evenodd" d="M63.6979 140.236C64.4449 140.23 65.0548 140.831 65.0601 141.579C65.0654 142.326 64.4642 142.935 63.7171 142.941C48.8008 143.047 38.5739 147.349 32.881 155.784C26.1337 165.781 19.7716 182.094 20.1847 203.207C20.4921 218.917 53.5283 216.423 61.4493 216.003C62.5068 215.947 63.2273 216.51 63.2193 216.594C63.1591 217.227 62.6568 217.749 62.0003 217.811C52.3478 218.727 44.2342 217.783 37.6888 217.122C23.8465 215.723 17.0184 211.83 17.4832 203.064C18.6234 181.558 24.6777 164.706 31.7208 154.27C37.9743 145.005 47.9637 140.348 63.6979 140.236Z" fill="#00160A"/>
<path fill-rule="evenodd" clip-rule="evenodd" d="M63.9542 85.0011C62.6017 86.3244 62.414 89.1708 62.8038 94.179L62.8486 94.734C62.9055 95.4155 62.971 96.115 63.0528 96.9261L63.4853 101.178C63.615 102.537 63.6156 102.811 63.5723 103.064L63.5205 103.349C63.1504 105.365 62.2467 107.44 61.9056 108.465L61.8333 108.674L61.7926 108.612C58.947 104.317 56.3372 101.2 53.8394 100.353C50.7893 99.3185 48.1586 100.849 46.1876 104.497L46.0732 104.712C42.4853 111.58 46.4435 115.83 55.954 117.987L56.1392 118.028L56.4277 118.743C65.6202 141.251 78.7722 150.843 96.6996 145.977C108.904 142.664 116.12 131.943 118.977 116.669C121.037 105.656 120.476 92.3386 118.449 86.4807C117.825 84.679 116.8 83.7122 115.255 83.5689C114.729 83.5201 114.18 83.5664 113.488 83.6954L113.158 83.7612C112.612 83.8785 111.22 84.2067 111.167 84.2187C108.582 84.802 106.44 84.9929 103.808 84.6743L103.446 84.6277C101.804 84.4038 100.253 84.1516 97.9504 83.7464L94.2712 83.1018C91.1553 82.5663 89.9404 82.405 87.9772 82.2343C84.6202 81.9425 81.7007 82.0561 78.8993 82.6697L78.5497 82.749C77.3414 83.0327 76.4565 83.4652 74.6896 82.9061L73.8563 82.6351C69.8806 81.3465 67.7715 81.266 63.9542 85.0011ZM73.437 84.8033C75.8404 85.5936 77.1604 85.8182 78.9782 85.4256L79.6455 85.2745C83.9554 84.3327 87.2552 84.6169 96.4755 86.2335L98.6868 86.6206C100.395 86.9143 101.704 87.1204 103.081 87.3082C106.115 87.7219 108.566 87.5485 111.405 86.9365L114.303 86.2882C114.803 86.1843 114.741 86.2234 114.921 86.2523L115.005 86.2626C115.384 86.2978 116.672 86.4914 116.974 87.3656C118.837 92.7481 119.378 105.595 117.4 116.171C114.714 130.532 107.006 140.376 95.9909 143.366C79.2051 147.922 66.5855 139.265 57.8493 116.904L57.5805 116.216L56.8564 116.071L56.3397 115.963C48.0242 114.182 45.2157 110.986 48.0267 105.783C49.4346 103.177 51.3632 102.37 52.9706 102.915C54.9263 103.578 57.3904 106.135 60.2059 110.6L60.2374 110.647C61.4722 112.434 63.1861 111.75 64.0567 109.853C64.6 108.669 65.1162 106.69 65.6365 103.859L65.741 103.28C65.8293 102.738 65.788 102.305 65.3348 97.9302L65.1742 96.3631C65.1169 95.7848 65.0681 95.2631 65.0247 94.7595L65.0035 94.509C64.8257 92.3778 64.7604 90.68 64.8273 89.3453C64.8952 87.9892 65.113 87.1227 65.3051 86.9348L65.6266 86.6252C68.419 83.9814 70.0022 83.7171 72.8591 84.6154L73.437 84.8033Z" fill="#00160A"/>
<path fill-rule="evenodd" clip-rule="evenodd" d="M81.8939 52.3853C82.3676 52.3853 82.8476 52.4019 83.3351 52.4346C86.0811 52.6189 88.5575 53.1906 92.5916 54.426L95.0085 55.1718C99.2135 56.4561 100.612 56.7573 102.485 56.7573C117.012 56.7573 124.501 61.6849 124.989 69.7826C125.364 75.9939 121.025 83.3837 116.145 85.9158C115.481 86.2599 114.665 86.0012 114.321 85.3381C113.977 84.675 114.236 83.8585 114.899 83.5145C118.844 81.4675 122.598 75.0736 122.289 69.9455C121.905 63.5824 115.86 59.5439 102.881 59.4638L102.249 59.4613C100.105 59.4381 98.5389 59.0834 94.0388 57.7044L91.818 57.0185C87.9636 55.8378 85.6412 55.3007 83.154 55.1338C82.7258 55.1051 82.3061 55.0906 81.8939 55.0906C64.6508 55.0906 47.6648 69.7826 45.3271 83.5145C44.7587 86.8534 48.3998 105.448 47.6648 105.582C46.9299 105.716 46.2255 105.229 46.0914 104.494L45.9331 103.612C44.3653 94.7239 42.6742 86.6977 43.6408 82.4909C47.5543 65.4592 63.369 52.3853 81.8939 52.3853Z" fill="#00160A"/>
<path fill-rule="evenodd" clip-rule="evenodd" d="M101.063 91.7144C101.876 91.7144 102.263 93.5295 102.121 93.9953C101.506 96.0165 103.046 107.537 104.187 110.514L104.241 110.651C105.897 114.772 103.487 117.437 98.0298 118.18C97.2895 118.281 96.6078 117.762 96.5071 117.022C96.4756 116.791 96.6783 116.179 97.1875 116.224C100.936 116.551 103.656 113.336 102.854 111.224L102.751 110.961C101.442 107.56 99.9691 100.133 99.9691 93.0859C99.9691 92.3378 100.351 91.7144 101.063 91.7144Z" fill="#00160A"/>
<path fill-rule="evenodd" clip-rule="evenodd" d="M49.3357 115.569C49.7254 116.515 49.4085 125.982 54.3815 131.114C58.3332 135.192 62.8273 133.855 63.8819 132.592C64.3981 131.974 65.3623 132.522 65.6995 133.188C66.0367 133.855 65.7697 134.669 65.1031 135.006C61.7014 136.727 57.172 136.088 54.3815 133.7C49.5341 129.551 48.4766 120.492 48.4766 117.278C48.4766 116.088 48.9885 114.726 49.3357 115.569Z" fill="#00160A"/>
<path fill-rule="evenodd" clip-rule="evenodd" d="M105.613 103.746C106.085 103.037 106.776 102.953 107.475 103.243C108.157 103.527 108.828 104.257 109.047 104.748C109.37 105.478 109.374 106.671 109.113 107.806C108.847 108.969 108.311 110.051 107.73 110.539C107.178 110.999 106.715 111.185 106.221 110.455C104.334 107.669 105.431 104.02 105.613 103.746Z" fill="#00160A"/>
<path fill-rule="evenodd" clip-rule="evenodd" d="M84.4942 106.442C84.2893 105.69 84.3029 101.8 85.7731 101.8C87.9595 101.8 88.2384 105.849 87.9579 106.666C86.3769 111.273 84.6992 107.195 84.4942 106.442Z" fill="#00160A"/>
<path fill-rule="evenodd" clip-rule="evenodd" d="M103.224 64.5664C102.796 63.9748 104.488 63.7925 105.105 64.2145C110.264 67.747 112.915 71.125 112.869 74.494C112.824 77.8028 110.139 81.4984 104.934 85.7616C104.356 86.235 103.503 86.1502 103.03 85.5723C102.557 84.9943 109.794 80.346 110.164 74.4572C110.533 68.5683 104.029 65.6767 103.224 64.5664Z" fill="#00160A"/>
<path fill-rule="evenodd" clip-rule="evenodd" d="M111.239 63.1355C111.019 62.1759 112.417 62.2358 113.073 62.5923C117.236 64.8533 119.38 68.3584 119.38 72.9383C119.38 77.4244 116.346 81.3322 111.77 85.8582C111.239 86.3835 110.382 86.3788 109.857 85.8476C109.332 85.3164 117.244 79.7738 117.244 71.7829C117.244 63.792 111.538 64.4383 111.239 63.1355Z" fill="#00160A"/>
<ellipse cx="109.878" cy="116.143" rx="5.1401" ry="1.89372" fill="#FFB61D"/>
<path fill-rule="evenodd" clip-rule="evenodd" d="M104.36 93.3302C105.582 92.893 107.271 93.1623 109.476 94.0669C109.851 94.2208 110.216 94.4219 110.614 94.6847L110.89 94.8768C111.403 95.2417 112.275 95.8916 112.445 96.0107C112.999 96.3994 113.502 96.7045 114.047 96.9677C114.566 97.2189 115.412 97.4503 116.568 97.6474C117.01 97.7227 117.307 98.142 117.232 98.5839C117.156 99.0257 112.133 98.316 111.512 97.8806L110.235 96.9459C110.012 96.784 109.82 96.6468 109.719 96.5802C109.403 96.3714 109.128 96.2194 108.86 96.1097C107.06 95.3711 105.754 95.1467 104.989 95.3727L104.906 95.3997C103.308 95.0062 103.938 93.4811 104.36 93.3302Z" fill="#00160A"/>
<path fill-rule="evenodd" clip-rule="evenodd" d="M64.2053 133.363C64.6939 133.176 65.2411 133.421 65.4275 133.91C66.0102 135.437 66.3527 138.796 66.4527 139.685C66.5501 140.55 66.5501 141.397 66.4521 142.225C66.3907 142.745 65.9198 143.116 65.4005 143.054C64.8812 142.993 64.5101 142.522 64.5715 142.003C64.6522 141.321 64.6522 140.619 64.5709 139.897C64.4923 139.198 64.1888 135.976 63.6582 134.585C63.4718 134.096 63.7167 133.549 64.2053 133.363Z" fill="#00160A"/>
<path fill-rule="evenodd" clip-rule="evenodd" d="M64.5312 142.239C65.023 141.676 66.6793 140.742 66.4399 142.111C66.2004 143.48 62.7731 145.072 62.7731 147.706C62.7731 151.616 64.2809 155.359 69.7044 156.923C89.1315 162.526 95.9831 148.26 96.523 148.776C97.0628 149.292 97.0819 150.149 96.5655 150.689C93.514 153.879 91.0539 156.006 89.1315 157.087C82.3737 160.89 75.0382 161.643 68.8152 159.478C63.1235 157.497 59.1517 151.867 61.515 146.341C61.8986 145.445 62.886 144.12 64.5312 142.239Z" fill="#00160A"/>
<path fill-rule="evenodd" clip-rule="evenodd" d="M200.511 1.86684C201.124 1.4392 201.967 1.58908 202.394 2.20162C202.822 2.81416 202.13 3.69537 201.518 4.12302C199.478 5.54745 194.562 10.2006 193.556 11.2663L192.588 12.2965C190.689 14.3418 168.065 37.8678 167.522 37.3551C167.024 36.885 189.099 12.6109 190.755 10.8369L190.817 10.77C192.382 9.10026 193.828 7.59484 195.211 6.20079C196.58 4.82069 198.346 3.37808 200.511 1.86684Z" fill="#E7EAEE"/>
<path fill-rule="evenodd" clip-rule="evenodd" d="M200.511 21.8861C201.124 21.4585 201.967 21.6084 202.395 22.2209C202.822 22.8334 202.673 23.6767 202.06 24.1043C200.02 25.5288 168.198 57.6301 167.522 57.3744C166.846 57.1188 170.108 53.3047 170.108 53.3047C172.193 51.1234 190.818 31.3303 190.818 31.3303C192.382 29.6606 193.828 28.1552 195.211 26.7611C196.581 25.381 198.347 23.3974 200.511 21.8861Z" fill="#00160A"/>
<path fill-rule="evenodd" clip-rule="evenodd" d="M230.395 6.54171C230.901 5.99186 231.756 5.95609 232.306 6.46182C232.856 6.96754 232.892 7.82325 232.386 8.37309C232.386 8.37309 170.856 78.3184 170.296 76.3719C169.988 75.3008 195.864 44.2111 199.934 40.0202L201.063 38.8788C202.973 36.8971 212.423 26.0821 230.395 6.54171Z" fill="#00160A"/>
<path fill-rule="evenodd" clip-rule="evenodd" d="M88.3866 91.7571C89.5022 91.618 91.4312 91.8086 93.5472 92.4736C94.2599 92.6976 94.656 93.4569 94.432 94.1696C94.208 94.8823 93.4487 95.2785 92.736 95.0545C90.9413 94.4904 89.5564 94.2013 88.6177 94.1772L88.3866 94.1766C88.0575 94.1843 87.8172 94.2418 86.885 94.5981L85.4829 95.1461C84.1398 95.6757 83.1509 95.9872 82.0557 96.1672C80.8208 96.3701 78.9575 96.2873 76.3988 95.9394C75.6586 95.8388 74.393 94.9605 75.2407 94.4169C76.0884 93.8732 79.6731 94.466 81.3537 94.1696C83.0344 93.8732 86.2245 92.0268 88.3866 91.7571Z" fill="#00160A"/>
<path fill-rule="evenodd" clip-rule="evenodd" d="M30.5782 184.427C36.6696 184.32 39.2654 186.014 38.705 186.562C38.705 186.562 32.2343 186.069 30.5782 186.014C28.8277 185.956 20.8145 185.835 20.5939 185.121C20.51 184.85 20.5158 184.572 20.5944 184.32C20.6765 184.057 22.2514 184.218 24.9746 184.341C26.5017 184.409 28.3898 184.465 30.5782 184.427Z" fill="#00160A"/>
<path fill-rule="evenodd" clip-rule="evenodd" d="M40.2081 217.151C40.2081 217.151 39.6601 242.976 43.3259 245.081C43.8323 245.371 43.777 246.492 43.2204 246.991C42.6638 247.489 41.8086 247.442 41.3103 246.885C37.9419 243.122 37.061 232.501 38.3926 216.869C38.4534 216.155 40.2716 216.407 40.2081 217.151Z" fill="#00160A"/>
<path fill-rule="evenodd" clip-rule="evenodd" d="M125.117 231.852L125.044 231.857L120.727 232.256C93.7477 234.78 76.8866 237.268 63.6362 239.723L62.3914 239.957C55.998 241.181 50.7488 242.4 47.6984 243.629C43.883 245.167 40.4499 247.001 41.6677 249.288C43.7898 253.274 48.2556 254.836 58.0386 255.919L59.082 256.03C66.6446 256.802 74.7727 256.989 95.3778 257.093L102.419 257.134C127.536 257.302 142.062 258.204 160.871 259.357L162.789 259.477C197.426 261.664 225.075 261.313 245.734 258.889L246.358 258.815C263.049 256.809 274.311 253.49 279.21 249.725C282.093 247.509 282.534 245.288 282.614 243.233C282.685 241.386 278.446 238.596 276.025 237.679C269.279 235.125 267.078 234.199 254.11 232.892C228.496 230.309 185.871 229.603 125.117 231.852ZM254.379 235.042L255.23 235.129C267.319 236.394 275.256 238.219 278.917 240.513L279.145 240.66C281.956 242.529 281.602 244.475 277.561 247.58C273.143 250.976 262.283 254.176 246.035 256.129C225.694 258.574 198.346 258.968 164.002 256.842L160.401 256.618C140.574 255.416 125.361 255.091 97.2063 254.939L89.4343 254.894C72.6722 254.777 65.5477 254.545 58.67 253.808L58.016 253.736C49.3936 252.75 44.6284 250.948 43.0319 248.124L42.9735 248.017C42.9432 247.96 42.943 247.961 43.1746 247.726C43.6384 247.256 44.5895 246.709 46.0044 246.138L46.371 245.994C49.4375 244.814 54.2846 243.605 60.8827 242.383L62.1324 242.155C75.3051 239.789 94.9493 237.384 121.052 234.942L125.25 234.554L128.834 234.424C187.57 232.319 229.43 232.526 254.379 235.042Z" fill="#00160A"/>
<path d="M192.837 208.681C192.343 226.704 190.931 238.709 188.531 242.91C186.499 246.464 179.68 247.671 171.035 247.086L167.923 246.86C163.696 246.544 161.339 246.313 159.066 245.961L158.757 245.913C155.1 245.329 152.687 244.521 151.334 243.21C146.343 238.371 143.698 227.65 143.192 210.949C143.169 210.203 145.149 210.89 145.896 210.867C146.051 210.863 154.981 211.94 167.273 211.367C174.563 211.027 192.837 208.681 192.837 208.681Z" fill="white"/>
<path fill-rule="evenodd" clip-rule="evenodd" d="M144.718 210.745C145.213 228.768 149.462 239.243 151.863 243.443C153.894 246.998 160.714 248.204 169.358 247.619L172.47 247.394C176.697 247.077 161.189 242.458 155.835 236.608C149.829 230.048 144.718 210.745 144.718 210.745Z" fill="#E7EAEE"/>
<path fill-rule="evenodd" clip-rule="evenodd" d="M148.375 216.327C148.477 215.587 149.389 214.32 149.899 215.17C150.409 216.02 150.637 218.081 151.697 220.712L153.947 225.074C154.146 225.568 154.326 226.025 154.496 226.466L154.597 226.729C155.612 229.393 156.235 230.953 156.456 232.726C156.549 233.467 156.023 234.143 155.281 234.236C154.54 234.328 153.864 233.803 153.772 233.061C153.583 231.553 153.554 229.629 152.61 227.151L152.412 226.638C152.277 226.289 152.133 225.927 151.978 225.542L150.416 221.745C150.145 221.081 149.937 220.553 149.753 220.064L149.605 219.665C149.044 218.119 148.267 217.119 148.375 216.327Z" fill="#00160A"/>
<path fill-rule="evenodd" clip-rule="evenodd" d="M112.762 131.432C111.93 132.065 112.947 132.958 113.273 133.93C113.347 134.152 113.442 134.381 113.566 134.648L113.719 134.965L114.064 135.653L114.207 135.944C114.361 136.264 114.47 136.515 114.556 136.753C114.825 137.492 114.799 137.824 114.547 138.049C113.126 139.317 111.617 140.166 108.725 141.447L107.128 142.146C102.313 144.273 99.1001 145.685 97.2892 148.564C94.8996 152.365 95.537 157.811 97.2034 165.743L97.2818 166.111C97.6014 167.589 96.9877 170.288 96.5465 174.379L96.5143 174.673C96.3338 176.308 96.1008 178.139 95.782 180.462L94.5113 189.478C94.0312 192.927 93.6741 195.67 93.3648 198.356L93.2476 199.394C92.3174 207.792 92.0492 214.396 92.5879 219.76C93.0553 224.414 95.7807 231.071 98.9965 234.251C103.722 238.925 108.418 236.711 112.667 227.048C114.566 222.729 115.74 218.675 116.301 214.553C117.051 209.043 116.743 203.426 115.435 195.848L115.3 195.077C114.405 190.165 110.497 172.066 110.031 169.77L109.88 169.039L108.887 164.412C108.824 164.11 108.764 163.824 108.707 163.544L108.522 162.627C107.7 158.451 107.415 155.679 107.725 153.885C107.754 153.716 107.897 153.467 108.189 153.152C108.645 152.66 109.368 152.105 110.432 151.419L110.906 151.12C111.903 150.506 114.275 149.095 114.291 149.085L114.801 148.772C119.81 145.673 122.165 143.243 122.165 139.804C122.165 136.387 120.723 133.775 118.383 132.217C116.437 130.921 113.986 130.502 112.762 131.432ZM115.491 134.624L115.026 133.689L114.974 133.678C115.579 133.782 116.26 134.054 116.883 134.469C118.481 135.533 119.46 137.305 119.46 139.804C119.46 141.941 117.572 143.875 113.357 146.484L112.62 146.931C111.899 147.361 109.926 148.539 109.243 148.969L109.186 149.004C107.828 149.866 106.884 150.579 106.204 151.314C105.586 151.981 105.189 152.671 105.059 153.425C104.658 155.749 105.008 158.914 105.99 163.762L106.24 164.968L107.15 169.2L107.66 171.649C108.704 176.59 111.924 191.582 112.662 195.695L112.686 195.831C114.021 203.404 114.343 208.881 113.62 214.188C113.094 218.053 111.99 221.865 110.19 225.959C108.247 230.379 106.293 232.855 104.496 233.614C103.152 234.182 101.806 233.76 100.358 232.328C97.6334 229.633 95.1475 223.561 94.7386 219.49C94.2227 214.353 94.4848 207.911 95.3964 199.682L95.5113 198.666C95.8312 195.888 96.2034 193.042 96.7129 189.398L97.8223 181.546L98.0605 179.805C98.2978 178.043 98.4833 176.566 98.6343 175.221L98.7296 174.346C99.1605 170.251 99.2314 167.484 98.8717 165.673L98.8439 165.539C97.2215 158.035 97.0494 153.167 99.0383 150.005C100.447 147.765 102.746 146.576 106.911 144.721L108.767 143.908C111.89 142.523 113.583 141.57 115.266 140.067C116.511 138.957 116.622 137.494 116.017 135.829C115.88 135.451 115.718 135.087 115.491 134.624Z" fill="#00160A"/>
<path d="M115.49 134.624L115.025 133.689L114.973 133.678C115.578 133.782 116.26 134.054 116.883 134.469C118.48 135.533 119.459 137.305 119.459 139.804C119.459 141.941 117.571 143.875 113.357 146.484L112.62 146.931C111.899 147.361 109.926 148.539 109.243 148.969L109.186 149.004C107.827 149.866 106.883 150.579 106.204 151.314C105.586 151.981 105.188 152.671 105.058 153.425C104.657 155.749 105.008 158.914 105.99 163.762L106.239 164.968L107.149 169.2L107.66 171.649C108.703 176.59 111.924 191.582 112.662 195.695L112.686 195.831C114.02 203.404 114.342 208.881 113.62 214.188C113.093 218.053 111.99 221.865 110.19 225.959C108.246 230.379 106.293 232.855 104.496 233.614C103.152 234.182 101.805 233.76 100.357 232.328C97.6329 229.633 95.147 223.561 94.7381 219.49C94.2221 214.353 94.4842 207.911 95.3959 199.682L95.5107 198.666C95.8306 195.888 96.2028 193.042 96.7124 189.398L97.8218 181.546L98.06 179.805C98.2973 178.043 98.4828 176.566 98.6338 175.221L98.729 174.346C99.16 170.251 99.2308 167.484 98.8712 165.673L98.8434 165.539C97.2209 158.035 97.0489 153.167 99.0378 150.005C100.446 147.765 102.745 146.576 106.91 144.721L108.766 143.908C111.89 142.523 113.582 141.57 115.266 140.067C116.51 138.957 116.621 137.494 116.016 135.829C115.879 135.451 115.718 135.087 115.49 134.624Z" fill="white"/>
<path fill-rule="evenodd" clip-rule="evenodd" d="M106.742 152.765C107.112 152.116 107.938 151.889 108.587 152.259C116.395 156.706 120.87 162.06 121.876 168.325C122.845 174.358 116.528 205.756 115.798 205.598C115.068 205.44 114.604 204.72 114.762 203.989L115.104 202.399C118.716 185.438 120.075 174.169 119.205 168.754C118.345 163.401 114.404 158.685 107.248 154.61C106.599 154.24 106.372 153.414 106.742 152.765Z" fill="#00160A"/>
<path fill-rule="evenodd" clip-rule="evenodd" d="M109.956 134.669C110.585 134.266 111.421 134.448 111.825 135.076C112.521 136.159 112.938 137.041 113.068 137.793C113.196 138.535 113.11 139.53 112.838 140.854C112.688 141.586 111.973 142.057 111.241 141.907C110.898 141.837 110.613 141.643 110.422 141.381C110.204 141.084 111.484 140.31 111.484 138.254C111.484 136.199 109.328 135.073 109.956 134.669Z" fill="#00160A"/>
<path fill-rule="evenodd" clip-rule="evenodd" d="M109.463 136.754C109.791 136.481 110.079 137.512 110.015 138.021C109.919 138.79 109.919 141.555 108.831 142.862C108.4 143.379 107.696 143.814 107.024 143.488C106.727 143.343 107.653 142.052 108.216 140.593C108.623 139.536 108.941 138.404 109.157 137.645C109.317 137.082 109.124 137.037 109.463 136.754Z" fill="#00160A"/>
<path fill-rule="evenodd" clip-rule="evenodd" d="M191.518 207.232C192.265 207.251 192.855 207.872 192.837 208.619L192.808 209.731C192.313 227.754 190.932 238.709 188.531 242.91C186.499 246.464 179.68 247.671 171.035 247.086L167.923 246.86C163.696 246.544 161.339 246.313 159.066 245.962L158.757 245.913C155.1 245.329 152.687 244.521 151.334 243.21C146.343 238.371 143.698 227.65 143.192 210.949C143.169 210.203 143.756 209.579 144.503 209.556C145.25 209.534 145.874 210.121 145.896 210.868L145.928 211.823C146.483 227.311 148.977 237.156 153.217 241.268L153.319 241.362C154.882 242.746 158.755 243.431 167.739 244.131L170.931 244.367L171.486 244.404C178.947 244.871 184.906 243.8 186.182 241.568C188.314 237.838 189.677 226.721 190.132 208.551C190.151 207.804 190.772 207.214 191.518 207.232Z" fill="#00160A"/>
<path fill-rule="evenodd" clip-rule="evenodd" d="M142.427 157.041C142.686 156.341 147.003 157.413 148.15 158.084C148.571 158.331 158.199 162.846 160.972 164.583C164.49 166.787 166.964 176.284 166.129 186.943C166.006 188.513 165.06 190.243 163.345 192.214C162.855 192.778 162.001 192.837 161.437 192.347C160.873 191.857 160.814 191.002 161.304 190.439C162.673 188.865 163.364 187.602 163.432 186.732L163.475 186.152C164.122 176.687 162.451 167.827 160.174 166.4L159.732 166.128C157.579 164.824 156.264 164.395 153.631 163.906C153.631 163.906 149.524 160.595 147.904 159.67C144.311 157.618 142.308 157.363 142.427 157.041Z" fill="#00160A"/>
<path fill-rule="evenodd" clip-rule="evenodd" d="M178.799 145.863C179.329 146.39 168.121 156.005 167.523 156.544C165.689 158.198 164.553 161.952 165.018 166.817L165.045 167.084C165.14 167.994 165.461 171.667 165.474 172.182L165.51 172.938C165.526 173.203 165.551 173.483 165.6 173.964L165.864 176.388C166.305 180.405 166.422 183.217 166.13 186.944C166.008 188.513 165.061 190.243 163.347 192.214C162.856 192.778 162.002 192.837 161.438 192.347C160.875 191.857 164.381 187.097 164.449 186.227C164.715 182.839 162.89 174.05 162.89 174.05C162.812 173.28 162.802 173.03 162.775 172.389C162.739 171.567 162.818 170.922 163.056 169.752L163.242 168.851C163.434 167.893 163.487 167.41 163.444 166.904L163.437 166.824C163.115 163.749 163.296 161.258 163.912 159.252C164.466 157.448 165.372 156.036 166.582 154.945C167.112 154.467 167.652 154.089 168.297 153.711L169.059 153.277C169.153 153.221 169.215 153.182 169.253 153.154L169.364 153.069C170.421 152.249 178.268 145.337 178.799 145.863Z" fill="#00160A"/>
<path fill-rule="evenodd" clip-rule="evenodd" d="M191.342 166.217C191.525 166.942 173.485 172.981 171.086 175.037C167.801 177.853 166.046 181.942 166.548 185.594L166.578 185.796C166.906 187.826 166.063 189.953 163.196 192.362C162.624 192.843 161.77 192.769 161.29 192.197C160.809 191.625 160.883 190.772 161.455 190.291C163.656 188.442 164.577 187.025 164.449 186.227C163.693 181.544 165.838 176.436 169.866 172.983C172.786 170.481 191.16 165.493 191.342 166.217Z" fill="#00160A"/>
<path fill-rule="evenodd" clip-rule="evenodd" d="M136.127 153.39C142.093 152.058 147.269 152.058 151.649 153.418C156.347 154.877 158.802 158.186 158.802 163.07C158.802 163.332 158.727 163.576 158.599 163.783L158.539 163.871L158.584 163.939C158.658 164.059 158.714 164.192 158.748 164.335L158.766 164.423C158.891 165.159 158.396 165.858 157.66 165.984L156.964 166.1C149.859 167.263 145.209 167.248 142.797 165.915C140.346 164.562 137.871 161.033 135.195 155.28C134.831 154.497 135.284 153.578 136.127 153.39ZM150.847 156.002C147.411 154.935 143.335 154.811 138.614 155.649L138.392 155.689L138.441 155.786C140.53 159.977 142.424 162.556 144.006 163.491L144.105 163.547C145.696 164.426 149.487 164.489 155.302 163.622L156.162 163.489L156.141 163.416C156.119 163.333 156.105 163.248 156.099 163.159L156.096 163.07C156.096 159.375 154.417 157.11 150.847 156.002Z" fill="#00160A"/>
<path fill-rule="evenodd" clip-rule="evenodd" d="M182.822 139.293C183.51 139.305 184.08 139.832 184.145 140.517C184.622 145.494 183.999 149.274 182.188 151.848C180.234 154.624 176.458 155.5 171.035 154.692C170.326 154.586 169.827 153.948 169.886 153.243L169.891 153.197L169.823 153.179C169.521 153.083 169.252 152.882 169.076 152.593L169.031 152.513C167.16 148.914 168.032 145.57 171.468 142.898C174.579 140.479 178.276 139.276 182.511 139.29L182.822 139.293ZM181.559 142.225L181.548 142.016L181.542 142.016C178.309 142.171 175.517 143.177 173.128 145.034C170.69 146.93 170.184 148.867 171.431 151.265C171.546 151.486 171.594 151.724 171.582 151.956L171.575 152.036L171.683 152.052C175.974 152.654 178.663 152.035 179.905 150.387L179.976 150.291C181.195 148.559 181.743 145.873 181.559 142.225Z" fill="#00160A"/>
<path d="M68.7384 201.933C70.3452 201.987 70.9488 203.786 70.0129 205.595C69.365 206.847 67.7813 208.162 66.1454 208.936C65.2113 209.378 64.1287 209.436 62.9241 209.133C62.4894 209.023 62.2258 208.582 62.3353 208.147C62.4448 207.713 62.886 207.449 63.3206 207.559C64.1814 207.776 63.5118 206.582 63.4625 206.136C63.4133 205.691 63.7345 205.29 64.18 205.241C64.9963 205.15 65.423 204.728 65.8374 204.444C65.9535 204.365 66.1051 204.206 66.3179 203.94L66.559 203.628L66.6424 203.518C67.5576 202.302 67.9161 201.933 68.6547 201.932L68.7384 201.933Z" fill="white"/>
<path fill-rule="evenodd" clip-rule="evenodd" d="M68.7384 201.933C70.3452 201.987 70.9488 203.786 70.0129 205.595C69.365 206.847 67.7813 208.162 66.1454 208.936C65.2113 209.378 64.1287 209.436 62.9241 209.133C62.4894 209.023 62.2258 208.582 62.3353 208.147C62.4448 207.713 62.886 207.449 63.3206 207.559C64.1814 207.776 64.8828 207.738 65.4512 207.469C66.7932 206.834 68.1099 205.74 68.5713 204.849C68.8373 204.335 68.8944 203.933 68.8137 203.692C68.7962 203.64 68.7776 203.606 68.7563 203.585L68.7352 203.569L68.7069 203.591C68.6834 203.609 68.657 203.632 68.6279 203.659L68.5824 203.704C68.4468 203.839 68.3232 203.988 68.0827 204.304L67.7583 204.733C67.361 205.252 67.0839 205.558 66.7541 205.784C66.0953 206.235 65.4198 206.737 64.3584 206.854C63.9129 206.903 63.5118 206.582 63.4625 206.136C63.4133 205.691 63.7345 205.29 64.18 205.241C64.9963 205.15 65.423 204.728 65.8374 204.444C65.9535 204.365 66.1051 204.206 66.3179 203.94L66.559 203.628L66.6424 203.518C67.5576 202.302 67.9161 201.933 68.6547 201.932L68.7384 201.933Z" fill="#00160A"/>
<path fill-rule="evenodd" clip-rule="evenodd" d="M69.3185 205.551C70.3049 205.584 70.6668 206.449 70.5875 207.462C70.5283 208.217 70.2231 209.026 69.7606 209.542C69.1749 210.195 68.3572 210.755 67.2498 211.334L67.0245 211.45C66.6246 211.653 66.3483 211.783 65.6171 212.122C64.72 212.537 63.5249 212.686 62.0219 212.594C61.5745 212.566 61.234 212.182 61.2613 211.734C61.2886 211.287 61.6735 210.946 62.1209 210.974C63.3788 211.05 64.3203 210.933 64.9353 210.649L65.6979 210.293C65.9203 210.187 66.0896 210.104 66.2903 210.002C67.3484 209.466 68.093 208.97 68.5523 208.458C68.741 208.248 68.9063 207.833 68.958 207.441L68.9692 207.335L68.9702 207.313L68.9072 207.351C68.7506 207.505 66.7811 208.69 66.5683 208.732C63.7971 209.283 64.3022 209.063 63.2409 209.181C62.7954 209.23 62.3942 208.909 62.345 208.463C62.2957 208.018 62.6169 207.617 63.0624 207.567C63.3558 207.535 63.9075 208.059 64.5186 208.01C65.041 207.969 66.3346 207.304 66.3346 207.304L66.8922 206.839C67.0303 206.724 67.1496 206.627 67.2647 206.535L67.5385 206.324C68.2445 205.792 68.7665 205.532 69.3185 205.551Z" fill="#00160A"/>
<path fill-rule="evenodd" clip-rule="evenodd" d="M66.4809 213.454C67.5813 213.053 68.4846 214.038 68.9078 214.979C69.3671 216.001 68.8035 216.901 67.7371 217.56C67.0144 218.007 66.0328 218.347 65.3002 218.43C64.2675 218.547 63.0398 218.202 61.5905 217.43C61.1949 217.22 61.0449 216.728 61.2555 216.332C61.4661 215.937 61.9576 215.787 62.3533 215.997C63.5396 216.629 64.4701 216.89 65.1182 216.817C65.6121 216.761 66.3645 216.501 66.8837 216.18C67.1421 216.02 68.2453 214.979 67.0365 214.979C66.5803 214.979 66.0598 214.727 65.9962 214.495C65.9326 214.263 66.0598 213.608 66.4809 213.454Z" fill="#00160A"/>
<path fill-rule="evenodd" clip-rule="evenodd" d="M81.9348 196.308C82.1109 196.219 82.3761 196.374 82.3983 196.561L82.399 196.601L82.3361 197.239L84.2092 196.307C84.3063 196.255 84.462 196.289 84.5791 196.381L84.6212 196.418C84.7281 196.525 84.7465 196.652 84.6706 196.72L84.6375 196.742L82.1516 197.927C81.9502 198.015 81.6707 197.86 81.6639 197.674L81.6666 197.633L81.5748 197.239L79.6703 197.926C79.4742 198.008 79.2325 197.884 79.219 197.71L79.22 197.669L79.1793 197.183L76.846 197.928C76.6266 198.01 76.403 197.871 76.4373 197.691L76.4486 197.652L76.4807 197.183L74.6092 197.846C74.3931 197.93 74.1866 197.814 74.2175 197.641L74.2289 197.6L74.3355 197.117L72.6108 197.608C72.4072 197.679 72.2326 197.585 72.2554 197.43L72.2653 197.39L72.4506 196.852L71.0681 197.183C70.9185 197.218 70.7997 197.165 70.7826 197.063L70.7812 197.023C70.7913 196.909 70.906 196.789 71.0468 196.737L71.1006 196.72L72.8345 196.293C73.0083 196.249 73.14 196.344 73.1221 196.485L73.1135 196.525L72.9645 197.006L74.827 196.306C75.0213 196.23 75.2016 196.347 75.1779 196.516L75.1687 196.556L74.9567 197.201L77.0267 196.31C77.2235 196.22 77.4384 196.359 77.4163 196.543L77.4077 196.583L77.1864 197.27L79.4818 196.306C79.6563 196.228 79.877 196.352 79.8991 196.525L79.9005 196.565L79.8509 197.282L81.9348 196.308Z" fill="#FFB61D"/>
<ellipse cx="85.558" cy="114.521" rx="5.59504" ry="1.57201" transform="rotate(8.98977 85.558 114.521)" fill="#FFB61D"/>
<path fill-rule="evenodd" clip-rule="evenodd" d="M41.2136 150.508L42.19 152.561L44.3807 153.166L42.7305 154.729L42.8319 156.999L40.8357 155.913L38.7076 156.711L39.1241 154.476L37.7074 152.699L39.9611 152.405L41.2136 150.508Z" fill="#00160A"/>
<path fill-rule="evenodd" clip-rule="evenodd" d="M57.0246 146.719L57.7301 148.287L59.3237 148.744L58.1181 149.944L58.186 151.682L56.7353 150.855L55.1838 151.472L55.4928 149.761L54.466 148.405L56.1076 148.173L57.0246 146.719Z" fill="#00160A"/>
<path fill-rule="evenodd" clip-rule="evenodd" d="M67.8449 179.183L68.5504 180.751L70.144 181.208L68.9384 182.408L69.0063 184.145L67.5556 183.319L66.0041 183.936L66.3131 182.225L65.2863 180.868L66.9279 180.637L67.8449 179.183Z" fill="#00160A"/>
<path fill-rule="evenodd" clip-rule="evenodd" d="M114.919 168.361L115.625 169.929L117.218 170.387L116.013 171.587L116.081 173.324L114.63 172.498L113.078 173.114L113.387 171.403L112.36 170.047L114.002 169.816L114.919 168.361Z" fill="#00160A"/>
<path fill-rule="evenodd" clip-rule="evenodd" d="M45.1203 220.304L45.8258 221.871L47.4194 222.329L46.2138 223.529L46.2817 225.266L44.831 224.44L43.2795 225.056L43.5885 223.345L42.5617 221.989L44.2033 221.758L45.1203 220.304Z" fill="#00160A"/>
<path fill-rule="evenodd" clip-rule="evenodd" d="M44.617 234.372L45.4794 236.289L47.4271 236.848L45.9535 238.315L46.0366 240.438L44.2635 239.428L42.3672 240.181L42.7449 238.09L41.4899 236.433L43.4963 236.15L44.617 234.372Z" fill="#00160A"/>
<path fill-rule="evenodd" clip-rule="evenodd" d="M60.8495 226.257L61.7118 228.173L63.6595 228.732L62.186 230.199L62.269 232.322L60.4959 231.312L58.5996 232.065L58.9773 229.974L57.7223 228.317L59.7288 228.034L60.8495 226.257Z" fill="#00160A"/>
<path fill-rule="evenodd" clip-rule="evenodd" d="M82.492 219.764L83.3544 221.68L85.3021 222.239L83.8285 223.706L83.9116 225.829L82.1385 224.819L80.2422 225.573L80.6199 223.482L79.3649 221.824L81.3713 221.541L82.492 219.764Z" fill="#00160A"/>
<path fill-rule="evenodd" clip-rule="evenodd" d="M50.4108 174.315L51.3872 176.367L53.578 176.973L51.9278 178.535L52.0292 180.806L50.0329 179.719L47.9049 180.517L48.3213 178.283L46.9047 176.506L49.1583 176.211L50.4108 174.315Z" fill="#00160A"/>
<path fill-rule="evenodd" clip-rule="evenodd" d="M53.1179 159.165L54.0943 161.218L56.285 161.823L54.6348 163.386L54.7362 165.656L52.74 164.57L50.6119 165.368L51.0284 163.133L49.6117 161.356L51.8654 161.062L53.1179 159.165Z" fill="#00160A"/>
<path fill-rule="evenodd" clip-rule="evenodd" d="M77.4655 168.363L78.4419 170.416L80.6327 171.021L78.9825 172.584L79.0839 174.854L77.0876 173.768L74.9596 174.566L75.376 172.331L73.9594 170.554L76.213 170.26L77.4655 168.363Z" fill="#00160A"/>
<path fill-rule="evenodd" clip-rule="evenodd" d="M91.5319 161.33L92.5083 163.382L94.6991 163.987L93.0489 165.55L93.1503 167.82L91.154 166.734L89.026 167.532L89.4424 165.298L88.0258 163.52L90.2794 163.226L91.5319 161.33Z" fill="#00160A"/>
<path fill-rule="evenodd" clip-rule="evenodd" d="M87.2038 182.972L88.1802 185.024L90.3709 185.629L88.7208 187.192L88.8222 189.463L86.8259 188.376L84.6979 189.174L85.1143 186.94L83.6977 185.163L85.9513 184.868L87.2038 182.972Z" fill="#00160A"/>
<path fill-rule="evenodd" clip-rule="evenodd" d="M51.4929 190.006L52.4693 192.058L54.66 192.663L53.0098 194.226L53.1112 196.497L51.115 195.41L48.9869 196.208L49.4034 193.974L47.9867 192.197L50.2404 191.902L51.4929 190.006Z" fill="#00160A"/>
<path fill-rule="evenodd" clip-rule="evenodd" d="M37.5643 166.198L38.4384 167.946L40.3887 168.467L38.9252 169.792L39.0216 171.724L37.2429 170.794L35.3522 171.467L35.7165 169.568L34.4515 168.052L36.4554 167.808L37.5643 166.198Z" fill="#00160A"/>
<path fill-rule="evenodd" clip-rule="evenodd" d="M27.826 177.56L28.7001 179.309L30.6505 179.829L29.1869 181.154L29.2833 183.086L27.5046 182.156L25.6139 182.829L25.9782 180.93L24.7133 179.414L26.7171 179.17L27.826 177.56Z" fill="#00160A"/>
<path fill-rule="evenodd" clip-rule="evenodd" d="M98.7866 149.193C98.8129 149.939 98.1808 150.564 97.4339 150.545C93.7021 150.451 93.1088 144.034 93.4668 144.008C93.9622 143.972 94.8088 147.02 96.475 148.131C97.7455 148.977 98.7139 147.136 98.7866 149.193Z" fill="#00160A"/>
<path fill-rule="evenodd" clip-rule="evenodd" d="M180.669 162.488C189.467 159.553 197.038 159.444 203.338 162.22C204.498 162.731 204.38 164.415 203.16 164.759L202.695 164.894C200.883 165.43 199.619 165.958 198.939 166.437L198.802 166.539L198.747 166.581C198.233 166.982 197.685 167.506 196.965 168.269L194.787 170.632C194.686 170.74 194.598 170.834 194.529 170.907C191.602 173.981 189.06 175.778 185.778 176.562C181.283 177.635 176.513 177.114 171.5 175.025C171.097 174.857 170.819 174.518 170.714 174.127L170.711 174.117L170.64 174.086C170.156 173.851 169.844 173.341 169.88 172.782L169.888 172.693C170.493 168.048 174.175 164.654 180.669 162.488ZM198.374 163.44C193.545 162.387 187.935 162.916 181.525 165.054C176.278 166.804 173.405 169.254 172.689 172.385L172.648 172.572L172.854 172.657C177.138 174.384 181.136 174.822 184.876 173.993L185.149 173.931C187.739 173.312 189.844 171.86 192.341 169.279L192.686 168.918C193.274 168.291 194.66 166.773 194.83 166.59C195.718 165.64 196.396 164.984 197.082 164.449L197.231 164.335C197.578 164.074 198 163.821 198.499 163.575L198.649 163.502L198.374 163.44Z" fill="#00160A"/>
<path fill-rule="evenodd" clip-rule="evenodd" d="M200.511 0.243676C201.124 -0.183973 201.967 -0.0340895 202.394 0.578449C202.822 1.19099 202.13 2.07221 201.518 2.49985C199.478 3.92428 194.562 8.57739 193.556 9.64311L192.588 10.6733C190.689 12.7186 168.065 36.2447 167.522 35.732C167.024 35.2618 189.099 10.9877 190.755 9.21373L190.817 9.14681C192.382 7.47709 193.828 5.97167 195.211 4.57762C196.58 3.19752 198.346 1.75492 200.511 0.243676Z" fill="#00160A"/>
<defs>
<linearGradient id="paint0_linear_695_808" x1="96.3295" y1="103.593" x2="96" y2="236" gradientUnits="userSpaceOnUse">
<stop stop-color="#0083FD"/>
<stop offset="1" stop-color="#0083FD" stop-opacity="0"/>
</linearGradient>
</defs>
</svg>
