<svg width="750" height="750" viewBox="0 0 750 750" fill="none" xmlns="http://www.w3.org/2000/svg">
<rect width="750" height="750" fill="white"/>
<path fill-rule="evenodd" clip-rule="evenodd" d="M68.8887 577.946C67.3595 570.911 65.6825 563.908 64.2182 556.861C63.51 553.453 63.1052 549.979 62.6235 546.527C61.7254 540.088 60.8378 533.647 60.0174 527.199C59.7288 524.93 59.522 522.637 59.496 520.352C59.2854 501.846 58.7823 483.333 59.1055 464.835C59.2551 456.269 61.0314 447.73 62.0963 439.181C63.4972 427.937 66.4399 417.049 69.8352 406.276C74.7217 390.772 79.6693 375.287 84.6009 359.796C87.2502 351.475 90.0954 343.21 92.5033 334.819C93.6145 330.947 94.0637 326.854 94.4931 322.827C94.9013 318.999 95.3377 315.083 94.9707 311.283C94.284 304.172 93.1026 297.104 91.9803 290.042C91.0223 284.013 89.9024 278.009 88.776 272.009C87.0264 262.69 86.5098 253.285 86.6977 243.829C86.846 236.369 86.616 228.87 87.3171 221.461C88.3305 210.751 89.8721 200.02 94.1003 190.025C97.3355 182.377 100.921 174.821 105.044 167.621C109.116 160.508 113.952 153.819 118.659 147.088C121.531 142.983 124.574 138.952 127.931 135.242C133.103 129.526 138.451 123.946 144.015 118.613C152.705 110.284 162.44 103.263 172.786 97.1404C182.55 91.3621 192.883 86.7822 203.735 83.429C211.163 81.1338 218.654 79.0393 226.047 76.6369C231.335 74.9181 236.404 72.4607 241.756 71.0142C248.397 69.219 255.184 67.8404 261.988 66.8108C268.972 65.7541 276.047 65.2746 283.091 64.6579C288.259 64.2056 293.438 63.8305 298.619 63.6178C305.521 63.3344 312.429 63.1654 319.336 63.0877C327.157 62.9998 334.984 62.9356 342.803 63.1103C348.769 63.2436 354.733 63.6794 360.686 64.1353C368.69 64.7483 376.689 65.442 384.677 66.2303C390.592 66.814 396.513 67.4368 402.385 68.3421C410.38 69.5747 418.352 70.982 426.296 72.5153C437.501 74.6781 448.753 76.6869 459.833 79.3853C471.538 82.2359 483.246 85.3102 494.237 90.4128C504.12 95.0009 514.02 99.5925 523.633 104.709C532.39 109.371 540.757 114.764 549.325 119.785C552.613 121.712 556.035 123.414 559.297 125.382C561.485 126.702 563.688 128.104 565.557 129.824C574.049 137.638 582.464 145.537 590.827 153.49C594.86 157.325 598.717 161.346 602.654 165.283C607.073 169.702 611.704 173.934 615.86 178.589C621.136 184.498 625.975 190.795 631.098 196.843C637.988 204.978 642.61 214.465 647.607 223.76C651 230.07 653.11 236.843 655.589 243.486C657.283 248.026 659.223 252.598 659.995 257.329C661.174 264.55 665.45 270.285 668.016 276.805C670.645 283.486 672.744 290.379 674.976 297.211C676.885 303.057 678.867 308.892 680.421 314.835C681.852 320.306 682.768 325.912 683.885 331.464C684.745 335.736 685.644 340.002 686.377 344.295C686.897 347.341 687.161 350.429 687.555 353.496C688.246 358.878 688.992 364.253 689.632 369.64C690.06 373.237 690.446 376.844 690.668 380.458C690.948 385.002 691.05 389.558 691.215 394.109C691.399 399.182 691.904 404.272 691.673 409.327C691.129 421.241 671.517 469.136 663.599 480.887C659.007 487.701 654.583 494.63 649.872 501.36C643.7 510.176 637.388 518.897 631.011 527.568C623.376 537.949 615.704 548.306 607.859 558.528C604.153 563.358 600.089 567.924 596.033 572.473C592.642 576.274 589.24 580.111 585.467 583.516C578.098 590.162 570.501 596.559 562.935 602.984C552.962 611.451 542.021 618.612 530.715 625.056C521.488 630.314 511.72 634.74 501.886 638.791C487.057 644.899 471.988 650.431 456.971 656.071C445.494 660.382 434.014 664.71 422.393 668.605C412.565 671.899 402.608 674.874 392.569 677.447C384.07 679.626 375.395 681.155 366.753 682.727C360.701 683.827 354.589 684.643 348.477 685.351C342.52 686.042 336.532 686.468 330.552 686.944C327.403 687.195 324.245 687.399 321.087 687.465C310.606 687.683 300.124 687.912 289.642 687.969C284.481 687.997 279.307 687.824 274.161 687.441C266.937 686.903 259.701 686.318 252.53 685.326C244.349 684.195 236.239 682.557 228.086 681.213C221.377 680.106 214.62 679.269 207.938 678.024C196.468 675.887 184.984 673.763 173.61 671.18C164.505 669.113 155.44 666.722 146.561 663.848C132.435 659.276 119.198 652.73 107.246 643.839C103.24 640.859 99.2766 637.671 95.9058 634.014C87.8742 625.3 81.4161 615.469 76.7479 604.261C73.1752 595.602 70.8221 586.84 68.8887 577.946Z" fill="url(#paint0_linear_1547_273)"/>
<path d="M407.011 596.933C405.963 602.43 405.547 607.9 403.71 612.842C401.327 619.254 395.811 623.129 389.442 625.101C382.445 627.267 375.239 628.785 368.078 630.375C365.699 630.903 363.178 630.802 360.719 630.95C351.866 631.484 343.01 631.98 334.158 632.533C329.328 632.834 324.507 633.285 319.676 633.553C315.043 633.811 310.399 634.106 305.765 634.035C304.737 634.02 298.309 634.949 289.315 635.581C287.569 635.704 290.287 645.139 287.147 646.128C280.151 648.333 263.015 647.714 260.025 643.035C257.036 638.356 258.096 636.385 254.782 635.033C238.573 628.418 221.878 626.873 216.986 612.842C213.729 603.503 219.927 581.378 218.125 564.393C213.503 520.839 204.311 472.241 204.011 471.992C204.042 471.959 194.223 472.798 193.492 469.199C184.42 424.545 180.282 365.694 204.011 350.854C218.3 341.918 245.518 332.74 275.692 325.243C280.078 324.154 282.667 317.71 287.147 316.697C288.149 316.471 291.215 310.649 293.844 304.801C296.492 298.912 298.719 292.995 304.155 292.737C315.329 292.205 334.605 277.893 347.681 282.359C359.656 286.448 365.727 309.469 370.351 306.681C375.012 303.871 379.136 308.749 385.52 308.749C431.212 308.749 465.625 395.551 470.41 416.909C462.413 428.449 438.728 428.449 416.347 435.287C412.644 430.719 405.203 417.02 402.8 409.313C400.326 401.383 399.473 419.367 399.3 425.74C399.076 433.982 399.815 442.255 400.222 450.51C400.49 455.952 400.935 461.384 401.247 466.824C401.794 476.374 402.372 485.923 402.8 495.479C403.1 502.204 402.97 508.953 403.404 515.667C403.847 522.546 404.764 529.394 405.433 536.26C405.826 540.297 406.185 544.34 406.473 548.386C406.717 551.797 407.06 555.224 406.963 558.633C406.777 565.239 406.086 571.836 406.057 578.438C406.042 581.886 407.197 585.325 407.436 588.794C407.615 591.398 407.175 594.044 407.011 596.933Z" fill="white"/>
<path d="M480.074 185.064C477.127 182.273 475.326 178.786 473.009 175.683C472.941 175.592 472.875 175.496 472.828 175.394C471.015 171.46 469.244 167.528 468.383 163.228C467.879 160.717 467.901 158.27 468.282 155.78C468.472 154.541 468.552 153.283 468.798 152.057C469.553 148.295 471.388 145.019 473.54 141.903C474.188 140.966 474.932 140.093 475.562 139.144C477.924 135.591 481.256 133.303 485.136 131.709C487.661 130.672 490.253 129.797 492.724 128.624C493.028 128.48 493.363 128.351 493.694 128.32C497.781 127.933 501.867 127.531 505.96 127.205C509.951 126.886 513.949 126.974 517.943 127.232C520.107 127.371 522.28 127.431 524.436 127.65C529.111 128.125 533.632 129.18 537.972 131.078C541.004 132.404 544.061 133.644 546.968 135.247C550.309 137.09 553.142 139.537 555.825 142.196C557.053 143.413 557.993 144.839 558.832 146.338C559.335 147.233 559.779 148.17 560.366 149.006C563.781 153.867 564.518 159.279 563.689 165.002C563.494 166.351 563.061 167.668 563.174 169.057C562.5 171.829 561.845 174.613 560.193 177.013C558.896 178.896 557.491 180.691 555.743 182.191C555.137 182.711 554.527 183.235 553.98 183.814C552.793 185.071 551.345 185.972 549.973 186.992C547.018 189.189 543.726 190.74 540.469 192.372C540.065 192.574 539.636 192.736 539.202 192.867C537.458 193.398 535.708 193.911 533.959 194.427C531.989 195.007 530.029 195.623 528.044 196.151C524.938 196.978 521.716 196.99 518.552 197.41C518.105 197.469 517.632 197.437 517.186 197.361C513.809 196.788 510.387 196.613 506.994 196.19C506.43 196.12 505.876 195.973 505.319 195.857C501.519 195.066 497.697 194.364 494.011 193.107C493.088 192.793 492.254 192.864 491.394 193.369C490.412 193.945 489.369 194.417 488.342 194.916C486.172 195.969 484.284 197.451 482.329 198.833C481.774 199.225 481.192 199.582 480.601 199.918C480.144 200.177 479.362 199.787 479.242 199.246C479.094 198.581 478.949 197.923 479.145 197.224C480.243 193.326 480.205 189.339 480.074 185.064Z" fill="white"/>
<path fill-rule="evenodd" clip-rule="evenodd" d="M288.633 313.457C288.633 313.457 293.607 306.647 295.324 303.097C297.041 299.547 298.656 292.737 298.656 292.737C298.656 292.737 334.149 342.991 328.533 343.645C317.306 344.953 288.633 313.457 288.633 313.457Z" fill="#E7EAEE"/>
<path d="M441.688 474.327C436.069 465.393 424.129 444.568 418.63 435.771C418.503 435.568 444.108 412.024 466.9 417.984C469.163 418.576 473.514 427.397 475.648 428.449C479.62 430.407 478.91 420.839 486.512 407.358C498.482 386.131 520.53 354.43 529.185 335.506C532.703 327.814 530.216 321.819 529.845 320.14C528.471 313.927 525.248 308.859 520.594 304.602C517.575 301.841 517.455 295.679 520.892 293.981C523.43 292.728 526.291 292.331 529.185 293.777C532.491 295.428 535.781 296.99 538.055 300.068C538.362 300.484 538.901 300.728 539.333 301.052C539.541 300.527 539.77 300.01 539.953 299.477C541.785 294.13 543.471 288.728 545.479 283.449C547.253 278.783 549.218 274.17 551.45 269.709C552.186 268.239 554.041 266.346 555.344 266.376C557.263 266.419 558.514 268.491 558.802 270.663C558.955 271.814 559.118 272.966 559.335 274.107C559.431 274.608 559.673 275.081 559.849 275.567C560.197 275.151 560.519 274.71 560.897 274.323C562.036 273.156 563.047 271.78 564.386 270.913C566.224 269.721 568.318 271.045 568.171 273.334C567.966 276.495 567.72 279.709 566.957 282.768C565.585 288.266 563.811 293.665 562.226 299.111C562.131 299.435 562.223 299.814 562.227 300.167C562.584 299.975 563.117 299.875 563.269 299.578C564.267 297.642 565.335 295.72 566.091 293.687C567.313 290.4 569.163 287.585 571.839 285.363C572.461 284.845 573.471 284.795 574.303 284.529C574.543 285.302 575.144 286.172 574.966 286.832C573.678 291.603 572.564 296.461 570.771 301.048C566.253 312.604 561.428 324.039 556.684 335.506C553.942 342.132 550.758 348.601 548.431 355.367C546.058 362.266 544.676 369.499 542.523 376.481C540.239 383.884 537.607 391.182 535.039 398.495C531.135 409.609 527.622 420.893 523.057 431.731C519.49 440.202 514.846 448.263 510.174 456.209C506.674 462.163 502.666 467.886 498.309 473.243C495.75 476.39 492.115 478.684 488.873 481.248C483.684 485.352 477.791 487.971 471.34 489.45C463.915 491.152 457.325 489.827 451.784 484.41C448.428 481.128 445.138 477.778 441.688 474.327Z" fill="white"/>
<path fill-rule="evenodd" clip-rule="evenodd" d="M267.013 254.055C266.298 255.502 266.344 256.768 267.276 257.996C267.694 258.547 268.146 259.072 268.598 259.597C269.083 260.16 269.568 260.724 270.01 261.319C270.679 262.218 271.37 263.106 272.061 263.994C273.876 266.325 275.692 268.658 277.117 271.208C279.129 274.811 281.46 277.468 285.69 278.231C287.407 278.541 288.055 279.913 288.261 281.719C288.547 284.233 289.015 286.782 289.85 289.16C290.447 290.861 292.027 291.989 294.039 291.771C294.982 291.669 295.921 291.51 296.86 291.351C298.305 291.106 299.748 290.861 301.198 290.826C302.587 290.793 304.389 291.156 305.323 292.052C307.819 294.446 310.117 297.05 312.413 299.65C312.888 300.188 313.362 300.725 313.838 301.261C314.014 301.458 314.186 301.657 314.357 301.855L314.358 301.856C316.034 303.793 317.592 305.593 320.924 304.437C324.88 303.065 329.04 302.45 333.331 302.729C337.267 302.985 338.804 301.652 340.015 297.798C340.139 297.403 340.245 296.999 340.35 296.595L340.35 296.595C340.553 295.816 340.756 295.037 341.095 294.322C341.224 294.052 341.351 293.777 341.479 293.502L341.479 293.501C342.179 291.992 342.894 290.449 343.973 289.263C345.923 287.122 348.45 287.451 351.04 288.369C353.956 289.403 355.468 288.769 356.726 286.119C357.258 284.997 357.434 285.011 358.408 285.729C359.195 286.31 360.436 286.578 361.44 286.504C363.925 286.32 366.413 285.973 368.848 285.452C369.728 285.264 370.894 284.568 371.195 283.811C371.563 282.886 371.933 281.961 372.303 281.036C374.392 275.82 376.484 270.596 378.157 265.245C380.879 256.541 382.906 247.629 382.901 238.435C382.898 232.275 382.717 226.116 382.536 219.957C382.491 218.396 382.445 216.835 382.402 215.274C382.382 214.534 382.364 213.793 382.346 213.052L382.346 213.049V213.049C382.266 209.671 382.185 206.289 381.846 202.935C381.234 196.884 380.445 190.849 379.657 184.816L379.655 184.8C379.523 183.792 379.392 182.783 379.261 181.775C378.875 178.803 378.425 175.839 377.976 172.875L377.975 172.872C377.827 171.893 377.678 170.913 377.532 169.934L377.215 167.81C376.513 163.099 375.811 158.387 375.068 153.681C375.039 153.497 375.013 153.307 374.986 153.114C374.851 152.135 374.705 151.085 374.153 150.423C373.659 149.832 373.166 149.239 372.674 148.645C369.521 144.847 366.359 141.039 362.842 137.602C360.082 134.906 356.756 132.741 353.491 130.615L353.066 130.338C344.142 124.524 334.146 121.906 323.639 121.215C320.76 121.026 317.866 121.07 314.971 121.113C313.238 121.14 311.505 121.166 309.774 121.142C308.194 121.12 307.339 121.623 306.313 123.002C304.953 124.83 302.92 126.302 300.912 127.478C295.899 130.416 291.487 133.866 288.099 138.716C283.648 145.087 279.57 151.642 276.905 158.949C274.849 164.586 273.427 170.375 272.937 176.438C272.778 178.395 272.384 180.327 271.989 182.26C271.225 186 270.46 189.745 271.404 193.689C271.811 195.388 272.047 197.131 272.284 198.873C272.561 200.915 272.838 202.955 273.389 204.921C273.49 205.283 273.592 205.644 273.693 206.005C275.45 212.25 277.173 218.379 276.83 225.099C276.461 232.323 273.898 238.634 270.929 245.472C270.55 246.311 270.176 247.153 269.803 247.994L269.803 247.995L269.803 247.995C268.901 250.029 267.999 252.063 267.013 254.055ZM384.505 206.492C384.509 206.554 384.502 206.621 384.495 206.687C384.482 206.807 384.47 206.924 384.519 207.006C384.671 207.259 384.854 207.494 385.037 207.729C385.109 207.822 385.181 207.915 385.252 208.009C385.329 207.939 385.411 207.873 385.492 207.806L385.492 207.806C385.667 207.662 385.842 207.518 385.984 207.346C386.386 206.859 386.79 206.373 387.195 205.888L387.196 205.887L387.197 205.886C388.349 204.504 389.502 203.122 390.584 201.686C392.969 198.518 395.301 195.309 397.586 192.067C398.933 190.156 397.593 189.365 395.996 189.251C392.67 189.015 389.853 190.421 386.995 192.064C384.953 193.238 383.449 194.221 383.983 197.319L384.063 198.712C384.211 201.305 384.359 203.898 384.505 206.492ZM270.602 207.962C270.53 208.079 270.458 208.197 270.406 208.31C268.983 207.632 267.664 206.822 266.358 206.02C265.215 205.318 264.082 204.623 262.899 204.027C260.224 202.681 259.283 200.235 258.427 197.805C257.441 195.008 259.635 192.337 262.609 192.357C262.741 192.358 262.874 192.358 263.007 192.359C264.067 192.363 265.144 192.366 266.163 192.59C268.166 193.029 268.365 194.581 268.556 196.077C268.615 196.541 268.674 196.999 268.786 197.418C269.501 200.094 270.023 202.823 270.545 205.55C270.653 206.114 270.761 206.678 270.871 207.241C270.913 207.456 270.757 207.709 270.602 207.962Z" fill="white"/>
<circle cx="366" cy="239" r="7" fill="#FFB61D"/>
<circle cx="293" cy="233" r="7" fill="#FFB61D"/>
<path fill-rule="evenodd" clip-rule="evenodd" d="M326.092 148.654C330.081 149.511 334.407 150.551 338.438 148.362C339.803 147.621 341.086 146.708 342.33 145.772C343.089 145.201 343.772 144.492 344.368 143.748C349.103 137.846 352.597 138.727 359.117 142.581C367.458 147.511 377.117 161.873 351.256 161.873C338.23 161.873 286.203 154.78 293.467 147.729C296.436 144.848 300.326 142.919 303.772 140.522C305.07 139.619 306.391 138.715 307.536 137.636C309.196 136.073 310.202 136.898 311.238 138.335C312.6 140.224 314.021 142.069 315.548 144.063C319.138 145.735 322.469 147.876 326.092 148.654Z" fill="#E7EAEE"/>
<path fill-rule="evenodd" clip-rule="evenodd" d="M465.477 418.668C464.125 419.482 462.775 420.294 461.323 420.845C457.811 422.177 454.251 423.381 450.654 424.598L450.653 424.598C448.376 425.369 446.084 426.144 443.78 426.96C443.086 427.23 442.476 427.408 441.885 427.58L441.884 427.58C441.745 427.621 441.607 427.661 441.47 427.702C439.413 428.314 437.357 428.933 435.302 429.551L435.301 429.551L435.301 429.551L435.3 429.552L435.299 429.552L435.299 429.552L435.298 429.552L435.297 429.552L435.297 429.553L435.296 429.553L435.295 429.553L435.295 429.553L435.294 429.553L435.293 429.553L435.292 429.554C430.135 431.105 424.978 432.657 419.794 434.111C417.694 434.7 415.958 434.04 414.817 431.77C411.981 426.129 408.947 420.585 405.894 415.057C405.682 414.673 405.159 414.462 404.636 414.25C404.393 414.152 404.15 414.054 403.938 413.938C403.859 414.206 403.733 414.497 403.607 414.789C403.334 415.417 403.062 416.045 403.262 416.428C406.665 422.968 410.16 429.464 413.816 435.865C414.268 436.657 415.905 437.384 416.808 437.205C421.608 436.259 426.372 435.102 431.103 433.848C432.932 433.363 434.741 432.796 436.55 432.23C439.157 431.413 441.762 430.597 444.421 430.028C453.552 428.073 462.288 425.25 470.125 420.029C472.939 418.154 473.711 415.287 472.343 412.316C471.868 411.287 471.385 410.26 470.901 409.232L470.9 409.231L470.9 409.229L470.899 409.227L470.898 409.226L470.897 409.224L470.897 409.222L470.896 409.221L470.895 409.219L470.895 409.218L470.894 409.216L470.891 409.21C469.212 405.643 467.53 402.071 466.215 398.372C462.183 387.034 457.645 375.915 452.301 365.144C448.919 358.327 445.328 351.6 441.512 345.018C436.413 336.224 431.074 327.437 422.875 321.18C417.181 316.834 411.083 312.741 404.6 309.77C395.124 305.429 384.717 304.478 374.361 303.756C372.245 303.608 370.021 302.815 368.153 301.772C364.405 299.681 362.883 295.977 361.35 292.248C361.182 291.84 361.014 291.431 360.843 291.025C360.087 289.226 361.304 288.889 362.07 288.73C364.043 288.322 366.127 287.999 368.11 288.199C371.201 288.511 372.901 287.073 374.035 284.51C376.817 278.225 379.253 271.834 381.092 265.182C383.638 255.973 385.813 246.765 385.581 237.114C385.48 232.932 385.504 228.746 385.527 224.561V224.559C385.539 222.377 385.551 220.194 385.546 218.012C385.544 217.416 385.472 216.793 385.4 216.172C385.255 214.924 385.111 213.683 385.546 212.688C386.614 210.242 388.369 208.046 390.072 205.936C391.42 204.267 392.827 202.646 394.235 201.025C395.94 199.061 397.645 197.098 399.242 195.049C400.528 193.399 401.487 191.298 400.192 189.107C398.927 186.967 396.898 186.098 394.541 186.63C394.137 186.721 393.73 186.807 393.322 186.893C390.359 187.52 387.363 188.154 385.271 190.781C384.266 192.043 383.685 192.047 383.424 190.217C383.231 188.857 382.956 187.509 382.681 186.161C382.396 184.765 382.111 183.37 381.917 181.961C381.678 180.225 381.517 178.479 381.356 176.733C381.201 175.043 381.045 173.353 380.819 171.673C380.501 169.314 380.142 166.961 379.783 164.607C379.24 161.044 378.697 157.482 378.296 153.904C378.058 151.779 377.468 150.077 376.042 148.528C375.303 147.724 374.551 146.928 373.8 146.132C371.496 143.691 369.189 141.248 367.202 138.57C361.719 131.182 353.932 127.307 345.852 123.793C340.645 121.529 335.261 119.909 329.535 119.582C327.016 119.439 324.498 119.259 321.981 119.08C319.41 118.896 316.839 118.713 314.266 118.568C312.149 118.448 309.997 118.363 307.906 118.626C306.867 118.757 305.827 119.588 304.97 120.317C304.123 121.036 303.318 121.805 302.512 122.574C301.475 123.565 300.438 124.555 299.315 125.437C298.131 126.367 296.876 127.22 295.624 128.073C293.568 129.472 291.516 130.869 289.785 132.594C287.796 134.578 286.207 136.968 284.62 139.354L284.62 139.354L284.62 139.355C284.036 140.233 283.453 141.11 282.85 141.967C278.375 148.325 274.937 155.196 273.044 162.76C271.873 167.442 270.881 172.17 269.896 176.896L269.74 177.644C269.018 181.104 268.294 184.572 267.839 188.07L267.818 188.225C267.459 190.996 267.432 191.207 264.773 190.224C262.027 189.209 259.661 189.894 257.728 191.757C255.829 193.587 255.62 196.056 256.28 198.544C258.214 205.833 263.785 208.884 270.444 210.702C271.025 210.861 271.667 211.428 271.944 211.975C274.815 217.654 274.939 223.695 273.122 229.552C271.449 234.945 269.467 240.242 267.485 245.539L267.485 245.539L267.485 245.539L267.485 245.539L267.485 245.539L267.485 245.54L267.485 245.54L267.485 245.54L267.485 245.54L267.485 245.54L267.485 245.54L267.485 245.54L267.484 245.541L267.484 245.541L267.484 245.541L267.484 245.542L267.484 245.542L267.484 245.543L267.484 245.543L267.483 245.543L267.483 245.544L267.483 245.544L267.483 245.545L267.483 245.545L267.483 245.546L267.482 245.546L267.482 245.547L267.482 245.547L267.482 245.548C266.608 247.883 265.734 250.218 264.887 252.562C264.014 254.978 263.535 257.193 265.536 259.532C269.839 264.565 273.948 269.774 277.052 275.677C278.283 278.018 280.172 279.703 282.706 280.211C285.12 280.696 285.447 281.889 285.732 284.154C286.106 287.139 287.1 290.276 288.712 292.777C289.224 293.571 290.605 293.785 292.018 294.005C292.766 294.122 293.523 294.239 294.166 294.445C294.69 294.613 295.523 295.313 295.459 295.597C295.344 296.102 295.233 296.609 295.121 297.117L295.121 297.117L295.121 297.118L295.121 297.119L295.121 297.119C294.585 299.557 294.047 302.007 293.142 304.308C291.161 309.346 286.947 312.498 282.857 315.557C282.298 315.975 281.742 316.392 281.193 316.811C274.053 322.27 265.558 325.268 257.024 327.855C253.014 329.071 248.945 330.094 244.876 331.117L244.875 331.117C242.235 331.781 239.595 332.445 236.97 333.162C235.335 333.608 233.718 334.137 232.103 334.665L232.103 334.665L232.103 334.665L232.103 334.665L232.102 334.665L232.102 334.665L232.102 334.665L232.102 334.665L232.102 334.665L232.102 334.665L232.102 334.665L232.102 334.665L232.101 334.665L232.101 334.665L232.101 334.665C229.706 335.448 227.313 336.23 224.862 336.744C215.442 338.72 207.133 342.785 199.835 349.011C194.93 353.195 192.296 358.822 189.649 364.48C189.52 364.755 189.391 365.03 189.262 365.305C185.684 372.932 182.546 381.064 182.104 389.317C181.98 391.632 182.157 393.961 182.334 396.292C182.423 397.471 182.513 398.649 182.563 399.827C182.677 402.473 182.774 405.121 182.872 407.769C183.084 413.528 183.296 419.286 183.675 425.034C183.887 428.239 184.457 431.424 185.026 434.604L185.026 434.604C185.19 435.517 185.353 436.43 185.508 437.342C185.929 439.826 186.399 442.302 186.87 444.778C187.183 446.429 187.497 448.081 187.796 449.735C187.991 450.814 188.201 451.892 188.41 452.969L188.41 452.97C188.974 455.869 189.538 458.77 189.824 461.697C190.087 464.387 190.01 467.112 189.934 469.833C189.911 470.638 189.889 471.443 189.875 472.247C189.851 473.663 190.098 474.809 191.8 474.425C193.481 474.045 195.134 473.535 196.785 473.024C197.304 472.863 197.823 472.703 198.343 472.547C200.096 472.019 201.17 472.637 201.396 474.44C201.62 476.223 201.817 478.009 202.014 479.795C202.313 482.507 202.612 485.218 203.004 487.915C203.957 494.474 205.005 501.02 206.135 507.551C208.21 519.538 211.201 531.312 215.13 542.816C218.624 553.043 222.402 563.175 226.217 573.288C228.415 579.112 230.765 584.88 233.115 590.646C233.716 592.12 234.316 593.594 234.914 595.068C237.337 601.043 239.812 606.996 242.291 612.948C242.866 614.329 243.435 615.713 244.003 617.097C245.67 621.157 247.337 625.217 249.177 629.197C250.775 632.652 252.59 636.007 254.405 639.36C254.94 640.35 255.476 641.339 256.005 642.331C256.17 642.639 256.5 642.858 256.831 643.078C256.985 643.18 257.138 643.282 257.275 643.392C257.341 643.211 257.418 643.03 257.494 642.85C257.674 642.427 257.854 642.005 257.895 641.569C257.927 641.228 257.734 640.856 257.549 640.499C257.5 640.405 257.452 640.313 257.409 640.222C256.791 638.928 256.153 637.643 255.514 636.358C254.176 633.664 252.837 630.97 251.694 628.196C247.735 618.583 243.937 608.902 240.153 599.218C238.453 594.867 236.791 590.5 235.128 586.134C233.492 581.836 231.856 577.537 230.183 573.253C229.143 570.589 228.043 567.946 226.944 565.303C224.976 560.573 223.009 555.843 221.383 550.998C217.933 540.711 214.846 530.287 212.051 519.802C210.476 513.894 209.394 507.849 208.313 501.815L208.313 501.814C208.119 500.729 207.925 499.644 207.728 498.561C207.183 495.564 206.836 492.531 206.489 489.498C206.37 488.463 206.252 487.428 206.126 486.395C205.577 481.905 205.06 477.41 204.557 472.914C204.39 471.416 205.053 470.706 206.582 470.222C212.439 468.368 218.267 466.426 224.096 464.484C226.163 463.795 228.231 463.105 230.3 462.42C231.839 461.911 233.478 461.422 235.162 460.92C241.4 459.06 248.266 457.014 253.014 453.019C253.289 452.788 254.008 452.656 254.181 452.825C254.491 453.129 254.71 453.708 254.677 454.151C254.513 456.368 254.314 458.585 254.115 460.8C253.723 465.17 253.331 469.54 253.208 473.917C253.052 479.469 253.318 485.038 253.584 490.597L253.584 490.597L253.585 490.6L253.585 490.602L253.585 490.605L253.585 490.607L253.585 490.61L253.585 490.612L253.585 490.615L253.585 490.618L253.586 490.62L253.586 490.623L253.586 490.625L253.586 490.628C253.621 491.352 253.655 492.076 253.689 492.799C253.853 496.327 254.116 499.883 254.749 503.35C256.359 512.173 259.7 520.429 263.623 528.448C264.193 529.614 264.871 530.736 265.549 531.856C266.561 533.531 267.572 535.203 268.215 537.01C269.197 539.774 270.236 542.519 271.275 545.265C274.128 552.804 276.982 560.344 278.676 568.276C279.209 570.771 279.831 573.247 280.453 575.723C281.144 578.471 281.834 581.218 282.402 583.991C283.279 588.267 283.961 592.584 284.644 596.899L284.644 596.9L284.644 596.901L284.644 596.902L284.644 596.903C284.801 597.896 284.958 598.889 285.118 599.882C285.313 601.096 285.53 602.31 285.748 603.525C286.338 606.821 286.929 610.121 287.072 613.438C287.355 620.037 287.445 626.644 287.535 633.252C287.583 636.78 287.631 640.308 287.709 643.834C287.72 644.36 287.943 644.881 288.167 645.402C288.271 645.644 288.375 645.886 288.457 646.129C288.596 645.883 288.768 645.64 288.939 645.397C289.311 644.871 289.683 644.345 289.715 643.799C289.888 640.825 289.989 637.846 290.091 634.867L290.091 634.866L290.091 634.865L290.091 634.863L290.091 634.862L290.091 634.861L290.091 634.86L290.091 634.858L290.091 634.857L290.091 634.856L290.091 634.854L290.091 634.853L290.091 634.852L290.091 634.851L290.091 634.849C290.157 632.934 290.222 631.018 290.306 629.104C290.346 628.19 290.442 627.277 290.537 626.364L290.537 626.363L290.537 626.363L290.537 626.363L290.537 626.363L290.537 626.362L290.537 626.362L290.537 626.362L290.537 626.362L290.537 626.361L290.537 626.361L290.537 626.361L290.537 626.36L290.537 626.36L290.537 626.36C290.68 624.989 290.822 623.62 290.779 622.256C290.734 620.831 290.694 619.406 290.653 617.981L290.653 617.979L290.653 617.978L290.653 617.976L290.653 617.975L290.653 617.973L290.653 617.972L290.653 617.97L290.653 617.969L290.653 617.967L290.653 617.966L290.653 617.965L290.653 617.963C290.466 611.418 290.28 604.868 289.665 598.361C289.253 593.997 288.219 589.68 287.19 585.383C286.993 584.558 286.795 583.733 286.603 582.91C286.141 580.937 285.69 578.959 285.239 576.982C283.641 569.97 282.042 562.953 279.941 556.092C276.492 544.825 271.809 534.011 266.43 523.485C263.985 518.7 261.935 513.593 260.562 508.406C257.866 498.22 257.632 487.691 257.4 477.221L257.378 476.236C257.27 471.418 257.468 466.592 257.666 461.768L257.666 461.767L257.666 461.765C257.734 460.119 257.802 458.473 257.857 456.828C257.93 454.667 258.096 452.508 258.262 450.35L258.262 450.347L258.262 450.343L258.263 450.34L258.263 450.337L258.263 450.333C258.299 449.866 258.335 449.399 258.37 448.932C258.531 446.782 258.727 444.633 258.923 442.483L258.924 442.482C259.353 437.784 259.782 433.087 259.841 428.384C259.888 424.602 259.642 420.817 259.397 417.031C259.193 413.895 258.99 410.759 258.952 407.621C258.9 403.194 257.622 399.102 256.344 395.008C255.938 393.709 255.532 392.41 255.166 391.1C255.025 390.597 254.504 390.2 253.983 389.803C253.742 389.619 253.501 389.435 253.298 389.241C253.218 389.525 253.104 389.816 252.989 390.107C252.739 390.743 252.489 391.378 252.604 391.94C252.832 393.066 253.174 394.175 253.514 395.283C253.991 396.833 254.467 398.379 254.631 399.962C255.367 407.05 256.064 414.17 256.178 421.287C256.226 424.266 255.994 427.252 255.761 430.237C255.502 433.567 255.242 436.896 255.373 440.211C255.559 444.941 253.146 447.456 249.915 449.856C245.665 453.013 239.594 454.837 234.144 456.475C232.7 456.909 231.3 457.33 229.988 457.759C221.843 460.424 213.746 463.237 205.649 466.05C202.305 467.212 198.961 468.374 195.613 469.526L195.557 469.545C194.438 469.931 193.515 470.249 193.516 468.339C193.518 466.011 193.277 463.676 193.037 461.354L193.024 461.23C192.887 459.908 192.753 458.586 192.619 457.265L192.619 457.262L192.619 457.262C192.101 452.151 191.583 447.04 190.909 441.95C190.498 438.841 189.998 435.743 189.498 432.645C188.901 428.942 188.303 425.24 187.857 421.52C187.229 416.289 186.856 411.001 186.814 405.735C186.771 400.401 186.935 395.065 187.099 389.729L187.099 389.729C187.163 387.635 187.228 385.541 187.28 383.447C187.419 377.828 190.178 372.673 192.868 367.646C193.875 365.765 194.872 363.902 195.719 362.04C200.013 352.592 208.099 347.383 217.202 343.703C221.576 341.935 226.138 340.628 230.699 339.323L230.699 339.323L230.699 339.323L230.699 339.323L230.699 339.323L230.699 339.323L230.699 339.323L230.7 339.322L230.7 339.322L230.7 339.322L230.7 339.322L230.7 339.322L230.7 339.322L230.7 339.322L230.7 339.322L230.701 339.322L230.702 339.322L230.702 339.322L230.703 339.321L230.703 339.321L230.704 339.321L230.705 339.321L230.705 339.321L230.706 339.321L230.706 339.32L230.707 339.32L230.708 339.32L230.708 339.32L230.709 339.32C232.382 338.841 234.054 338.362 235.716 337.86C239.447 336.735 243.186 335.639 246.926 334.543L246.928 334.542L246.929 334.542L246.929 334.542L246.93 334.542L246.931 334.541L246.931 334.541L246.932 334.541L246.932 334.541L246.933 334.541L246.934 334.54L246.934 334.54L246.935 334.54L246.935 334.54L246.936 334.54L246.937 334.54C254.313 332.378 261.688 330.216 268.991 327.829C275.507 325.7 281.711 322.65 286.843 317.928C288.248 316.635 288.94 316.864 290.18 318.049C294.227 321.918 298.372 325.686 302.515 329.454L303.229 330.104C310.293 336.529 318.155 341.783 326.898 345.614C328.193 346.182 330.314 346.103 331.518 345.403C334.232 343.824 336.771 341.935 339.305 340.051C339.827 339.662 340.349 339.274 340.872 338.889C341.923 338.114 342.977 337.342 344.03 336.569C348.409 333.359 352.788 330.148 357.046 326.784C361.569 323.211 364.806 318.503 368.031 313.812C368.547 313.061 369.062 312.312 369.583 311.567C369.787 311.274 369.066 309.767 368.604 309.673C366.791 309.306 365.959 310.487 365.086 311.726C364.92 311.961 364.753 312.199 364.577 312.428C363.853 313.373 363.146 314.342 362.438 315.314C360.245 318.324 358.04 321.35 355.269 323.687C350.846 327.416 346.201 330.878 341.554 334.342C338.25 336.804 334.946 339.267 331.72 341.827C329.713 343.42 328.236 343.303 326.295 342.208C325.87 341.968 325.445 341.729 325.02 341.491L325.02 341.49C320.494 338.948 316.005 336.427 312.09 332.829C307.058 328.205 301.776 323.85 296.496 319.497C294.986 318.252 293.476 317.008 291.972 315.757C290.578 314.597 290.829 313.88 292.028 312.783C296.046 309.107 298.202 304.56 298.786 299.074C298.822 298.739 298.834 298.371 298.846 297.988V297.988C298.902 296.258 298.968 294.237 301.282 293.698C303.506 293.179 305.164 294.632 306.492 296.243C307.344 297.278 308.158 298.346 308.972 299.413C309.984 300.741 310.996 302.068 312.082 303.332L312.286 303.57C314.362 305.992 316.649 308.659 320.258 307.411C325.305 305.667 330.398 305.342 335.643 305.28C337.134 305.262 339.205 304.147 339.969 302.899C341.232 300.836 342.165 298.57 343.098 296.306L343.098 296.305L343.098 296.305L343.098 296.305L343.098 296.305L343.098 296.304L343.099 296.304L343.099 296.304L343.099 296.303L343.099 296.303L343.099 296.303L343.099 296.303L343.099 296.302L343.099 296.302L343.1 296.302L343.1 296.301L343.1 296.3L343.101 296.299L343.101 296.298L343.101 296.297L343.102 296.297L343.102 296.296L343.103 296.295L343.103 296.294L343.103 296.293L343.104 296.292L343.104 296.291L343.104 296.29L343.105 296.29C343.464 295.417 343.823 294.545 344.202 293.685C345.54 290.64 346.932 289.502 350.284 290.722C351.74 291.253 353.668 291.675 354.985 291.151C357.595 290.113 358.088 291.371 358.82 293.237C358.85 293.313 358.88 293.39 358.911 293.467C360.62 297.796 362.358 302.137 366.483 304.96C369.202 306.821 372.279 307.336 375.36 307.852C375.646 307.9 375.932 307.948 376.218 307.997C378.897 308.456 381.585 308.867 384.272 309.279L384.274 309.279C388.139 309.871 392.004 310.462 395.842 311.195C405.84 313.103 414.41 318.239 421.753 324.884C426.882 329.525 431.026 335.37 435.066 341.069L435.066 341.07L435.183 341.234C438.117 345.373 440.502 349.92 442.874 354.44L442.874 354.44C443.148 354.962 443.421 355.483 443.695 356.003C444.432 357.402 445.176 358.8 445.919 360.198C449.315 366.585 452.715 372.98 455.595 379.596C458.928 387.253 461.966 395.038 465.005 402.824L465.005 402.825C466.481 406.605 467.956 410.384 469.465 414.15C469.969 415.409 470.131 416.208 468.599 416.93C467.527 417.435 466.501 418.052 465.478 418.668L465.477 418.668ZM269.801 247.995C270.175 247.153 270.548 246.311 270.928 245.472C273.897 238.634 276.46 232.323 276.829 225.099C277.172 218.379 275.448 212.251 273.692 206.006C273.59 205.645 273.489 205.283 273.387 204.921C272.837 202.955 272.56 200.915 272.282 198.873L272.282 198.873L272.282 198.873L272.282 198.873L272.282 198.873L272.282 198.872L272.282 198.872L272.282 198.872L272.282 198.872L272.282 198.872L272.282 198.872L272.282 198.872L272.282 198.872L272.282 198.872L272.282 198.871C272.046 197.13 271.809 195.388 271.403 193.689C270.459 189.745 271.224 186.001 271.988 182.261C272.382 180.327 272.777 178.396 272.935 176.438C273.426 170.375 274.848 164.586 276.904 158.95C279.569 151.642 283.647 145.087 288.098 138.716C291.486 133.866 295.898 130.416 300.911 127.478C302.918 126.302 304.952 124.831 306.312 123.002C307.337 121.624 308.193 121.12 309.773 121.142C311.504 121.166 313.237 121.14 314.97 121.114C317.865 121.07 320.758 121.026 323.638 121.216C334.145 121.906 344.14 124.524 353.065 130.339L353.489 130.615C356.755 132.741 360.081 134.906 362.84 137.602C366.357 141.039 369.519 144.847 372.672 148.645C373.165 149.239 373.658 149.832 374.151 150.424C374.704 151.086 374.849 152.135 374.985 153.114C375.012 153.307 375.038 153.497 375.067 153.681C375.809 158.386 376.511 163.096 377.214 167.807L377.214 167.809L377.531 169.934C377.677 170.914 377.826 171.893 377.974 172.873L377.974 172.876C378.424 175.839 378.874 178.803 379.259 181.775C379.391 182.79 379.523 183.804 379.656 184.818C380.444 190.851 381.232 196.884 381.845 202.935C382.184 206.289 382.265 209.671 382.345 213.048V213.049C382.363 213.791 382.38 214.533 382.401 215.274C382.444 216.834 382.489 218.394 382.535 219.954L382.535 219.956L382.535 219.958V219.959V219.96V219.96V219.961V219.962V219.963V219.963V219.964V219.965V219.966V219.966V219.967V219.968V219.969C382.716 226.124 382.897 232.28 382.9 238.435C382.905 247.629 380.878 256.541 378.156 265.245C376.483 270.596 374.391 275.819 372.303 281.035L372.302 281.036C371.932 281.961 371.561 282.886 371.193 283.812C370.892 284.568 369.726 285.264 368.847 285.452C366.411 285.973 363.923 286.321 361.439 286.504C360.435 286.579 359.194 286.31 358.406 285.729C357.433 285.012 357.257 284.997 356.725 286.119C355.467 288.77 353.954 289.404 351.039 288.37C348.449 287.451 345.921 287.122 343.972 289.264C342.893 290.449 342.177 291.992 341.478 293.501C341.35 293.777 341.223 294.052 341.094 294.323C340.754 295.037 340.552 295.816 340.348 296.595L340.348 296.596L340.348 296.596L340.348 296.596L340.348 296.596L340.348 296.596L340.348 296.596L340.348 296.596L340.348 296.597L340.348 296.597C340.243 297 340.138 297.404 340.014 297.799C338.803 301.652 337.266 302.986 333.33 302.729C329.038 302.45 324.878 303.065 320.923 304.437C317.591 305.593 316.033 303.793 314.356 301.856C314.185 301.658 314.012 301.459 313.837 301.261C313.361 300.725 312.886 300.188 312.412 299.65L312.411 299.65C310.116 297.049 307.818 294.446 305.322 292.052C304.388 291.156 302.586 290.793 301.196 290.826C299.746 290.861 298.303 291.106 296.859 291.351C295.92 291.51 294.98 291.669 294.037 291.771C292.025 291.989 290.446 290.861 289.849 289.16C289.014 286.782 288.546 284.234 288.26 281.72C288.054 279.913 287.406 278.541 285.689 278.231C281.459 277.468 279.128 274.811 277.115 271.208C275.691 268.658 273.875 266.325 272.06 263.994L272.06 263.994L272.06 263.994L272.059 263.993L272.059 263.993L272.059 263.993L272.059 263.992L272.058 263.992L272.058 263.991L272.058 263.991L272.057 263.991L272.057 263.99C271.367 263.104 270.677 262.217 270.009 261.32C269.566 260.724 269.081 260.161 268.596 259.597L268.596 259.597C268.145 259.072 267.693 258.547 267.275 257.997C266.343 256.768 266.296 255.502 267.012 254.056C267.997 252.063 268.899 250.029 269.801 247.996L269.801 247.995ZM384.058 198.647L383.982 197.319C383.448 194.221 384.952 193.238 386.994 192.064C389.852 190.421 392.668 189.016 395.994 189.251C397.592 189.365 398.931 190.157 397.584 192.068C395.3 195.309 392.967 198.518 390.582 201.686C389.501 203.122 388.348 204.505 387.195 205.887L387.195 205.887C386.79 206.373 386.385 206.859 385.983 207.347C385.841 207.518 385.666 207.662 385.491 207.806L385.49 207.806C385.46 207.831 385.43 207.856 385.4 207.881C385.349 207.923 385.299 207.965 385.25 208.009C385.18 207.915 385.108 207.822 385.036 207.73C384.853 207.495 384.67 207.259 384.518 207.006C384.468 206.924 384.481 206.807 384.493 206.688C384.5 206.621 384.507 206.554 384.504 206.492C384.356 203.877 384.207 201.262 384.058 198.647ZM270.601 207.962C270.529 208.08 270.457 208.197 270.404 208.311C268.982 207.632 267.663 206.822 266.357 206.021L266.357 206.02C265.214 205.319 264.081 204.623 262.898 204.027C260.223 202.681 259.282 200.236 258.425 197.805C257.439 195.009 259.633 192.337 262.607 192.357C262.74 192.358 262.873 192.359 263.006 192.359C264.066 192.363 265.142 192.367 266.162 192.59C268.164 193.029 268.363 194.581 268.555 196.077C268.614 196.541 268.673 197 268.784 197.418C269.5 200.094 270.022 202.824 270.544 205.55C270.652 206.114 270.76 206.678 270.87 207.242C270.911 207.456 270.756 207.709 270.601 207.962L270.601 207.962ZM429.169 454.334C433.308 460.96 437.459 467.607 441.686 474.328C442.765 475.406 443.827 476.474 444.881 477.534C447.199 479.865 449.475 482.154 451.782 484.41C457.323 489.827 463.913 491.152 471.339 489.45C477.789 487.971 483.683 485.352 488.872 481.248C489.694 480.598 490.542 479.964 491.391 479.33L491.392 479.33C493.889 477.465 496.398 475.591 498.307 473.243C502.665 467.886 506.672 462.163 510.173 456.209C514.844 448.263 519.489 440.202 523.056 431.731C526.381 423.835 529.149 415.703 531.915 407.572L531.917 407.567C532.948 404.539 533.978 401.511 535.037 398.495L535.357 397.586L535.592 396.918L535.789 396.358L536.201 395.191L536.202 395.187L536.202 395.187L536.202 395.187L536.202 395.187L536.202 395.186L536.203 395.186L536.203 395.186L536.203 395.185L536.203 395.185L536.203 395.185L536.203 395.185L536.203 395.184L536.203 395.184L536.203 395.184L536.203 395.184C538.392 388.976 540.582 382.767 542.521 376.481C543.462 373.429 544.256 370.328 545.05 367.229C546.072 363.239 547.094 359.25 548.429 355.367C549.962 350.909 551.867 346.58 553.773 342.25C554.76 340.008 555.747 337.766 556.682 335.506C557.666 333.127 558.654 330.75 559.641 328.373L559.642 328.371C563.416 319.288 567.189 310.206 570.77 301.048C572.189 297.417 573.183 293.616 574.174 289.823L574.175 289.818L574.176 289.815L574.176 289.813L574.177 289.812L574.177 289.81L574.178 289.808L574.178 289.806L574.179 289.805L574.179 289.803L574.18 289.801L574.18 289.799L574.181 289.798L574.181 289.796C574.44 288.806 574.698 287.817 574.964 286.832C575.086 286.381 574.844 285.832 574.602 285.282C574.489 285.028 574.377 284.774 574.301 284.529C574.039 284.613 573.759 284.675 573.48 284.738C572.871 284.873 572.263 285.008 571.837 285.363C569.161 287.585 567.312 290.4 566.09 293.687C565.464 295.371 564.624 296.978 563.787 298.579L563.787 298.58C563.698 298.75 563.609 298.921 563.52 299.091C563.436 299.253 563.352 299.416 563.268 299.578C563.163 299.781 562.881 299.892 562.599 300.003C562.469 300.055 562.339 300.106 562.226 300.167C562.224 300.055 562.214 299.94 562.204 299.825C562.182 299.579 562.16 299.333 562.224 299.111C562.729 297.377 563.253 295.648 563.776 293.919L563.777 293.917L563.778 293.915L563.778 293.914L563.779 293.912L563.779 293.91L563.78 293.908L563.78 293.906L563.781 293.904L563.781 293.903L563.782 293.9L563.783 293.897L563.784 293.894L563.785 293.891C564.904 290.198 566.022 286.506 566.955 282.768C567.718 279.709 567.965 276.496 568.169 273.334C568.317 271.046 566.223 269.721 564.384 270.913C563.43 271.531 562.643 272.407 561.856 273.282C561.539 273.635 561.222 273.988 560.895 274.323C560.636 274.589 560.403 274.88 560.17 275.171C560.063 275.304 559.956 275.437 559.847 275.567C559.792 275.415 559.731 275.265 559.67 275.114C559.534 274.783 559.399 274.452 559.334 274.107C559.116 272.966 558.953 271.814 558.801 270.663C558.512 268.491 557.262 266.419 555.343 266.376C554.039 266.346 552.184 268.239 551.449 269.709C549.216 274.17 547.251 278.783 545.477 283.449C544.098 287.075 542.871 290.76 541.644 294.444L541.643 294.447C541.083 296.126 540.524 297.804 539.951 299.477C539.826 299.841 539.68 300.198 539.533 300.555C539.465 300.72 539.397 300.886 539.331 301.052C539.195 300.949 539.047 300.855 538.9 300.76C538.582 300.556 538.263 300.352 538.053 300.068C535.868 297.11 532.743 295.552 529.569 293.969L529.184 293.777C526.289 292.331 523.428 292.728 520.89 293.981C517.453 295.679 517.573 301.841 520.592 304.602C525.247 308.859 528.469 313.927 529.843 320.14C531.709 328.577 529.942 336.202 524.954 343.186L524.711 343.527L524.213 344.224L524.213 344.224C521.727 347.701 519.238 351.182 516.952 354.788C511.093 364.03 505.292 373.311 499.623 382.671L499.286 383.226C494.045 391.879 488.799 400.54 483.954 409.416C481.763 413.429 479.987 417.671 478.212 421.91C477.585 423.406 476.959 424.903 476.314 426.389C475.738 427.716 475.331 428.182 474.234 426.832C473.413 425.823 472.474 424.875 471.447 424.081C471.132 423.838 470.653 423.805 470.175 423.772C469.958 423.757 469.741 423.742 469.539 423.707C469.527 423.856 469.492 424.025 469.458 424.194C469.384 424.559 469.31 424.925 469.459 425.091C469.654 425.31 469.848 425.531 470.043 425.753L470.043 425.753C471.054 426.904 472.079 428.07 473.305 428.936C477.131 431.64 477.585 431.326 479.275 426.868C479.365 426.631 479.454 426.395 479.543 426.158C479.665 425.834 479.787 425.511 479.908 425.187L479.909 425.186C481.373 421.289 482.846 417.365 484.846 413.749C490.274 403.93 496.004 394.273 501.77 384.646C507.473 375.126 513.275 365.663 519.22 356.293C520.562 354.177 522.054 352.15 523.545 350.124L523.546 350.123L523.546 350.122C525.635 347.285 527.721 344.45 529.388 341.383C535.585 329.984 534.679 318.642 527.462 307.907C526.746 306.842 525.817 305.916 524.89 304.991C523.868 303.972 522.848 302.954 522.117 301.756C521.33 300.464 521.243 298.123 521.908 296.786C522.357 295.884 524.875 295.246 526.112 295.631C532.057 297.484 537.709 299.893 538.958 307.134C539.017 307.473 539.412 307.754 539.807 308.035C539.99 308.166 540.174 308.297 540.324 308.433C540.395 308.325 540.476 308.219 540.557 308.114C540.732 307.886 540.907 307.658 540.986 307.401C541.722 304.985 542.43 302.561 543.138 300.137L543.468 299.008C544.003 297.178 544.52 295.342 545.037 293.506L545.038 293.505L545.038 293.504L545.039 293.503L545.039 293.501L545.039 293.5L545.04 293.499L545.04 293.498L545.04 293.496L545.041 293.495L545.041 293.494L545.041 293.493L545.042 293.492L545.042 293.49L545.043 293.489L545.043 293.488L545.043 293.487L545.043 293.486L545.044 293.485L545.044 293.484L545.044 293.484L545.044 293.483L545.045 293.482L545.045 293.481L545.045 293.48L545.046 293.479L545.046 293.478L545.046 293.477L545.046 293.476C546.264 289.156 547.482 284.836 548.926 280.593C549.833 277.93 551.151 275.404 552.466 272.884C552.874 272.102 553.283 271.319 553.678 270.534C553.949 269.995 554.661 269.62 555.251 269.338C555.404 269.265 556.103 269.799 556.141 270.106C556.207 270.637 556.3 271.177 556.393 271.718C556.654 273.229 556.916 274.753 556.603 276.141C555.966 278.956 555.095 281.716 554.223 284.478L554.223 284.479C553.729 286.046 553.234 287.613 552.782 289.19C551.753 292.785 550.803 296.406 549.964 300.049C549.892 300.362 550.234 300.77 550.576 301.179C550.734 301.368 550.893 301.557 551.01 301.737C551.169 301.599 551.354 301.471 551.539 301.343L551.539 301.342L551.54 301.342L551.54 301.342C551.941 301.064 552.343 300.785 552.472 300.413C553.316 297.97 554.086 295.501 554.856 293.033C555.122 292.181 555.388 291.329 555.656 290.478C557.456 284.78 559.368 279.136 563.629 274.687C563.895 274.41 564.252 274.219 564.608 274.028L564.609 274.028L564.609 274.027L564.61 274.027C564.689 273.984 564.769 273.942 564.848 273.898C564.932 273.851 565.015 273.803 565.096 273.753C565.149 273.953 565.229 274.158 565.308 274.363C565.479 274.805 565.651 275.247 565.561 275.628C564.066 281.975 562.507 288.307 560.917 294.631C560.682 295.565 560.407 296.491 560.131 297.416C559.687 298.906 559.243 300.395 558.972 301.916C558.852 302.591 559.148 303.34 559.445 304.09C559.58 304.431 559.714 304.772 559.81 305.106C560.075 305.012 560.372 304.944 560.669 304.876C561.318 304.727 561.966 304.578 562.277 304.171C563.868 302.092 565.338 299.896 566.613 297.61C567.363 296.266 568.015 294.869 568.668 293.471L568.668 293.47C569.211 292.307 569.754 291.143 570.353 290.011C570.568 289.604 571.027 289.326 571.486 289.048C571.698 288.92 571.909 288.793 572.096 288.652C572.074 288.861 572.064 289.076 572.055 289.29C572.036 289.753 572.016 290.215 571.86 290.627C571.63 291.236 571.4 291.845 571.17 292.454C569.521 296.822 567.872 301.191 566.099 305.508C565.369 307.285 564.553 309.025 563.736 310.765L563.735 310.766L563.735 310.767L563.735 310.768L563.734 310.769L563.734 310.769L563.733 310.77L563.733 310.771L563.733 310.772L563.732 310.773L563.732 310.774L563.732 310.775L563.731 310.776L563.731 310.776L563.731 310.777C562.938 312.465 562.146 314.153 561.434 315.874C560.105 319.086 558.823 322.318 557.541 325.551C555.257 331.31 552.974 337.069 550.424 342.708C546.813 350.694 543.927 358.886 541.516 367.281C540.555 370.626 539.569 373.968 538.465 377.268C537.287 380.793 536.068 384.304 534.848 387.816L534.847 387.82C532.463 394.686 530.08 401.551 528 408.507C524.938 418.747 521.53 428.821 517.012 438.503C512.196 448.823 506.252 458.518 499.327 467.505C496.074 471.728 491.966 475.642 487.472 478.466C482.344 481.688 476.847 484.662 470.699 485.897C466.611 486.718 462.491 487.199 458.741 485.037C451.842 481.06 446.687 475.128 442.138 468.776C438.708 463.988 435.465 459.068 432.221 454.147C430.355 451.316 428.488 448.484 426.586 445.678C426.276 445.22 425.735 444.919 425.195 444.617C424.944 444.478 424.693 444.338 424.465 444.182C424.454 444.443 424.44 444.704 424.425 444.965L424.425 444.966C424.387 445.66 424.349 446.355 424.386 447.045C424.394 447.191 424.557 447.319 424.73 447.454C424.864 447.558 425.004 447.667 425.082 447.792C426.442 449.968 427.801 452.144 429.162 454.323L429.166 454.329L429.169 454.334ZM407.011 596.934C406.703 598.552 406.449 600.168 406.197 601.769C405.595 605.606 405.006 609.355 403.71 612.842C401.327 619.255 395.811 623.13 389.442 625.101C383.181 627.039 376.752 628.459 370.337 629.875L370.337 629.876L370.336 629.876L370.335 629.876L370.335 629.876L370.284 629.887L370.211 629.903C369.5 630.06 368.789 630.217 368.078 630.375C366.375 630.753 364.598 630.809 362.823 630.864C362.12 630.886 361.417 630.908 360.719 630.95C357.198 631.163 353.677 631.369 350.156 631.575C344.823 631.888 339.49 632.2 334.158 632.533C331.986 632.669 329.816 632.834 327.645 633C324.99 633.203 322.334 633.406 319.676 633.553C319.254 633.577 318.832 633.601 318.41 633.624L318.395 633.625L318.379 633.626C314.177 633.863 309.967 634.1 305.765 634.036C302.835 633.991 299.908 633.636 296.985 633.281L296.984 633.281C296.219 633.188 295.454 633.095 294.69 633.008C294.382 632.973 294.103 632.68 293.824 632.388C293.695 632.253 293.566 632.117 293.434 632.008C293.536 631.897 293.634 631.763 293.733 631.629C293.946 631.337 294.159 631.045 294.418 630.996C294.689 630.946 294.961 630.89 295.235 630.834C296.46 630.584 297.711 630.329 298.897 630.482C307.095 631.54 315.227 630.849 323.375 629.931C327.359 629.483 331.364 629.208 335.366 628.933H335.367L336.283 628.87C339.062 628.679 341.844 628.521 344.627 628.364L344.628 628.364L344.629 628.363L344.631 628.363L344.632 628.363L344.634 628.363L344.635 628.363L344.637 628.363L344.638 628.363L344.64 628.363L344.641 628.363L344.643 628.363L344.644 628.363L344.646 628.362L344.648 628.362H344.649C349.935 628.063 355.221 627.764 360.484 627.233C370.698 626.203 380.802 624.369 390.361 620.445C395.886 618.177 399.689 613.862 401.131 608.171L401.278 607.594C402.869 601.324 404.487 594.953 403.845 588.358C403.695 586.821 403.441 585.289 403.187 583.757L403.187 583.757L403.187 583.757L403.187 583.757L403.187 583.756L403.186 583.756L403.186 583.756L403.186 583.755L403.186 583.755L403.186 583.755L403.186 583.755L403.186 583.754L403.186 583.754L403.186 583.754C402.796 581.405 402.407 579.059 402.397 576.708C402.385 573.617 402.612 570.526 402.839 567.434C403.037 564.739 403.236 562.045 403.275 559.349C403.31 556.945 402.996 554.535 402.681 552.126C402.548 551.101 402.414 550.076 402.307 549.052C402.214 548.162 402.128 547.272 402.041 546.381C401.811 544.011 401.58 541.641 401.234 539.287C399.986 530.822 399.503 522.324 399.644 513.769C399.681 511.529 399.541 509.287 399.402 507.044V507.044V507.043V507.043V507.043V507.042V507.042V507.041V507.041V507.041V507.04V507.04V507.04L399.402 507.039L399.402 507.038C399.307 505.517 399.213 503.995 399.173 502.473C399.084 499.053 399.021 495.633 398.957 492.212V492.212V492.211V492.211V492.211V492.21V492.21V492.209V492.209V492.208V492.208V492.207V492.207V492.206L398.957 492.204C398.867 487.326 398.776 482.448 398.611 477.572C398.476 473.566 398.246 469.563 398.016 465.56C397.869 462.993 397.722 460.425 397.599 457.857C397.499 455.754 397.428 453.65 397.357 451.545V451.545V451.544V451.544V451.544V451.543V451.543V451.542V451.542V451.541V451.541V451.54V451.54V451.539C397.272 449.007 397.187 446.475 397.051 443.946C396.954 442.147 396.788 440.348 396.621 438.549C396.309 435.166 395.997 431.785 396.145 428.423C396.306 424.775 396.948 421.148 397.591 417.52L397.591 417.52L397.591 417.519L397.592 417.519L397.592 417.518L397.592 417.518L397.592 417.518L397.592 417.517L397.592 417.517L397.592 417.516L397.592 417.516L397.592 417.515L397.592 417.515L397.592 417.514C397.879 415.898 398.166 414.281 398.409 412.662C398.572 411.579 398.74 410.497 398.907 409.414C399.361 406.474 399.816 403.533 400.186 400.582C400.395 398.916 400.549 397.243 400.703 395.571C400.881 393.635 401.06 391.7 401.323 389.777C401.381 389.351 401.862 388.982 402.343 388.614C402.565 388.444 402.787 388.274 402.967 388.098C403.063 388.3 403.19 388.505 403.317 388.711C403.592 389.153 403.866 389.596 403.821 390.004C403.208 395.568 402.507 401.123 401.774 406.673C401.5 408.742 401.161 410.808 400.822 412.874C400.12 417.158 399.417 421.44 399.3 425.74C399.133 431.873 399.5 438.022 399.866 444.169C399.992 446.283 400.118 448.397 400.222 450.51C400.375 453.609 400.585 456.704 400.795 459.799L400.795 459.8L400.795 459.801L400.796 459.802L400.796 459.803L400.796 459.804L400.796 459.805L400.796 459.806L400.796 459.807L400.796 459.808L400.796 459.809L400.796 459.81L400.796 459.811L400.796 459.812C400.955 462.149 401.113 464.486 401.247 466.824C401.339 468.418 401.431 470.012 401.523 471.606L401.524 471.616L401.524 471.625L401.525 471.635L401.525 471.638C401.985 479.583 402.444 487.529 402.8 495.479C402.93 498.393 402.979 501.312 403.029 504.23V504.23V504.23V504.231V504.231V504.232V504.232V504.232V504.233V504.233V504.233V504.234V504.234V504.234C403.094 508.049 403.158 511.864 403.404 515.667C403.695 520.177 404.189 524.674 404.683 529.172L404.684 529.173L404.684 529.174L404.684 529.176L404.684 529.177L404.684 529.178L404.684 529.179L404.684 529.181L404.685 529.182L404.685 529.183L404.685 529.185L404.685 529.186L404.685 529.187C404.944 531.544 405.203 533.901 405.433 536.26C405.826 540.298 406.185 544.34 406.474 548.386C406.518 549.01 406.566 549.634 406.614 550.259L406.614 550.264L406.614 550.264L406.614 550.265C406.828 553.054 407.042 555.85 406.964 558.633C406.883 561.491 406.708 564.347 406.533 567.203L406.533 567.204C406.303 570.949 406.074 574.693 406.058 578.438C406.049 580.368 406.407 582.295 406.766 584.226C407.048 585.745 407.331 587.267 407.436 588.795C407.557 590.549 407.396 592.323 407.229 594.178L407.229 594.179L407.229 594.179C407.148 595.076 407.065 595.992 407.011 596.934ZM214.553 606.502C216.751 615.822 222.773 622.733 230.495 628.468L231.138 628.726C234.505 630.073 237.744 631.369 241.048 632.468C241.681 632.679 242.422 632.564 243.163 632.45C243.503 632.398 243.844 632.345 244.173 632.324C243.983 632.123 243.793 631.921 243.604 631.719C243.048 631.125 242.492 630.532 241.907 629.969C241.832 629.897 241.687 629.908 241.534 629.919C241.403 629.929 241.266 629.939 241.162 629.898C240.298 629.551 239.392 629.255 238.486 628.959C236.413 628.281 234.337 627.603 232.76 626.315C228.915 623.173 225.407 619.479 222.34 615.561C219.309 611.69 217.764 607.039 218.049 601.936C218.152 600.089 218.208 598.239 218.263 596.39C218.341 593.776 218.419 591.163 218.633 588.56C218.795 586.582 219.103 584.616 219.411 582.65C219.683 580.915 219.955 579.18 220.127 577.436C220.503 573.62 220.737 569.789 220.972 565.958C221.028 565.043 221.084 564.127 221.142 563.212C221.164 562.864 220.936 562.379 220.662 562.172C220.437 562 219.8 561.996 219.642 562.177C219.532 562.303 219.414 562.432 219.293 562.563C218.768 563.134 218.204 563.745 218.125 564.393C217.794 567.099 217.564 569.816 217.333 572.534L217.333 572.535L217.333 572.535L217.333 572.536L217.333 572.536L217.333 572.537L217.333 572.537L217.333 572.538L217.333 572.538L217.333 572.539L217.333 572.539L217.333 572.54L217.333 572.541C217.228 573.775 217.124 575.009 217.01 576.242C216.975 576.613 216.898 576.98 216.821 577.348C216.763 577.627 216.704 577.906 216.664 578.187C216.442 579.753 216.202 581.317 215.962 582.882C215.382 586.665 214.802 590.449 214.471 594.254C214.446 594.543 214.42 594.834 214.394 595.126L214.394 595.126C214.056 598.93 213.703 602.897 214.553 606.502ZM354.884 343.444L354.885 343.444L354.885 343.444C360.557 339.615 366.157 335.834 370.747 330.824C373.167 328.183 375.313 325.29 377.458 322.398L377.459 322.397C378.403 321.124 379.347 319.851 380.315 318.599C380.423 318.46 380.514 318.295 380.605 318.132L380.605 318.132C380.769 317.836 380.931 317.544 381.18 317.419C381.684 317.165 382.245 317.024 382.805 316.882C383.039 316.824 383.273 316.765 383.502 316.698C383.428 316.929 383.37 317.171 383.312 317.414C383.188 317.939 383.063 318.464 382.77 318.866C382.168 319.693 381.569 320.523 380.97 321.354C378.553 324.704 376.134 328.057 373.499 331.229C371.124 334.089 368.505 336.856 365.578 339.126C360.497 343.066 355.275 346.892 349.775 350.206C343.759 353.831 337.444 356.998 331.092 360.011C327.944 361.504 324.512 361.31 321.395 359.28C311.971 353.141 302.783 346.695 294.95 338.543C292.783 336.287 290.78 333.857 288.886 331.367C288.579 330.964 288.62 330.297 288.66 329.629C288.679 329.322 288.697 329.015 288.682 328.733C288.963 328.786 289.277 328.808 289.59 328.83C290.271 328.878 290.953 328.926 291.305 329.291C292.253 330.276 293.121 331.339 293.988 332.403L293.989 332.403L293.989 332.403L293.989 332.403L293.989 332.403L293.989 332.403L293.989 332.404L293.99 332.404L293.99 332.404L293.99 332.404L293.99 332.404L293.99 332.405L293.99 332.405C294.997 333.638 296.002 334.87 297.132 335.978C300.047 338.836 303.112 341.567 306.314 344.099C310.153 347.136 314.102 350.035 318.049 352.934C318.926 353.577 319.802 354.221 320.678 354.866C321.256 355.292 321.879 355.658 322.501 356.024C323.15 356.404 323.798 356.785 324.395 357.233C326.888 359.104 329.035 357.878 331.004 356.754C331.493 356.475 331.971 356.202 332.44 355.985C337.109 353.821 341.623 351.322 346.203 348.786C347.664 347.977 349.133 347.164 350.615 346.357C352.033 345.369 353.461 344.405 354.884 343.444ZM551.838 319.957C552.611 319.007 553.398 318.041 554.217 317.046C554.774 316.984 555.305 316.977 555.818 316.97C556.384 316.963 556.928 316.956 557.462 316.875C557.911 316.807 558.331 316.551 558.752 316.295C558.94 316.18 559.129 316.065 559.32 315.967C559.168 315.792 559.028 315.587 558.887 315.383C558.582 314.941 558.277 314.499 557.865 314.345C553.975 312.895 547.109 318.23 547.316 322.518C547.335 322.919 547.566 323.309 547.798 323.7C547.905 323.881 548.012 324.061 548.098 324.243C548.232 324.111 548.369 323.982 548.506 323.854L548.508 323.852L548.508 323.852C548.809 323.571 549.109 323.289 549.369 322.975C550.191 321.979 551.006 320.978 551.838 319.957ZM356.896 247.958C358.153 248.256 359.28 248.685 360.407 249.114L360.407 249.114C360.236 249.399 360.082 249.701 359.928 250.004C359.596 250.655 359.263 251.307 358.768 251.792C352.694 257.739 345.296 261.214 337.066 262.94C336.069 263.149 334.957 262.875 333.871 262.608C333.543 262.526 333.216 262.446 332.896 262.38C332.599 262.318 332.151 261.509 332.205 261.452C332.322 261.328 332.44 261.191 332.56 261.052C333.002 260.543 333.473 259.999 334 259.92C342.249 258.685 349.168 254.896 355.146 249.205C355.428 248.936 355.761 248.719 356.128 248.481C356.371 248.324 356.628 248.156 356.896 247.958ZM540.978 324.211C542.21 321.145 541.215 318.239 540.085 315.215C539.949 315.058 539.815 314.904 539.683 314.75C539.523 314.565 539.366 314.383 539.21 314.202C538.392 313.253 537.624 312.36 536.819 311.503C536.767 311.447 535.789 312.083 535.819 312.154C536.224 313.115 536.703 314.049 537.22 314.958C538.805 317.748 539.01 320.778 538.952 323.894C538.944 324.328 539.202 324.767 539.46 325.206C539.579 325.409 539.698 325.611 539.791 325.813C539.918 325.646 540.06 325.484 540.201 325.322C540.507 324.97 540.813 324.619 540.978 324.211ZM315.547 144.063C316.571 144.54 317.574 145.055 318.568 145.565C321.061 146.845 323.501 148.098 326.092 148.655L326.496 148.742C330.372 149.578 334.542 150.477 338.437 148.362C339.802 147.621 341.086 146.708 342.33 145.772C343.088 145.201 343.771 144.492 344.368 143.748C349.103 137.846 352.597 138.727 359.116 142.581C367.458 147.511 370.496 155.927 373.433 164.299C374.9 168.482 375.822 172.869 376.74 177.232L376.741 177.236L376.741 177.239L376.742 177.242C376.865 177.825 376.987 178.407 377.111 178.988C377.717 181.839 377.973 184.779 378.198 187.693C378.465 191.149 378.591 194.618 378.717 198.084L378.74 198.721C378.809 200.618 378.846 202.517 378.882 204.417V204.417V204.418V204.418V204.419V204.419V204.42V204.42V204.421C378.953 208.121 379.024 211.82 379.336 215.5C379.813 221.129 378.914 226.554 377.658 231.936C376.212 238.133 371.501 241.121 365.791 242.514C363.386 243.1 360.876 243.27 358.371 243.439L358.37 243.439H358.37L358.37 243.439L358.37 243.439L358.369 243.439L358.369 243.439L358.369 243.439L358.369 243.439C357.504 243.497 356.64 243.556 355.781 243.631C346.94 244.408 338.155 245.502 329.614 248.034C326.965 248.819 324.434 248.458 322.213 246.981C317.729 244 312.664 242.911 307.499 242.075C297.866 240.518 288.722 237.89 281.663 230.563C279.799 228.629 278.604 226.559 278.724 223.646C278.937 218.481 278.191 213.397 277.446 208.318V208.318V208.318V208.318V208.318V208.318V208.318V208.318C277.021 205.417 276.596 202.518 276.35 199.607C275.605 190.805 275.932 181.962 278.623 173.196C281.624 163.418 286.203 154.78 293.467 147.73C295.462 145.793 297.873 144.287 300.286 142.779L300.286 142.779C301.464 142.044 302.641 141.308 303.771 140.522L303.962 140.39L303.962 140.389C305.198 139.53 306.446 138.662 307.536 137.636C309.195 136.073 310.202 136.899 311.238 138.335C312.475 140.051 313.761 141.73 315.13 143.519L315.13 143.519L315.547 144.063ZM369.065 159.896C368.927 159.566 368.787 159.236 368.648 158.907C368.347 158.197 368.047 157.488 367.758 156.774C365.003 149.971 360.135 145.197 353.469 142.326C352.433 141.88 350.631 142.139 349.697 142.799C348.92 143.348 348.374 144.211 347.824 145.081C347.512 145.574 347.199 146.068 346.842 146.51C343.653 150.454 339.914 153.537 334.456 153.051C331.078 152.75 327.666 152.316 324.396 151.459C319.27 150.116 314.603 147.705 311.288 143.407C311.175 143.261 311.068 143.121 310.965 142.988L310.964 142.987C308.786 140.151 308.759 140.116 305.79 142.109C304.811 142.766 303.805 143.395 302.798 144.025L302.797 144.025C300.288 145.595 297.775 147.167 295.679 149.17C288.592 155.945 283.937 164.089 281.144 173.729C278.627 182.417 278.475 191.031 278.888 199.743C279.223 206.817 280.349 213.873 281.473 220.882C281.498 221.034 281.522 221.187 281.546 221.341L281.547 221.346C282.039 224.45 282.545 227.643 285.255 230.046C290.387 234.597 296.468 237.046 303.007 238.349C303.894 238.526 304.782 238.696 305.669 238.867C311.904 240.063 318.102 241.253 323.718 244.607C325.028 245.39 327.011 245.562 328.575 245.318C332.093 244.767 335.598 244.126 339.103 243.484L339.103 243.484L339.103 243.484L339.103 243.484L339.104 243.484L339.104 243.484L339.104 243.484L339.104 243.484C342.736 242.819 346.368 242.155 350.016 241.591C352.083 241.271 354.178 241.099 356.272 240.927L356.272 240.927C359.13 240.692 361.984 240.457 364.761 239.848C368.585 239.01 372.885 237.713 374.125 233.238C375.33 228.889 376.369 224.367 376.534 219.886C376.762 213.692 376.501 207.476 376.24 201.268V201.268V201.267V201.267V201.266V201.266V201.266V201.265L376.24 201.252L376.239 201.239L376.239 201.227C376.192 200.11 376.145 198.994 376.101 197.878C376.01 195.579 375.817 193.283 375.623 190.987V190.987V190.987V190.987V190.986V190.986V190.986V190.986C375.41 188.459 375.197 185.933 375.121 183.402C374.885 175.514 372.19 168.283 369.39 160.769L369.39 160.769L369.065 159.896ZM363.729 185.998C359.298 182.537 354.102 181.828 348.391 182.402C347.86 182.497 347.41 182.603 346.993 182.701C346.643 182.783 346.317 182.86 345.989 182.92C340.592 183.901 335.965 186.104 332.786 190.84C332.453 191.337 331.206 191.589 330.518 191.417C327.485 190.657 324.67 190.592 322.315 193.045C322.023 193.348 321.752 193.671 321.482 193.995L321.481 193.995L321.481 193.995L321.481 193.995L321.481 193.995L321.481 193.995L321.481 193.996C321.356 194.145 321.231 194.293 321.104 194.44C321.056 194.224 320.99 194.005 320.924 193.787C320.782 193.315 320.64 192.844 320.679 192.389C321.15 186.97 318.555 183.596 313.828 181.317C309.405 179.185 304.759 178.73 299.98 178.736C292.702 178.745 286.503 183.458 283.945 190.351C282.382 194.56 282.806 198.652 284.153 202.54C285.469 206.335 286.964 210.392 290.872 212.496C291.367 212.763 291.865 213.042 292.367 213.323C294.663 214.611 297.026 215.937 299.47 216.23C299.689 216.256 299.909 216.283 300.131 216.31C303.756 216.754 307.644 217.231 311.069 214.784C316.245 211.085 319.069 205.858 320.567 199.925C321.275 197.126 322.703 195.441 325.199 194.322C328.956 192.638 331.312 194.119 331.704 198.009C332.163 202.56 333.164 207.036 335.831 210.933C338.955 215.5 343.197 218.277 348.435 220.208C354.747 222.536 359.282 221.118 363.859 217.417C372.364 210.54 373.21 193.406 363.729 185.998ZM343.975 186.205C347.543 185.141 351.416 184.797 355.195 185.804C359.486 186.127 362.304 188.547 364.384 191.485C366.471 194.435 368.363 197.779 368.23 201.602C368.087 205.703 366.545 209.395 363.968 212.622C361.757 215.39 358.877 217.159 355.46 217.918C354.743 218.077 353.938 217.87 353.143 217.666C352.859 217.592 352.577 217.52 352.3 217.464C343.206 215.641 337.118 210.661 335.307 201.218C335.191 200.615 335.045 200.018 334.899 199.422C334.311 197.028 333.73 194.66 335.199 192.102C337.209 188.601 340.618 187.206 343.975 186.205ZM317.503 192.373C318.07 197.185 316.512 201.511 314.37 205.694C313.939 206.266 313.569 206.811 313.219 207.325C312.708 208.079 312.24 208.767 311.69 209.383C308.664 212.773 305.046 213.839 300.455 212.87C297.238 212.191 294.375 211.358 291.7 209.312C288.477 206.846 287.095 203.443 286.17 199.862C284.697 194.157 286.704 189.368 290.793 185.272C294.096 181.964 298.272 181.553 302.444 181.972C306.46 182.376 310.382 183.372 313.926 185.749C316.467 187.453 317.189 189.71 317.503 192.373ZM316.463 172.458C319.126 172.608 321.337 172.326 323.353 170.699C323.722 170.4 324.497 170.604 325.272 170.808C325.627 170.902 325.983 170.996 326.299 171.041C326.15 171.213 326.006 171.39 325.862 171.568C325.55 171.952 325.239 172.336 324.876 172.664C321.503 175.713 317.791 175.5 313.685 174.23C310.096 173.119 306.327 172.263 302.592 172.031C296.983 171.682 292.186 173.865 288.435 178.19C288.111 178.563 287.61 178.783 287.108 179.002C286.876 179.104 286.644 179.206 286.429 179.323C286.497 179.02 286.536 178.692 286.574 178.364C286.657 177.657 286.74 176.951 287.123 176.498C293.382 169.098 301.533 168.791 310.162 170.637C311.371 170.896 312.555 171.269 313.79 171.657L313.79 171.657C314.649 171.927 315.531 172.205 316.463 172.458ZM357.774 174.33C352.676 173.548 347.601 173.636 343.026 177.038C342.358 177.531 341.699 178.004 341.051 178.468L341.051 178.468C339.753 179.399 338.5 180.298 337.307 181.271C337.038 181.491 336.997 181.989 336.955 182.488C336.936 182.717 336.917 182.947 336.876 183.149C337.055 183.126 337.243 183.118 337.431 183.111C337.846 183.094 338.262 183.077 338.58 182.892C339.493 182.363 340.322 181.677 341.141 181L341.179 180.968C346.256 176.77 351.897 175.075 358.397 176.956C360.657 177.61 362.937 178.212 365.237 178.691C365.611 178.769 366.041 178.571 366.472 178.372C366.67 178.281 366.869 178.19 367.061 178.125C366.915 177.97 366.777 177.789 366.64 177.608C366.341 177.215 366.042 176.822 365.655 176.689C365.161 176.519 364.667 176.343 364.173 176.167C362.068 175.418 359.95 174.664 357.774 174.33ZM330.203 229.116C327.134 229.334 324.194 229.513 321.262 229.429C320.873 229.417 320.498 228.925 320.124 228.433C319.951 228.206 319.778 227.979 319.604 227.799C319.829 227.704 320.054 227.586 320.278 227.468C320.767 227.211 321.256 226.955 321.756 226.932C324.457 226.809 327.166 226.818 329.87 226.848C330.516 226.856 331.161 226.959 331.806 227.063C332.1 227.11 332.394 227.157 332.689 227.196L332.688 227.196L332.687 227.197L332.686 227.197L332.686 227.198C331.902 227.793 331.117 228.389 330.203 229.116ZM346.425 191.434C344.561 193.505 344.764 197.865 346.951 200.067C351.385 200.198 354.045 195.752 351.98 192.011C350.834 189.934 348.036 189.644 346.425 191.434ZM307.042 188.683C307.976 191.44 307.365 194.295 305.284 195.833C304.679 196.28 303.146 196.42 302.72 196.003C300.314 193.655 299.911 189.681 303.353 187.619C304.921 186.679 306.039 187.114 307.042 188.683ZM476.638 176.079C477.991 178.111 479.353 180.157 481.201 181.908C481.322 185.877 481.358 189.579 480.339 193.198C480.157 193.847 480.292 194.458 480.429 195.075C480.54 195.578 481.266 195.94 481.69 195.699C482.238 195.387 482.778 195.056 483.293 194.692C483.639 194.448 483.983 194.2 484.326 193.952C485.784 192.899 487.242 191.847 488.872 191.055C489.07 190.959 489.269 190.864 489.468 190.768C490.225 190.406 490.982 190.043 491.703 189.619C492.501 189.15 493.275 189.084 494.131 189.376C497.081 190.383 500.124 191.006 503.166 191.629C503.652 191.729 504.137 191.828 504.622 191.929C504.768 191.96 504.913 191.992 505.059 192.025C505.43 192.108 505.801 192.192 506.176 192.238C507.386 192.389 508.601 192.506 509.815 192.623C511.759 192.81 513.704 192.998 515.632 193.325C516.046 193.396 516.485 193.426 516.899 193.371C517.879 193.241 518.864 193.153 519.849 193.065C521.818 192.89 523.786 192.714 525.706 192.202C527.022 191.852 528.326 191.46 529.629 191.068C530.151 190.912 530.672 190.755 531.193 190.601C531.435 190.53 531.677 190.458 531.919 190.387C533.301 189.98 534.682 189.573 536.058 189.153C536.46 189.031 536.858 188.881 537.233 188.693C537.558 188.53 537.883 188.368 538.208 188.207C540.908 186.862 543.604 185.519 546.051 183.698C546.36 183.469 546.672 183.246 546.984 183.023C547.961 182.327 548.934 181.633 549.768 180.748C550.274 180.212 550.837 179.728 551.397 179.247L551.404 179.241C553.026 177.848 554.329 176.182 555.532 174.434C557.036 172.247 557.65 169.718 558.263 167.193L558.298 167.047C558.225 166.149 558.398 165.284 558.57 164.418C558.646 164.041 558.721 163.663 558.776 163.282C559.545 157.969 558.861 152.944 555.693 148.431C555.306 147.88 554.986 147.282 554.667 146.684C554.536 146.439 554.405 146.195 554.27 145.954C553.491 144.562 552.619 143.238 551.48 142.108C548.991 139.64 546.362 137.368 543.263 135.657C541.063 134.443 538.771 133.453 536.474 132.461C535.955 132.237 535.436 132.013 534.917 131.786C530.89 130.024 526.696 129.044 522.358 128.603C521.022 128.468 519.678 128.398 518.335 128.328C517.668 128.293 517.001 128.258 516.334 128.215C512.629 127.976 508.92 127.894 505.217 128.19C502.052 128.443 498.891 128.744 495.731 129.045C495.1 129.105 494.468 129.165 493.837 129.225C493.53 129.254 493.219 129.374 492.937 129.508C491.454 130.213 489.924 130.801 488.394 131.39C487.559 131.711 486.724 132.032 485.897 132.372C482.297 133.852 479.206 135.976 477.015 139.275C476.698 139.752 476.351 140.209 476.003 140.665C475.709 141.051 475.415 141.437 475.139 141.836C473.142 144.729 471.44 147.771 470.739 151.264C470.602 151.949 470.521 152.645 470.439 153.342C470.385 153.802 470.331 154.263 470.261 154.72C469.907 157.032 469.887 159.304 470.354 161.635C471.153 165.627 472.796 169.278 474.478 172.93C474.522 173.025 474.583 173.114 474.646 173.199C475.343 174.133 475.99 175.104 476.638 176.079ZM483.154 191.029C483.138 191.031 483.121 191.032 483.105 191.034C483.094 191.053 483.119 191.08 483.181 191.114C483.172 191.086 483.163 191.057 483.154 191.029ZM483.415 191.02C483.327 191.021 483.238 191.022 483.154 191.029C482.976 190.427 483.073 189.818 483.243 189.239C483.658 187.823 483.839 186.37 484.019 184.916C484.126 184.058 484.232 183.2 484.387 182.35C484.484 181.815 484.364 181.269 483.796 181.006C481.99 180.172 480.811 178.658 479.682 177.129C478.741 175.854 477.847 174.522 477.116 173.119C476.436 171.814 475.932 170.404 475.47 169.001C474.875 167.192 474.362 165.354 473.883 163.51C473.453 161.86 473.411 160.157 473.426 158.46C473.429 158.092 473.454 157.724 473.479 157.355C473.512 156.876 473.544 156.397 473.528 155.919C473.357 150.705 475.453 146.244 478.129 141.979C479.811 139.299 482.225 137.341 484.979 135.953C488.183 134.338 491.514 132.922 495.057 132.166C498.371 131.459 501.705 130.873 505.108 130.759C506.366 130.717 507.61 130.649 508.854 130.221C509.713 129.926 510.696 129.934 511.643 129.941C511.761 129.942 511.878 129.943 511.994 129.943C513.263 129.947 514.537 130.032 515.799 130.172C515.909 130.184 516.019 130.197 516.129 130.209C517.387 130.35 518.64 130.49 519.912 130.506C520.758 130.518 521.608 130.703 522.446 130.885C522.541 130.906 522.636 130.927 522.731 130.947C524.952 131.426 527.107 132.128 529.262 132.83C530.629 133.276 531.996 133.722 533.38 134.11C534.172 134.497 534.965 134.882 535.758 135.268C537.533 136.13 539.307 136.993 541.073 137.873C544.517 139.59 547.255 142.215 549.989 144.836L550.279 145.114C552.164 146.919 553.283 149.223 554.116 151.627C554.911 153.922 555.463 156.292 555.63 158.75C555.908 162.846 555.204 166.742 553.752 170.568C552.24 174.553 549.797 177.862 546.428 180.35C542.076 183.564 537.337 186.166 532.165 187.87C529.959 188.597 527.754 189.322 525.465 189.8C522.013 190.52 518.528 190.581 515.032 190.618C514.889 190.62 514.746 190.613 514.603 190.606C514.428 190.598 514.254 190.59 514.079 190.596C507.726 190.833 501.695 189.27 495.729 187.331C495.159 187.146 494.583 186.981 494.007 186.816C493.669 186.719 493.331 186.622 492.994 186.521C492.341 186.325 491.729 186.435 491.177 186.807C490.111 187.526 488.968 188.111 487.826 188.697C486.519 189.366 485.211 190.036 484.017 190.905C483.868 191.014 483.642 191.017 483.415 191.02Z" fill="#00160A"/>
<path fill-rule="evenodd" clip-rule="evenodd" d="M407.56 358.827L407.56 358.827C408.019 358.425 408.486 358.016 408.974 357.61C409.299 357.183 409.63 356.776 409.954 356.377L409.954 356.377C410.741 355.409 411.488 354.491 412.011 353.459C413.308 350.9 412.619 349.978 409.884 348.75C408.637 348.19 407.493 347.409 406.347 346.626C405.596 346.113 404.844 345.599 404.062 345.147L403.886 345.045C402.829 344.432 401.675 343.762 400.523 343.667C394.495 343.17 389.329 351.123 391.73 356.883C394.212 362.838 399.16 364.639 404.338 361.373C405.472 360.658 406.493 359.763 407.56 358.827ZM393.916 354.459C393.754 352.451 394.031 350.613 395.496 349.105C395.874 348.816 396.194 348.606 396.475 348.423C396.747 348.245 396.983 348.091 397.197 347.913C399.732 345.801 401.359 345.939 403.882 347.988C405.372 349.199 407.15 350.14 408.932 350.881C410.3 351.45 410.44 352.228 409.597 353.037C409.062 353.551 408.532 354.081 408.001 354.612L408.001 354.612L408 354.613L408 354.613C406.13 356.483 404.244 358.369 402.026 359.658C398.649 361.621 394.24 358.49 393.916 354.459ZM240.571 358.264L240.958 357.921C243.127 355.995 245.208 354.148 247.535 352.695C250.119 351.082 253.056 351.774 255.329 353.9C258.824 357.169 261.142 356.789 263.423 353.999C263.642 353.731 263.884 353.464 264.163 353.263C264.466 353.045 264.767 352.805 265.069 352.563L265.069 352.563C266.423 351.479 267.816 350.365 269.676 351.08C271.97 351.962 272.892 354.045 273.616 356.418C275.265 361.823 271.912 366.413 267.713 368.807C262.889 371.557 257.693 372.631 252.363 373.428C248.533 374.001 241.155 370.672 239.495 367.962C237.353 364.464 238.66 361.492 240.571 358.264ZM263.077 367.947C263.301 367.835 263.525 367.724 263.75 367.613C267.697 365.661 271.621 363.721 270.957 358.045C270.922 357.745 270.905 357.431 270.888 357.116C270.812 355.69 270.736 354.251 268.948 354.069C267.81 353.952 266.309 354.906 265.367 355.794C261.463 359.477 258.225 359.826 254.132 355.966C252.883 354.789 251.485 353.568 249.111 354.507C244.977 356.142 243.139 359.547 241.729 363.187C241.086 364.846 241.252 367.177 243.739 367.96C244.478 368.193 245.219 368.471 245.962 368.75C247.86 369.462 249.768 370.178 251.655 370.143C254.639 370.087 257.609 369.33 260.716 368.538C261.494 368.339 262.28 368.139 263.077 367.947ZM350.57 502.174L350.566 502.182C348.868 505.68 347.227 509.061 343.412 510.55C339.44 512.1 333.024 512.609 329.904 508.644C328.054 506.294 327.932 503.173 330.005 500.944C330.661 500.238 331.356 499.553 332.053 498.867C333.819 497.128 335.588 495.386 336.72 493.301C337.802 491.308 338.286 488.991 338.769 486.673L338.77 486.672C338.993 485.603 339.216 484.534 339.497 483.496C340.394 480.193 341.334 476.846 344.579 475.011C346.916 473.689 348.777 474.548 350.523 476.677C353.695 480.544 353.392 484.912 353.092 489.237C353.015 490.358 352.937 491.476 352.92 492.582C352.888 494.735 352.245 496.879 351.586 499.074C351.342 499.889 351.095 500.712 350.877 501.544C350.823 501.654 350.77 501.764 350.716 501.874L350.57 502.174ZM343.082 485.128C343.054 485.305 343.026 485.482 342.998 485.659C342.437 489.217 341.87 492.806 339.455 495.673C337.625 497.846 335.557 499.859 333.384 501.692C331.333 503.423 330.979 505.463 332.826 507.308C336.077 510.555 343.96 509.079 346.257 504.635C347.622 501.996 348.781 499.214 349.698 496.388C351.395 491.158 350.344 486.045 348.415 481.084C348.124 480.333 347.303 479.35 346.663 479.3C346.061 479.254 345.224 480.2 344.763 480.891C344.098 481.888 343.68 483.05 343.157 484.665C343.132 484.819 343.107 484.974 343.082 485.128ZM343.509 375.45C341.109 373.726 338.828 373.698 336.364 374.262C332.332 375.185 327.973 379.884 327.973 384.693C327.973 389.535 330.127 393.078 334.098 395.362C337.93 397.567 341.964 399.104 346.717 398.669C352.283 398.16 356.49 395.981 358.766 390.893C359.24 389.834 359.195 388.543 359.151 387.252C359.13 386.66 359.11 386.069 359.139 385.5C358.65 385.502 358.146 385.465 357.642 385.428C356.508 385.345 355.373 385.262 354.408 385.625C352.609 386.303 351.647 385.68 351.043 384.338C349.372 380.628 346.842 377.844 343.509 375.45ZM335.055 378.2C337.374 377.108 341.646 375.893 344.182 378.2C346.717 380.508 347.678 382.67 348.315 384.149C349.852 387.717 352.014 388.891 355.665 387.908C356.009 387.815 356.378 387.815 356.747 387.815C356.919 387.815 357.09 387.815 357.258 387.806C357.206 387.975 357.16 388.146 357.113 388.317C357.013 388.686 356.913 389.054 356.76 389.4C353.153 397.57 341.56 396.351 336.14 392.902C332.834 390.798 330.955 388.054 331.115 384.055C331.226 381.284 332.669 379.324 335.055 378.2ZM356.952 444.542L356.952 444.543C355.653 445.772 354.398 446.959 352.913 447.659C349.67 449.189 346.208 448.403 343.054 446.851C337.729 444.232 334.445 440.25 334.774 433.949C335.008 429.459 337.69 426.84 341.311 424.681C344.365 422.86 347.347 422.477 350.54 424.014C352.926 425.163 353.583 427.389 354.232 429.587C354.362 430.027 354.492 430.467 354.635 430.896C354.821 431.454 354.872 432.059 354.922 432.663C354.977 433.319 355.031 433.975 355.26 434.565C355.592 435.42 356.397 436.478 357.198 436.7C361.145 437.795 361.538 438.763 359.053 442.092C358.986 442.181 358.953 442.296 358.913 442.434C358.872 442.574 358.825 442.738 358.728 442.924C358.112 443.445 357.528 443.998 356.953 444.542L356.953 444.542L356.953 444.542L356.953 444.542L356.952 444.542L356.952 444.542L356.952 444.542L356.952 444.542L356.952 444.542L356.952 444.542L356.952 444.542ZM353.625 443.316C353.738 443.258 353.856 443.205 353.974 443.153C354.229 443.039 354.484 442.926 354.692 442.756C357.186 440.719 357.178 440.712 354.78 438.634L354.654 438.525C353.953 437.916 353.385 436.954 353.144 436.051C352.897 435.119 352.726 434.159 352.556 433.201C352.28 431.649 352.005 430.102 351.403 428.688C350.87 427.434 349.145 426.161 347.768 425.902C344.954 425.372 338.746 430.391 338.496 433.259C338.161 437.125 339.322 440.418 342.91 442.583C346.278 444.614 349.635 445.788 353.625 443.316ZM209.922 394.485C215.694 390.779 219.388 385.861 220.158 378.677C220.158 378.039 220.18 377.425 220.201 376.83V376.83V376.829V376.829V376.829C220.246 375.553 220.288 374.359 220.108 373.201C219.716 370.686 218.888 368.241 215.418 368.803C213.721 369.078 211.977 369.858 210.549 370.837C207.593 372.865 206.596 376.219 205.647 379.409L205.562 379.695C204.157 384.409 201.976 387.726 196.388 387.723C195.414 387.723 193.831 389.552 193.582 390.754C192.905 394.028 196.17 397.387 199.68 397.521C203.441 397.665 206.737 396.53 209.922 394.485ZM202.485 394.692C202.181 394.758 201.876 394.824 201.577 394.902C199.05 395.183 197.845 393.861 196.683 392.586C196.592 392.486 196.501 392.386 196.409 392.287C196.222 392.085 196.322 391.263 196.554 391.095C196.609 391.055 196.665 391.014 196.721 390.973L196.723 390.972C197.456 390.437 198.253 389.856 199.094 389.713C203.345 388.989 205.697 386.515 207.167 382.496C208.405 379.111 210.266 375.896 212.269 372.884C212.909 371.921 214.912 371.461 216.234 371.557C216.75 371.594 217.458 373.787 217.486 375.011C217.703 384.678 212.33 390.698 204.4 394.146C203.796 394.409 203.14 394.551 202.485 394.692ZM213.746 417.8C214.777 414.68 217.021 412.683 219.234 410.713L219.234 410.713C220.016 410.016 220.795 409.322 221.515 408.584C222.943 407.119 226.234 409.038 226.963 411.521C227.268 412.558 227.565 413.598 227.862 414.637L227.862 414.638C228.611 417.257 229.359 419.877 230.228 422.456C230.981 424.693 230.669 426.443 229.067 428.194C227.853 429.52 226.755 431.035 225.955 432.641C223.989 436.588 221.095 437.571 216.706 434.135C210.909 429.597 211.68 423.897 213.746 417.8ZM227.486 423.427C227.16 422.612 226.834 421.797 226.509 420.981C225.612 418.738 224.716 416.495 223.824 414.249C223.642 413.789 223.475 413.322 223.307 412.856L223.307 412.856C223.23 412.641 223.154 412.426 223.075 412.212C222.849 412.32 222.616 412.418 222.382 412.516L222.382 412.516L222.381 412.516C221.875 412.729 221.368 412.941 220.937 413.257C217.74 415.599 216.229 419.087 215.559 422.729C215.026 425.63 214.898 428.937 217.202 431.338C218.259 432.44 219.946 433.098 221.468 433.481C221.7 433.539 222.117 432.814 222.558 432.045C222.809 431.608 223.067 431.158 223.305 430.828C223.708 430.269 224.127 429.72 224.545 429.171L224.545 429.17C225.232 428.269 225.92 427.367 226.539 426.421C226.961 425.775 227.141 424.97 227.394 423.837C227.423 423.705 227.454 423.568 227.486 423.427ZM286.462 408.228C281.191 406.233 275.939 407.439 275.638 414.268C275.957 414.999 276.251 415.73 276.541 416.452C277.363 418.498 278.153 420.463 279.371 422.111C283.767 428.057 289.327 429.844 295.51 427.367C299.441 425.793 299.459 422.195 296.827 419.937C294.353 417.816 292.223 415.428 290.914 412.216C290.227 410.532 288.237 408.9 286.462 408.228ZM291.71 424.781C288.868 425.299 286.005 425.821 283.751 423.165C280.949 420.409 279.014 417.612 278.764 413.9C278.664 412.407 279.254 411.596 280.651 411.04C282.613 410.259 287.127 411.212 287.562 413.15C288.179 415.896 289.804 417.884 291.431 419.875C292.073 420.661 292.716 421.447 293.297 422.281C293.635 422.765 293.994 423.644 293.78 423.999C293.517 424.433 292.677 424.606 292.055 424.719L291.9 424.747L291.71 424.781ZM273.545 478.122C273.649 477.486 273.712 476.849 273.773 476.226C273.915 474.771 274.05 473.4 274.694 472.338C276.361 469.588 275.971 467.221 274.604 464.674C274.47 464.425 274.397 464.143 274.323 463.861C274.252 463.589 274.182 463.316 274.056 463.073C272.945 460.912 273.466 458.794 275.407 457.893C276.771 457.259 279.052 457.458 280.43 458.202C284.907 460.618 286.938 464.905 287.628 469.738C288.232 473.961 287.285 478.065 285.567 481.939C283.35 486.936 278.875 486.3 276.02 483.338C275.123 482.407 274.642 481.077 274.132 479.67C273.947 479.159 273.758 478.638 273.545 478.122ZM282.442 464.252C282.175 463.985 281.913 463.712 281.65 463.439C281.004 462.767 280.357 462.095 279.641 461.508C279.338 461.26 278.9 461.177 278.463 461.093C278.264 461.055 278.066 461.017 277.88 460.964C277.836 461.172 277.758 461.399 277.681 461.626C277.513 462.116 277.346 462.606 277.516 462.906C279.394 466.22 278.966 469.273 276.998 472.393C276.583 473.051 276.431 473.874 276.279 474.698L276.279 474.698C276.204 475.106 276.129 475.514 276.021 475.904C275.437 478.024 276.995 482.048 278.98 482.659C279.028 482.674 279.077 482.69 279.127 482.706L279.146 482.712L279.149 482.712C280.207 483.045 281.633 483.493 282.474 481.726C285.182 476.039 286.081 470.421 282.442 464.252ZM436.508 409.984C439.876 411.465 445.537 410.97 449.799 406.286C450.113 405.802 450.427 405.33 450.736 404.865L450.738 404.861C451.706 403.404 452.63 402.01 453.413 400.541C455.37 396.867 451.977 391.208 447.787 391.292C446.596 391.316 445.41 391.542 444.223 391.768C443.119 391.979 442.014 392.189 440.903 392.237C437.538 392.383 434.87 393.577 432.991 396.402C429.742 401.286 430.963 407.547 436.508 409.984ZM441.844 395.957C442.009 395.953 442.175 395.949 442.341 395.949C442.735 395.882 443.112 395.837 443.464 395.795C444.425 395.679 445.203 395.586 445.64 395.151C447.074 393.724 448.321 394.386 449.425 395.254C450.62 396.193 451.281 397.345 450.707 399.177C449.352 403.499 446.907 406.686 442.434 407.835C439.929 408.479 437.584 407.861 435.848 405.691C434.28 403.731 434.04 401.655 435.196 399.434C436.367 397.187 438.005 395.669 440.771 395.941C441.126 395.976 441.485 395.967 441.844 395.957ZM377.047 402.099C380.349 399.916 383.495 399.777 386.493 402.252C387.342 402.953 388.09 403.852 388.657 404.797C388.907 405.212 389.056 405.703 389.203 406.188C389.393 406.815 389.581 407.433 389.979 407.873C391.753 409.829 390.643 411.583 389.194 412.3C385.533 414.11 381.672 415.587 377.768 416.805C375.713 417.446 372.968 415.017 372.469 412.694C371.375 407.599 373.44 404.239 377.047 402.099ZM386.075 409.295C385.821 408.95 385.57 408.602 385.319 408.254L385.319 408.253L385.319 408.253C384.709 407.407 384.099 406.561 383.441 405.754L383.383 405.682C382.94 405.138 382.374 404.441 381.806 404.379C377.548 403.916 373.901 408.835 375.638 412.68C376.149 413.812 377.197 415.026 378.44 413.698C380.159 411.862 382.283 411.488 384.53 411.091L384.682 411.065C385.303 410.955 385.789 410.08 386.075 409.295ZM368.21 516.704C368.122 517.128 368.03 517.571 367.887 518.031C367.909 518.369 368.001 518.673 368.087 518.961C368.172 519.242 368.252 519.508 368.258 519.775C368.406 526.24 376.851 531.235 382.121 530.471C385.804 529.938 387.821 528.599 388.351 525.206C388.822 522.189 388.082 518.887 385.718 516.959C382.995 514.74 379.709 513.068 376.442 511.696C372.562 510.066 370.113 511.37 368.591 515.262C368.414 515.714 368.315 516.195 368.21 516.704ZM372.075 515.549C372.306 515.113 372.537 514.676 372.729 514.237C373.199 514.349 373.669 514.455 374.135 514.562C378.5 515.556 382.551 516.478 384.497 520.822C385.42 522.883 386.471 525.355 383.94 526.959C382.719 527.732 380.855 527.973 379.378 527.767C375.706 527.256 370.487 523.297 370.969 518.443C371.067 517.452 371.571 516.5 372.075 515.549ZM374.561 451.429C378.82 451.828 382.198 453.711 382.9 458.201C383.148 459.79 384.153 460.001 385.258 460.233C385.419 460.267 385.582 460.301 385.745 460.34C388.191 460.925 390.134 462.939 389.749 466.118C389.471 468.422 388.287 469.361 384.987 469.176C382.779 469.052 380.462 468.818 378.427 468.03C371.841 465.48 369.953 460.059 370.418 454.325C370.592 452.173 372.182 451.296 374.561 451.429ZM384.243 462.944C381.419 463.122 380.071 461.43 379.851 458.966C379.619 456.363 377.755 455.531 375.918 454.711L375.708 454.617C374.395 454.029 372.85 455.558 373.065 456.999C373.87 462.385 380.005 467.063 385.505 466.641C387.535 466.485 387.278 465.438 386.545 464.369C386.305 464.019 385.867 463.805 385.347 463.55C385.004 463.382 384.625 463.197 384.243 462.944ZM321.697 552.968C321.761 552.279 321.765 551.578 321.769 550.894C321.778 549.387 321.787 547.964 322.429 546.938C323.997 544.437 325.886 542.137 327.776 539.837L327.776 539.836L327.777 539.835C328.546 538.899 329.315 537.963 330.063 537.013C331.349 535.379 333.344 534.431 334.97 535.315C336.623 536.213 338.227 538.041 338.857 539.814C340.354 544.031 338.466 547.655 335.642 550.749C334.841 551.627 333.933 552.405 333.024 553.183C332.308 553.797 331.592 554.411 330.926 555.074C327.237 558.755 323.948 557.039 321.697 552.968ZM330.857 551.921C334.627 549.443 337.06 546.224 336.901 541.445C336.845 539.775 336.219 538.661 334.705 537.956C333.114 537.215 332.03 538.213 331.54 539.289C330.303 542.007 328.536 544.327 326.765 546.652L326.765 546.653C326.153 547.457 325.54 548.262 324.948 549.084C324.346 549.921 324.718 551.943 325.326 553.041C326.035 554.32 327.453 554.105 328.651 553.123C328.944 552.883 329.297 552.717 329.705 552.525C330.051 552.363 330.436 552.182 330.857 551.921ZM309.071 521.71C310.702 517.927 310.948 513.869 310.052 509.657C309.977 509.582 309.919 509.529 309.874 509.487C309.803 509.421 309.764 509.384 309.739 509.34C307.93 506.121 306.038 504.681 303.913 505.385C301.224 506.276 300.221 508.288 300.126 511.209C300.058 513.292 299.231 515.13 296.431 515.947C292.274 517.16 292.574 520.886 295.138 522.902C296.117 523.672 297.363 524.118 298.596 524.559C298.984 524.697 299.371 524.835 299.748 524.983C302.106 525.908 307.907 524.41 309.071 521.71ZM307.243 511.361C307.347 511.538 307.452 511.714 307.566 511.881C307.566 512.819 307.626 513.722 307.684 514.587C307.806 516.396 307.916 518.04 307.437 519.488C306.208 523.202 298.906 523.863 296.577 520.649C296.328 520.305 297.022 518.624 297.499 518.512C301.359 517.613 302.792 515.112 302.925 511.382C302.953 510.573 303.731 509.604 304.442 509.101C304.709 508.912 305.835 509.756 306.439 510.279C306.77 510.566 307.006 510.964 307.243 511.361Z" fill="#FFB61D"/>
<defs>
<linearGradient id="paint0_linear_1547_273" x1="375.366" y1="63" x2="375.366" y2="687.972" gradientUnits="userSpaceOnUse">
<stop stop-color="#6055FD"/>
<stop offset="1" stop-color="#3497F9" stop-opacity="0"/>
</linearGradient>
</defs>
</svg>
