<svg width="300" height="241" viewBox="0 0 300 241" fill="none" xmlns="http://www.w3.org/2000/svg">
<path fill-rule="evenodd" clip-rule="evenodd" d="M172.669 240.883C208.585 240.883 240.102 214.167 222.402 177.88C204.702 141.594 270.47 142.766 289.789 117.687C313.35 87.1016 306.526 -42.7267 155.277 36.423C131.048 49.1018 68.8243 23.3794 48.1843 36.1424C23.889 51.1657 -10.293 81.9286 23.889 113.441C40.7265 128.963 -19.6397 169.252 6.79951 205.34C32.5975 240.553 50.6814 206.985 89.9585 214.167C129.236 221.349 145.996 240.883 172.669 240.883Z" fill="url(#paint0_linear_704_412)"/>
<path d="M130.988 177.754C130.988 177.754 139.258 173.864 142.345 171.158C145.432 168.452 149.271 161.728 149.271 161.728C149.271 161.728 191.431 192.176 218.921 187.833C225.255 186.832 237.596 182.622 238.383 175.204C240.532 154.948 210.798 149.772 217.293 139.5C221.258 133.23 233.574 142.562 233.574 142.562L284.657 167.688C284.657 167.688 267.009 211.191 224.182 212.934C171.499 215.079 130.988 177.754 130.988 177.754Z" fill="white"/>
<path fill-rule="evenodd" clip-rule="evenodd" d="M90.4778 7.38898C89.9983 7.20075 87.4235 4.04796 84.1546 3.47414C82.6692 3.21338 84.0174 5.10484 82.3825 5.12186C77.5136 5.17255 69.6011 4.25781 68.1353 5.12186C67.0459 5.76199 69.4451 7.99828 68.1353 8.10095C55.7775 9.06959 36.9248 21.4084 32.8345 27.3946C31.5327 29.2997 42.0607 26.0675 40.3833 27.0093C38.5006 28.0664 36.4126 34.9879 35.1642 40.3337C34.2999 44.015 33.7557 48.7526 33.5636 53.9063C33.4036 58.3558 33.4676 59.0921 34.1078 61.5249C34.8441 64.2458 35.4203 65.0461 36.4126 64.662C36.7647 64.5339 36.9248 64.0537 36.9248 63.1574C36.9248 62.4532 37.3089 60.3405 37.7891 58.4519L38.6213 55.0587L38.9735 56.4672C39.4216 58.0997 42.0465 63.1574 44.4153 66.8387C44.543 67.0341 45.0927 66.7855 45.5884 65.5875C46.0401 64.4957 45.8568 62.7516 46.624 60.8824C48.3719 56.6245 51.8037 51.0884 55.7775 46.657C61.6504 40.1078 63.5989 32.5283 69.1042 26.444C79.3781 15.0896 92.2726 8.0936 90.4778 7.38898Z" fill="white"/>
<path fill-rule="evenodd" clip-rule="evenodd" d="M40.5377 28.5542C38.8897 29.8795 36.4433 40.629 36.4013 40.8087C35.537 44.49 34.7039 57.2736 35.5555 59.6939C36.4071 62.1141 38.7917 53.3895 38.7917 53.3895C38.7917 53.3895 42.396 62.7488 45.5808 65.3148C45.7168 65.4245 41.7953 53.7355 40.5377 46.9117C38.8777 37.904 41.4757 27.8 40.5377 28.5542Z" fill="#E7EAEE"/>
<path fill-rule="evenodd" clip-rule="evenodd" d="M101.959 216.817C105.032 216.145 110.218 213.804 112.203 213.003C114.188 212.203 120.238 203.66 122.414 194.025C123.983 186.919 124.783 176.803 123.887 175.107C123.754 174.866 123.27 170.266 124.559 171.768C127.424 175.107 130.825 180.348 141.556 170.956C144.479 168.398 148.353 165.097 147.333 162.178C144.479 154.012 132.108 137.569 130.222 136.324C127.967 134.834 116.569 136.1 99.6069 131.094C80.3705 125.416 72.3605 108.697 64.8327 110.873C58.7449 112.633 44.159 123.449 40.4984 130.299C23.2168 162.635 44.159 185.293 48.9284 191.801L53.5591 193.801L53.7191 197.931L53.9432 200.523C54.3594 205.485 54.5194 205.933 56.7602 207.598C62.3621 211.855 73.4058 215.825 83.3932 217.233C88.0347 217.873 98.1181 217.649 101.959 216.817Z" fill="white"/>
<path fill-rule="evenodd" clip-rule="evenodd" d="M55.3785 196.419L55.6025 199.012C56.0187 203.974 56.1787 204.422 58.4195 206.086C61.7242 208.598 66.9228 211.009 72.6812 212.854C76.6838 214.136 80.957 215.144 85.0525 215.722C89.694 216.362 99.7774 216.138 103.619 215.305C105.517 214.894 89.8995 202.624 80.6989 206.086C73.6333 208.745 56.9798 188.464 63.7508 183.166C71.3465 177.222 57.4279 153.78 56.9798 148.69C56.5316 143.601 54.7667 142.385 54.7152 142.563C54.6637 142.742 54.6637 143.351 54.8023 144.818C55.3995 151.142 55.3785 196.419 55.3785 196.419Z" fill="#E7EAEE"/>
<path fill-rule="evenodd" clip-rule="evenodd" d="M53.7159 147.237C54.388 147.106 55.0388 147.545 55.1696 148.217C57.5856 160.629 67.8048 169.032 86.0782 173.426C104.46 177.846 116.981 177.608 123.579 172.89C124.135 172.491 123.72 175.902 123.312 176.164C119.009 178.923 104.38 183.04 86.9213 179.319C64.599 174.561 54.118 155.791 52.736 148.691C52.6052 148.019 53.0439 147.368 53.7159 147.237Z" fill="#FFB61D"/>
<path fill-rule="evenodd" clip-rule="evenodd" d="M44.4074 124.843C45.0017 124.503 67.1728 149.913 97.599 155.665C128.025 161.416 135.392 157.758 136.576 149.913C136.678 149.236 137.31 148.77 137.987 148.872C138.664 148.974 139.13 149.606 139.028 150.283C137.527 160.226 123.448 162.591 97.182 158.109C71.2457 153.683 53.4638 143.167 43.9471 126.535C43.6071 125.94 43.8132 125.183 44.4074 124.843Z" fill="#FFB61D"/>
<path fill-rule="evenodd" clip-rule="evenodd" d="M172.111 123.434C171.279 123.146 170.383 122.506 169.806 121.769L168.846 120.585L172.239 117.224C177.457 112.102 181.458 106.852 184.916 100.61C186.068 98.5294 188.981 91.5831 188.981 90.9109C188.981 90.6868 189.333 89.7905 189.749 88.8622C190.389 87.5177 190.87 87.0056 192.246 86.2373C193.879 85.277 195.735 84.9569 196.535 85.5011C198.072 86.5254 198.072 89.7585 196.535 95.3284C194.839 101.442 192.566 105.828 187.861 112.134C187.124 113.094 185.748 114.983 184.755 116.295C182.099 119.817 180.37 121.513 178.033 122.826C175.728 124.106 174.384 124.266 172.111 123.434ZM195.099 120.553L197.404 121.577C197.882 121.798 203.154 124.331 209.487 127.374C219.697 132.28 232.665 138.511 232.744 138.511C232.872 138.511 233.473 137.122 233.608 135.502C233.928 132.013 235.113 127.275 236.489 123.978C237.129 122.505 237.642 120.665 237.642 120.505C237.642 120.432 237.121 120.222 236.269 119.878C235.255 119.469 233.771 118.871 232.136 118.088C224.069 114.215 208.288 106.308 206.335 105.124C204.414 104.003 204.03 103.907 204.03 104.643C204.03 105.604 202.078 110.053 200.573 112.454C199.773 113.766 198.204 116.135 197.084 117.704L195.099 120.553ZM232.199 132.749C233.117 133.281 231.527 134.061 231.142 134.189C228.881 134.381 226.218 133.956 224.036 132.685C222.895 131.876 213.913 126.886 207.955 123.575C205.231 122.062 203.139 120.9 202.717 120.649C201.372 119.848 200.092 118.984 199.868 118.728C199.196 117.864 199.836 117.48 201.725 117.64C202.86 117.736 230.216 131.6 232.199 132.749ZM102.074 216.553C104.544 216.013 108.377 214.396 110.817 213.365L110.821 213.364C111.416 213.113 111.929 212.897 112.318 212.74C114.303 211.939 120.352 203.397 122.529 193.762C124.098 186.655 124.898 176.54 124.002 174.843C123.461 173.861 126.672 177.157 129.063 179.612C129.788 180.356 130.437 181.023 130.884 181.469C144.841 195.33 165.616 206.47 187.191 211.688C197.947 214.313 205.597 215.241 215.873 215.241C233.127 215.241 246.731 211.848 259.087 204.389C259.674 204.035 260.224 203.709 260.748 203.399C265.056 200.849 267.622 199.33 274.645 191.425C282.522 182.558 289.53 161.975 291.866 154.868C292.891 151.667 295.388 138.935 295.388 135.758C295.388 131.996 294.075 130.22 292.283 128.396C289.113 125.29 284.824 124.17 281.271 125.515L279.606 126.155L279.094 124.458C278.358 121.897 276.821 119.849 274.452 118.312C270.931 115.975 270.419 115.815 267.25 115.815C264.785 115.815 264.113 115.943 262.544 116.68L260.72 117.512L260.336 116.359C259.599 113.991 257.13 110.688 255.214 109.733C253.515 108.886 250.573 108.808 248.524 109.189C244.042 110.021 240.841 112.102 239.529 115.015C239.145 115.911 238.664 116.616 238.472 116.616C238.312 116.616 232.006 114.854 224.484 111.525C223.219 110.964 222.03 110.437 220.914 109.942L220.903 109.937C207.395 103.95 204.467 102.652 204.733 101.026C204.957 99.6498 204.893 98.8815 204.509 97.6971C203.837 95.7125 203.068 95.1683 200.892 95.1683C199.85 95.1683 199.436 95.1683 199.314 94.9793C199.233 94.8546 199.279 94.6476 199.355 94.304C200.379 89.4063 200.347 86.5894 199.259 84.7968C198.523 83.6124 197.659 83.1322 195.674 82.8441C194.522 82.6841 193.977 82.7801 192.697 83.4843C191.833 83.9325 191.096 84.2526 191.032 84.1886C190.968 84.1246 191.192 82.364 191.545 80.2833C194.169 64.8861 192.142 51.6199 185.451 37.5351C185.387 37.4003 185.313 37.241 185.228 37.0586C183.194 32.692 175.016 15.1339 151.627 6.27428C150.568 5.87327 149.567 5.48551 148.604 5.11286C140.637 2.02901 135.34 -0.0211108 122.561 0.000164023C108.238 0.0240097 103.387 2.04886 93.9436 6.37031C92.6311 6.97852 91.4787 7.33064 91.3827 7.2026C91.2867 7.04254 90.6785 6.65841 90.0703 6.3383C89.4621 6.0182 88.1496 5.21793 87.1893 4.57771C84.4364 2.72108 82.7398 1.95282 81.8755 2.14489C80.8832 2.40097 80.8832 3.23326 81.8755 3.61739C82.2916 3.77744 82.7718 4.32162 82.9639 4.86581C83.38 6.0182 83.8602 6.14624 84.1483 5.18591C84.2763 4.8338 84.4684 4.57771 84.5644 4.64173C84.6008 4.6599 84.7222 4.71675 84.9075 4.8035L84.9082 4.80385L84.9087 4.80406C85.3766 5.02309 86.2502 5.43204 87.1893 5.89015C88.5017 6.53037 89.9422 7.2026 90.3264 7.36265C91.0306 7.61874 90.8065 7.8108 87.7655 9.60341C75.8895 16.5818 66.2222 27.4334 60.8124 39.7896C59.9801 41.6462 59.2439 42.7986 58.4756 43.4388C56.523 45.0714 52.6817 49.7129 51.7854 51.5376C51.3052 52.5299 50.2808 54.0664 49.4806 54.9627C48.7123 55.859 47.88 57.0114 47.5919 57.4916C47.3359 58.0037 47.0798 58.3559 46.9837 58.2918C46.9197 58.1958 47.0157 56.6273 47.2398 54.8027C47.72 50.5452 47.72 49.4248 47.3359 49.3288C46.7597 49.1688 45.9274 51.4095 45.5753 54.1945C45.3192 55.891 45.2551 58.4519 45.4152 61.0768L45.6073 65.2382L43.3345 61.5569C42.5516 60.3239 41.7807 59.0909 41.234 58.2164L41.2337 58.2159L41.2333 58.2153L41.2321 58.2135L41.2305 58.2108C40.8848 57.6578 40.6291 57.249 40.5176 57.0754C39.6853 55.859 39.2051 54.0344 39.5572 53.4262C39.7493 53.0741 39.7173 52.914 39.3972 52.914C38.7249 52.914 37.4125 55.0588 36.5482 57.5236C36.1321 58.676 35.7159 59.6363 35.5879 59.6363C35.1077 59.6363 35.3318 48.1764 35.844 44.4952C36.9003 37.2287 39.6853 28.2657 40.9337 28.2657C41.1898 28.2657 41.4139 28.1377 41.4139 27.9456C41.4139 27.3694 40.5816 27.5935 39.9093 28.3297C38.4048 29.9623 36.4202 34.988 35.1717 40.3338C34.3075 44.015 33.7633 48.7526 33.5712 53.9064C33.4112 58.3559 33.4752 59.0921 34.1154 61.5249C34.8516 64.2458 35.4278 65.0461 36.4202 64.662C36.7723 64.5339 36.9323 64.0538 36.9323 63.1575C36.9323 62.4532 37.3165 60.3405 37.7966 58.4519L38.6289 55.0588L38.981 56.4672C39.4292 58.0998 42.0541 63.1575 44.4229 66.8387C46.0554 69.3356 46.0874 69.4956 46.6316 73.4009C46.9197 75.6097 47.816 80.9821 49.8967 89.2463C51.7352 96.5482 62.0703 103.792 64.6509 105.6C64.9909 105.839 65.1963 105.983 65.2299 106.02C65.55 106.372 65.9981 106.564 66.2542 106.468C66.5423 106.372 66.7024 106.5 66.7024 106.852C66.7024 107.172 66.9265 107.588 67.1825 107.781C67.5027 108.005 67.7267 108.869 67.7908 110.373C67.9508 113.382 70.1916 119.144 71.9201 121.033C73.0405 122.249 75.3773 122.762 77.9702 122.313C79.6668 122.057 80.1469 121.865 79.9869 121.481C79.8908 121.225 80.499 121.545 81.3313 122.185C91.0626 129.612 100.922 134.061 111.998 135.982C116.287 136.718 123.394 137.134 127.267 136.846C129.75 136.684 130.433 136.639 130.56 136.883C130.608 136.976 130.576 137.11 130.532 137.295C130.308 138.191 130.596 138.735 135.302 146.706C139.047 153.012 139.367 153.428 143.528 157.685C152.363 166.808 161.999 173.883 172.914 179.357C183.19 184.478 199.595 188.736 214.592 190.08C229.589 191.425 240.361 177.66 240.329 174.139C240.265 169.305 239.593 166.136 237.96 163.063C236.36 160.086 235.303 159.062 230.502 155.861C225.156 152.308 221.859 149.395 219.682 146.29C218.306 144.337 217.793 142.128 217.793 140.944C217.793 140.175 218.786 138.447 220.258 138.095C221.603 137.743 221.859 137.775 223.363 138.511C224.26 138.927 226.596 140.015 228.517 140.944C230.47 141.84 232.358 142.736 232.742 142.928C233.875 143.243 234.354 145.46 234.613 146.661C234.671 146.93 234.718 147.147 234.759 147.282C235.207 148.946 237.328 151.096 238.696 151.827C241.099 153.112 247.02 153.284 248.652 151.524C249.069 151.075 250.448 150.524 250.732 150.691C251.017 150.858 252.045 152.244 252.045 153.364C252.077 155.285 253.069 157.045 255.182 158.806C259.183 162.135 262.288 162.935 265.425 161.463C267.058 160.694 268.396 160.394 268.396 160.394C268.396 160.394 269.73 162.097 269.811 162.679C270.44 167.227 277.173 169.134 278.966 169.326C279.377 169.367 280.176 169.191 280.988 169.013C282.074 168.774 283.183 168.53 283.416 168.793C283.873 169.309 275.765 182.718 274.645 184.414C263.985 200.42 243.242 210.215 217.857 211.239C201.372 211.912 181.109 207.302 163.535 198.915C152.299 193.505 142.344 186.879 131.684 177.596C129.828 175.996 127.683 174.171 126.915 173.531C126.146 172.923 124.322 170.842 122.913 168.921C120.545 165.72 119.2 164.568 119.2 165.656C119.2 166.136 120.737 169.081 122.497 171.994C123.201 173.147 123.65 173.947 123.49 173.819C123.329 173.691 122.817 175.996 122.337 178.941C120.769 188.384 118.176 197.699 115.551 203.493C114.11 206.63 111.348 208.973 110.516 209.613C107.443 211.95 102.843 213 96.4724 213.64C88.4057 214.441 76.5297 212.648 67.4706 209.255C65.0698 208.359 58.8918 205.766 58.4756 205.478C58.4506 205.453 58.3088 204.532 58.1109 203.247L58.1109 203.247C58.0551 202.884 57.9948 202.493 57.9314 202.084C56.779 194.178 55.1785 163.735 55.1785 149.651C55.1785 143.825 55.1145 142.544 54.7303 142.544C53.9301 142.544 53.61 143.313 53.2578 146.065C52.4576 152.34 52.6176 185.087 53.4819 191.969L53.674 193.537L52.5856 192.929C50.9211 191.969 44.5829 185.535 42.3742 182.558C40.5043 180.013 39.3929 176.753 38.5615 174.315C38.3681 173.747 38.1898 173.225 38.0207 172.765C33.3791 159.897 35.0117 145.457 41.4139 132.461C46.8557 121.385 53.5459 115.239 63.3413 112.262C64.9418 111.782 66.3503 111.27 66.5103 111.142C67.1185 110.565 63.2132 110.854 61.0685 111.526C54.0901 113.671 46.7917 119.529 41.83 127.019C34.8516 137.519 31.7146 153.012 33.9233 166.232C34.4355 169.369 36.5162 176.156 37.0924 176.636C37.1434 176.687 37.4067 177.239 37.8048 178.074C38.9058 180.384 41.0382 184.857 42.5662 186.879C44.4229 189.408 50.0248 194.914 52.3615 196.611L53.834 197.667L54.0581 200.26C54.4743 205.221 54.6343 205.67 56.8751 207.334C62.477 211.592 73.5207 215.561 83.5081 216.969C88.1496 217.61 98.233 217.386 102.074 216.553ZM210.267 186.495C191.669 184.863 169.197 175.995 152.936 162.294C146.086 156.5 137.187 145.233 133.665 138.991C132.929 137.711 132.385 137.103 131.745 136.942C131.072 136.75 131.649 136.558 134.402 136.11C146.022 134.126 157.321 129.292 166.444 122.41L167.789 121.417L168.173 122.346C169.037 124.426 172.366 126.539 174.831 126.539C175.824 126.539 179.153 125.034 181.169 123.658L182.546 122.73L183.666 123.85C184.691 124.874 184.883 124.938 186.803 124.938C189.012 124.938 191.669 123.946 193.141 122.538L193.942 121.801L196.214 123.306C197.431 124.17 200.824 126.059 203.737 127.563C208.09 129.804 212.7 132.397 217.086 135.086L217.79 135.534L217.118 136.43C216.413 137.391 215.101 139.215 215.101 142C215.101 145.137 218.363 150.774 224.608 154.644C229.514 157.685 237.957 163.667 237.636 172.41C237.598 173.467 236.42 176.092 234.852 178.46C233.827 179.965 230.978 182.206 228.385 183.518C223.968 185.727 216.189 187.007 210.267 186.495ZM39.5879 42.7986C40.4522 42.9907 41.0284 43.2788 40.9004 43.4068C40.4842 43.823 38.2755 43.6309 37.7633 43.1188C36.963 42.3505 37.1551 41.8063 38.2755 41.5822C38.8517 41.4862 39.716 41.006 40.1961 40.5259C40.6763 40.0457 41.0924 39.8216 41.0924 39.9817C41.0924 40.3978 39.4919 41.8703 38.6916 42.1904C38.1795 42.4145 38.3395 42.5105 39.5879 42.7986ZM52.3315 43.3108C53.2598 42.7987 53.0678 42.4466 51.9794 42.6066C50.891 42.7667 50.827 42.6386 51.5312 41.5503C51.8193 41.1341 51.9794 40.5259 51.9154 40.2058C51.8193 39.7897 51.5953 39.9817 51.0831 41.0061C50.699 41.7423 50.1548 42.3505 49.8987 42.3505C49.0984 42.3505 49.0344 42.9907 49.8026 43.2788C50.795 43.695 51.5632 43.695 52.3315 43.3108ZM41.2523 25.8328C40.4841 25.9608 38.0833 26.9211 35.9705 27.9775C33.8258 29.0018 32.0012 29.8661 31.8732 29.8341C28.6081 29.482 33.1536 24.0402 41.4124 18.4703C49.3191 13.1245 54.6649 10.3075 59.6265 8.86704C62.7316 7.97074 66.2208 7.84269 67.2131 8.57894C67.7573 8.99508 67.5652 9.02709 65.1964 9.0591C60.0747 9.0591 54.1527 11.684 44.5174 18.1182C39.5237 21.4473 33.7298 26.2169 33.7298 26.9852C33.7298 27.1452 34.6581 26.8251 35.8105 26.3129C38.2753 25.1926 40.8042 24.6164 41.9246 24.8724C43.109 25.1925 42.8529 25.6087 41.2523 25.8328ZM53.6418 28.5859C56.6508 27.9777 56.7789 27.9457 56.7789 27.6256C56.7789 27.4655 55.6265 27.3055 54.186 27.2414L51.5931 27.1454L53.9939 24.4245C55.3064 22.92 56.8429 21.4155 57.3871 21.0634C58.5715 20.2951 58.6355 19.7509 57.6752 19.4308L56.9389 19.2067L57.7392 18.9186C58.1873 18.7586 59.0196 18.6945 59.5958 18.7906C60.4601 18.9186 60.6522 18.8546 60.5561 18.4065C60.4601 17.9583 60.108 17.8623 58.5395 17.8943C53.9619 17.9583 52.0093 19.1747 55.5945 19.7509C56.5868 19.911 57.4191 20.167 57.4191 20.3271C57.4191 20.4551 57.259 20.5832 57.067 20.5832C56.4588 20.5832 51.305 25.8009 50.6648 27.0814C49.6725 28.97 50.2167 29.2581 53.6418 28.5859ZM74.7647 16.1657C73.8364 16.2298 73.6123 16.3898 73.6764 16.838L73.6862 16.9032C73.7222 17.14 73.7428 17.276 73.6898 17.3173C73.6181 17.373 73.4121 17.2562 72.9281 16.9816L72.9281 16.9816L72.8441 16.934C72.2359 16.6139 72.1719 16.4538 72.524 16.1977C72.7481 16.0057 73.3563 15.7176 73.8364 15.6216L74.7327 15.3975L74.0605 14.6932C73.7084 14.2771 73.5163 13.893 73.6123 13.7649C73.8684 13.5088 77.0055 13.861 77.4536 14.2131C77.6457 14.3731 77.9338 14.3411 78.1259 14.1491C78.574 13.7009 79.1822 14.053 79.1822 14.7573C79.1822 15.1414 79.0862 15.1734 78.7981 14.8853C78.542 14.6292 78.3179 14.6292 78.0298 14.8533C77.7738 15.0774 77.5817 15.0774 77.4216 14.8213C77.3256 14.6612 76.7174 14.5012 76.0772 14.5012C75.4865 14.5012 75.2073 14.5012 75.1503 14.6137C75.0991 14.7147 75.2268 14.9062 75.469 15.2694C75.9796 16.0672 75.9493 16.0697 74.7756 16.1649L74.7647 16.1657ZM69.9029 7.65087C69.9029 7.23473 69.5188 6.49848 69.0386 6.01832L68.1423 5.12202L72.9439 5.31408C75.6008 5.44213 78.6098 5.73023 79.6662 6.01832C80.7225 6.27441 81.939 6.46647 82.3871 6.46647C83.0593 6.46647 82.9313 6.33843 81.6829 5.6662C79.5061 4.54583 76.7212 4.00164 71.3754 3.61751C64.9732 3.16936 61.7401 3.77757 62.3483 5.37811C62.4444 5.69821 62.9565 5.85827 63.7248 5.85827C65.2933 5.85827 67.8542 6.78658 68.7185 7.65087C69.6468 8.57919 69.9029 8.57919 69.9029 7.65087ZM54.2795 92.4155C56.8724 95.7446 60.2975 99.5219 61.8981 100.802C62.8584 101.571 63.6907 102.211 63.7547 102.211C63.7867 102.211 63.0825 100.738 62.1862 98.9457C58.5689 91.7432 56.4562 84.5728 55.4639 76.314C55.2398 74.4894 54.8877 72.9529 54.5036 72.3127C53.7353 71.0322 53.7353 69.3677 54.5356 67.7991C54.9517 66.9669 55.1758 65.9105 55.1758 64.7581V62.9975L53.6393 64.5981C52.1348 66.1666 50.6943 66.8068 50.6943 65.8465C50.6943 65.1422 53.0631 61.7491 54.3115 60.6927C55.3038 59.8605 55.4319 59.5724 55.752 57.0755C55.9761 55.571 56.4882 52.9141 56.9044 51.1535C57.3525 49.3929 57.6086 47.8884 57.5446 47.8244C57.3205 47.6003 49.798 56.2399 48.7736 58.9962C48.5487 59.6013 47.9413 60.6607 47.4612 61.3009L46.6289 62.3696C46.6289 62.3696 46.8874 63.8659 47.1731 65.7465C47.4617 67.6465 47.5971 68.9526 47.7177 70.1159C47.8791 71.6721 48.0139 72.9728 48.4535 75.0976C48.9657 77.7225 49.4779 79.9953 49.6059 80.1553C49.7019 80.3474 50.1181 81.8199 50.5342 83.4524C51.4305 87.0696 52.935 90.6549 54.2795 92.4155ZM184.183 122.698L183.511 122.025C183.511 122.025 194.668 107.85 196.667 102.627C198.193 98.6408 199.091 97.5105 200.302 97.5105C200.98 97.5105 201.533 97.6652 201.789 98.0493C202.237 98.7215 202.669 99.5538 202.093 102.403C201.133 107.012 199.66 110.053 195.243 116.616C194.218 118.12 192.906 119.785 192.33 120.361C190.985 121.609 187.96 122.89 186.2 123.178C185.079 123.338 184.759 123.274 184.183 122.698Z" fill="#00160A"/>
<path d="M272.817 154.012C276.799 143.162 276.196 140.85 275.506 140.624C275.506 140.624 273.985 141.488 273.313 143.313C272.064 146.738 267.791 155.701 266.19 157.301C264.302 159.19 264.302 159.19 262.381 159.19C260.461 159.19 254.921 156.297 254.167 153.446C252.96 148.885 258.156 133.037 258.284 132.141L257.419 131.533C256.843 132.077 249.348 154.804 239.493 148.882C238.365 148.204 235.972 145.009 235.78 143.313C234.714 138.383 239.608 121.145 240.44 117.604C241.185 114.435 245.063 111.494 249.833 111.494C257.163 111.494 256.179 117.902 259.462 120.159C260.917 121.16 263.308 119.346 264.046 119.208C268.175 118.44 269.757 119.335 272.785 121.737C275.121 123.592 276.85 127.262 278.753 128.556C279.81 129.274 280.932 128.292 281.3 128.107C282.806 127.351 286.037 127.915 286.933 128.556C288.247 129.128 291.467 132.224 291.976 134.024C294.282 142.183 287.001 160.271 284.253 163.664C279.704 169.281 268.834 164.863 272.817 154.012Z" fill="white"/>
<path fill-rule="evenodd" clip-rule="evenodd" d="M88.7838 124.28C97.5548 129.818 106.599 133.436 116.906 134.428C125.037 135.196 136 134.14 143.874 131.579C150.501 129.434 159.464 123.493 165.45 118.467C177.07 108.736 184.4 93.5356 187.601 77.4021C188.049 75.1293 188.733 69.4163 188.701 63.7504C188.701 57.1562 185.799 39.136 177.006 28.7457C158.87 7.31564 129.058 -2.33799 104.004 5.91041C94.9663 8.88588 85.3435 14.2768 78.0771 21.3192C68.922 30.2502 62.1677 42.4143 59.4788 54.8345C56.6618 67.9589 60.3262 83.6442 66.6963 96.5126C71.7861 106.756 80.1729 118.807 88.7838 124.28ZM174.254 85.5969C168.236 103.683 152.551 117.192 132.832 121.289C129.823 121.897 127.743 122.121 123.517 122.185C120.54 122.281 117.563 122.249 116.955 122.185C103.158 120.521 92.6587 115.431 82.9914 105.764C78.766 101.506 76.9734 99.2015 74.3485 94.656C70.2191 87.4535 68.0104 80.091 67.3381 71.2241C65.0334 40.8458 86.7687 15.5252 117.371 12.9004C129.375 11.876 142.692 15.5573 152.807 22.7277C156.552 25.3846 163.339 32.1068 165.451 35.2439C166.316 36.4923 174.702 48.7525 176.175 55.7948C178.064 64.9499 177.327 76.4098 174.254 85.5969Z" fill="white"/>
<path fill-rule="evenodd" clip-rule="evenodd" d="M188.714 63.7505C188.714 85.2366 178.551 108.726 165.434 118.758C159.176 123.545 150.998 129.34 143.876 131.579C133.44 134.86 116.908 134.428 116.908 134.428C116.908 134.428 133.774 132.173 140.024 129.658C157.946 122.446 167.729 111.374 173.771 100.75C185.696 79.7806 188.714 63.2286 188.714 63.7505Z" fill="#E7EAEE"/>
<path fill-rule="evenodd" clip-rule="evenodd" d="M117.275 118.344C108.728 117.256 100.245 114.215 93.3951 109.701C89.3297 107.044 83.1836 100.802 80.2066 96.3527C75.9492 89.9505 73.1322 83.1002 71.7558 75.7377C70.7634 70.3919 70.7955 62.1651 71.7878 57.3955C72.8121 52.5299 74.1246 48.8166 76.4614 44.111C79.1823 38.6692 82.0633 34.6679 86.3847 30.3464C93.7472 22.9839 102.294 18.3103 112.474 16.0696C115.771 15.3653 127.711 14.7891 128.127 15.3333C128.223 15.4934 128.863 15.9095 129.535 16.2616C130.208 16.6458 132 17.9902 133.473 19.3027C135.681 21.2233 136.674 22.4397 138.594 25.4487C139.907 27.4974 140.963 29.3541 140.963 29.5141C140.963 29.8662 141.987 30.5065 142.564 30.5065C143.364 30.5065 143.908 28.1056 144.068 23.8802C144.164 21.5434 144.356 19.6228 144.484 19.6228C144.932 19.6228 149.862 22.3437 152.167 23.8802C156.68 26.8892 161.194 31.1147 164.523 35.5322C166.028 37.5168 166.252 38.029 166.252 39.2454C166.252 40.3658 166.572 41.2301 167.564 42.9587C170.061 47.3121 172.014 52.786 173.198 58.836C173.966 62.9014 173.966 70.584 173.166 74.8414C170.989 86.5574 164.523 98.2093 156.104 105.604C148.966 111.846 141.379 115.687 132.416 117.576C129.343 118.248 120.124 118.696 117.275 118.344ZM94.3873 96.4486C94.6754 96.1285 94.8675 95.6484 94.7714 95.4243C94.7426 95.357 94.3418 95.1686 93.7551 94.8928C92.3875 94.2498 90.0097 93.132 88.9793 91.9671C84.8819 87.2935 83.3774 83.8044 82.4491 76.6019C81.5528 69.5916 82.3058 64.8523 83.9216 57.2354C84.7098 53.5197 86.8048 50.4506 88.1082 48.5411C88.9945 47.2427 89.5148 46.4805 89.0095 46.4157C87.7611 46.2237 87.569 46.3197 86.2566 47.5681C83.4396 50.257 82.1592 52.4018 80.8147 56.5312C78.734 62.9973 78.3319 80.4721 82.4491 88.3499C86.5662 96.2277 93.651 97.2809 94.3873 96.4486ZM139.907 69.5597C139.363 74.5325 137.058 81.7238 134.369 84.8609C133.121 86.3334 128.538 88.8622 124.67 88.3501C120.933 87.8554 118.012 86.1093 115.515 82.364C113.37 79.131 112.262 75.2065 111.513 70.264C110.22 61.7291 115.867 51.7937 118.3 49.3289C120.764 46.8 122.525 45.9037 124.766 45.8717C126.943 45.8717 128.351 46.3519 130.56 47.9204C134.593 50.7374 140.963 59.8967 139.907 69.5597ZM96.7556 43.0867C97.3959 42.3505 97.4919 41.9983 97.2998 40.6219C97.1718 39.3414 96.9157 38.8293 96.2435 38.2851C95.0591 37.3248 93.5866 37.3248 92.4982 38.3491C91.7299 39.0854 91.6339 39.3414 91.7299 41.102C91.826 42.9907 91.89 43.1187 92.9464 43.6949C94.3548 44.4632 95.7313 44.2391 96.7556 43.0867ZM116.731 23.336C110.969 27.4654 108.472 29.162 105.879 30.7625C103.831 32.0429 103.19 32.0749 103.19 30.9225C103.19 30.3143 103.639 29.6421 104.791 28.5858L106.392 27.1133L103.286 26.6971C99.7973 26.249 96.4041 25.2886 95.6679 24.5524C94.4515 23.304 95.5078 23.0159 98.965 23.6561C100.502 23.9122 103.479 24.2323 105.591 24.2963L109.433 24.4564L112.217 22.4397C118.332 18.0222 124.67 15.5254 127.711 16.2936C129.599 16.7418 129.375 17.2539 127.231 17.51C124.766 17.7981 123.261 18.6304 116.731 23.336Z" fill="white"/>
<path d="M124.959 83.9644C124.959 83.8043 125.151 83.6443 125.407 83.6443C125.663 83.6443 125.983 83.8043 126.079 83.9644C126.175 84.1565 125.983 84.2845 125.631 84.2845C125.247 84.2845 124.959 84.1565 124.959 83.9644Z" fill="white"/>
<path d="M126.879 83.6764C126.879 83.3243 127.679 83.0042 128.575 83.0042C129.28 83.0362 129.28 83.0362 128.672 83.4843C127.967 84.0285 126.879 84.1245 126.879 83.6764Z" fill="white"/>
<path d="M121.917 82.8442C121.821 82.5881 121.693 82.1399 121.597 81.8838C121.501 81.5637 121.661 81.4037 122.077 81.4037C122.43 81.4037 122.718 81.5958 122.718 81.8518C122.718 82.1079 122.814 82.5241 122.91 82.8122C123.038 83.1643 122.942 83.3243 122.59 83.3243C122.302 83.3243 121.981 83.1003 121.917 82.8442Z" fill="white"/>
<path d="M123.619 82.0439C123.458 81.0835 123.811 80.7634 124.963 80.7634C125.315 80.7634 125.603 81.0835 125.731 81.6277C125.987 82.556 125.571 83.0042 124.451 83.0042C123.939 83.0042 123.715 82.7801 123.619 82.0439Z" fill="white"/>
<path d="M120.351 82.2039C119.743 81.7238 119.743 81.7238 120.415 81.7238C120.831 81.7238 121.119 81.9158 121.119 82.2039C121.119 82.7801 121.119 82.7801 120.351 82.2039Z" fill="white"/>
<path d="M126.785 82.1721C126.369 81.7559 126.561 80.5075 127.073 80.3154C128.002 79.9633 128.418 80.1234 128.61 80.9556C128.738 81.4358 128.802 81.8519 128.738 81.884C128.482 82.1721 126.977 82.3641 126.785 82.1721Z" fill="white"/>
<path d="M129.633 81.4997C129.537 81.4037 129.441 80.9875 129.441 80.6034C129.441 80.0592 129.697 79.8352 130.466 79.6751C131.138 79.5471 131.554 79.6111 131.746 79.8672C132.066 80.3793 132.066 81.0196 131.778 81.1796C131.202 81.4997 129.858 81.6918 129.633 81.4997Z" fill="white"/>
<path d="M118.877 80.5074C118.877 80.1233 119.165 79.8032 119.581 79.7071C120.413 79.4831 120.381 79.451 120.542 80.2833C120.606 80.7635 120.445 80.9556 119.773 81.0196C119.069 81.1156 118.877 80.9876 118.877 80.5074Z" fill="white"/>
<path d="M121.31 80.5394C120.862 80.0593 121.15 79.163 121.758 79.163C122.174 79.163 122.398 79.387 122.398 79.7712C122.398 80.3794 121.662 80.8915 121.31 80.5394Z" fill="white"/>
<path d="M123.231 79.5791C122.975 78.9709 123.519 78.5227 124.575 78.5227C125.055 78.5227 125.279 78.7148 125.279 79.1309C125.279 79.483 124.991 79.8031 124.575 79.9312C123.519 80.1873 123.455 80.1873 123.231 79.5791Z" fill="white"/>
<path d="M132.485 79.4831C132.581 79.323 132.741 79.163 132.837 79.163C132.933 79.163 132.901 79.323 132.805 79.4831C132.709 79.6751 132.549 79.8032 132.453 79.8032C132.356 79.8032 132.388 79.6751 132.485 79.4831Z" fill="white"/>
<path d="M126.111 78.9388C125.855 78.2986 126.175 77.9785 127.2 77.8184C127.776 77.7544 128.032 77.8825 128.096 78.3306C128.32 79.387 126.495 79.9632 126.111 78.9388Z" fill="white"/>
<path d="M118.431 78.3948C118.143 77.3385 118.207 77.2424 119.039 77.2424C119.487 77.2424 119.839 77.3705 119.839 77.5305C119.839 77.6906 119.935 78.0427 120.031 78.2988C120.127 78.6189 119.935 78.811 119.391 78.907C118.783 79.035 118.559 78.907 118.431 78.3948Z" fill="white"/>
<path d="M129.121 78.0425C129.121 77.4663 129.345 77.2102 129.953 77.0501C130.85 76.826 131.362 77.2742 131.362 78.2985C131.362 78.7147 131.106 78.8427 130.241 78.8427C129.249 78.8427 129.121 78.7467 129.121 78.0425Z" fill="white"/>
<path d="M117.469 78.0424C117.373 77.7863 117.437 77.5623 117.597 77.5623C117.789 77.5623 117.917 77.7863 117.917 78.0424C117.917 78.2985 117.853 78.5226 117.789 78.5226C117.725 78.5226 117.597 78.2985 117.469 78.0424Z" fill="white"/>
<path d="M120.701 78.2985C120.253 77.8824 120.509 76.9861 121.085 76.8261C121.437 76.73 121.789 76.762 121.885 76.8581C122.269 77.2102 122.045 78.1385 121.565 78.3306C120.957 78.5546 120.957 78.5546 120.701 78.2985Z" fill="white"/>
<path d="M132.13 78.0747C131.777 77.1464 132.162 76.4421 133.058 76.3461C133.73 76.2501 133.922 76.3781 133.922 76.8903C133.922 77.9466 133.57 78.5228 132.93 78.5228C132.578 78.5228 132.226 78.3308 132.13 78.0747Z" fill="white"/>
<path d="M122.942 77.6584C122.558 77.3062 122.686 76.666 123.23 76.474C123.838 76.2499 125.119 76.8901 124.767 77.2422C124.319 77.6264 123.166 77.9145 122.942 77.6584Z" fill="white"/>
<path d="M125.725 76.8581C125.437 76.41 126.462 75.6417 127.294 75.6417C127.678 75.6417 127.838 75.8338 127.774 76.1859C127.646 76.8261 126.014 77.3383 125.725 76.8581Z" fill="white"/>
<path d="M116.959 76.6341C116.959 76.474 116.863 76.1219 116.767 75.8338C116.671 75.5457 116.703 75.3217 116.895 75.3217C117.311 75.3217 117.632 76.5381 117.247 76.7942C117.087 76.8902 116.959 76.8262 116.959 76.6341Z" fill="white"/>
<path d="M117.823 75.8978C117.63 75.1936 118.015 74.6814 118.751 74.6814C119.167 74.6814 119.583 75.9298 119.327 76.346C118.975 76.8901 117.983 76.57 117.823 75.8978Z" fill="white"/>
<path d="M120.064 76.0579C119.584 75.5777 119.872 74.4253 120.512 74.2652C120.992 74.1372 121.248 74.2973 121.504 74.8735C121.696 75.2896 121.793 75.7057 121.729 75.7698C121.408 76.0579 120.256 76.2819 120.064 76.0579Z" fill="white"/>
<path d="M128.704 76.058C128.287 75.6419 128.48 75.3858 129.44 75.0336C130.24 74.7776 130.464 74.8096 130.624 75.1937C130.912 75.962 129.312 76.6982 128.704 76.058Z" fill="white"/>
<path d="M131.522 75.3217C131.202 74.8095 131.65 74.3613 132.482 74.3613C133.474 74.3613 133.763 75.1936 132.866 75.4497C131.906 75.7058 131.746 75.6738 131.522 75.3217Z" fill="white"/>
<path d="M134.246 74.5535C134.246 74.0733 134.822 73.5611 135.078 73.8172C135.302 74.0413 134.854 75.0016 134.534 75.0016C134.374 75.0016 134.246 74.8096 134.246 74.5535Z" fill="white"/>
<path d="M116.542 74.137C116.414 74.0409 116.318 73.6248 116.35 73.2727C116.35 72.6645 116.382 72.6645 116.67 73.3687C116.99 74.137 116.926 74.5211 116.542 74.137Z" fill="white"/>
<path d="M117.151 73.6571C116.863 72.5367 116.895 72.4407 117.727 72.4407C118.655 72.4407 119.231 73.6251 118.527 74.0732C117.791 74.5214 117.375 74.3933 117.151 73.6571Z" fill="white"/>
<path d="M128.16 74.2974C128.16 74.2014 128.32 73.6892 128.512 73.113C128.96 71.8326 129.953 71.7686 130.177 73.017C130.273 73.4971 130.305 73.9133 130.273 73.9453C130.113 74.1374 128.16 74.4255 128.16 74.2974Z" fill="white"/>
<path d="M119.423 73.497C119.295 73.401 119.199 73.0169 119.199 72.6647C119.199 72.1526 119.295 72.1206 119.679 72.4407C119.935 72.6647 120.16 73.0489 120.16 73.2729C120.16 73.7531 119.775 73.8812 119.423 73.497Z" fill="white"/>
<path d="M130.946 72.8565C130.754 71.8642 131.17 71.416 132.162 71.5441C132.643 71.6081 132.803 71.8962 132.803 72.6004C132.803 73.4007 132.675 73.5928 131.97 73.6568C131.266 73.7528 131.106 73.5928 130.946 72.8565Z" fill="white"/>
<path d="M134.082 72.9849C133.666 71.7045 133.794 71.3204 134.659 71.2243C135.427 71.1283 135.523 71.2243 135.523 72.0566C135.523 72.7608 135.331 73.0489 134.851 73.177C134.499 73.273 134.146 73.177 134.082 72.9849Z" fill="white"/>
<path d="M116.062 71.1602C116.062 70.552 116.127 70.2959 116.223 70.616C116.287 70.9041 116.287 71.4163 116.223 71.7364C116.127 72.0245 116.062 71.7684 116.062 71.1602Z" fill="white"/>
<path d="M116.862 71.5762C116.445 71.192 116.637 69.9436 117.15 69.7515C117.886 69.4634 118.238 69.8156 118.238 70.8719C118.238 71.5441 118.078 71.8002 117.662 71.8002C117.342 71.8002 116.958 71.7042 116.862 71.5762Z" fill="white"/>
<path d="M118.778 70.7121C118.65 70.2319 118.586 69.7198 118.714 69.6237C119.034 69.3036 119.226 69.8158 119.13 70.7441L119.034 71.6404L118.778 70.7121Z" fill="white"/>
<path d="M129.121 70.4879C129.121 70.1358 129.281 69.9437 129.441 70.0398C129.633 70.1358 129.761 70.4559 129.761 70.712C129.761 70.9681 129.633 71.1602 129.441 71.1602C129.281 71.1602 129.121 70.8721 129.121 70.4879Z" fill="white"/>
<path d="M130.562 70.9042C130.114 70.4241 130.466 69.5598 131.202 69.3677C132.13 69.1436 132.162 69.1436 132.45 70.0719C132.643 70.6481 132.514 70.7762 131.682 70.9042C131.17 71.0003 130.658 70.9682 130.562 70.9042Z" fill="white"/>
<path d="M133.508 70.296C133.155 69.9759 133.251 68.9195 133.604 68.9195C133.796 68.9195 133.924 68.7915 133.924 68.5994C133.924 68.4394 133.732 68.2793 133.476 68.2793C132.931 68.2793 132.483 66.7108 132.931 66.2626C133.508 65.6865 134.148 66.2947 134.532 67.8632C134.756 68.6955 134.98 69.6558 135.076 69.9759C135.204 70.392 135.076 70.5201 134.468 70.5201C134.052 70.5201 133.604 70.4241 133.508 70.296Z" fill="white"/>
<path d="M135.234 68.5994C135.01 67.6391 134.434 65.7185 134.018 64.31C133.378 62.2613 133.314 61.7491 133.666 61.525C133.89 61.365 134.178 61.2369 134.274 61.2369C134.626 61.2369 135.906 67.7992 135.778 69.0796L135.682 70.36L135.234 68.5994Z" fill="white"/>
<path d="M115.738 68.4393C115.738 67.9271 115.802 67.7351 115.898 68.0552C115.962 68.3433 115.962 68.7914 115.898 69.0155C115.802 69.2076 115.738 68.9835 115.738 68.4393Z" fill="white"/>
<path d="M116.381 68.375C116.509 67.2546 117.437 66.9986 117.694 68.0229C117.918 68.8552 117.982 68.7591 117.021 69.0793C116.349 69.2713 116.285 69.2073 116.381 68.375Z" fill="white"/>
<path d="M129.887 68.0872C129.631 67.1589 130.175 66.6147 131.2 66.7428C131.968 66.8388 132.256 68.2153 131.616 68.6314C130.815 69.1436 130.079 68.9195 129.887 68.0872Z" fill="white"/>
<path d="M118.238 67.8312C118.238 67.287 118.398 66.9989 118.75 66.9989C119.071 66.9989 119.199 67.223 119.135 67.7031C118.975 68.7275 118.238 68.8235 118.238 67.8312Z" fill="white"/>
<path d="M115.389 66.4864C115.389 66.1343 115.485 66.0383 115.581 66.2943C115.677 66.5184 115.645 66.8065 115.549 66.9025C115.453 67.0306 115.357 66.8385 115.389 66.4864Z" fill="white"/>
<path d="M115.996 66.3907C115.996 65.9106 116.188 65.7185 116.668 65.7185C117.116 65.7185 117.277 65.8786 117.213 66.2627C117.052 67.095 115.996 67.191 115.996 66.3907Z" fill="white"/>
<path d="M117.757 66.1025C117.533 65.5263 117.533 65.5263 118.493 65.2702C119.069 65.0782 119.197 65.1742 119.197 65.6544C119.197 66.4226 118.045 66.8068 117.757 66.1025Z" fill="white"/>
<path d="M129.344 65.6546C129.12 64.8544 129.536 64.4382 130.656 64.4382C131.2 64.4382 131.36 64.6303 131.36 65.2385C131.36 65.7187 131.168 66.0388 130.912 66.0388C130.656 66.0388 130.24 66.1348 129.984 66.2308C129.696 66.3269 129.472 66.1348 129.344 65.6546Z" fill="white"/>
<path d="M132.13 64.9181C131.874 64.2779 132.258 63.7977 132.994 63.7977C133.443 63.7977 133.603 64.0218 133.603 64.598C133.603 65.1742 133.443 65.3983 132.962 65.3983C132.61 65.3983 132.226 65.1742 132.13 64.9181Z" fill="white"/>
<path d="M115.676 64.4699C115.676 63.7977 116.412 63.0294 116.732 63.3815C116.86 63.4776 116.956 63.9257 116.956 64.3419C116.956 64.854 116.764 65.0781 116.316 65.0781C115.9 65.0781 115.676 64.854 115.676 64.4699Z" fill="white"/>
<path d="M117.439 64.0858C117.183 63.2855 117.471 62.9334 118.559 62.7733C119.552 62.6453 119.872 63.7017 119.007 64.3419C118.175 64.9501 117.663 64.854 117.439 64.0858Z" fill="white"/>
<path d="M129.024 63.8938C128.8 63.7017 128.704 62.5173 128.896 62.5173C128.928 62.5173 129.408 62.3892 129.984 62.2292C130.945 61.9411 131.009 61.9731 130.977 62.8374C130.945 63.4776 130.753 63.7977 130.272 63.9258C129.408 64.1498 129.28 64.1498 129.024 63.8938Z" fill="white"/>
<path d="M127.84 63.1574C127.84 62.9333 127.936 62.8373 128.064 62.9333C128.16 63.0614 128.16 63.2534 128.064 63.3815C127.936 63.4775 127.84 63.3815 127.84 63.1574Z" fill="white"/>
<path d="M131.425 62.6451C131.521 62.101 132.514 61.3007 132.738 61.5568C132.834 61.6528 132.994 62.0369 133.09 62.4531C133.314 63.0933 133.218 63.1573 132.322 63.1573C131.553 63.1573 131.329 63.0293 131.425 62.6451Z" fill="white"/>
<path d="M115.996 62.6134C115.996 62.4533 116.156 62.1332 116.316 61.8771C116.572 61.493 116.636 61.525 116.636 62.1332C116.636 62.5173 116.508 62.8374 116.316 62.8374C116.156 62.8374 115.996 62.7414 115.996 62.6134Z" fill="white"/>
<path d="M116.957 61.909C116.957 61.0127 117.629 60.7246 118.141 61.3968C118.462 61.877 118.462 62.037 118.141 62.2611C117.469 62.6772 116.957 62.5492 116.957 61.909Z" fill="white"/>
<path d="M126.69 61.493C126.114 60.8528 126.114 60.8207 126.658 61.0128C126.978 61.1409 127.394 61.2369 127.554 61.2369C127.714 61.2369 127.843 61.461 127.843 61.7171C127.843 62.3893 127.394 62.3253 126.69 61.493Z" fill="white"/>
<path d="M119.809 61.4609C118.432 60.4046 118.24 58.0358 119.521 58.0358C120.385 58.0358 121.185 59.3802 121.057 60.6286C120.961 61.781 120.577 62.0371 119.809 61.4609Z" fill="white"/>
<path d="M128.578 61.6528C128.706 61.5568 128.898 61.5568 129.026 61.6528C129.122 61.7809 129.026 61.8769 128.802 61.8769C128.578 61.8769 128.482 61.7809 128.578 61.6528Z" fill="white"/>
<path d="M133.412 60.4047C133.508 60.1166 133.604 59.8285 133.604 59.7645C133.604 59.7005 133.764 59.6365 133.924 59.6365C134.116 59.6365 134.244 59.9246 134.244 60.2767C134.244 60.6608 134.02 60.9169 133.732 60.9169C133.38 60.9169 133.284 60.7569 133.412 60.4047Z" fill="white"/>
<path d="M116.637 60.3085C116.637 59.5722 117.309 58.3558 117.693 58.3558C118.365 58.3558 117.885 60.4045 117.181 60.5326C116.893 60.5966 116.637 60.5006 116.637 60.3085Z" fill="white"/>
<path d="M123.839 59.9565L122.879 59.7324L123.743 59.5083C124.64 59.2523 125.28 59.4443 125.28 59.9885C125.28 60.3086 125.248 60.3086 123.839 59.9565Z" fill="white"/>
<path d="M122.719 58.4199C122.719 57.1075 123.455 56.9154 124.127 58.0678C124.575 58.8361 124.607 58.9961 124.191 58.9961C123.935 58.9961 123.519 59.0922 123.231 59.1882C122.847 59.3483 122.719 59.1562 122.719 58.4199Z" fill="white"/>
<path d="M128.289 58.8681C126.848 58.2279 125.92 56.5313 125.92 54.5146C125.92 53.0741 126.048 52.722 126.912 51.9217C127.456 51.4095 128.001 50.9934 128.161 50.9934C128.865 50.9934 131.458 53.4582 132.322 54.9948L133.314 56.7554L132.258 57.8757C131.042 59.1562 129.697 59.5083 128.289 58.8681Z" fill="white"/>
<path d="M121.596 58.0358C121.5 57.8758 121.564 57.7157 121.724 57.7157C121.916 57.7157 122.076 57.8758 122.076 58.0358C122.076 58.2279 122.012 58.3559 121.948 58.3559C121.852 58.3559 121.692 58.2279 121.596 58.0358Z" fill="white"/>
<path d="M117.405 57.5236C117.501 57.2355 117.598 56.9474 117.598 56.8834C117.598 56.8194 117.886 56.7554 118.238 56.7554C119.038 56.7554 119.07 57.2675 118.27 57.7157C117.405 58.1638 117.181 58.1318 117.405 57.5236Z" fill="white"/>
<path d="M119.935 57.1395C119.199 57.0435 118.975 56.6273 119.455 56.3393C119.583 56.2432 120.159 56.0832 120.735 55.9551C121.6 55.7631 121.76 55.8271 121.76 56.3713C121.76 57.0435 121.087 57.3316 119.935 57.1395Z" fill="white"/>
<path d="M122.395 56.0509C122.395 55.6668 122.427 55.4427 122.491 55.5067C122.523 55.5707 122.779 55.8908 123.003 56.2109C123.387 56.6591 123.355 56.7551 122.907 56.7551C122.587 56.7551 122.395 56.499 122.395 56.0509Z" fill="white"/>
<path d="M117.918 55.8271C117.918 55.6351 118.078 55.411 118.238 55.315C118.43 55.2189 118.558 55.347 118.558 55.6031C118.558 55.8912 118.43 56.1152 118.238 56.1152C118.078 56.1152 117.918 55.9872 117.918 55.8271Z" fill="white"/>
<path d="M119.102 55.3469C118.846 54.7067 121.119 54.0024 121.503 54.6106C121.791 55.1228 121.503 55.3469 120.286 55.603C119.55 55.763 119.23 55.699 119.102 55.3469Z" fill="white"/>
<path d="M122.112 54.3223C122.112 53.9702 122.208 53.8742 122.304 54.1303C122.4 54.3544 122.368 54.6425 122.272 54.7385C122.176 54.8665 122.08 54.6745 122.112 54.3223Z" fill="white"/>
<path d="M119.391 53.8104C119.776 53.1061 120.896 51.9537 121.184 51.9537C121.504 51.9537 121.536 53.4582 121.216 53.6503C121.056 53.7143 120.544 53.8744 120.064 54.0024C119.359 54.1625 119.199 54.1305 119.391 53.8104Z" fill="white"/>
<path d="M121.955 53.0741C121.603 52.1137 121.763 51.6976 122.531 51.5695C123.332 51.4095 123.332 51.4095 122.819 52.4018C122.179 53.6823 122.211 53.6823 121.955 53.0741Z" fill="white"/>
<path d="M121.758 51.1533C121.758 51.0893 122.398 50.6412 123.198 50.193C124.159 49.6168 124.831 49.4248 125.311 49.5528C125.887 49.7449 125.727 49.8729 124.319 50.5451C122.75 51.2494 121.758 51.5055 121.758 51.1533Z" fill="white"/>
<path d="M139.526 22.7918C138.661 21.5434 136.837 19.5267 135.524 18.3103C134.212 17.0939 133.347 16.1016 133.604 16.1016C134.308 16.1016 139.686 17.5741 141.03 18.1503C142.15 18.6304 142.182 18.6944 141.894 19.6868C141.734 20.263 141.606 21.7035 141.606 22.8879C141.606 24.1043 141.51 25.0646 141.382 25.0646C141.222 25.0646 140.422 24.0402 139.526 22.7918Z" fill="white"/>
<path d="M74.3826 119.753C73.0702 119.08 72.7821 118.696 71.1175 115.399C68.7167 110.726 68.6527 109.637 70.9255 112.294C71.8218 113.35 73.9025 115.527 75.535 117.128C78.3199 119.817 78.448 120.009 77.5197 119.881C76.8475 119.785 76.5914 119.849 76.7514 120.105C77.1355 120.681 75.9191 120.521 74.3826 119.753Z" fill="white"/>
<path fill-rule="evenodd" clip-rule="evenodd" d="M128.029 178.073C127.763 177.442 128.06 176.716 128.691 176.45L129.38 176.157C136.086 173.288 139.934 171.565 142.549 168.828C145.165 166.092 145.478 162.072 145.969 159.626C146.104 158.955 147.624 160.134 148.295 160.268C148.966 160.403 149.401 161.057 149.266 161.728C148.675 164.669 147.085 167.472 144.524 170.134C141.971 172.786 137.03 175.629 129.653 178.735C129.022 179.001 128.295 178.704 128.029 178.073Z" fill="#00160A"/>
<path fill-rule="evenodd" clip-rule="evenodd" d="M158.348 50.3502C158.936 50 159.697 50.193 160.047 50.7813C163.554 56.6718 165.432 63.4054 165.432 70.4111C165.432 91.6353 148.227 108.841 127.003 108.841C121.363 108.841 115.893 107.624 110.884 105.307C110.262 105.019 107.915 102.73 110.279 103.661C112.643 104.592 121.79 106.682 127.068 106.682C146.923 106.682 160.97 90.266 160.97 70.4111C160.97 63.8549 158.348 58.0356 157.917 52.0495C157.867 51.3556 157.76 50.7004 158.348 50.3502Z" fill="#00160A"/>
<path fill-rule="evenodd" clip-rule="evenodd" d="M35.5801 144.174C36.0183 143.648 36.8 142.585 37.3261 143.024C39.4842 144.821 41.7871 146.904 44.2505 147.306C46.814 147.724 49.8551 147.724 53.37 147.299C54.0496 147.216 54.6673 147.701 54.7496 148.38C54.8319 149.06 54.3476 149.678 53.6679 149.76C49.9353 150.212 46.6644 150.212 43.8512 149.753C40.938 149.277 38.2288 147.994 35.7393 145.92C35.2132 145.482 35.142 144.701 35.5801 144.174Z" fill="#00160A"/>
<path d="M61.8981 100.802C60.2975 99.5218 56.8724 95.7445 54.2795 92.4154C52.935 90.6548 51.4305 87.0696 50.5342 83.4524C50.1181 81.8198 49.7019 80.3473 49.6059 80.1553C49.4779 79.9952 48.9657 77.7224 48.4535 75.0976C47.6853 71.3843 47.8478 70.188 47.1731 65.7464C46.8874 63.8659 46.6289 62.3695 46.6289 62.3695L47.4612 61.3009C47.9413 60.6607 48.5487 59.6013 48.7736 58.9961C49.798 56.2399 57.3205 47.6003 57.5446 47.8243C57.6086 47.8884 57.3525 49.3929 56.9044 51.1535C56.4882 52.9141 55.9761 55.571 55.752 57.0755C55.4319 59.5723 55.3038 59.8604 54.3115 60.6927C53.0631 61.749 50.6943 65.1422 50.6943 65.8464C50.6943 66.8068 52.1348 66.1665 53.6393 64.598L55.1758 62.9975V64.7581C55.1758 65.9105 54.9517 66.9668 54.5356 67.7991C53.7353 69.3676 53.7353 71.0322 54.5036 72.3126C54.8877 72.9528 55.2398 74.4894 55.4639 76.314C56.4562 84.5728 58.5689 91.7432 62.1862 98.9456C63.0825 100.738 63.7867 102.211 63.7547 102.211C63.6907 102.211 62.8584 101.57 61.8981 100.802Z" fill="white"/>
<path fill-rule="evenodd" clip-rule="evenodd" d="M195.094 120.553L197.399 121.577C197.876 121.798 203.149 124.331 209.482 127.374C219.692 132.28 232.659 138.511 232.738 138.511C232.867 138.511 233.467 137.122 233.603 135.502C233.923 132.013 235.107 127.275 236.484 123.978C237.124 122.506 237.636 120.665 237.636 120.505C237.636 120.432 237.116 120.222 236.264 119.879C235.25 119.47 233.766 118.871 232.13 118.088C224.064 114.215 208.282 106.308 206.33 105.124C204.409 104.003 204.025 103.907 204.025 104.644C204.025 105.604 202.072 110.053 200.568 112.454C199.767 113.767 198.199 116.136 197.078 117.704L195.094 120.553ZM232.193 132.749C233.111 133.281 231.521 134.061 231.137 134.189C228.875 134.382 226.212 133.956 224.031 132.685C222.89 131.876 213.908 126.886 207.949 123.576C205.225 122.062 203.133 120.9 202.711 120.649C201.367 119.849 200.087 118.984 199.862 118.728C199.19 117.864 199.83 117.48 201.719 117.64C202.854 117.736 230.211 131.6 232.193 132.749Z" fill="white"/>
<path d="M172.111 123.434C171.279 123.146 170.382 122.505 169.806 121.769L168.846 120.585L172.239 117.224C177.457 112.102 181.298 106.505 184.755 100.262C185.907 98.1817 189.333 89.7905 189.749 88.8621C190.389 87.5177 190.869 87.0055 192.246 86.2373C193.878 85.2769 195.735 84.9568 196.535 85.501C198.072 86.5254 198.072 89.7584 196.535 95.3283C194.838 101.442 192.566 105.828 187.86 112.134C187.124 113.094 185.747 114.983 184.755 116.295C182.098 119.817 180.37 121.513 178.033 122.826C175.728 124.106 174.384 124.266 172.111 123.434Z" fill="white"/>
<path d="M184.184 122.698L183.512 122.025C183.512 122.025 194.669 107.85 196.668 102.627C198.194 98.6408 199.092 97.5105 200.303 97.5105C200.981 97.5105 201.534 97.6651 201.79 98.0493C202.238 98.7215 202.67 99.5538 202.094 102.403C201.133 107.012 199.661 110.053 195.243 116.616C194.219 118.12 192.907 119.785 192.33 120.361C190.986 121.609 187.961 122.89 186.201 123.178C185.08 123.338 184.76 123.274 184.184 122.698Z" fill="white"/>
<path fill-rule="evenodd" clip-rule="evenodd" d="M202.92 107.875C203.566 106.398 204.026 105.11 204.026 104.644C204.026 103.907 204.41 104.003 206.33 105.124C208.283 106.308 224.064 114.215 232.131 118.088C235.14 119.529 237.637 120.345 237.637 120.505C237.637 120.665 202.236 109.441 202.92 107.875Z" fill="#E7EAEE"/>
<path fill-rule="evenodd" clip-rule="evenodd" d="M93.397 109.701C89.3317 107.044 83.1856 100.802 80.2086 96.3527C75.9512 89.9505 73.1342 83.1002 71.7577 75.7377C70.7654 70.3919 70.7974 62.1651 71.7897 57.3955C72.8141 52.5299 74.1265 48.8166 76.4633 44.111C79.1842 38.6692 82.0652 34.6679 86.3867 30.3464C90.6244 26.1086 71.7897 43.6336 76.4633 74.9894C80.2086 101.266 96.3044 111.617 93.397 109.701Z" fill="#E7EAEE"/>
<defs>
<linearGradient id="paint0_linear_704_412" x1="150" y1="11.2219" x2="150" y2="240.883" gradientUnits="userSpaceOnUse">
<stop stop-color="#0083FD"/>
<stop offset="1" stop-color="#0083FD" stop-opacity="0"/>
</linearGradient>
</defs>
</svg>
