<svg width="250" height="250" viewBox="0 0 250 250" fill="none" xmlns="http://www.w3.org/2000/svg">
<path fill-rule="evenodd" clip-rule="evenodd" d="M212.53 200.748C207.524 157.041 235.799 68.6803 192.33 45.0448C124.899 8.38082 26.5864 59.5901 33.3292 142.28C38.0969 200.748 218.191 250.174 212.53 200.748Z" fill="url(#paint0_linear_697_1637)"/>
<path d="M146.991 65.4757C146.823 64.9851 146.631 64.536 146.568 64.0694C146.438 63.109 146.333 62.1409 146.296 61.1731C146.221 59.1646 146.197 56.821 146.154 54.8114C146.148 54.505 146.087 54.1917 146.581 54.1744C147.075 54.157 149.433 52.6521 149.433 53.7946C149.433 56.1662 149.764 59.796 149.971 62.1263C150.038 62.8793 150.351 63.4928 150.367 64.3671C150.395 65.8407 147.793 65.4584 146.991 65.4757Z" fill="white"/>
<path fill-rule="evenodd" clip-rule="evenodd" d="M114.107 44.0593C113.59 44.104 113.073 44.1816 112.555 44.1882C109.343 44.2289 106.13 44.2505 102.918 44.2909C102.726 44.2933 101.867 44.2958 101.674 44.2983C100.832 44.3095 99.989 44.3222 99.1465 44.337C98.7524 44.344 99.0251 44.3559 98.6312 44.3713C97.2304 44.4261 95.8303 44.5246 94.4299 44.5962C93.6441 44.6364 92.8574 44.6681 92.0735 44.7328C90.025 44.9018 79.9783 45.4253 77.9298 45.5952C77.4464 45.6354 77.1689 45.7556 77.2089 46.3508C77.2991 47.6916 77.3334 72.3707 77.3443 73.7149C77.3475 74.1094 77.457 74.1965 77.8232 74.1654C79.0579 74.0606 88.2947 73.6463 89.5308 73.5585C90.8114 73.4676 92.0915 73.3673 93.373 73.2931C95.1221 73.1918 96.8725 73.1152 98.6218 73.0178C98.873 73.0038 99.1196 72.9219 99.3708 72.8899C100.454 72.7515 101.536 72.604 102.622 72.4905C103.677 72.3801 104.735 72.2891 105.793 72.2216C108.082 72.0755 110.371 71.9204 112.662 71.8245C114.719 71.7383 116.779 71.7275 118.838 71.6814C120.762 71.6382 122.687 71.5892 124.611 71.5485C126.893 71.5003 129.175 71.4526 131.457 71.4151C134.52 71.3647 137.584 71.3314 140.648 71.2766C142.17 71.2493 143.693 71.1928 145.215 71.1448C146.515 71.1039 147.813 71.0398 149.113 71.0149C151.998 70.9595 154.883 70.919 157.768 70.8783C161.189 70.8301 164.61 70.8096 168.03 70.7362C170.429 70.6847 176.492 70.5689 178.889 70.4631C179.006 70.4579 179.211 70.2748 179.213 70.1713C179.237 69.0327 179.227 44.5602 179.228 43.4211C179.229 42.9385 178.95 42.6659 178.515 42.5942C178.004 42.51 177.482 42.4717 176.963 42.4553C175.196 42.3993 169.76 42.3179 167.992 42.3247C161.579 42.3495 155.165 42.3992 148.751 42.4539C148.037 42.46 147.323 42.4659 146.609 42.4723C144.058 42.4954 141.507 42.5259 138.958 42.6002C137.38 42.6461 135.808 42.8639 134.233 42.9843C132.324 43.1301 130.413 43.2562 128.503 43.3886C127.807 43.4368 127.111 43.4775 126.415 43.5234C124.393 43.6569 122.373 43.8264 120.349 43.9154C118.315 44.0049 116.277 44.0147 114.107 44.0593Z" fill="white"/>
<path fill-rule="evenodd" clip-rule="evenodd" d="M73.831 33.8073C72.9437 33.7212 72.0647 33.5484 71.1824 33.4121C71.1223 33.4028 71.0658 33.3709 71.0076 33.3496C71.063 33.3263 71.1168 33.2966 71.1744 33.2818C71.2163 33.2709 71.2632 33.2806 71.3079 33.2795C73.2105 33.235 75.1135 33.204 77.0155 33.1421C79.3022 33.0677 81.5881 32.9697 83.8741 32.8761C84.7495 32.8403 85.6239 32.7789 86.4993 32.7457C87.8878 32.693 89.277 32.6575 90.6656 32.6084C91.7866 32.5689 92.9071 32.5174 94.0279 32.476C96.4927 32.3849 98.9578 32.2996 101.422 32.2059C102.365 32.1701 103.306 32.1074 104.249 32.0757C105.838 32.0224 107.429 31.9885 109.018 31.9378C110.184 31.9007 111.349 31.8467 112.515 31.8061C113.903 31.7578 115.292 31.7197 116.681 31.67C117.757 31.6315 118.833 31.5724 119.909 31.5394C121.633 31.4866 123.357 31.4516 125.081 31.402C126.425 31.3633 127.769 31.3118 129.113 31.2697C130.614 31.2227 132.114 31.1798 133.615 31.1351C135.115 31.0904 136.616 31.0447 138.116 31.0014C139.706 30.9554 141.296 30.9124 142.886 30.8669C144.416 30.8231 145.947 30.7755 147.477 30.7336C149.201 30.6864 150.925 30.6439 152.649 30.5989C154.35 30.5545 156.052 30.5087 157.753 30.4652C159.544 30.4194 161.335 30.376 163.126 30.3308C164.872 30.2867 166.619 30.2572 168.365 30.1918C169.697 30.1419 171.027 30.0407 172.359 29.976C172.556 29.9664 172.758 30.0612 172.956 30.0585C175.708 30.0203 178.459 29.9777 181.211 29.9274C183.27 29.8898 185.328 29.8378 187.387 29.7953C189.647 29.7486 191.907 29.6901 194.168 29.6657C195.34 29.6552 196.111 30.1843 196.388 31.2908C196.525 31.8421 196.453 32.4484 196.457 33.03C196.468 34.5248 196.485 36.0199 196.466 37.5145C196.454 38.4455 196.38 39.3756 196.336 40.3063C196.328 40.4833 196.326 40.6609 196.326 40.8382C196.325 42.7893 196.34 44.7405 196.322 46.6914C196.289 50.1131 196.239 53.5347 196.19 56.9562C196.15 59.7971 196.102 62.6378 196.057 65.4786C196.012 68.3641 195.968 71.2495 195.923 74.135C195.879 76.9758 195.84 79.8167 195.787 82.6574C195.755 84.3368 195.688 86.0156 195.659 87.6951C195.639 88.864 195.668 90.0337 195.653 91.2028C195.615 94.0883 195.572 96.9738 195.518 99.8591C195.488 101.516 195.42 103.173 195.391 104.83C195.37 106.021 195.404 107.213 195.383 108.405C195.354 110.039 195.285 111.673 195.257 113.308C195.236 114.566 195.27 115.826 195.249 117.084C195.223 118.585 195.15 120.085 195.123 121.586C195.102 122.799 195.132 124.013 195.116 125.227C195.079 128.18 195.032 131.132 194.984 134.085C194.943 136.613 194.9 139.141 194.849 141.669C194.812 143.505 194.748 145.34 194.721 147.176C194.7 148.59 194.734 150.006 194.712 151.42C194.689 152.877 194.611 154.332 194.588 155.788C194.565 157.18 194.6 158.574 194.578 159.966C194.556 161.288 194.475 162.609 194.454 163.931C194.431 165.346 194.463 166.761 194.446 168.176C194.411 171.106 194.361 174.037 194.314 176.967C194.272 179.539 194.273 182.114 194.167 184.684C194.064 187.156 194.634 189.448 195.863 191.559C197.115 193.708 198.457 195.806 199.787 197.909C201.103 199.988 202.257 202.152 202.869 204.538C203.305 206.241 203.369 208.009 202.879 209.734C202.712 210.323 201.691 214.391 202.559 215.447C203.674 216.804 205.084 217.413 206.821 217.452C208.513 217.491 210.12 217.079 211.742 216.704C213.715 216.247 215.695 215.917 217.681 216.638C218.669 216.996 219.56 217.503 220.144 218.417C220.233 218.557 220.449 218.791 219.977 218.793C218.834 218.8 217.691 218.87 216.548 218.915C214.262 219.004 211.976 219.096 209.689 219.182C208.368 219.232 207.046 219.274 205.724 219.316C204.246 219.363 202.768 219.409 201.29 219.45C199.566 219.498 197.842 219.545 196.118 219.584C193.97 219.633 191.821 219.678 189.673 219.718C187.033 219.767 184.394 219.814 181.754 219.852C178.243 219.902 174.732 219.937 171.221 219.989C168.827 220.024 166.433 220.078 164.039 220.12C163.629 220.127 163.219 220.118 162.81 220.122C157.869 220.166 152.928 220.211 147.988 220.255C147.556 220.259 147.124 220.252 146.692 220.256C141.639 220.3 136.587 220.345 131.535 220.389C131.08 220.393 130.626 220.386 130.171 220.39C125.164 220.434 120.156 220.479 115.149 220.523C114.716 220.527 114.284 220.52 113.852 220.524C108.8 220.568 103.748 220.613 98.6954 220.657C98.2857 220.66 97.8759 220.654 97.4661 220.658C92.4139 220.702 87.3616 220.747 82.3093 220.791C81.8772 220.795 81.4451 220.788 81.013 220.792C75.9607 220.836 70.9084 220.881 65.8562 220.925C65.4688 220.928 65.0813 220.922 64.6939 220.926C59.5523 220.97 54.4106 221.014 49.269 221.062C49.1869 221.063 49.1052 221.104 49.0234 221.16C49.0234 221.193 48.9563 221.193 48.9228 221.193C48.7422 221.149 48.5955 221.067 48.4479 221.065C47.4428 221.054 46.4375 221.061 45.4323 221.056C45.3362 221.056 45.2404 221.009 45.1445 220.984C45.2258 220.965 45.3075 220.947 45.3881 220.925C47.5379 220.345 49.6726 219.697 51.843 219.209C53.0733 218.932 54.36 218.888 55.6252 218.789C56.6982 218.705 57.7765 218.677 58.853 218.654C59.2609 218.645 59.2271 218.554 59.1198 218.199C58.6684 216.707 58.1494 215.215 57.9102 213.683C57.7115 212.411 57.8197 211.08 57.8863 209.78C57.934 208.848 58.07 207.908 58.2894 207.001C58.5419 205.958 58.875 204.925 59.2694 203.925C60.3101 201.288 62.1608 199.228 64.0738 197.194C65.2172 195.978 66.2546 194.642 67.1911 193.26C67.7574 192.424 68.062 191.404 68.0578 190.342C68.0511 188.667 68.0723 186.991 68.0522 185.316C68.0223 182.832 67.97 180.349 67.9209 177.866C67.8815 175.873 67.8201 173.882 67.7906 171.89C67.7364 168.222 67.7191 164.554 67.6456 160.888C67.6065 158.937 67.4378 156.989 67.4095 155.038C67.3853 153.381 67.5317 151.721 67.5071 150.063C67.4722 147.708 67.3449 145.353 67.2713 142.998C67.2629 142.729 67.3823 142.458 67.3804 142.188C67.3431 137.046 67.2757 131.905 67.2571 126.763C67.2346 120.545 67.2689 114.327 67.2464 108.109C67.2281 103.034 67.126 97.9597 67.1275 92.885C67.1292 87.3188 67.2157 81.7527 67.2484 76.1865C67.267 73.0292 67.2349 69.8715 67.2573 66.7142C67.2746 64.2753 67.3443 61.8368 67.3839 59.3979C67.3961 58.6533 67.3781 57.9082 67.3871 57.1634C67.4288 53.7194 67.4823 50.2755 67.5168 46.8314C67.5341 45.1038 67.5025 43.3757 67.5249 41.6483C67.5459 40.0357 67.6096 38.4238 67.6533 36.8115C67.6586 36.6172 67.6564 36.4228 67.6576 36.2284C67.701 36.4437 67.7589 36.6573 67.7856 36.8748C67.9687 38.3639 68.1505 39.8533 68.3213 41.3439C68.383 41.8819 68.4196 42.423 68.4569 42.9635C68.5499 44.3113 68.6357 45.6595 68.7264 47.0074C68.8594 48.9848 76.9378 50.7994 76.9556 50.5834C77.0271 50.7905 77.1034 50.996 77.1695 51.2048C77.7678 53.0972 78.1427 55.0301 78.3945 57.0022C78.752 59.801 78.7812 62.6049 78.781 65.416C78.7774 101.962 78.7805 138.508 78.7616 175.054C78.7613 175.645 78.9429 175.879 79.4766 176.034C81.2285 176.54 83.03 176.724 84.8168 176.535C88.1961 176.177 94.255 174.989 96.9155 172.779C99.0408 171.014 100.554 168.854 101.453 166.284C101.805 165.279 101.885 164.169 102.004 163.097C102.113 162.117 102.21 161.116 102.129 160.14C101.99 158.483 101.725 156.835 101.48 155.187C101.282 153.847 100.998 152.519 100.82 151.176C100.562 149.218 100.31 147.256 100.158 145.288C100.031 143.637 99.91 141.964 100.037 140.321C100.296 136.963 100.82 133.636 101.747 130.384C102.737 126.908 104.118 123.59 105.835 120.417C107.113 118.057 108.576 115.807 110.336 113.773C111.7 112.197 113.118 110.666 114.556 109.156C115.168 108.513 115.906 107.991 116.564 107.391C119.069 105.107 120.903 102.291 122.796 99.5198C124.273 97.357 122.679 95.1345 124.302 93.0846C126.438 90.3852 129.06 88.2455 132.466 87.3042C133.718 86.9581 135.007 86.7363 136.286 86.495C139.002 85.9826 141.755 86.0139 144.495 86.1105C147.342 86.211 150.047 86.9285 152.478 88.4995C154.481 89.7941 155.934 91.6096 157.173 93.5887C158.621 95.902 159.989 98.267 161.335 100.642C163.065 103.696 164.744 106.778 166.433 109.855C167.342 111.51 168.237 113.172 169.116 114.842C170.941 118.307 177.903 131.955 179.572 135.307C179.634 135.432 179.711 135.55 179.781 135.672C179.845 135.52 179.957 135.37 179.966 135.215C180.067 133.488 180.153 131.76 180.241 130.032C180.332 128.237 180.422 126.442 180.509 124.648C180.6 122.764 180.691 120.88 180.777 118.995C180.869 116.955 180.96 114.914 181.045 112.874C181.138 110.632 181.225 108.391 181.313 106.149C181.36 104.961 181.405 103.774 181.447 102.586C181.494 101.264 181.537 99.9422 181.582 98.6204C181.626 97.3209 181.674 96.0216 181.715 94.7219C181.763 93.1769 181.806 91.6316 181.85 90.0864C181.895 88.4965 181.942 86.9067 181.983 85.3167C182.031 83.4365 182.076 81.5562 182.117 79.6758C182.165 77.5276 182.212 75.3792 182.25 73.2308C182.3 70.4124 182.335 67.5937 182.388 64.7753C182.42 63.0735 182.499 61.3723 182.514 59.6705C182.536 57.1611 182.504 54.6512 182.526 52.1418C182.54 50.5293 182.612 48.9174 182.649 47.305C182.653 47.143 182.596 46.9796 182.567 46.8169C182.429 46.9165 182.271 46.9969 182.157 47.1186C181.286 48.0508 180.184 48.3834 178.944 48.4313C177.037 48.5048 175.237 47.9422 173.407 47.5528C171.655 47.1797 169.894 46.7622 168.098 46.9767C167.03 47.1042 165.972 47.4236 164.948 47.7696C163.296 48.3277 161.724 48.1585 160.159 47.4888C158.641 46.8391 157.137 46.1495 155.591 45.5767C154.198 45.061 152.721 45.0661 151.371 45.6549C150.712 45.9423 150.05 46.5589 149.72 47.1973C148.946 48.6904 147.779 49.385 146.175 49.6488C144.059 49.9968 142.194 49.2856 140.313 48.5134C138.785 47.8863 137.274 47.1802 135.691 46.7385C133.578 46.1489 131.637 46.7886 129.886 48.0487C128.785 48.8408 127.747 49.7522 126.562 50.3882C124.973 51.241 122.656 51.3637 121.402 49.9563C121.182 49.71 120.959 49.4148 120.879 49.1056C120.563 47.8814 119.77 47.6178 118.67 47.4907C117.085 47.3076 115.92 48.1602 114.77 49.0804C113.706 49.9323 112.714 50.8799 111.267 51.1463C110.119 51.3578 109.04 51.2074 108.022 50.7698C106.295 50.0277 104.601 49.2051 102.921 48.3618C101.418 47.6075 99.8122 47.232 98.1994 47.5399C97.1604 47.7383 96.182 48.3845 95.2427 48.9416C94.1033 49.6173 93.0852 50.5064 91.9224 51.1316C89.9217 52.2074 88.129 52.2316 85.5666 51.8117C83.0042 51.3918 76.8224 47.3869 76.5131 46.9767C76.47 46.9196 75.515 33.9706 73.831 33.8073Z" fill="white"/>
<path fill-rule="evenodd" clip-rule="evenodd" d="M112.65 169.91C112.099 165.874 111.947 162.171 112.196 158.8C112.444 155.429 113.209 150.469 114.491 143.92C112.039 150.38 110.582 155.34 110.12 158.8C109.657 162.259 109.926 166.376 110.925 171.149L112.65 169.91Z" fill="url(#paint1_linear_697_1637)"/>
<path fill-rule="evenodd" clip-rule="evenodd" d="M148.702 121.307C151.131 121.075 152.667 121.559 153.13 122.935C153.911 125.26 148.218 128.369 146.21 128.182C145.506 127.536 152.498 125.791 151.866 123.36C151.705 122.741 150.71 122.455 148.829 122.635C148.462 122.67 148.137 122.401 148.102 122.034C148.067 121.668 148.335 121.342 148.702 121.307Z" fill="#00160A"/>
<path fill-rule="evenodd" clip-rule="evenodd" d="M160.687 183.47C160.509 183.046 160.762 180.414 162.158 177.892C164.47 173.717 174.529 172.333 178.295 168.533C183.072 163.713 181.051 158.055 180.792 157.527C180.73 157.4 180.706 157.255 180.664 157.118C180.775 157.19 180.905 157.244 180.993 157.337C182.551 158.971 183.582 160.908 184.058 163.097C184.569 165.443 184.734 167.817 183.58 170.047C183.327 170.535 182.811 170.929 182.34 171.256C180.918 172.243 173.948 174.975 171.999 175.366C170.118 175.743 168.487 176.613 166.756 177.296C165.693 177.715 165.114 178.691 164.281 179.369C163.402 180.083 163.149 180.959 163.228 182.015C163.251 182.326 163.219 182.641 163.233 182.953C163.326 184.96 161.235 184.774 160.687 183.47Z" fill="url(#paint2_linear_697_1637)"/>
<path fill-rule="evenodd" clip-rule="evenodd" d="M120.56 127.667C121.517 127.667 121.874 126.921 121.366 126C120.869 125.08 119.897 124.333 119.184 124.333C118.471 124.333 118.089 125.08 118.342 126C118.605 126.921 119.602 127.667 120.56 127.667Z" fill="#FFB61D"/>
<path fill-rule="evenodd" clip-rule="evenodd" d="M139.226 132C140.183 132 140.54 131.254 140.032 130.333C139.535 129.413 138.563 128.667 137.85 128.667C137.137 128.667 136.755 129.413 137.008 130.333C137.271 131.254 138.268 132 139.226 132Z" fill="#FFB61D"/>
<path fill-rule="evenodd" clip-rule="evenodd" d="M195.835 29.0001C197.007 28.9898 197.778 29.5189 198.055 30.6254C198.193 31.1767 198.12 31.783 198.124 32.3646C198.135 33.8594 198.152 35.3546 198.133 36.8491C198.121 37.7801 198.047 38.7103 198.003 39.6409C197.995 39.818 197.993 39.9955 197.993 40.1728C197.992 42.1239 198.008 44.0751 197.989 46.026C197.956 49.4477 197.906 52.8693 197.857 56.2908C197.817 59.1317 197.769 61.9724 197.724 64.8132C197.679 67.6987 197.635 70.5842 197.59 73.4696C197.546 76.3104 197.507 79.1514 197.454 81.992C197.422 83.6714 197.355 85.3502 197.326 87.0297C197.306 88.1986 197.335 89.3683 197.32 90.5374C197.283 93.4229 197.239 96.3085 197.186 99.1938C197.155 100.851 197.087 102.507 197.058 104.164C197.038 105.356 197.071 106.548 197.05 107.739C197.022 109.374 196.952 111.008 196.924 112.643C196.903 113.901 196.937 115.16 196.916 116.419C196.89 117.919 196.817 119.419 196.79 120.92C196.769 122.134 196.799 123.348 196.784 124.562C196.747 127.514 196.699 130.467 196.651 133.419C196.61 135.947 196.567 138.476 196.517 141.003C196.48 142.839 196.416 144.674 196.388 146.51C196.367 147.925 196.401 149.34 196.379 150.755C196.356 152.211 196.278 153.667 196.255 155.123C196.233 156.515 196.267 157.908 196.245 159.3C196.224 160.623 196.142 161.944 196.121 163.266C196.099 164.681 196.13 166.096 196.113 167.511C196.078 170.441 196.029 173.371 195.981 176.301C195.94 178.874 195.941 181.449 195.834 184.019C195.732 186.491 196.301 188.783 197.53 190.893C198.782 193.043 200.124 195.141 201.455 197.244C202.77 199.322 203.924 201.486 204.536 203.872C204.972 205.576 205.036 207.344 204.546 209.068C204.379 209.658 203.358 213.725 204.227 214.782C205.342 216.139 206.752 216.747 208.488 216.787C210.181 216.826 211.788 216.414 213.41 216.038C215.382 215.582 217.362 215.252 219.348 215.973C220.336 216.331 221.227 216.837 221.811 217.752C221.9 217.891 222.116 218.125 221.644 218.128C220.501 218.134 219.358 218.205 218.215 218.249C215.929 218.339 213.643 218.431 211.357 218.517C210.035 218.566 208.713 218.609 207.391 218.651C205.913 218.698 204.435 218.744 202.957 218.785C201.233 218.833 199.509 218.879 197.785 218.919C195.637 218.968 193.489 219.013 191.34 219.053C188.701 219.102 186.061 219.149 183.421 219.186C179.91 219.237 176.399 219.272 172.888 219.324C170.494 219.359 168.1 219.412 165.706 219.455C165.296 219.462 164.887 219.453 164.477 219.456C159.536 219.5 154.596 219.545 149.655 219.589C149.223 219.593 148.791 219.587 148.359 219.59C143.306 219.634 138.254 219.679 133.202 219.723L131.839 219.724C126.831 219.768 121.823 219.813 116.816 219.857C116.384 219.861 115.952 219.855 115.519 219.858C110.467 219.902 105.415 219.947 100.363 219.991C99.9529 219.995 99.5431 219.989 99.1334 219.992C94.0811 220.036 89.0288 220.082 83.9765 220.125C83.5445 220.129 83.1123 220.123 82.6802 220.126C77.628 220.17 72.5757 220.215 67.5234 220.26C67.136 220.263 66.7485 220.257 66.3611 220.26C61.2195 220.304 56.0779 220.349 50.9363 220.397C50.8542 220.397 50.7725 220.439 50.6906 220.495C50.6906 220.528 50.6236 220.528 50.5901 220.528C50.4094 220.483 50.2627 220.402 50.1151 220.4C49.11 220.389 48.1047 220.396 47.0995 220.391C47.0035 220.39 46.9077 220.344 46.8118 220.319C46.893 220.299 46.9747 220.281 47.0554 220.26C49.2051 219.679 51.3398 219.032 53.5102 218.543C54.7405 218.266 56.0273 218.223 57.2925 218.124C58.3655 218.039 59.4437 218.012 60.5203 217.989C60.9282 217.98 60.8944 217.889 60.7871 217.534C60.3356 216.041 59.8166 214.549 59.5774 213.018C59.3787 211.745 59.4869 210.415 59.5535 209.115C59.6013 208.183 59.7372 207.243 59.9566 206.336C60.2092 205.292 60.5423 204.26 60.9366 203.26C61.9773 200.623 63.828 198.563 65.7411 196.528C66.8845 195.313 67.9218 193.977 68.8583 192.595C69.4246 191.759 69.7292 190.739 69.725 189.677C69.7183 188.001 69.7395 186.326 69.7194 184.65C69.6895 182.167 69.6372 179.683 69.5881 177.2C69.5487 175.208 69.4873 173.216 69.4579 171.224C69.4037 167.557 69.3863 163.889 69.3128 160.222C69.2737 158.271 69.1051 156.323 69.0767 154.373C69.0526 152.715 69.1989 151.055 69.1744 149.398C69.1394 147.042 69.0122 144.688 68.9385 142.333C68.9301 142.064 69.0496 141.792 69.0476 141.523C69.0103 136.381 68.943 131.239 68.9244 126.097C68.9019 119.88 68.9361 113.662 68.9137 107.444C68.8953 102.369 68.7932 97.2944 68.7948 92.2196C68.7965 86.6535 68.883 81.0873 68.9157 75.5211C68.9342 72.3638 68.9021 69.2061 68.9245 66.0489C68.9418 63.6099 69.0115 61.1714 69.0512 58.7325C69.0633 57.9879 69.0454 57.2428 69.0544 56.4981C69.0961 53.054 69.1496 49.6101 69.1841 46.166C69.2014 44.4385 69.1697 42.7103 69.1922 40.9829C69.2131 39.3703 69.2769 37.7584 69.3206 36.1461C69.3258 35.9519 69.3236 35.7574 69.3248 35.563C69.3683 35.7784 69.4261 35.992 69.4528 36.2094C69.636 37.6985 69.8177 39.1879 69.9886 40.6785C70.0502 41.2165 70.0868 41.7577 70.1241 42.2981C70.2171 43.6459 70.3029 44.9941 70.3936 46.342C70.5267 48.3194 70.6704 50.2961 70.7927 52.2741C70.8954 53.934 70.9871 55.5948 71.0604 57.2563C71.1622 59.5643 71.2471 61.8731 71.3299 64.1819C71.3837 65.6821 71.4502 67.1827 71.4607 68.6834C71.5159 76.5504 71.5568 84.4175 71.5983 92.2846C71.6077 94.0793 71.6152 95.8743 71.5962 97.6688C71.5643 100.666 71.5112 103.663 71.4654 106.661C71.4219 109.501 71.3835 112.342 71.3285 115.183C71.3017 116.572 71.2368 117.961 71.2002 119.35C71.1847 119.938 71.201 120.527 71.1971 121.115C71.1532 127.686 71.0879 134.258 71.0725 140.829C71.0652 143.938 71.1456 147.047 71.2008 150.156C71.227 151.634 71.2836 153.113 71.3327 154.591C71.3721 155.779 71.4137 156.966 71.4673 158.154C71.5503 159.994 71.637 161.833 71.7361 163.672C71.8136 165.11 71.904 166.548 72.0039 167.984C72.1291 169.783 72.2595 171.582 72.4092 173.38C72.4659 174.06 72.5528 174.742 72.6885 175.41C72.7345 175.637 72.9302 175.893 73.1308 176.018C74.3976 176.806 75.7115 176.383 76.762 175.598C77.9795 174.689 78.5062 173.353 78.559 171.867C78.6426 169.511 78.6965 167.153 78.6975 164.796C78.7073 141.735 78.7195 118.674 78.6977 95.6124C78.6834 80.5969 78.6138 65.5815 78.5717 50.566C78.5711 50.3501 78.605 50.134 78.6228 49.918C78.6944 50.1251 78.7707 50.3307 78.8367 50.5395C79.435 52.4318 79.8099 54.3648 80.0618 56.3368C80.4193 59.1356 80.4485 61.9395 80.4482 64.7506L80.4443 119.57C80.4422 137.843 80.4383 156.116 80.4288 174.389C80.4285 174.98 80.6101 175.214 81.1438 175.368C82.8957 175.875 84.6973 176.058 86.484 175.869C89.8633 175.512 92.9222 174.323 95.5827 172.114C97.708 170.348 99.2211 168.189 100.12 165.619C100.472 164.614 100.552 163.503 100.671 162.431C100.78 161.452 100.877 160.451 100.796 159.475C100.658 157.817 100.392 156.169 100.148 154.522C99.949 153.182 99.665 151.853 99.4875 150.51C99.2288 148.552 98.9768 146.591 98.8252 144.622C98.6981 142.972 98.5772 141.299 98.7039 139.655C98.9628 136.297 99.4871 132.97 100.414 129.718C101.404 126.242 102.785 122.925 104.502 119.752C105.78 117.392 107.244 115.141 109.003 113.108C110.367 111.532 111.785 110 113.223 108.491C113.835 107.848 114.573 107.326 115.232 106.725C117.736 104.441 119.571 101.625 121.463 98.8544C122.941 96.6916 124.347 94.4691 125.969 92.4193C128.105 89.7199 130.727 87.5801 134.133 86.6388C135.385 86.2927 136.674 86.0709 137.953 85.8296C140.67 85.3173 143.423 85.3485 146.162 85.4452C149.009 85.5456 151.714 86.2631 154.145 87.8342C156.148 89.1287 157.602 90.9442 158.84 92.9233C160.288 95.2367 161.656 97.6016 163.002 99.9766C164.732 103.03 166.412 106.113 168.101 109.19C169.009 110.844 169.904 112.507 170.784 114.177C171.882 116.263 172.513 117.078 173.4 119.35C173.986 120.851 175.023 123.663 175.732 125.05C177.146 127.818 177.391 129.643 178.424 132.212C178.635 132.738 179.748 133.381 180.003 133.967C180.478 135.058 181.444 136.639 181.514 136.76C181.578 136.608 181.624 134.705 181.633 134.549C181.734 132.822 181.821 131.094 181.908 129.367C181.999 127.572 182.089 125.777 182.176 123.982C182.268 122.098 182.358 120.214 182.444 118.33C182.537 116.29 182.627 114.249 182.712 112.208C182.805 109.967 182.892 107.725 182.98 105.484C183.027 104.296 183.072 103.108 183.114 101.92C183.161 100.599 183.204 99.2768 183.249 97.955C183.293 96.6555 183.341 95.3562 183.382 94.0566C183.43 92.5115 183.473 90.9662 183.517 89.421C183.562 87.8311 183.609 86.2413 183.65 84.6513C183.698 82.7711 183.743 80.8908 183.784 79.0105C183.832 76.8622 183.88 74.7139 183.918 72.5654C183.968 69.747 184.002 66.9283 184.055 64.1099C184.087 62.4081 184.166 60.7069 184.181 59.0051C184.203 56.4957 184.171 53.9858 184.193 51.4764C184.207 49.8639 184.279 48.252 184.317 46.6396C184.32 46.4776 184.263 46.3143 184.234 46.1516C184.096 46.2511 183.938 46.3316 183.825 46.4533C182.953 47.3854 181.852 47.7181 180.611 47.7659C178.704 47.8394 176.904 47.2769 175.075 46.8874C173.322 46.5143 171.561 46.0968 169.765 46.3113C168.698 46.4388 167.639 46.7582 166.615 47.1043C164.963 47.6623 163.391 47.4931 161.826 46.8234C160.309 46.1737 158.805 45.4841 157.258 44.9113C155.866 44.3956 154.388 44.4007 153.038 44.9895C152.379 45.277 151.718 45.8935 151.387 46.5319C150.614 48.025 149.446 48.7196 147.842 48.9834C145.726 49.3314 143.861 48.6202 141.98 47.848C140.453 47.221 138.941 46.5148 137.358 46.0731C135.246 45.4835 133.304 46.1232 131.553 47.3833C130.452 48.1755 129.415 49.0869 128.23 49.7228C126.64 50.5756 124.323 50.6983 123.069 49.2909C122.85 49.0446 122.627 48.7494 122.547 48.4402C122.23 47.216 121.438 46.9524 120.337 46.8253C118.752 46.6422 117.587 47.4948 116.438 48.4151C115.373 49.2669 114.381 50.2146 112.935 50.481C111.786 50.6924 110.707 50.542 109.689 50.1044C107.962 49.3623 106.268 48.5397 104.588 47.6964C103.085 46.9421 101.479 46.5667 99.8666 46.8745C98.8276 47.0729 97.8493 47.7191 96.9099 48.2762C95.7706 48.9519 94.7524 49.841 93.5896 50.4663C91.589 51.542 89.4406 51.5871 87.2338 51.1463C84.9444 50.6891 83.0591 49.572 81.4729 47.9053C81.1204 47.5349 80.8326 47.1022 80.5233 46.692C80.4802 46.6349 80.4844 46.5421 80.4667 46.4658C80.5298 46.4982 80.6029 46.5193 80.6548 46.5646C82.3256 48.0237 84.2359 48.9268 86.4507 49.2462C89.6508 49.7077 92.6154 49.1723 95.2818 47.3117C96.0273 46.7915 96.6381 46.0817 97.3664 45.5328C98.5143 44.6676 99.8714 44.7086 101.199 44.8691C103.689 45.1704 105.851 46.4662 108.181 47.2547C110.196 47.9368 112.266 48.4587 114.398 47.6295C115.148 47.3378 115.776 46.9282 116.241 46.2416C117.055 45.0369 118.82 44.6036 120.161 44.7482C122.323 44.9813 124.196 46.0563 126.248 46.5802C127.689 46.9482 129.134 47.197 130.607 46.6933C131.403 46.4213 131.958 45.8771 132.386 45.2004C133.078 44.1051 134.129 43.7151 135.337 43.6066C137.048 43.4531 138.588 43.9934 140.097 44.736C141.545 45.4489 143.013 46.1789 144.629 46.3984C145.937 46.5761 147.231 46.3161 148.444 45.7687C150.345 44.9106 152.221 43.9953 154.139 43.1764C155.981 42.3899 157.773 42.5447 159.497 43.6268C160.444 44.2217 161.426 44.7857 162.45 45.2291C163.677 45.7601 164.984 45.5911 166.232 45.2578C167.914 44.8083 169.547 44.1541 171.244 43.7919C172.424 43.5404 173.647 43.6364 174.608 44.6601C175.504 45.6154 176.688 45.8519 177.914 45.5031C179.826 44.9589 181.708 44.3123 183.606 43.7194C184.542 43.4271 185.479 43.1444 186.476 43.4679C187.82 43.9038 187.971 44.1241 187.807 45.5209C187.714 46.3101 187.603 47.0981 187.544 47.8899C187.473 48.8523 187.458 49.8188 187.402 50.7825C187.274 52.9612 187.138 55.1395 187.001 57.3176C186.916 58.6659 186.814 60.0131 186.736 61.3618C186.637 63.089 186.559 64.8173 186.465 66.5448C186.38 68.0941 186.278 69.6425 186.2 71.1921C186.101 73.1651 186.02 75.139 185.929 77.1124C185.888 78.0099 185.835 78.907 185.797 79.8046C185.704 81.979 185.617 84.1536 185.527 86.3281C185.484 87.3819 185.434 88.4355 185.394 89.4894C185.302 91.9543 185.214 94.4192 185.125 96.8842C185.08 98.139 185.034 99.3937 184.992 100.649C184.945 102.06 184.901 103.471 184.857 104.882C184.812 106.338 184.767 107.794 184.724 109.25C184.677 110.817 184.633 112.385 184.589 113.952C184.544 115.609 184.499 117.266 184.455 118.923C184.41 120.669 184.364 122.415 184.322 124.162C184.275 126.064 184.232 127.967 184.187 129.87C184.142 131.795 184.097 133.72 184.053 135.645C184.008 137.659 183.963 139.673 183.919 141.687L183.832 145.85C183.817 146.544 183.8 147.238 183.782 147.931C183.753 149.053 183.696 150.173 183.649 151.294C183.647 151.355 183.622 151.416 183.608 151.477C183.578 151.416 183.534 151.359 183.519 151.295C183.025 149.198 182.478 147.111 182.062 144.999C181.781 143.574 181.664 142.115 181.514 140.667C181.426 139.811 181.418 138.947 181.371 138.087C181.366 138.005 181.336 137.924 181.317 137.842C181.291 137.912 181.245 137.982 181.241 138.054C181.083 140.747 180.61 143.376 179.662 145.911C179.387 146.647 179.155 147.399 178.899 148.142C178.865 148.239 178.806 148.326 178.758 148.418C178.746 148.297 178.694 148.165 178.726 148.057C178.881 147.542 179.026 147.02 179.233 146.525C180.183 144.253 180.131 141.858 180.003 139.486C179.907 137.711 179.463 135.97 178.733 134.326C178.689 134.227 178.452 133.764 178.45 133.641C178.45 133.621 178.362 133.602 178.315 133.582C178.351 133.747 178.387 133.912 178.424 134.077C178.513 135.782 178.665 138.154 178.675 139.86C178.688 141.851 178.355 143.147 177.815 145.063C177.529 146.078 177.16 147.069 176.826 148.071C176.804 148.14 176.764 148.203 176.733 148.269C176.716 148.187 176.66 148.088 176.687 148.025C177.57 145.98 177.473 143.789 177.603 141.641C177.725 139.632 177.832 137.607 177.724 135.601C177.572 132.801 177.046 130.05 175.875 127.465C175.849 127.408 175.778 127.371 175.753 127.314C175.667 127.124 175.592 126.928 175.513 126.734C175.462 126.976 175.342 127.226 175.371 127.458C175.466 128.236 175.669 129.002 175.732 129.781C175.859 131.371 175.961 132.966 176.001 134.561C176.046 136.355 176.098 138.156 175.986 139.943C175.877 141.69 175.567 143.424 175.34 145.163C175.212 146.135 175.074 147.107 174.936 148.078C174.927 148.142 174.878 148.2 174.847 148.26C174.833 148.199 174.802 148.136 174.807 148.077C174.847 147.626 174.895 147.175 174.939 146.725C174.984 146.252 175.055 145.78 175.068 145.306C175.124 143.381 175.196 141.456 175.197 139.531C175.198 137.696 175.138 135.859 175.066 134.025C175.009 132.541 174.917 131.059 174.799 129.579C174.643 127.618 174.449 125.661 174.267 123.702C174.233 123.34 174.183 122.979 174.131 122.619C174.121 122.548 174.065 122.484 174.03 122.416C173.975 122.487 173.879 122.554 173.873 122.628C173.817 123.323 173.768 124.02 173.735 124.717C173.682 125.837 173.657 126.959 173.596 128.079C173.471 130.369 173.337 132.659 173.194 134.949C173.119 136.141 173.005 137.331 172.931 138.524C172.788 140.858 172.666 143.193 172.524 145.527C172.448 146.764 172.337 147.999 172.26 149.236C172.119 151.526 172.001 153.817 171.85 156.106C171.798 156.898 171.997 159.481 171.968 159.836C171.797 161.937 171.203 163.947 170.486 165.917C170.346 166.301 170.06 166.696 169.732 166.933C168.806 167.6 168.194 167.495 167.706 166.331C167.586 166.046 167.523 165.737 167.432 165.439C167.42 165.4 167.4 165.363 167.384 165.325C167.356 165.39 167.318 165.453 167.3 165.521C167.119 166.206 167.013 166.922 166.743 167.569C166.473 168.217 166.102 168.847 165.662 169.394C165.13 170.057 164.161 170.091 163.544 169.503C163.192 169.168 163.196 169.595 163.168 169.66C162.891 170.304 162.704 170.992 162.382 171.611C161.882 172.576 161.018 173.009 159.942 172.935C159.461 172.902 159.369 173.05 159.378 173.508C159.399 174.702 158.925 175.674 157.857 176.268C157.596 176.413 157.231 176.443 156.923 176.416C156.486 176.378 156.399 176.538 156.434 176.93C156.47 177.329 156.448 177.733 156.441 178.135C156.426 179.088 155.771 179.755 154.831 179.782C154.117 179.803 153.983 180.002 154.265 180.621C154.549 181.243 154.103 181.841 153.264 181.923C152.411 182.006 151.7 181.813 151.024 181.166C148.245 178.504 146.116 175.394 144.528 171.917C143.498 169.662 142.694 167.313 142.378 164.836C142.154 163.084 141.958 161.325 141.847 159.563C141.721 157.561 142.036 155.59 142.444 153.63C143.216 149.917 144.66 146.427 145.947 142.884C146.245 142.065 146.456 141.212 146.651 140.361C146.989 138.888 147.311 137.41 147.581 135.924C147.675 135.405 147.614 134.853 147.578 134.319C147.572 134.23 147.315 134.071 147.197 134.09C146.177 134.256 145.158 134.433 144.148 134.65C142.418 135.021 140.764 135.598 139.163 136.371C138.571 136.658 137.829 136.626 137.158 136.76C136.087 136.974 135.021 137.212 133.95 137.421C133.727 137.465 133.489 137.423 133.258 137.429C132.862 137.44 132.21 137.325 132.12 137.499C131.878 137.964 131.805 138.553 131.792 139.096C131.722 142.025 131.654 144.956 131.661 147.886C131.665 149.413 131.82 150.94 131.916 152.466C131.998 153.77 132.059 155.076 132.192 156.375C132.327 157.69 132.551 158.996 132.715 160.309C132.824 161.185 132.881 162.068 132.99 162.945C133.154 164.257 133.35 165.566 133.521 166.878C133.664 167.983 133.79 169.09 133.925 170.196C134.013 170.919 134.101 171.642 134.197 172.363C134.206 172.428 134.266 172.523 134.321 172.539C135.326 172.833 135.55 173.716 135.792 174.547C136.171 175.846 136.587 177.147 136.806 178.477C136.973 179.496 136.971 180.575 136.843 181.602C136.713 182.648 136.358 183.669 136.064 184.689C135.621 186.229 134.742 187.528 133.738 188.752C133.673 188.832 133.641 188.94 133.594 189.035C133.692 189.033 133.789 189.031 133.887 189.031C134.066 189.03 134.244 189.03 134.423 189.03H142.532C144.595 189.03 146.657 189.046 148.72 189.027C152.097 188.995 155.474 188.941 158.851 188.897C159.194 188.893 159.536 188.901 159.879 188.896C162.809 188.852 165.739 188.807 168.67 188.763C168.968 188.758 169.266 188.77 169.564 188.761C172.034 188.688 174.505 188.608 176.975 188.54C177.218 188.534 177.463 188.627 177.707 188.624C180.66 188.586 183.612 188.544 186.564 188.492C188.579 188.457 190.593 188.401 192.607 188.363C193.167 188.352 193.466 188.23 193.458 187.529C193.437 185.605 193.528 183.679 193.567 181.754C193.58 181.144 193.596 180.531 193.564 179.922C193.499 178.72 192.601 178.244 191.567 178.191C189.511 178.087 187.45 178.058 185.391 178.046C181.809 178.024 178.227 178.033 174.645 178.046C173.994 178.048 173.342 178.131 172.69 178.172C172.605 178.177 172.519 178.156 172.433 178.148C172.485 178.069 172.533 177.987 172.589 177.911C173.145 177.162 173.981 176.938 174.824 176.85C175.916 176.737 177.024 176.794 178.116 176.686C179.322 176.566 180.516 176.34 181.716 176.166C181.847 176.147 181.984 176.166 182.118 176.163C185.632 176.074 189.147 175.988 192.662 175.883C192.821 175.878 193.064 175.73 193.116 175.592C193.533 174.474 193.767 173.358 193.657 172.115C193.539 170.79 193.763 169.435 193.836 168.093C193.844 167.96 193.837 167.825 193.837 167.691C193.837 166.53 193.827 165.368 193.839 164.207C193.879 160.517 193.922 156.827 193.973 153.138C194.009 150.609 194.061 148.081 194.105 145.553C194.151 142.936 194.194 140.319 194.24 137.701C194.284 135.143 194.329 132.585 194.374 130.027L194.508 122.309C194.552 119.728 194.597 117.148 194.642 114.568C194.686 111.965 194.73 109.362 194.776 106.759C194.82 104.231 194.866 101.703 194.91 99.1752C194.955 96.5724 194.999 93.9697 195.044 91.367C195.088 88.7719 195.133 86.1768 195.178 83.5817C195.222 81.0537 195.268 78.5256 195.312 75.9976C195.357 73.3802 195.401 70.7627 195.446 68.1453L195.58 60.4941C195.625 57.8991 195.669 55.304 195.714 52.7089C195.758 50.2032 195.804 47.6975 195.848 45.1918C195.894 42.5074 195.933 39.8228 195.984 37.1385C196.02 35.2281 196.062 33.3177 196.123 31.408C196.136 31.0068 196.071 30.8474 195.607 30.8596C192.946 30.9295 190.283 30.9554 187.621 31.008C185.934 31.0413 184.247 31.0968 182.561 31.1395C180.725 31.186 178.889 31.2278 177.054 31.2744C175.375 31.317 173.695 31.3647 172.016 31.4076C170.203 31.4539 168.39 31.4963 166.576 31.5423C164.875 31.5855 163.173 31.6327 161.472 31.6757C159.636 31.722 157.801 31.7615 155.965 31.8113C154.554 31.8497 153.143 31.9074 151.732 31.9422C149.628 31.9941 147.524 32.03 145.421 32.0792C143.742 32.1185 142.062 32.1693 140.383 32.2117C138.525 32.2585 136.667 32.2997 134.81 32.3468C133.153 32.3888 131.496 32.4374 129.839 32.4797C128.003 32.5266 126.168 32.5655 124.332 32.6156C122.943 32.6535 121.555 32.7122 120.166 32.7463C118.04 32.7986 115.914 32.8344 113.788 32.8834C112.064 32.923 110.34 32.9726 108.616 33.0161C106.803 33.0619 104.99 33.1044 103.177 33.1508C101.497 33.1937 99.8181 33.2416 98.1389 33.2839C96.281 33.3308 94.4233 33.3896 92.5651 33.4152C88.5629 33.4705 84.5602 33.5519 80.5581 33.5316C78.8706 33.523 77.1823 33.3052 75.4982 33.1419C74.6109 33.0559 73.7319 32.8831 72.8496 32.7467C72.7896 32.7374 72.733 32.7056 72.6748 32.6842C72.7303 32.6609 72.7841 32.6313 72.8416 32.6164C72.8835 32.6056 72.9305 32.6152 72.9751 32.6141C74.8777 32.5696 76.7808 32.5386 78.6828 32.4767C80.9694 32.4023 83.2553 32.3044 85.5413 32.2107C86.4167 32.1749 87.2911 32.1135 88.1666 32.0803C89.5551 32.0276 90.9442 31.9921 92.3329 31.9431C93.4538 31.9035 94.5743 31.8521 95.6952 31.8106C98.16 31.7195 100.625 31.6342 103.09 31.5406C104.032 31.5048 104.973 31.442 105.916 31.4104C107.506 31.357 109.096 31.3231 110.685 31.2725C111.851 31.2353 113.016 31.1813 114.182 31.1408C115.57 31.0925 116.959 31.0544 118.348 31.0047C119.424 30.9661 120.5 30.907 121.576 30.874C123.3 30.8212 125.024 30.7862 126.748 30.7366C128.092 30.6979 129.436 30.6464 130.78 30.6043C132.281 30.5573 133.781 30.5144 135.282 30.4697C136.782 30.4251 138.283 30.3794 139.783 30.336C141.373 30.2901 142.963 30.247 144.553 30.2015C146.083 30.1577 147.614 30.1101 149.144 30.0682C150.868 30.021 152.592 29.9785 154.316 29.9336C156.018 29.8892 157.719 29.8433 159.421 29.7998C161.212 29.754 163.002 29.7107 164.793 29.6654C166.54 29.6213 168.286 29.5918 170.032 29.5264C171.364 29.4765 172.694 29.3753 174.026 29.3106C174.224 29.301 174.425 29.3958 174.623 29.3931C177.375 29.3549 180.126 29.3124 182.878 29.2621C184.937 29.2244 186.996 29.1724 189.055 29.1299C191.315 29.0832 193.575 29.0247 195.835 29.0001ZM152.463 204.455C151.069 204.491 149.677 204.621 148.285 204.713C146.982 204.799 145.678 204.882 144.376 204.982C142.756 205.107 141.137 205.248 139.517 205.383C137.92 205.516 136.324 205.66 134.726 205.782C132.817 205.927 130.908 206.11 128.996 206.173C126.09 206.269 123.182 206.278 120.274 206.319C119.627 206.328 118.975 206.366 118.332 206.312C116.483 206.158 114.638 205.961 112.791 205.785C111.801 205.691 110.809 205.618 109.82 205.514C108.218 205.345 106.622 205.091 105.016 205C103.45 204.911 101.874 204.963 100.304 204.986C99.0711 205.003 97.8378 205.047 96.6073 205.119C94.6516 205.234 92.6976 205.379 90.7433 205.517C88.9001 205.647 87.0574 205.783 85.2146 205.919C84.0231 206.006 82.8318 206.097 81.6404 206.186C79.8422 206.321 78.044 206.454 76.2458 206.589C75.0544 206.678 73.8632 206.769 72.6716 206.856C70.8065 206.992 68.9416 207.131 67.0758 207.257C65.5948 207.356 64.1121 207.431 62.631 207.529C61.7936 207.585 61.5323 207.871 61.5532 208.728C61.5647 209.202 61.6393 209.674 61.6808 210.147C61.8606 212.194 62.0247 214.244 62.2262 216.289C62.284 216.876 62.3459 217.534 62.9636 217.832C63.3309 218.01 63.7758 218.103 64.1853 218.101C65.44 218.096 66.6942 217.998 67.949 217.987C70.4133 217.967 72.8779 217.996 75.3422 217.978C79.7683 217.945 84.1943 217.892 88.6203 217.848C89.0299 217.844 89.4397 217.854 89.8493 217.846C92.1312 217.804 94.413 217.742 96.6951 217.717C101.612 217.661 106.53 217.617 111.447 217.582C113.867 217.565 116.287 217.594 118.706 217.576C123.043 217.543 127.38 217.49 131.716 217.446C132.148 217.442 132.581 217.452 133.012 217.444C135.294 217.402 137.576 217.34 139.858 217.314C144.776 217.259 149.693 217.215 154.61 217.18C157.008 217.163 159.405 217.192 161.803 217.174C166.162 217.141 170.521 217.088 174.88 217.044C175.312 217.039 175.744 217.049 176.176 217.042C178.904 216.999 181.633 216.943 184.362 216.913C186.237 216.893 188.114 216.924 189.99 216.906C193.634 216.872 197.278 216.821 200.923 216.774C201.722 216.763 202.328 216.192 202.412 215.345C202.601 213.433 202.773 211.518 202.952 209.47C202.996 208.774 203.068 208.079 203.08 207.382C203.097 206.323 202.564 205.917 201.515 206.045C199.489 206.293 197.461 206.636 195.427 206.69C192.412 206.77 189.39 206.654 186.372 206.579C184.956 206.544 183.541 206.424 182.128 206.317C180.574 206.199 179.022 206.058 177.47 205.917C176.095 205.791 174.722 205.648 173.348 205.517L170.511 205.244C169.566 205.153 168.62 205.065 167.674 204.984C165.921 204.833 164.168 204.683 162.413 204.587C160.848 204.501 159.279 204.469 157.711 204.449C155.962 204.427 154.211 204.41 152.463 204.455ZM106.716 191.644C105.381 191.711 104.047 191.784 102.711 191.843C101.502 191.897 100.291 191.934 99.0811 191.979C97.8934 192.023 96.7057 192.07 95.5179 192.113C93.0085 192.203 90.499 192.291 87.9896 192.382C86.8464 192.423 85.7037 192.478 84.5604 192.513C82.9038 192.565 81.2466 192.597 79.5901 192.653C78.8708 192.677 78.1482 192.703 77.4354 192.793C76.7478 192.881 76.076 193.112 75.388 193.17C74.527 193.243 73.6407 193.262 73.0619 192.396C73.0202 192.334 72.6929 192.364 72.6881 192.389C72.3788 193.957 71.353 195.075 70.2933 196.155C69.4267 197.038 68.4938 197.856 67.6095 198.722C66.4954 199.814 65.366 200.893 64.3095 202.039C63.5245 202.89 62.843 203.837 62.1213 204.747C62.0496 204.837 62.0194 204.96 61.9699 205.068C62.0975 205.083 62.2256 205.116 62.3526 205.112C63.6968 205.071 65.041 205.029 66.3849 204.979C67.4165 204.941 68.4474 204.884 69.4791 204.848C70.9346 204.797 72.3916 204.778 73.846 204.705C74.9499 204.65 76.05 204.524 77.1531 204.446C79.1744 204.305 81.197 204.181 83.2184 204.04C84.3437 203.962 85.4703 203.888 86.5915 203.768C88.0169 203.615 89.4359 203.404 90.8604 203.242C91.8484 203.13 92.8421 203.07 93.8312 202.967C95.4558 202.798 97.0754 202.566 98.7035 202.449C99.8445 202.368 100.996 202.416 102.143 202.439C103.264 202.46 104.389 202.474 105.504 202.58C106.798 202.704 108.081 202.934 109.371 203.101C110.498 203.248 111.63 203.353 112.755 203.511C114.207 203.714 115.653 203.959 117.103 204.172C117.475 204.226 117.854 204.229 118.23 204.256C117.923 203.94 117.646 203.585 117.303 203.315C115.584 201.964 114.183 200.304 112.909 198.566C111.752 196.986 110.82 195.242 109.801 193.562C109.107 192.417 108.29 191.478 106.716 191.644ZM192.775 190.762C191.704 190.865 190.624 190.871 189.548 190.905C187.891 190.957 186.234 191 184.577 191.04C182.563 191.089 180.549 191.142 178.535 191.172C174.868 191.226 171.201 191.265 167.534 191.308C167.035 191.314 166.535 191.301 166.037 191.31C163.665 191.352 161.293 191.398 158.788 191.443H145.072C140.895 191.443 136.718 191.426 132.541 191.461C131.874 191.466 131.206 191.715 130.879 192.414C130.303 193.649 129.788 194.916 129.162 196.124C127.682 198.977 125.588 201.36 123.23 203.507C122.734 203.958 123.072 204.105 123.349 204.152C123.856 204.237 124.39 204.208 124.908 204.17C126.507 204.052 128.104 203.91 129.701 203.773C131.232 203.642 132.761 203.502 134.292 203.373C135.934 203.234 137.577 203.107 139.218 202.969C140.749 202.84 142.278 202.681 143.81 202.573C145.987 202.419 148.165 202.279 150.345 202.174C151.4 202.124 152.46 202.133 153.516 202.173C155.066 202.233 156.615 202.335 158.163 202.436C160.074 202.56 161.984 202.702 163.894 202.836C165.175 202.925 166.456 203.014 167.736 203.104C169.624 203.237 171.512 203.371 173.4 203.506C174.636 203.594 175.872 203.686 177.108 203.773C178.411 203.865 179.715 203.951 181.018 204.043C182.254 204.129 183.49 204.231 184.727 204.307C186.342 204.407 187.959 204.566 189.574 204.559C191.66 204.549 193.749 204.455 195.828 204.294C197.707 204.148 199.576 203.87 201.448 203.637C202.42 203.516 202.783 202.798 202.279 201.977C200.409 198.93 198.51 195.902 196.658 192.844C195.76 191.362 194.553 190.592 192.775 190.762ZM118.581 117.326C118.486 117.597 118.421 117.884 118.291 118.138C117.847 119.005 117.375 119.857 116.924 120.721C115.891 122.701 114.867 124.653 112.986 126.042C111.76 126.946 110.325 127.624 109.45 128.976C109.192 129.375 108.738 129.646 108.471 130.04C107.992 130.746 107.609 131.517 107.145 132.234C105.345 135.014 103.7 137.866 102.74 141.065C101.996 143.543 101.467 146.055 101.494 148.655C101.508 149.999 101.54 151.345 101.635 152.686C101.714 153.795 101.89 154.897 102.036 156C102.25 157.608 102.513 159.209 102.677 160.821C102.744 161.484 102.533 162.172 102.577 162.84C102.653 163.995 102.765 165.155 102.977 166.291C103.383 168.457 103.845 170.614 104.331 172.764C104.828 174.964 105.396 177.148 105.909 179.345C106.693 182.708 107.839 185.943 109.351 189.043C110.876 192.169 112.693 195.127 114.759 197.923C115.745 199.257 116.772 200.586 117.945 201.752C119.251 203.049 120.954 203.303 122.324 201.757C123.168 200.806 123.967 199.814 124.743 198.807C126.433 196.609 128.097 194.39 129.768 192.178C129.827 192.099 129.854 191.996 129.895 191.904C129.792 191.884 129.689 191.862 129.585 191.846C128.787 191.722 127.969 191.674 127.194 191.464C124.648 190.774 122.601 189.182 120.542 187.635C118.594 186.172 116.679 184.666 114.741 183.191C114.431 182.956 114.142 182.95 113.909 183.368C113.271 184.514 112.605 185.644 111.939 186.774C111.828 186.962 111.662 187.118 111.521 187.288C111.349 187.078 111.143 186.888 111.011 186.655C110.518 185.779 111.017 184.968 111.26 184.17C111.773 182.485 112.153 180.791 112.081 179.015C112.019 177.471 111.938 175.925 111.961 174.381C111.977 173.332 112.361 172.3 113.267 171.752C113.956 171.335 113.855 170.849 113.789 170.311C113.55 168.384 113.155 166.467 113.046 164.534C112.905 162.042 112.968 159.537 113.418 156.93C113.463 156.636 113.491 156.339 113.555 156.05C113.851 154.699 114.088 153.331 114.475 152.007C115.009 150.181 115.626 148.378 116.271 146.587C116.641 145.56 118.364 142.077 118.24 143.122C118.189 143.697 117.467 146.49 117.046 147.829C116.392 149.907 115.742 151.99 115.196 154.097C114.536 156.645 114.042 159.23 114.091 161.883C114.118 163.316 114.158 164.75 114.228 166.182C114.288 167.398 114.399 168.61 114.491 169.824C114.522 170.235 114.821 170.54 115.048 170.398C115.474 170.131 115.896 169.855 116.316 169.578C118.437 168.179 120.31 166.492 122.043 164.646C122.375 164.293 122.788 163.916 122.906 163.48C123.253 162.206 123.502 160.901 123.728 159.598C123.911 158.545 124.006 157.477 124.141 156.416C124.364 154.654 124.674 152.898 124.776 151.13C124.833 150.147 124.518 149.146 124.415 148.148C124.315 147.167 124.323 146.173 124.19 145.198C123.993 143.751 123.777 142.301 123.449 140.881C123.218 139.879 122.946 138.828 122.417 137.968C121.342 136.225 120.009 134.641 118.919 132.906C118.071 131.558 117.336 130.084 117.2 128.473C117.065 126.868 117.115 125.24 117.209 123.63C117.233 123.211 117.643 122.625 118.021 122.47C118.421 122.305 118.756 122.806 118.918 123.261C119.162 123.941 119.438 124.609 119.702 125.281C119.729 125.352 119.764 125.419 119.796 125.487C119.814 125.406 119.853 125.323 119.846 125.243C119.838 125.141 119.789 125.044 119.766 124.943C119.422 123.473 119.017 122.02 119.03 120.483C119.037 119.717 118.877 118.948 118.775 118.182C118.736 117.893 118.647 117.611 118.581 117.326ZM102.668 176.959C101.952 177.032 101.232 177.063 100.514 177.1C99.5277 177.151 98.5413 177.195 97.5548 177.235C95.2698 177.327 92.9845 177.414 90.5653 177.504C88.682 177.593 86.7994 177.704 84.9152 177.766C82.7686 177.836 80.6206 177.888 78.4732 177.892C77.6826 177.893 76.8907 177.743 76.1013 177.647C75.0409 177.517 73.9858 177.312 72.9221 177.252C71.6961 177.182 71.3468 177.583 71.3307 178.811C71.2996 181.177 71.2619 183.544 72.0052 185.834C72.305 186.757 72.5144 187.743 72.9937 188.567C73.7115 189.802 74.996 190.344 76.3654 190.345C78.8962 190.346 81.427 190.193 83.9578 190.102C85.1228 190.06 86.2876 190.012 87.4526 189.969C89.8717 189.879 92.2909 189.791 94.71 189.7C95.7857 189.659 96.8609 189.597 97.9369 189.569C100.062 189.515 102.187 189.48 104.312 189.431L104.467 189.428C105.552 189.4 106.627 189.374 107.266 190.556C107.323 190.661 107.647 190.621 107.847 190.648C107.86 190.477 107.937 190.279 107.878 190.139C107.358 188.925 106.819 187.719 106.277 186.515C104.956 183.576 103.994 180.518 103.231 177.393C103.159 177.098 103.031 176.923 102.668 176.959ZM121.255 169.081C119.67 169.897 118.084 170.722 116.562 171.649C115.884 172.061 115.275 172.661 114.792 173.295C114.419 173.786 114.287 174.461 114.056 175.057C113.45 176.618 113.938 178.045 114.788 179.308C116.115 181.279 117.611 183.134 119.451 184.668C120.584 185.613 128.833 191.31 131.882 188.724C132.305 188.365 132.484 187.816 132.731 187.334C133.74 185.364 135.368 183.698 135.708 181.404C135.843 180.487 135.964 179.541 135.886 178.626C135.797 177.566 135.477 176.527 135.267 175.477C135.129 174.787 135.09 174.055 134.401 173.626C134.314 173.571 134.218 173.53 134.126 173.483C134.104 173.585 134.048 173.693 134.064 173.789C134.271 174.986 134.393 176.176 134.808 177.36C135.307 178.785 135.049 180.32 134.465 181.753C134.205 182.39 133.307 182.694 132.694 182.62C130.983 182.414 129.562 181.575 128.323 180.411C126.574 178.767 125.484 176.713 124.61 174.421C124.409 173.834 124.215 173.245 124.005 172.661C123.654 171.691 123.337 170.704 122.92 169.763C122.591 169.02 121.908 168.744 121.255 169.081ZM151.251 105.287C151.306 105.456 151.329 105.644 151.421 105.789C151.969 106.659 152.625 106.807 153.073 107.724C154.105 109.838 154.874 111.381 155.779 113.552C156.13 114.392 156.165 115.488 156.457 116.876C156.468 116.927 156.621 117.073 156.732 117.138C157.306 117.474 157.929 117.743 158.458 118.138C159.973 119.268 160.458 120.515 159.998 122.124C159.186 124.961 158.223 123.543 158.8 121.849C159.035 121.161 158.86 120.458 158.317 119.956C158.136 119.789 157.325 119.38 156.323 118.915C156.228 118.871 156.297 119.179 155.893 119.995C155.772 120.239 155.303 120.944 155.17 120.586C154.942 119.975 155.364 118.477 155.17 118.39L154.962 118.298C153.367 117.591 151.77 116.931 151.574 116.907C150.978 116.833 150.424 117.125 150.419 118.19C150.405 120.797 149.371 122.904 147.389 124.565C145.627 126.042 143.662 126.813 141.305 126.451C139.58 126.185 138.107 125.463 136.829 124.31C135.703 123.294 134.849 122.092 134.465 120.601C134.373 120.243 134.273 120.267 134.027 120.495C132.797 121.634 131.984 123.02 131.524 124.62C131.469 124.811 131.457 125.014 131.425 125.211C131.636 125.193 131.854 125.205 132.055 125.15C132.635 124.993 133.208 124.808 133.784 124.635C133.859 124.613 133.936 124.599 134.012 124.581C133.983 124.646 133.948 124.708 133.926 124.775C133.657 125.601 133.063 126.119 132.279 126.395C131.403 126.703 130.074 125.852 130.323 124.973C130.501 124.343 130.815 123.747 131.113 123.159C131.63 122.142 132.182 121.144 132.786 120.138C132.843 119.971 132.9 119.805 132.957 119.639C132.833 119.761 132.709 119.882 132.518 120.004C132.423 120.143 132.353 120.313 132.229 120.417C130.507 121.869 128.586 122.66 126.266 122.439C124.942 122.314 123.79 121.85 122.7 121.167C121.779 120.59 120.788 120.938 120.683 122.01C120.609 122.758 120.686 123.558 120.876 124.288C121.49 126.652 122.148 128.993 123.156 131.248C123.899 132.908 124.934 134.057 126.622 134.603C127.887 135.012 129.165 135.418 130.467 135.662C132.031 135.956 133.618 135.945 135.193 135.568C136.339 135.294 137.512 135.137 138.661 134.873C139.776 134.617 140.94 134.434 141.968 133.967C144.469 132.833 148.919 129.109 150.929 127.258C151.024 127.17 151.118 127.082 151.213 126.994C151.232 127.12 151.274 127.248 151.266 127.372C151.189 128.536 148.258 131.316 147.21 131.822C147.01 131.919 146.955 132.317 146.832 132.576C147.056 132.674 147.277 132.844 147.504 132.852C147.761 132.861 148.021 132.712 148.285 132.661C148.358 132.646 148.516 132.722 148.524 132.774C148.587 133.177 148.656 133.584 148.662 133.99C148.68 135.137 148.691 136.284 148.656 137.43C148.644 137.82 148.532 138.221 148.394 138.59C147.468 141.065 146.468 143.514 145.602 146.009C144.814 148.279 144.077 150.574 143.486 152.902C143.059 154.581 142.75 156.324 142.676 158.051C142.573 160.45 142.532 162.859 143.014 165.259C143.546 167.913 144.557 170.346 145.997 172.603C147.559 175.049 149.185 177.455 150.835 179.844C151.243 180.434 151.669 181.068 152.389 181.372C152.572 181.45 153.054 181.358 153.316 181.2C153.606 181.026 153.701 180.724 153.507 180.321C152.846 178.945 152.239 177.542 151.618 176.146C150.711 174.11 149.8 172.075 148.907 170.032C147.366 166.507 146.771 162.771 146.691 158.969C146.644 156.75 146.907 154.523 147.067 152.302C147.161 151.015 147.28 149.725 147.473 148.45C147.79 146.358 148.21 144.282 148.526 142.19C148.868 139.924 149.442 137.735 150.578 135.736C151.43 134.235 152.543 132.933 154.157 132.212C156.107 131.34 157.944 130.371 159.305 128.628C160.573 127.004 161.342 125.195 161.515 123.179C161.742 120.536 161.122 118.077 159.52 115.908C158.173 114.084 156.896 112.223 155.893 110.175C154.878 108.102 153.721 106.776 151.669 105.511C151.535 105.428 151.391 105.361 151.251 105.287ZM117.923 123.638C117.851 123.843 117.726 124.046 117.715 124.255C117.61 126.183 117.893 128.077 118.537 129.877C119.089 131.419 119.753 132.954 120.866 134.2C121.745 135.185 122.327 136.423 123.439 137.21C123.538 137.28 123.562 137.467 123.603 137.605C123.96 138.816 124.351 140.019 124.658 141.243L124.74 141.571C124.996 142.612 125.215 143.665 125.081 144.756C125.062 144.91 125.064 145.07 125.081 145.225C125.301 147.166 125.519 149.106 125.751 151.046C125.94 152.625 125.373 154.112 125.207 155.648C125.102 156.623 124.958 157.595 124.807 158.564C124.644 159.61 124.468 160.654 124.27 161.693C124.066 162.765 123.922 163.864 123.567 164.888C123.372 165.449 123.437 165.856 123.629 166.344C124.038 167.381 124.399 168.437 124.815 169.472C125.785 171.884 126.711 174.318 127.781 176.686C128.594 178.487 130.014 179.716 131.948 180.285C132.886 180.561 133.729 180.233 133.888 179.464C133.965 179.094 133.921 178.677 133.835 178.304C133.75 177.931 133.444 177.596 133.408 177.228C133.308 176.224 133.299 175.212 133.255 174.203C133.248 174.026 133.259 173.847 133.241 173.672C133.114 172.452 132.974 171.233 132.855 170.013C132.747 168.907 132.686 167.796 132.556 166.693C132.416 165.51 132.202 164.335 132.055 163.152C131.972 162.483 131.992 161.801 131.907 161.132C131.754 159.929 131.51 158.737 131.389 157.532C131.212 155.76 131.095 153.982 130.981 152.204C130.871 150.5 130.752 148.795 130.719 147.088C130.675 144.744 130.67 142.396 130.729 140.052C130.75 139.265 130.991 138.476 131.188 137.702C131.271 137.375 131.244 137.325 130.903 137.28C129.811 137.138 128.712 136.998 127.642 136.744C125.86 136.321 124.408 135.365 123.476 133.751C122.49 132.042 121.549 130.306 120.522 128.515C120.3 128.204 120.062 127.904 119.861 127.58C119.489 126.982 119.086 126.393 118.796 125.755C118.576 125.269 118.538 124.703 118.364 124.191C118.292 123.981 118.074 123.821 117.923 123.638ZM149.15 102.845C149.088 102.851 149.027 102.869 148.965 102.882C149.009 102.945 149.04 103.028 149.099 103.069C149.848 103.578 150.606 104.072 151.35 104.588C152.99 105.726 154.399 106.437 155.499 108.105C156.861 110.17 158.197 112.254 159.521 114.344C160.786 116.34 161.977 118.343 162.241 120.799C162.415 122.421 162.328 123.983 161.847 125.502C160.764 128.92 158.473 131.323 155.196 132.668C152.889 133.614 151.542 135.33 150.703 137.517C150.206 138.811 149.901 140.186 149.592 141.544C149.196 143.287 148.848 145.043 148.546 146.805C148.311 148.173 148.151 149.556 148.004 150.937C147.801 152.848 147.517 154.762 147.497 156.677C147.476 158.652 147.657 160.639 147.888 162.605C148.064 164.104 148.366 165.603 148.768 167.059C149.879 171.083 151.946 174.684 153.9 178.331C154.221 178.931 154.882 179.073 155.268 178.565C155.498 178.263 155.631 177.717 155.528 177.362C155.004 175.555 154.339 173.788 153.815 171.98C152.999 169.163 152.257 166.326 151.483 163.363C151.438 163.315 151.362 163.271 151.354 163.217C151.169 162.042 150.974 160.867 150.817 159.687C150.62 158.201 150.326 156.711 150.307 155.22C150.28 152.98 150.351 150.728 150.579 148.501C150.753 146.795 151.146 145.096 151.598 143.436C152.401 140.489 153.689 137.746 155.513 135.282C156.233 134.311 157.03 133.394 157.838 132.493C158.822 131.395 159.998 130.441 160.835 129.245C162.431 126.964 163.118 124.31 163.25 121.555C163.319 120.103 163.256 118.606 162.972 117.186C162.59 115.278 162.028 113.392 161.381 111.554C160.356 108.642 158.792 106.07 156.249 104.186C154.128 102.614 151.787 102.558 149.15 102.845ZM149.916 99.1231C148.814 99.0911 147.704 100.026 146.6 100.176C146.556 100.182 146.482 100.4 146.516 100.478C146.833 101.202 147.481 101.589 148.177 101.75C149.474 102.05 150.801 101.558 152.116 101.774C155.227 102.284 157.555 104.109 159.492 106.414C161.109 108.338 162.188 110.623 162.815 113.064C163.285 114.895 163.752 116.758 163.901 118.632C164.062 120.666 164.035 122.723 163.574 124.767C163.018 127.231 161.983 129.398 160.275 131.245C159.389 132.203 158.455 133.117 157.582 134.086C156.331 135.475 155.318 137.033 154.431 138.675C153.444 140.501 152.658 142.405 152.073 144.401C151.418 146.637 151.014 148.923 150.98 151.237C150.952 153.1 151.17 154.972 151.363 156.832C151.515 158.288 151.734 159.743 152.033 161.176C152.566 163.738 153.134 166.294 153.777 168.83C154.279 170.815 154.892 172.78 155.898 174.579C156.138 175.008 156.624 175.518 157.05 175.573C157.736 175.663 158.772 173.966 158.582 173.277C158.317 172.315 158.051 171.353 157.782 170.392C156.902 167.238 156.499 163.995 156.352 160.748C156.229 158.048 156.428 155.326 156.598 152.621C156.703 150.964 156.949 149.306 157.266 147.674C157.625 145.832 158.146 144.021 158.578 142.192C159.102 139.971 160.313 138.041 161.189 135.969C162.154 133.688 163.199 131.44 164.107 129.137C164.86 127.225 165.297 125.222 165.582 123.174C165.822 121.456 165.945 119.734 165.655 118.049C165.332 116.166 164.79 114.313 164.244 112.476C163.51 110.001 162.655 107.56 162.742 104.791C162.794 103.633 162.089 102.916 161.244 102.317C159.855 101.334 158.229 100.866 156.649 100.314C154.472 99.5532 152.207 99.1895 149.916 99.1231ZM101.094 167.121C100.386 168.385 99.7019 169.663 98.9423 171.003C98.848 171.187 98.753 171.37 98.6593 171.554C98.2138 172.429 97.4721 173.223 98.0937 174.347C98.2268 174.587 98.261 174.711 98.5493 174.695C99.5772 174.635 100.614 174.657 101.632 174.525C102.009 174.476 102.537 174.158 102.647 173.841C102.796 173.414 102.632 172.865 102.555 172.377C102.446 171.693 102.282 171.018 102.164 170.335C102.101 169.975 102.061 169.607 102.05 169.241C102.026 168.516 102.098 167.806 101.575 167.158C101.329 166.852 101.226 166.887 101.094 167.121ZM163.683 106.113C163.766 107.014 163.744 107.946 163.975 108.809C164.517 110.83 165.216 112.808 165.79 114.821C166.262 116.478 166.657 118.16 166.624 119.903C166.608 120.756 166.537 121.608 166.495 122.461C166.399 124.394 165.885 126.24 165.323 128.074C164.179 131.803 162.335 135.235 160.797 138.798C160.127 140.35 159.582 141.972 159.148 143.606C158.68 145.372 158.361 147.183 158.065 148.988C157.816 150.511 157.56 152.053 157.542 153.589C157.505 156.813 157.354 160.046 157.779 163.262C157.936 164.455 158.051 165.653 158.185 166.982C158.408 168.453 158.589 169.933 158.884 171.39C158.961 171.767 159.35 172.302 159.677 172.368C160.749 172.587 161.62 172.076 162.063 171.06C162.737 169.512 163.234 167.973 162.779 166.193C162.339 164.472 162.163 162.677 161.949 160.905C161.719 158.99 161.514 157.066 161.419 155.14C161.314 153 161.333 150.846 161.817 148.744C162.177 147.185 162.586 145.629 163.109 144.12C164.05 141.408 165.196 138.766 166.067 136.034C167.221 132.414 167.802 128.662 168.084 124.878C168.199 123.337 168.084 121.781 168.108 120.232C168.142 117.987 167.964 115.76 167.563 113.552C167.315 112.185 167.109 110.804 166.742 109.468C166.325 107.948 165.441 106.725 164.026 105.914C163.647 105.697 163.657 105.832 163.683 106.113ZM167.616 109.031C167.645 109.203 167.673 109.376 167.701 109.616C168.014 111.385 168.41 113.144 168.617 114.925C168.848 116.913 168.981 118.92 169.018 120.921C169.046 122.489 168.911 124.067 168.76 125.632C168.594 127.354 168.423 129.085 168.08 130.778C167.607 133.108 167.068 135.435 166.378 137.709C165.755 139.758 164.911 141.743 164.128 143.742C162.726 147.323 162.051 151.023 162.202 154.871C162.228 155.518 162.154 156.171 162.216 156.813C162.363 158.328 162.543 159.84 162.749 161.348C162.884 162.331 163.122 163.301 163.25 164.285C163.388 165.334 163.624 166.416 163.486 167.44C163.392 168.135 163.709 168.549 163.911 169.062C163.966 169.2 164.262 169.3 164.455 169.316C164.985 169.36 165.82 168.593 166.096 167.899C166.791 166.15 166.967 164.302 167.002 162.457C167.024 161.354 166.738 160.248 166.635 159.14C166.486 157.548 166.235 155.948 166.287 154.36C166.35 152.434 166.603 150.504 166.92 148.6C167.211 146.85 167.548 145.08 168.126 143.409C169.514 139.399 170.343 135.3 170.509 131.068C170.594 128.899 170.62 126.728 170.642 124.557C170.649 123.84 170.553 123.121 170.517 122.402C170.466 121.371 170.49 120.332 170.368 119.31C170.149 117.473 169.982 115.611 169.536 113.823C169.157 112.307 168.416 110.881 167.835 109.348C167.762 109.242 167.689 109.136 167.616 109.031ZM170.963 116.004C170.904 116.091 170.814 116.171 170.791 116.266C170.761 116.393 170.773 116.533 170.785 116.666C170.917 118.107 171.089 119.545 171.176 120.989C171.266 122.508 171.27 124.033 171.325 125.555C171.335 125.828 171.409 126.098 171.454 126.504C171.409 127.669 171.399 128.837 171.312 129.999C171.16 132.048 171.082 134.113 170.75 136.136C170.417 138.17 169.926 140.196 169.301 142.161C168.256 145.442 167.394 148.757 167.193 152.195C167.082 154.087 167.22 155.998 167.308 157.898C167.4 159.884 167.554 161.868 167.709 163.85C167.757 164.461 167.821 165.092 168.024 165.661C168.173 166.079 168.561 166.411 168.843 166.781C169.216 166.407 169.72 166.095 169.935 165.645C170.333 164.811 170.639 163.914 170.842 163.012C171.08 161.956 171.265 160.868 171.289 159.789C171.308 158.933 170.971 158.073 170.936 157.209C170.872 155.686 170.866 154.155 170.932 152.632C171.006 150.921 171.152 149.211 171.329 147.507C171.51 145.764 171.779 144.031 171.987 142.29L172.191 140.591C172.36 139.175 172.523 137.758 172.649 136.337C172.793 134.727 172.901 133.108 172.913 131.492C172.93 129.345 172.861 127.197 172.787 125.05C172.738 123.657 172.648 122.263 172.518 120.875C172.365 119.238 171.886 117.689 171.105 116.238C171.062 116.157 171.011 116.082 170.963 116.004ZM202.917 154.879C204.123 155.158 205.334 155.418 206.55 155.649C207.242 155.78 207.948 155.835 208.715 155.924C210.424 156.058 212.063 156.265 213.707 156.311C216.802 156.396 219.818 155.892 222.735 154.835C222.773 154.822 222.798 154.748 222.831 154.747C223.114 154.739 223.398 154.741 223.682 154.74C223.492 154.912 223.325 155.12 223.11 155.248C221.503 156.201 219.79 156.823 217.934 157.157C215.869 157.527 213.797 157.472 211.746 157.357C209.487 157.229 207.235 156.905 205.012 156.361C203.126 155.899 201.311 155.284 199.519 154.566C199.407 154.521 199.308 154.442 199.202 154.379C199.305 154.358 199.409 154.34 199.511 154.315C200.726 154.027 201.793 154.619 202.917 154.879ZM203.965 137.838C204.701 138.107 205.432 138.392 206.155 138.693C206.593 138.876 207.013 139.099 207.475 139.338C209.552 140.27 211.652 140.941 213.862 141.344C215.972 141.729 218.082 141.781 220.194 141.689C221.52 141.631 222.833 141.296 224.154 141.093C224.315 141.068 224.484 141.095 224.65 141.098C224.549 141.254 224.486 141.471 224.343 141.554C222.941 142.374 221.455 142.929 219.813 143.065C215.878 143.389 212.191 142.406 208.645 140.869C206.977 140.146 205.439 139.124 203.848 138.226C203.713 138.15 203.626 137.99 203.516 137.869C203.667 137.856 203.836 137.791 203.965 137.838ZM100.068 137.844C99.9581 138.087 99.8626 138.339 99.7358 138.573C99.4771 139.051 99.0554 139.486 99.2164 140.089C99.4615 141.007 99.744 141.915 100.022 142.824C100.036 142.869 100.217 142.912 100.22 142.906C100.294 142.759 100.354 142.606 100.417 142.32C100.542 142.105 100.628 141.847 100.803 141.686C101.042 141.466 101.074 141.295 100.966 140.981C100.693 140.179 100.487 139.355 100.255 138.539C100.19 138.308 100.13 138.076 100.068 137.844ZM101.563 134.352C101.494 134.43 101.401 134.497 101.359 134.587C101.107 135.127 100.795 135.652 100.639 136.22C100.301 137.447 100.883 138.587 101.087 139.764C101.176 139.722 101.311 139.705 101.348 139.636C101.735 138.909 102.139 138.187 102.465 137.433C102.58 137.165 102.574 136.786 102.483 136.503C102.353 136.097 102.095 135.733 101.891 135.216C101.846 135.035 101.814 134.849 101.752 134.673C101.712 134.558 101.628 134.459 101.563 134.352ZM103.121 128.046C103.068 128.185 102.968 128.325 102.971 128.462C102.996 129.457 102.72 130.37 102.363 131.291C102.138 131.869 102.011 132.477 102.11 133.177C102.215 133.923 102.699 134.334 103.038 134.878C103.191 135.124 103.411 135.328 103.601 135.551C103.768 135.328 103.935 135.105 104.17 134.814C104.437 134.323 104.717 133.838 104.97 133.339C105.532 132.232 105.526 132.23 104.638 131.26C104.565 131.181 104.5 131.095 104.438 131.008C103.883 130.231 103.575 129.358 103.399 128.426C103.373 128.287 103.217 128.172 103.121 128.046ZM105.026 123.638C104.963 123.745 104.894 123.85 104.838 123.961C104.568 124.495 104.355 125.067 104.022 125.559C103.508 126.319 103.867 127.027 104.039 127.751C104.349 129.055 104.766 130.315 105.668 131.354C105.876 131.594 105.874 131.596 106.113 131.128C106.554 130.509 106.98 129.877 107.442 129.275C107.659 128.993 107.853 128.816 107.493 128.46C107.09 128.061 106.702 127.597 106.467 127.087C105.993 126.061 105.628 124.985 105.212 123.931C105.17 123.825 105.089 123.735 105.026 123.638ZM124.295 127.936C124.766 128.153 125.223 128.44 125.615 128.782C126.701 129.729 127.939 130.16 129.375 130.064C129.576 130.051 133.845 129.835 133.526 130.384C133.308 130.758 130.084 131.379 129.715 131.384C128.229 131.404 126.447 130.694 125.701 130.384C125.4 130.259 123.179 128.922 123.596 128.138C123.758 127.834 124.129 127.859 124.295 127.936ZM107.128 120.329C106.902 120.677 106.577 121 106.473 121.382C106.345 121.851 105.89 122.219 106.044 122.773C106.363 123.915 106.608 125.082 107.008 126.194C107.259 126.895 107.736 127.515 108.122 128.164C108.131 128.179 108.306 128.139 108.345 128.083C108.87 127.331 109.575 126.809 110.469 126.37C110.695 126.214 110.907 126.032 111.149 125.907C111.433 125.761 111.398 125.727 111.145 125.556C109.536 124.466 108.42 122.95 107.524 121.256C107.367 120.96 107.259 120.638 107.128 120.329ZM33.0343 107.301C33.0817 107.373 33.1244 107.448 33.1771 107.515C34.4871 109.184 35.7985 110.852 37.1083 112.521C37.2396 112.688 37.3619 112.863 37.5219 113.067C38.8347 114.425 40.0547 115.813 41.4084 117.056C43.0496 118.563 44.7971 119.955 46.5112 121.382C47.7452 122.409 48.9775 123.466 50.5085 124.021C51.4836 124.374 52.5052 124.714 53.5275 124.798C55.8054 124.985 58.099 124.972 60.3812 125.118C61.0736 125.163 61.7523 125.454 62.4296 125.658C62.53 125.688 62.8167 125.849 62.377 125.913C61.1019 126.102 59.8412 126.395 58.5632 126.553C57.7857 126.65 56.9865 126.581 56.1972 126.569C54.1658 126.539 52.2474 126.019 50.3754 125.258C47.9906 124.289 45.855 122.929 43.9426 121.221C42.6288 120.047 41.2582 118.915 40.091 117.605C38.007 115.267 36.0211 112.838 34.0728 110.385C33.4455 109.595 33.0435 108.616 33.0003 107.554C32.9969 107.471 33.0223 107.386 33.0343 107.301ZM109.09 116.904C108.497 117.652 107.737 118.355 107.938 119.429C108.082 120.2 108.354 120.948 108.596 121.698C109.118 123.323 110.459 124.238 111.713 125.22C111.78 125.273 112.01 125.219 112.088 125.14C113.137 124.066 114.172 122.979 115.212 121.896C115.411 121.688 115.691 121.508 115.095 121.46C114.693 121.428 114.307 121.219 113.91 121.101C113.413 120.952 112.912 120.816 112.279 120.674C111.81 120.25 111.383 119.768 110.865 119.417C109.985 118.82 109.441 118.044 109.256 117.003C109.248 116.96 109.097 116.896 109.09 116.904ZM141.509 112.368L141.051 112.521C139.88 112.913 138.719 113.329 137.78 114.202C136.701 115.203 136.149 116.49 135.81 117.874C135.742 118.154 135.694 118.432 135.669 118.706C135.693 118.604 135.724 118.504 135.757 118.413C135.847 118.166 136.074 117.963 136.26 117.758L136.335 117.676C136.699 117.285 137.091 116.987 137.679 117.37C138.327 117.792 138.041 118.317 137.86 118.83C137.798 119.004 137.706 119.166 137.595 119.367C137.293 119.866 136.88 120.137 136.366 119.98C136.086 119.895 135.775 119.613 135.67 119.344C135.662 119.323 135.655 119.301 135.649 119.279C135.67 120.221 135.975 121.114 136.622 121.903C137.187 122.594 137.877 123.197 138.572 123.764C140.256 125.138 142.146 125.379 144.061 124.382C146.5 123.112 147.714 120.811 148.802 118.328C148.871 117.771 149.025 117.208 148.989 116.658C148.917 115.578 148.221 114.814 147.439 114.162C145.722 112.732 143.901 111.565 141.509 112.368ZM111.606 111.964C111.45 112.145 111.284 112.318 111.144 112.51C111.073 112.607 111.041 112.735 111.007 112.853C110.692 113.927 110.313 114.988 110.091 116.08C109.953 116.766 110.132 117.478 110.603 118.194C111.137 118.574 111.67 118.955 112.205 119.333C113.284 120.095 114.557 120.34 115.8 120.657C115.901 120.683 116.144 120.5 116.183 120.372C116.53 119.213 116.847 118.044 117.163 116.876C117.169 116.853 117.06 116.77 116.999 116.761C115.904 116.617 114.822 116.554 113.896 115.759C112.883 114.89 112.261 113.82 111.811 112.609C111.732 112.398 111.674 112.18 111.606 111.964ZM124.246 107.264C122.95 107.48 122.097 108.429 121.352 109.455C120.44 110.71 119.925 112.129 119.875 113.658C119.834 114.927 120.195 116.147 120.784 117.292L120.877 117.475C121.234 118.17 121.597 118.834 122.369 119.207C124.281 120.13 126.286 120.437 128.37 120.12C128.993 120.025 129.723 119.879 130.167 119.487C131.869 117.986 132.81 116.053 133.054 113.704C133.031 113.196 133.039 112.684 132.981 112.18C132.808 110.675 132.017 109.529 130.85 108.609C129.823 107.801 128.622 107.337 127.368 107.171C126.346 107.035 125.267 107.094 124.246 107.264ZM127.493 97.6884C126.799 99.7827 126.108 101.878 125.428 103.978C125.579 103.947 125.74 103.887 125.865 103.93C126.621 104.186 127.348 104.493 127.938 105.071C128.271 105.397 128.677 105.646 129.084 105.964C129.17 106.037 129.255 106.106 129.338 106.173C129.388 106.186 129.438 106.2 129.488 106.214C131.009 106.645 132.321 107.449 133.255 108.779C134.504 110.557 134.808 112.633 135.131 114.703C135.147 114.809 135.16 114.915 135.174 115.02C135.282 114.973 135.407 114.947 135.494 114.874C135.665 114.731 135.815 114.565 135.971 114.405C137.19 113.155 138.557 112.084 140.131 111.342C141.804 110.553 143.527 110.357 145.338 111.078C146.698 111.619 147.79 112.488 148.852 113.428C149.315 113.838 151.493 114.876 155.385 116.542C154.749 113.854 154.093 111.923 153.418 110.748C152.568 109.269 151.609 108.139 150.414 107.033C148.326 105.102 146.141 103.327 143.717 101.828C141.166 100.251 138.41 99.2043 135.539 98.4346C133.522 97.8938 131.478 97.4545 129.448 96.9599C128.561 96.7439 127.708 97.0418 127.493 97.6884ZM114.245 109.424C113.179 110.146 112.328 111.379 112.812 112.897C113.349 114.58 115.246 116.034 117.047 116.098C117.218 116.104 117.48 115.89 117.557 115.715C117.774 115.225 117.928 114.706 118.078 114.191C118.107 114.093 118.009 113.854 117.965 113.853C116.823 113.828 116.093 113.097 115.294 112.297C114.779 111.453 114.426 110.563 114.479 109.548C114.481 109.508 114.281 109.399 114.245 109.424ZM58.3227 111.229C58.915 111.524 59.5048 111.828 60.0716 112.169C61.2508 112.877 62.3903 113.655 63.5948 114.316C64.237 114.669 64.9831 114.83 65.6763 115.093C65.8292 115.151 65.9565 115.276 66.0955 115.371C65.9522 115.441 65.7839 115.483 65.6695 115.585C64.8365 116.331 64.0529 115.641 63.2751 115.48C61.6682 115.148 60.5454 114.046 59.4362 112.866C58.9487 112.423 58.4873 112.022 58.046 111.599C57.9401 111.498 57.901 111.327 57.8312 111.188C57.9964 111.199 58.1859 111.161 58.3227 111.229ZM122.057 112.458C122.622 112.697 122.572 113.15 122.542 113.59C122.491 114.318 121.5 115.27 120.865 115.152C120.639 115.111 120.299 114.767 120.304 114.569C120.318 114.055 120.494 113.545 120.64 113C120.736 112.904 120.8 112.841 120.862 112.777C121.196 112.433 121.539 112.238 122.057 112.458ZM116.166 107.404C115.964 107.7 115.688 107.969 115.575 108.295C115.021 109.891 116.033 112.382 118.143 112.988C118.244 113.017 118.469 112.926 118.499 112.841C118.831 111.909 119.138 110.968 119.445 110.027C119.465 109.967 119.424 109.826 119.41 109.826C117.84 109.804 117.077 108.838 116.621 107.486C116.593 107.402 116.367 107.385 116.166 107.404ZM143.737 110.302C143.871 110.372 143.981 110.487 144.102 110.581C143.971 110.55 143.841 110.51 143.708 110.488C142.335 110.263 140.96 110.046 139.588 109.811C139.397 109.778 139.219 109.662 139.036 109.584C139.237 109.528 139.438 109.471 139.706 109.415C141.167 109.387 142.498 109.644 143.737 110.302ZM119.508 103.258C119.355 103.484 119.199 103.708 119.05 103.938C119.03 103.969 119.063 104.034 119.045 104.069C118.619 104.873 118.209 105.688 117.753 106.475C117.497 106.916 117.483 107.778 117.864 108.011C118.408 108.344 119 108.599 119.577 108.877C119.959 109.062 120.191 108.828 120.384 108.545C120.751 108.008 121.088 107.448 121.479 106.928C121.785 106.522 121.483 106.607 121.192 106.533C119.802 106.186 119.642 105.023 119.457 103.889C119.424 103.687 119.489 103.469 119.508 103.258ZM121.782 100.045C121.586 100.205 121.315 100.325 121.204 100.531C120.587 101.672 120.358 102.921 120.401 104.201C120.434 105.203 121.05 105.886 122.02 106.143C122.154 106.179 122.345 106.125 122.47 106.048C122.793 105.849 123.094 105.614 123.47 105.327C123.604 105.093 123.775 104.872 123.864 104.622C123.988 104.27 124.069 103.9 124.131 103.531C124.153 103.402 124.111 103.192 124.021 103.125C123.123 102.459 122.455 101.615 121.997 100.6C121.916 100.419 121.854 100.23 121.782 100.045ZM125.41 104.034L125.135 104.885C125.104 104.98 125.235 105.224 125.328 105.246C126.146 105.443 126.972 105.61 127.793 105.793C127.341 105.46 126.89 105.126 126.437 104.795C126.201 104.622 125.938 104.486 125.7 104.316C125.592 104.239 125.504 104.133 125.41 104.034ZM125.844 94.2498C125.377 94.6449 124.93 95.0654 124.409 95.5426C123.529 96.2189 123.168 97.1882 122.948 98.2165C122.656 99.5849 122.801 100.854 123.9 101.876C124.272 102.222 124.517 102.075 124.671 101.696C125.145 100.532 125.596 99.3575 126.054 98.1859C126.534 96.956 126.804 95.7308 126.31 94.411C126.159 94.006 126.048 94.0776 125.844 94.2498ZM142.584 95.499C142 95.6302 141.336 96.5254 141.1 97.2195C140.996 97.5246 140.843 97.7604 141.435 97.9225C142.733 98.2779 143.972 98.8447 145.117 99.7611C145.374 99.7716 145.64 99.829 145.888 99.7842C146.818 99.6159 147.738 98.6184 148.669 98.59C149.923 98.5518 151.194 98.6685 152.439 98.8454C153.725 99.028 155.021 99.2601 156.253 99.6559C157.88 100.179 159.449 100.882 161.044 101.506C161.15 101.547 161.264 101.57 161.374 101.602C161.345 101.51 161.301 101.42 161.29 101.326C161.215 100.705 160.8 100.317 160.312 100.042C158.922 99.2565 157.535 98.4585 156.098 97.7665C153.693 96.6088 151.209 95.7069 148.534 95.3124C146.518 95.0151 144.546 95.0581 142.584 95.499ZM141.164 91.9922C139.185 92.0751 137.524 92.8239 136.281 94.3978C135.68 95.1595 135.815 96.272 136.73 96.5396C137.867 96.8721 139.015 97.1698 140.291 97.4826C140.56 97.0805 140.746 95.901 141.112 95.6308C142.133 94.8763 143.347 94.569 144.604 94.5501C145.7 94.5336 146.808 94.5533 147.894 94.6904C149.187 94.8536 150.488 95.0685 151.74 95.4213C154.498 96.1983 157.063 97.4526 159.57 98.8251C159.722 98.9085 159.884 98.9738 160.041 99.0476C160.039 98.8085 160.065 98.564 160.022 98.3328C160.001 98.2241 159.858 98.1206 159.748 98.0495C158.763 97.4128 157.817 96.6971 156.775 96.1708C154.601 95.0719 152.382 94.0716 150.023 93.3959C147.122 92.5651 144.21 91.8647 141.164 91.9922ZM137.055 87.4176C134.855 87.6592 132.937 88.3949 131.459 90.0993C130.602 91.0869 130.09 92.2133 130.038 93.6661C130.038 93.8674 129.997 94.7464 130.048 94.9338C130.112 95.1686 130.214 95.5437 130.364 95.5784C131.027 95.7319 131.712 95.7991 132.392 95.8584C132.491 95.8671 132.689 95.6754 132.705 95.5578C132.779 95.0212 132.723 93.79 132.86 93.2743C133.391 91.2779 134.823 90.1314 136.678 89.4498C138.236 88.8772 139.857 88.8662 141.503 88.884C143.946 88.9104 146.333 89.2634 148.681 89.8665C149.633 90.1109 150.529 90.5745 151.443 90.9573C151.561 91.0068 151.632 91.17 151.724 91.2806C151.587 91.2599 151.444 91.2598 151.315 91.2154C148.208 90.1428 144.995 89.64 141.728 89.4519C140.126 89.3596 138.52 89.5251 137 90.006C135.32 90.5377 133.908 91.49 133.336 93.3144C133.026 94.2991 133.471 95.8365 134.432 96.1915C134.993 96.3988 135.194 96.1385 135.412 95.6818C135.69 95.101 135.983 93.8281 136.407 93.356C137.743 91.868 139.549 91.375 141.452 91.3492C142.713 91.3321 143.992 91.508 145.236 91.7415C147.106 92.0928 148.985 92.4663 150.803 93.0182C153.524 93.8439 156.123 94.986 158.523 96.542C158.695 96.6535 158.92 96.6842 159.119 96.7524C159.059 96.5552 159.021 96.3468 158.933 96.1625C157.842 93.8717 156.509 91.7473 154.574 90.0625C153.44 89.0748 152.147 88.3398 150.682 87.9819C149.62 87.7224 148.548 87.6577 147.429 87.7978C146.375 87.9298 145.281 87.7536 144.206 87.6986C143.687 87.672 143.166 87.6398 142.654 87.5627C140.792 87.2831 138.936 87.2109 137.055 87.4176ZM129.429 91.5886C129.354 91.6213 129.268 91.6406 129.204 91.6887C128.813 91.9833 128.462 92.3592 128.03 92.5664C127.33 92.9018 127.456 93.4338 127.55 93.9912C127.564 94.0717 127.617 94.1472 127.622 94.227C127.649 94.6411 127.667 95.0559 127.687 95.4704C127.781 96.0512 128.495 96.0512 128.966 95.9412C129.055 95.5997 129.181 95.263 129.226 94.9157C129.331 94.1064 129.399 92.6255 129.475 91.8128C129.482 91.7401 129.446 91.6634 129.429 91.5886ZM103.631 54.1739C103.755 54.324 103.661 54.6684 103.634 54.9239C103.617 55.0863 103.496 55.2465 103.507 55.4019C103.629 57.201 103.814 58.9972 103.888 60.798C103.954 62.4035 103.899 64.0138 103.905 65.6219C103.906 65.8335 103.929 66.2221 103.98 66.2284C104.375 66.2772 104.779 66.2586 105.18 66.2378C105.205 66.2365 105.247 66.042 105.237 65.9421C105.206 65.6465 105.139 65.3545 105.11 65.0588C104.927 63.2124 104.691 61.3686 104.59 59.5175C104.503 57.9365 104.542 56.3457 104.604 54.7623C104.613 54.5195 105.03 54.1256 105.288 54.1009C105.63 54.068 105.827 54.4076 105.789 54.8349C105.742 55.3669 105.738 55.9096 105.785 56.4415C105.945 58.2453 106.133 65.7252 106.195 66.1694C106.201 66.2135 106.418 66.2527 106.536 66.2529C109.82 66.2574 113.103 66.2831 116.386 66.2443C117.847 66.227 119.305 66.0715 120.765 65.9905C121.773 65.9347 122.788 65.9493 123.791 65.8448C126.588 65.5531 129.389 65.4443 132.202 65.4301C133.621 65.4229 135.038 65.1647 136.458 65.0549C138.434 64.9021 140.41 64.7365 142.389 64.6597C144.803 64.566 147.221 64.5505 149.637 64.5227C150.006 64.5185 150.175 64.4971 150.156 64.0419C150.079 62.2526 150.059 60.461 150.007 58.6705C149.972 57.4379 149.925 56.2056 149.871 54.9737C149.856 54.6185 149.96 54.4516 150.352 54.4516C150.758 54.4516 150.811 54.6496 150.819 54.9889C150.847 56.177 150.769 57.3885 150.978 58.5463C151.292 60.2778 151.162 62.005 151.216 63.7344C151.236 64.3954 151.547 64.6405 152.173 64.5163C152.465 64.4585 152.761 64.3861 153.055 64.3857C159.175 64.3782 165.295 64.3691 171.415 64.3862C173.452 64.3918 178.822 64.4626 180.858 64.5185C181.398 64.5334 181.939 64.5926 182.477 64.651C183.046 64.7127 183.492 65.3003 183.497 66.001C183.506 67.2071 183.499 68.4133 183.499 69.6194C183.499 69.7311 183.494 69.8431 183.501 69.9544C183.521 70.2846 183.677 70.8179 183.544 70.9043C183.214 71.1174 182.754 71.1874 182.341 71.2055C179.833 71.3152 173.99 71.4209 171.48 71.4771C168.261 71.5491 165.04 71.5777 161.82 71.6166C157.729 71.6661 153.638 71.6996 149.547 71.7554C147.89 71.778 146.233 71.8377 144.577 71.8869C143.255 71.9262 141.933 71.9811 140.612 72.0184C138.821 72.0689 137.03 72.1137 135.24 72.1528C132.98 72.2021 130.72 72.2412 128.46 72.2886C126.469 72.3303 124.477 72.3773 122.485 72.422C120.494 72.4666 118.501 72.4923 116.51 72.5616C114.715 72.6242 112.921 72.7235 111.127 72.828C109.957 72.8963 108.786 72.9762 107.62 73.0989C106.195 73.2491 104.776 73.4645 103.352 73.6233C102.319 73.7383 101.283 73.8382 100.246 73.8899C98.0286 74.0003 95.8074 74.0469 93.5908 74.175C92.2804 74.2508 84.3112 74.4535 83.0017 74.5544C82.5794 74.5869 82.1379 74.5127 81.7221 74.4151C81.5532 74.3755 81.3279 74.1596 81.3022 73.9964C81.1751 73.1906 81.0951 72.3767 81.0204 71.5636C80.9587 70.8913 80.8814 70.215 80.898 69.5426C80.9106 69.034 81.0502 68.5471 80.9359 68.0108C80.9023 67.8531 81.4816 67.409 81.8203 67.3567C82.8883 67.1915 90.6449 67.1747 91.7212 67.0544C93.08 66.9025 94.4335 66.7039 95.7898 66.5297C95.9213 66.5128 96.0569 66.5296 96.1903 66.5239C98.2528 66.4354 100.315 66.3334 102.378 66.2684C102.733 66.2572 102.699 66.0957 102.698 65.8645C102.692 64.9711 102.678 64.0772 102.7 63.1843C102.722 62.3091 102.785 61.4348 102.829 60.4931C102.656 59.1802 102.449 57.9377 102.321 56.6871C102.247 55.9592 102.256 55.2148 102.32 54.4859C102.338 54.2842 102.66 54.0096 102.888 53.9541C103.115 53.8988 103.489 54.0019 103.631 54.1739ZM171.659 65.3261C165.245 65.3509 158.832 65.4005 152.418 65.4552C149.153 65.4831 145.888 65.5064 142.625 65.6015C141.047 65.6475 139.475 65.8652 137.899 65.9856C135.99 66.1314 134.08 66.2575 132.17 66.3899C131.474 66.4381 130.777 66.4788 130.081 66.5247C128.06 66.6582 126.04 66.8277 124.016 66.9168C121.982 67.0063 119.944 67.016 117.774 67.0607C117.256 67.1053 116.739 67.1829 116.222 67.1895C111.974 67.2434 107.727 67.2637 103.48 67.3384C101.684 67.3699 99.8908 67.5058 98.0966 67.5975C97.3108 67.6377 96.5241 67.6694 95.7402 67.7341C93.6917 67.9031 84.9783 68.0933 82.9299 68.2632C82.4465 68.3034 82.1689 68.4236 82.2089 69.0188C82.2991 70.3596 82.3334 71.7054 82.3443 73.0495C82.3475 73.4441 82.457 73.5312 82.8232 73.5001C84.058 73.3953 91.9614 73.3143 93.1975 73.2265C94.4781 73.1356 95.7582 73.0353 97.0398 72.9611C98.7888 72.8598 100.539 72.7832 102.288 72.6858C102.54 72.6718 102.786 72.5899 103.037 72.5578C104.12 72.4195 105.203 72.272 106.288 72.1585C107.343 72.0481 108.401 71.9571 109.46 71.8895C111.749 71.7435 114.038 71.5884 116.329 71.4925C118.386 71.4063 120.446 71.3955 122.504 71.3494C124.429 71.3062 126.353 71.2572 128.278 71.2165C130.56 71.1683 132.842 71.1206 135.124 71.083C138.187 71.0327 141.251 70.9994 144.314 70.9446C145.837 70.9173 147.36 70.8608 148.882 70.8128C150.181 70.7719 151.48 70.7078 152.78 70.6829C155.664 70.6275 158.549 70.587 161.434 70.5463C164.855 70.4981 168.277 70.4776 171.697 70.4042C174.095 70.3527 179.826 70.2369 182.222 70.1311C182.339 70.1259 182.544 69.9428 182.546 69.8393C182.57 68.7007 182.561 67.5615 182.562 66.4225C182.563 65.9398 182.283 65.6673 181.848 65.5956C181.337 65.5114 180.815 65.473 180.297 65.4566C178.529 65.4006 173.427 65.3192 171.659 65.3261ZM153.1 53.4626C153.262 55.7967 153.431 58.1306 153.638 60.461C153.705 61.2139 153.876 61.96 154.034 62.7017C154.171 63.3431 153.793 63.793 152.991 63.8104C152.823 63.3198 152.631 62.8707 152.568 62.404C152.438 61.4436 152.333 60.4756 152.296 59.5077C152.221 57.4993 152.197 55.489 152.154 53.4794C152.148 53.173 152.087 52.8597 152.581 52.8424C153.075 52.825 153.074 53.0911 153.1 53.4626Z" fill="#00160A"/>
<path fill-rule="evenodd" clip-rule="evenodd" d="M128.918 186.654C126.268 193.292 115.494 185.203 114.144 180.443C113.637 178.658 117.106 175.001 118.842 176.448C121.932 179.023 121.71 183.106 126.46 184.129C127.168 184.281 128.688 184.259 129.376 184.456C129.73 184.558 129.577 185.29 128.918 186.654Z" fill="url(#paint3_linear_697_1637)"/>
<path fill-rule="evenodd" clip-rule="evenodd" d="M172.21 154.38C172.52 155.875 172.79 157.304 172.758 158.781C172.739 159.654 172.826 160.531 172.882 161.405C173.043 163.891 171.896 165.636 169.885 166.986C168.505 167.912 167.258 169.035 165.894 169.988C164.749 170.789 163.546 171.519 162.323 172.196C159.849 173.565 157.316 174.847 156.191 177.706C155.67 179.031 154.978 180.325 154.701 181.701C154.382 183.29 154.674 184.871 156.136 185.957C156.186 185.994 156.211 186.068 156.262 186.103C156.489 186.256 156.734 186.527 156.948 186.507C157.114 186.491 157.269 186.118 157.387 185.883C157.652 185.359 157.41 184.896 157.291 184.368C157.111 183.569 157.252 182.697 157.276 181.856C157.278 181.765 157.408 181.678 157.479 181.588C157.52 181.695 157.586 181.799 157.597 181.908C157.65 182.492 157.636 183.088 157.753 183.658C157.839 184.072 158.05 184.479 158.283 184.839C158.524 185.211 159.337 185.034 159.47 184.583C159.717 183.748 159.674 182.91 159.494 182.056C159.403 181.624 159.476 181.155 159.503 180.704C159.507 180.637 159.663 180.578 159.749 180.516C159.793 180.598 159.863 180.684 159.873 180.76C160.271 183.843 160.854 183.843 161.093 183.934C161.332 184.025 161.638 183.902 161.749 183.843C161.89 183.768 161.995 183.522 162.014 183.34C162.084 182.646 162 181.916 162.186 181.261C162.427 180.415 162.794 179.579 163.258 178.833C163.566 178.339 164.131 177.997 164.599 177.61C165.819 176.605 167.085 175.67 168.622 175.194C169.712 174.857 170.811 174.549 171.902 174.215C173.784 173.64 175.701 173.152 177.537 172.452C180.398 171.359 182.531 169.463 183.181 166.329C183.537 164.61 183.263 162.878 182.614 161.26C182.1 159.978 181.402 158.77 180.791 157.527C180.729 157.4 180.705 157.255 180.664 157.118C180.774 157.19 180.904 157.244 180.992 157.337C182.55 158.971 183.581 160.908 184.058 163.097C184.568 165.443 184.733 167.817 183.579 170.046C183.326 170.535 182.81 170.929 182.339 171.256C180.917 172.243 179.329 172.909 177.702 173.478C175.81 174.141 173.947 174.975 171.998 175.366C170.117 175.743 168.486 176.613 166.755 177.296C165.692 177.715 165.114 178.691 164.28 179.369C163.401 180.083 163.148 180.959 163.227 182.015C163.25 182.326 163.218 182.641 163.232 182.953C163.325 184.96 162.328 185.141 160.817 184.545C160.752 184.52 160.566 184.606 160.56 184.653C160.436 185.785 159.789 186.339 158.757 185.97C158.313 185.811 158.335 186.11 158.291 186.214C157.837 187.302 156.725 187.654 155.962 186.812C155.17 185.94 154.436 184.973 153.895 183.934C153.626 183.418 153.75 182.629 153.87 181.996C154.074 180.915 154.351 179.837 154.715 178.799C155.196 177.425 155.986 176.224 156.903 175.076C157.84 173.904 159.007 173.064 160.271 172.356C162.006 171.383 163.715 170.375 165.331 169.218C165.993 168.744 166.555 168.132 167.206 167.641C168.065 166.993 168.969 166.403 169.851 165.785C171.055 164.943 171.879 163.935 171.839 162.319C171.812 161.24 172.163 160.155 172.186 159.069C172.209 157.992 172.018 156.912 171.948 155.831C171.914 155.312 171.939 154.788 171.946 154.267C171.947 154.175 171.995 154.083 172.022 153.99C172.085 154.098 172.148 154.205 172.21 154.38Z" fill="#00160A"/>
<path fill-rule="evenodd" clip-rule="evenodd" d="M40.188 81.7342C40.2511 81.5963 40.3691 81.4628 40.3697 81.4633C41.7477 82.6719 42.6184 84.1768 43.1678 85.9288C43.4043 86.683 43.9259 87.3722 44.4147 88.0177C45.3368 89.2352 46.3318 90.3974 47.2818 91.5942C47.3194 91.6416 47.2379 91.8633 47.1568 91.912C46.612 92.2393 45.6385 92.065 45.0521 91.4731C44.5518 90.968 44.112 90.3996 43.6734 89.8373C43.0153 88.9935 42.0937 88.6604 41.1033 88.4345C39.5283 88.0752 38.3554 87.1076 37.3778 85.8862C35.7287 83.8259 35.0387 81.3872 34.6995 78.8268C34.6174 78.2073 34.4883 77.5492 34.6113 76.9567C34.8654 75.7325 35.9594 75.063 37.3287 75.4648C39.7859 76.1859 42.2307 76.989 44.6005 77.9547C46.1408 78.5825 46.7553 80.0354 47.0427 81.6506C47.2853 83.0146 46.9833 84.2445 46.4445 85.4562C46.258 85.8756 46.2251 85.8602 45.9501 85.4669C45.4133 84.6993 45.2771 83.7946 45.4432 82.947C45.808 81.0849 44.9674 79.6157 43.4854 79.0585C41.7651 78.4118 40.0498 77.7416 38.2972 77.1944C36.5625 76.6527 36.5865 76.7697 36.9069 78.4516C37.3415 80.7321 38.1752 82.9547 39.0188 85.1319C39.4686 86.2929 40.3985 87.165 41.7157 87.5177C42.1841 87.6432 42.1198 87.3806 42.053 87.1915C41.7373 86.2966 41.4015 85.4076 41.0349 84.5324C40.6642 83.6472 40.1412 82.8143 40.188 81.7342Z" fill="#FFB61D"/>
<path fill-rule="evenodd" clip-rule="evenodd" d="M176.197 152.269C174.481 151.739 172.869 151.977 171.26 152.612C170.882 152.761 170.354 152.676 169.948 152.539C169.761 152.477 170.348 151.472 170.819 151.293C171.379 151.08 171.954 150.846 172.54 150.778C174.328 150.569 175.984 151.046 177.558 151.88C178.25 152.247 178.98 152.543 179.668 152.916C179.963 153.076 180.207 153.341 180.446 153.585C180.512 153.653 180.527 153.896 180.482 153.924C180.372 153.991 180.191 154.037 180.078 153.992C179.369 153.711 178.669 153.41 177.972 153.103C177.388 152.845 176.811 152.57 176.197 152.269Z" fill="#00160A"/>
<path fill-rule="evenodd" clip-rule="evenodd" d="M123.255 57.0387C122.092 57.8439 120.991 58.6615 119.827 59.3747C118.555 60.1532 117.233 60.8511 115.91 61.541C115.721 61.6397 115.26 61.581 115.18 61.4453C115.042 61.2083 114.99 60.883 115.436 60.672C116.222 60.3 116.97 59.8382 117.702 59.3641C118.831 58.6325 119.929 57.853 121.048 57.1052C121.656 56.6986 122.253 56.2588 122.91 55.9496C123.178 55.8236 123.797 55.8877 123.898 56.0667C124.198 56.6019 123.73 56.8375 123.255 57.0387Z" fill="#E7EAEE"/>
<path fill-rule="evenodd" clip-rule="evenodd" d="M131.565 141.077C131.956 140.731 132.309 140.412 132.674 140.108C132.78 140.019 132.921 139.971 133.046 139.904C133.1 140.02 133.185 140.131 133.202 140.252C133.317 141.052 133.331 141.901 134.074 142.432C134.389 142.657 134.758 142.892 135.127 142.942C136.499 143.128 138.122 142.987 139.059 141.517C139.439 140.921 139.322 140.315 139.382 139.702C139.398 139.54 139.508 139.28 139.62 139.253C140.071 139.146 139.912 139.531 139.899 139.716C139.848 140.455 140.037 141.184 139.536 141.915C138.931 142.798 138.134 143.362 137.169 143.482C136.224 143.599 135.227 143.668 134.265 143.272C133.403 142.917 132.99 142.293 132.803 141.443C132.778 141.33 132.732 141.221 132.695 141.111C132.608 141.168 132.52 141.226 132.432 141.283C131.498 141.878 130.611 142.596 129.422 142.569C129.251 142.566 129.086 142.351 128.918 142.234C129.07 142.172 129.224 142.114 129.375 142.048C130.094 141.737 130.813 141.423 131.565 141.077Z" fill="#00160A"/>
<path fill-rule="evenodd" clip-rule="evenodd" d="M159.979 57.4408C160.761 56.7483 161.493 56.0691 162.269 55.4439C162.476 55.2764 162.815 55.2316 163.098 55.2149C163.225 55.2074 163.473 55.4065 163.474 55.5144C163.477 55.7199 163.4 55.9936 163.253 56.1207C162.906 56.4215 162.47 56.6198 162.121 56.9186C160.981 57.8949 159.876 58.914 158.72 59.8711C158.562 60.0023 158.118 59.9763 157.935 59.8442C157.689 59.6664 157.784 59.3398 158.025 59.1298C158.662 58.5744 159.305 58.0257 159.979 57.4408Z" fill="#E7EAEE"/>
<path fill-rule="evenodd" clip-rule="evenodd" d="M138.299 176.629C137.645 176.719 137.06 176.849 136.47 176.887C135.774 176.932 135.069 176.937 134.376 176.874C134.152 176.854 133.953 176.563 133.742 176.396C133.948 176.295 134.145 176.139 134.362 176.102C135.512 175.907 136.662 175.686 137.823 175.583C138.803 175.497 139.796 175.55 140.783 175.571C140.896 175.574 141.087 175.769 141.091 175.88C141.094 175.993 140.926 176.191 140.806 176.214C139.997 176.373 139.18 176.495 138.299 176.629Z" fill="#00160A"/>
<path fill-rule="evenodd" clip-rule="evenodd" d="M90.2151 56.9716C90.4863 56.7594 90.701 56.514 90.9685 56.422C91.2041 56.341 91.6907 56.3579 91.7301 56.4606C91.8342 56.7319 91.8835 57.0357 91.5064 57.323C90.3583 58.1977 89.2783 59.1616 88.1685 60.0869C88.0571 60.1798 87.9276 60.3028 87.7993 60.3121C87.5744 60.3284 87.2236 60.3439 87.145 60.2202C87.0372 60.0507 87.0333 59.6364 87.1595 59.5252C88.1432 58.6584 89.1689 57.8391 90.2151 56.9716Z" fill="#E7EAEE"/>
<path fill-rule="evenodd" clip-rule="evenodd" d="M162.961 60.0209C163.865 59.2284 164.785 58.521 165.666 57.7677C165.986 57.4938 166.314 57.2855 166.618 57.6131C166.887 57.9033 166.723 58.2557 166.416 58.5129C165.536 59.2492 164.679 60.0142 163.774 60.7175C163.599 60.8534 163.247 60.7609 162.976 60.7737C162.971 60.5451 162.966 60.3165 162.961 60.0209Z" fill="#E7EAEE"/>
<path fill-rule="evenodd" clip-rule="evenodd" d="M132.57 143.892C132.805 144.194 133.175 144.466 133.169 144.73C133.159 145.172 133.028 145.633 132.518 145.913C131.765 146.327 131.126 146.164 130.509 145.708C129.97 145.311 129.998 144.598 130.541 143.844C130.766 143.53 131.642 143.404 132.035 143.622C132.196 143.711 132.369 143.78 132.57 143.892ZM132.402 144.26C132.219 144.166 132.043 144.047 131.849 143.982C131.4 143.831 131.043 143.939 130.799 144.383C130.561 144.817 130.772 145.129 131.094 145.339C131.307 145.479 131.629 145.556 131.875 145.512C132.145 145.464 132.478 145.299 132.605 145.082C132.703 144.914 132.525 144.585 132.402 144.26Z" fill="#00160A"/>
<path fill-rule="evenodd" clip-rule="evenodd" d="M124.594 60.3895C125.163 60.0435 125.684 59.698 126.245 59.441C126.393 59.3735 126.85 59.5842 126.849 59.6603C126.842 59.9607 126.804 60.382 126.605 60.5328C126.099 60.9182 125.52 61.2313 124.928 61.4698C124.709 61.558 124.211 61.4395 124.125 61.2705C123.945 60.9172 124.126 60.5601 124.594 60.3895Z" fill="#E7EAEE"/>
<defs>
<linearGradient id="paint0_linear_697_1637" x1="125" y1="33" x2="116.5" y2="293.5" gradientUnits="userSpaceOnUse">
<stop stop-color="#0083FD"/>
<stop offset="1" stop-color="#0083FD" stop-opacity="0"/>
</linearGradient>
<linearGradient id="paint1_linear_697_1637" x1="112.196" y1="143.92" x2="112.196" y2="171.149" gradientUnits="userSpaceOnUse">
<stop stop-color="#0083FD"/>
<stop offset="1" stop-color="#0083FD" stop-opacity="0"/>
</linearGradient>
<linearGradient id="paint2_linear_697_1637" x1="172.543" y1="157.118" x2="172.543" y2="184.456" gradientUnits="userSpaceOnUse">
<stop stop-color="#0083FD"/>
<stop offset="1" stop-color="#0083FD" stop-opacity="0"/>
</linearGradient>
<linearGradient id="paint3_linear_697_1637" x1="121.827" y1="176.117" x2="119.5" y2="183" gradientUnits="userSpaceOnUse">
<stop stop-color="#0083FD"/>
<stop offset="1" stop-color="#0083FD" stop-opacity="0"/>
</linearGradient>
</defs>
</svg>
