<svg width="284" height="15" viewBox="0 0 284 15" fill="none" xmlns="http://www.w3.org/2000/svg">
<rect opacity="0.4" y="7" width="87" height="1" fill="#191B1D"/>
<rect opacity="0.4" x="197" y="7" width="87" height="1" fill="#191B1D"/>
<path opacity="0.6" d="M105.42 7.63636C105.42 8.55682 105.254 9.35227 104.922 10.0227C104.589 10.6932 104.134 11.2102 103.554 11.5739C102.974 11.9375 102.313 12.1193 101.568 12.1193C100.824 12.1193 100.162 11.9375 99.5824 11.5739C99.0028 11.2102 98.5469 10.6932 98.2145 10.0227C97.8821 9.35227 97.7159 8.55682 97.7159 7.63636C97.7159 6.71591 97.8821 5.92045 98.2145 5.25C98.5469 4.57955 99.0028 4.0625 99.5824 3.69886C100.162 3.33523 100.824 3.15341 101.568 3.15341C102.313 3.15341 102.974 3.33523 103.554 3.69886C104.134 4.0625 104.589 4.57955 104.922 5.25C105.254 5.92045 105.42 6.71591 105.42 7.63636ZM104.398 7.63636C104.398 6.88068 104.271 6.2429 104.018 5.72301C103.768 5.20312 103.429 4.80966 103 4.54261C102.574 4.27557 102.097 4.14205 101.568 4.14205C101.04 4.14205 100.561 4.27557 100.132 4.54261C99.706 4.80966 99.3665 5.20312 99.1136 5.72301C98.8636 6.2429 98.7386 6.88068 98.7386 7.63636C98.7386 8.39205 98.8636 9.02983 99.1136 9.54972C99.3665 10.0696 99.706 10.4631 100.132 10.7301C100.561 10.9972 101.04 11.1307 101.568 11.1307C102.097 11.1307 102.574 10.9972 103 10.7301C103.429 10.4631 103.768 10.0696 104.018 9.54972C104.271 9.02983 104.398 8.39205 104.398 7.63636ZM107.061 12V5.45455H108.033V6.44318H108.101C108.22 6.11932 108.436 5.85653 108.749 5.65483C109.061 5.45312 109.413 5.35227 109.805 5.35227C109.879 5.35227 109.972 5.35369 110.082 5.35653C110.193 5.35937 110.277 5.36364 110.334 5.36932V6.39205C110.3 6.38352 110.222 6.37074 110.099 6.35369C109.98 6.33381 109.854 6.32386 109.72 6.32386C109.402 6.32386 109.118 6.39062 108.868 6.52415C108.621 6.65483 108.425 6.83665 108.28 7.0696C108.138 7.29972 108.067 7.5625 108.067 7.85795V12H107.061ZM119.81 5.45455C119.759 5.02273 119.551 4.6875 119.188 4.44886C118.824 4.21023 118.378 4.09091 117.85 4.09091C117.463 4.09091 117.125 4.15341 116.836 4.27841C116.549 4.40341 116.324 4.57528 116.162 4.79403C116.003 5.01278 115.924 5.26136 115.924 5.53977C115.924 5.77273 115.979 5.97301 116.09 6.14062C116.203 6.3054 116.348 6.44318 116.525 6.55398C116.701 6.66193 116.885 6.75142 117.078 6.82244C117.272 6.89062 117.449 6.94602 117.611 6.98864L118.498 7.22727C118.725 7.28693 118.978 7.36932 119.256 7.47443C119.537 7.57955 119.806 7.72301 120.061 7.90483C120.32 8.08381 120.533 8.31392 120.701 8.59517C120.868 8.87642 120.952 9.22159 120.952 9.63068C120.952 10.1023 120.828 10.5284 120.581 10.9091C120.337 11.2898 119.979 11.5923 119.507 11.8168C119.039 12.0412 118.469 12.1534 117.799 12.1534C117.174 12.1534 116.632 12.0526 116.175 11.8509C115.721 11.6491 115.363 11.3679 115.101 11.0071C114.843 10.6463 114.696 10.2273 114.662 9.75H115.753C115.782 10.0795 115.892 10.3523 116.086 10.5682C116.282 10.7812 116.529 10.9403 116.827 11.0455C117.128 11.1477 117.452 11.1989 117.799 11.1989C118.202 11.1989 118.564 11.1335 118.885 11.0028C119.206 10.8693 119.461 10.6847 119.648 10.4489C119.836 10.2102 119.929 9.93182 119.929 9.61364C119.929 9.32386 119.848 9.08807 119.686 8.90625C119.525 8.72443 119.311 8.5767 119.047 8.46307C118.783 8.34943 118.498 8.25 118.191 8.16477L117.117 7.85795C116.435 7.66193 115.895 7.3821 115.498 7.01847C115.1 6.65483 114.901 6.17898 114.901 5.59091C114.901 5.10227 115.033 4.67614 115.297 4.3125C115.564 3.94602 115.922 3.66193 116.371 3.46023C116.823 3.25568 117.327 3.15341 117.884 3.15341C118.446 3.15341 118.946 3.25426 119.384 3.45597C119.821 3.65483 120.168 3.92756 120.424 4.27415C120.682 4.62074 120.819 5.0142 120.833 5.45455H119.81ZM122.553 12V5.45455H123.559V12H122.553ZM123.065 4.36364C122.869 4.36364 122.7 4.29688 122.558 4.16335C122.418 4.02983 122.349 3.86932 122.349 3.68182C122.349 3.49432 122.418 3.33381 122.558 3.20028C122.7 3.06676 122.869 3 123.065 3C123.261 3 123.428 3.06676 123.567 3.20028C123.71 3.33381 123.781 3.49432 123.781 3.68182C123.781 3.86932 123.71 4.02983 123.567 4.16335C123.428 4.29688 123.261 4.36364 123.065 4.36364ZM128.043 14.5909C127.557 14.5909 127.14 14.5284 126.79 14.4034C126.441 14.2812 126.15 14.1193 125.917 13.9176C125.686 13.7188 125.503 13.5057 125.367 13.2784L126.168 12.7159C126.259 12.8352 126.374 12.9716 126.513 13.125C126.652 13.2812 126.843 13.4162 127.084 13.5298C127.328 13.6463 127.648 13.7045 128.043 13.7045C128.571 13.7045 129.007 13.5767 129.351 13.321C129.695 13.0653 129.867 12.6648 129.867 12.1193V10.7898H129.782C129.708 10.9091 129.603 11.0568 129.466 11.233C129.333 11.4062 129.14 11.5611 128.887 11.6974C128.637 11.831 128.299 11.8977 127.873 11.8977C127.344 11.8977 126.87 11.7727 126.449 11.5227C126.032 11.2727 125.701 10.9091 125.456 10.4318C125.215 9.95455 125.094 9.375 125.094 8.69318C125.094 8.02273 125.212 7.43892 125.448 6.94176C125.684 6.44176 126.012 6.0554 126.432 5.78267C126.853 5.5071 127.338 5.36932 127.89 5.36932C128.316 5.36932 128.654 5.44034 128.904 5.58239C129.157 5.72159 129.35 5.88068 129.483 6.05966C129.62 6.2358 129.725 6.38068 129.799 6.49432H129.901V5.45455H130.873V12.1875C130.873 12.75 130.745 13.2074 130.489 13.5597C130.236 13.9148 129.895 14.1747 129.466 14.3395C129.04 14.5071 128.566 14.5909 128.043 14.5909ZM128.009 10.9943C128.412 10.9943 128.753 10.902 129.032 10.7173C129.31 10.5327 129.522 10.267 129.667 9.92045C129.811 9.57386 129.884 9.15909 129.884 8.67614C129.884 8.20455 129.813 7.78835 129.671 7.42756C129.529 7.06676 129.319 6.78409 129.04 6.57955C128.762 6.375 128.418 6.27273 128.009 6.27273C127.583 6.27273 127.228 6.38068 126.944 6.59659C126.662 6.8125 126.451 7.10227 126.309 7.46591C126.169 7.82955 126.1 8.23295 126.1 8.67614C126.1 9.13068 126.171 9.53267 126.313 9.8821C126.458 10.2287 126.671 10.5014 126.952 10.7003C127.236 10.8963 127.588 10.9943 128.009 10.9943ZM133.719 8.0625V12H132.713V5.45455H133.685V6.47727H133.77C133.924 6.14489 134.157 5.87784 134.469 5.67614C134.782 5.47159 135.185 5.36932 135.679 5.36932C136.123 5.36932 136.51 5.46023 136.843 5.64205C137.175 5.82102 137.434 6.09375 137.618 6.46023C137.803 6.82386 137.895 7.28409 137.895 7.84091V12H136.89V7.90909C136.89 7.39489 136.756 6.99432 136.489 6.70739C136.222 6.41761 135.855 6.27273 135.39 6.27273C135.069 6.27273 134.782 6.34233 134.529 6.48153C134.279 6.62074 134.081 6.82386 133.936 7.09091C133.792 7.35795 133.719 7.68182 133.719 8.0625ZM148.972 3.27273H150.028V9.05114C150.028 9.64773 149.888 10.1804 149.607 10.6491C149.328 11.1151 148.935 11.483 148.426 11.7528C147.918 12.0199 147.321 12.1534 146.636 12.1534C145.952 12.1534 145.355 12.0199 144.847 11.7528C144.338 11.483 143.943 11.1151 143.662 10.6491C143.384 10.1804 143.244 9.64773 143.244 9.05114V3.27273H144.301V8.96591C144.301 9.39205 144.395 9.77131 144.582 10.1037C144.77 10.4332 145.037 10.6932 145.384 10.8835C145.733 11.071 146.151 11.1648 146.636 11.1648C147.122 11.1648 147.54 11.071 147.889 10.8835C148.239 10.6932 148.506 10.4332 148.69 10.1037C148.878 9.77131 148.972 9.39205 148.972 8.96591V3.27273ZM152.002 14.4545V5.45455H152.974V6.49432H153.093C153.167 6.38068 153.27 6.2358 153.4 6.05966C153.534 5.88068 153.724 5.72159 153.971 5.58239C154.221 5.44034 154.559 5.36932 154.985 5.36932C155.537 5.36932 156.022 5.5071 156.443 5.78267C156.863 6.05824 157.191 6.44886 157.427 6.95455C157.663 7.46023 157.781 8.05682 157.781 8.74432C157.781 9.4375 157.663 10.0384 157.427 10.5469C157.191 11.0526 156.865 11.4446 156.447 11.723C156.029 11.9986 155.548 12.1364 155.002 12.1364C154.582 12.1364 154.245 12.0668 153.993 11.9276C153.74 11.7855 153.545 11.625 153.409 11.446C153.272 11.2642 153.167 11.1136 153.093 10.9943H153.008V14.4545H152.002ZM152.991 8.72727C152.991 9.22159 153.064 9.65767 153.208 10.0355C153.353 10.4105 153.565 10.7045 153.843 10.9176C154.122 11.1278 154.463 11.233 154.866 11.233C155.287 11.233 155.637 11.1222 155.919 10.9006C156.203 10.6761 156.416 10.375 156.558 9.99716C156.703 9.61648 156.775 9.19318 156.775 8.72727C156.775 8.26705 156.704 7.85227 156.562 7.48295C156.423 7.1108 156.211 6.81676 155.927 6.60085C155.646 6.3821 155.292 6.27273 154.866 6.27273C154.457 6.27273 154.113 6.37642 153.835 6.58381C153.556 6.78835 153.346 7.07528 153.204 7.4446C153.062 7.81108 152.991 8.23864 152.991 8.72727ZM164.412 12L162.025 3.27273H163.099L164.923 10.3807H165.008L166.866 3.27273H168.059L169.917 10.3807H170.002L171.826 3.27273H172.9L170.514 12H169.423L167.497 5.04545H167.429L165.502 12H164.412ZM174.081 12V5.45455H175.086V12H174.081ZM174.592 4.36364C174.396 4.36364 174.227 4.29688 174.085 4.16335C173.946 4.02983 173.876 3.86932 173.876 3.68182C173.876 3.49432 173.946 3.33381 174.085 3.20028C174.227 3.06676 174.396 3 174.592 3C174.788 3 174.956 3.06676 175.095 3.20028C175.237 3.33381 175.308 3.49432 175.308 3.68182C175.308 3.86932 175.237 4.02983 175.095 4.16335C174.956 4.29688 174.788 4.36364 174.592 4.36364ZM179.775 5.45455V6.30682H176.383V5.45455H179.775ZM177.371 3.88636H178.377V10.125C178.377 10.4091 178.418 10.6222 178.501 10.7642C178.586 10.9034 178.694 10.9972 178.825 11.0455C178.958 11.0909 179.099 11.1136 179.246 11.1136C179.357 11.1136 179.448 11.108 179.519 11.0966C179.59 11.0824 179.647 11.071 179.69 11.0625L179.894 11.9659C179.826 11.9915 179.731 12.017 179.609 12.0426C179.487 12.071 179.332 12.0852 179.144 12.0852C178.86 12.0852 178.582 12.0241 178.309 11.902C178.039 11.7798 177.815 11.5938 177.636 11.3438C177.46 11.0938 177.371 10.7784 177.371 10.3977V3.88636ZM182.434 8.0625V12H181.428V3.27273H182.434V6.47727H182.519C182.673 6.1392 182.903 5.87074 183.21 5.67188C183.519 5.47017 183.931 5.36932 184.445 5.36932C184.891 5.36932 185.282 5.45881 185.617 5.63778C185.952 5.81392 186.212 6.08523 186.397 6.4517C186.585 6.81534 186.678 7.27841 186.678 7.84091V12H185.673V7.90909C185.673 7.3892 185.538 6.98722 185.268 6.70312C185.001 6.41619 184.63 6.27273 184.156 6.27273C183.826 6.27273 183.531 6.34233 183.269 6.48153C183.011 6.62074 182.806 6.82386 182.656 7.09091C182.508 7.35795 182.434 7.68182 182.434 8.0625Z" fill="#191B1D"/>
</svg>
