<svg width="240" height="114" viewBox="0 0 240 114" fill="none" xmlns="http://www.w3.org/2000/svg">
<path fill-rule="evenodd" clip-rule="evenodd" d="M72.1956 40.1777L80.4359 31.9857H94.0784L78.525 47.4908L72.1956 40.1777Z" fill="#246EE9"/>
<path fill-rule="evenodd" clip-rule="evenodd" d="M125.669 0H8.41772H0L4.27335 7.26473L57.4727 97.4972L62.9474 87.8539L27.1883 27.2044H98.0051L103.391 17.553H21.5039L16.8435 9.65135H117.251L117.243 9.65942H128.402L129.822 7.26473L134.095 0H125.669Z" fill="#246EE9"/>
<path fill-rule="evenodd" clip-rule="evenodd" d="M86.0396 62.633L59.4803 31.9858H46.636L80.8793 71.3975L72.0423 86.4026L61.6653 104.681L62.899 106.778L67.0433 113.817L71.1957 106.778L123.75 17.5612H112.591L86.0396 62.633Z" fill="#246EE9"/>
<path fill-rule="evenodd" clip-rule="evenodd" d="M51.0225 61.601L59.416 53.1671L65.8018 60.4238L56.086 70.188L51.0225 61.601Z" fill="#246EE9"/>
<path fill-rule="evenodd" clip-rule="evenodd" d="M144.037 23.576V39.8471H147.931V33.05H160.283V29.8087H147.931V26.8093H160.662V23.576H144.037Z" fill="#246EE9"/>
<path fill-rule="evenodd" clip-rule="evenodd" d="M168.725 28.2687H164.831V39.8471H168.725V28.2687ZM164.831 23.576V26.8093H168.725V23.576H164.831Z" fill="#246EE9"/>
<path fill-rule="evenodd" clip-rule="evenodd" d="M176.901 28.2687H173.007V39.8471H176.901V34.1062C176.901 32.0421 178.03 30.9375 179.997 30.9375H181.916C183.908 30.9375 184.658 31.7841 184.658 33.7999V39.8471H188.552V33.0258C188.552 30.0264 186.819 28.2687 183.392 28.2687H180.247C177.812 28.2687 177.079 29.462 176.893 29.9135V28.2687H176.901Z" fill="#246EE9"/>
<path fill-rule="evenodd" clip-rule="evenodd" d="M204.347 39.8471H208.242V23.576H204.347V30.0264C204.251 29.841 203.461 28.2687 200.993 28.2687H197.526C194.365 28.2687 192.487 30.0506 192.487 32.8888V35.2996C192.487 37.9684 194.059 39.8471 197.526 39.8471H200.993C203.146 39.8471 204.347 38.3474 204.347 38.3474V39.8471ZM201.679 30.9375C203.34 30.9375 204.347 31.9454 204.347 33.1387V34.9932C204.347 36.1865 203.34 37.1702 201.679 37.1702H199.05C197.131 37.1702 196.381 36.4203 196.381 34.9932V33.1629C196.381 31.7761 197.083 30.9375 199.05 30.9375H201.679Z" fill="#246EE9"/>
<path fill-rule="evenodd" clip-rule="evenodd" d="M143.98 46.5232L152.35 57.3034V62.7942H156.244V57.3034L164.613 46.5232H159.711L154.277 54.0943L148.882 46.5232H143.98Z" fill="#246EE9"/>
<path fill-rule="evenodd" clip-rule="evenodd" d="M170.612 51.1594C167.193 51.1594 165.524 53.2477 165.524 55.8037V58.2226C165.524 60.8914 167.355 62.7943 170.612 62.7943H176.055C179.36 62.7943 181.118 60.9156 181.118 58.2709V55.8117C181.118 53.2316 179.433 51.1675 176.03 51.1675H170.612V51.1594ZM177.224 56.1101V57.9646C177.224 59.5126 176.426 60.1173 174.716 60.1173H172.063C170.257 60.1173 169.411 59.4401 169.411 57.9807V56.0778C169.411 54.5781 170.257 53.8283 172.063 53.8283H174.716C176.426 53.8363 177.224 54.7474 177.224 56.1101Z" fill="#246EE9"/>
<path fill-rule="evenodd" clip-rule="evenodd" d="M185.053 51.2078V57.8919C185.053 61.3187 187.141 62.7942 190.092 62.7942H193.817C195.478 62.7942 196.607 62.1572 197.171 61.3187V62.7942H201.066V51.2158H197.171V56.9567C197.171 58.9966 195.785 60.1173 193.817 60.1173H192.293C190.044 60.1173 188.939 59.1578 188.939 56.9567V51.2158H185.053V51.2078Z" fill="#246EE9"/>
<path fill-rule="evenodd" clip-rule="evenodd" d="M208.895 51.2078H205V62.7861H208.895V56.6664C208.895 55.0941 210 53.8766 211.564 53.8766H212.991C214.724 53.8766 215.079 54.7474 215.337 55.9165H219.232C219.232 53.4573 218.337 51.2078 214.168 51.2078H212.225C210.604 51.2078 209.838 51.6996 208.895 52.8929V51.2078Z" fill="#246EE9"/>
<path fill-rule="evenodd" clip-rule="evenodd" d="M136.772 78.6299H129.031C129.031 77.501 129.475 76.5174 130.999 76.5174H134.587C136.264 76.5254 136.772 77.5091 136.772 78.6299ZM140.505 80.7907V78.8234C140.505 76.5013 139.36 74.1146 135.538 74.1146H130.007C126.54 74.1146 125.153 76.34 125.153 78.3799V81.3068C125.153 83.8385 126.677 85.7414 129.934 85.7414H135.635C139.554 85.7414 140.513 83.9837 140.513 81.9437H136.788C136.788 82.8549 136.344 83.3225 135.401 83.3225H130.902C129.305 83.3225 129.047 82.2421 129.047 81.2342V80.7907H140.505Z" fill="#246EE9"/>
<path fill-rule="evenodd" clip-rule="evenodd" d="M144.061 69.4623L151.567 77.364L143.15 85.7333H148.866L154.639 79.3152L160.404 85.7333H166.129L157.711 77.364L165.21 69.4623H159.937L154.639 75.3966L149.342 69.4623H144.061Z" fill="#246EE9"/>
<path fill-rule="evenodd" clip-rule="evenodd" d="M172.878 74.155H168.983V90.4261H172.878V84.145C173.297 84.8223 174.539 85.7415 176.256 85.7415H179.747C183.214 85.7415 184.811 83.7258 184.811 81.194V78.6622C184.811 75.7112 183.005 74.1631 179.747 74.1631H176.232C174.45 74.1631 173.539 74.9371 172.878 75.5499V74.155ZM180.916 80.8876C180.916 82.3631 180.046 83.0646 178.199 83.0646H175.409C173.7 83.0646 172.878 82.2906 172.878 80.8876V79.0089C172.878 77.6221 173.7 76.8319 175.409 76.8319H178.199C180.054 76.8319 180.916 77.5818 180.916 79.0089V80.8876Z" fill="#246EE9"/>
<path fill-rule="evenodd" clip-rule="evenodd" d="M200.372 78.6299H192.64C192.64 77.501 193.083 76.5174 194.607 76.5174H198.195C199.856 76.5254 200.372 77.5091 200.372 78.6299ZM204.097 80.7907V78.8234C204.097 76.5013 202.953 74.1146 199.131 74.1146H193.599C190.132 74.1146 188.746 76.34 188.746 78.3799V81.3068C188.746 83.8385 190.269 85.7414 193.527 85.7414H199.227C203.146 85.7414 204.106 83.9837 204.106 81.9437H200.38C200.38 82.8549 199.937 83.3225 198.994 83.3225H194.494C192.898 83.3225 192.64 82.2421 192.64 81.2342V80.7907H204.097Z" fill="#246EE9"/>
<path fill-rule="evenodd" clip-rule="evenodd" d="M211.814 74.155H207.919V85.7334H211.814V79.6136C211.814 78.0414 212.918 76.8239 214.482 76.8239H215.91C217.643 76.8239 217.998 77.6947 218.256 78.8638H222.15C222.15 76.4046 221.255 74.155 217.087 74.155H215.144C213.523 74.155 212.757 74.6469 211.814 75.8402V74.155Z" fill="#246EE9"/>
<path fill-rule="evenodd" clip-rule="evenodd" d="M226.48 71.9054V74.155H225.069V76.8238H226.48V81.4197C226.48 84.0885 228.165 85.7334 231.173 85.7334H233.632C238.599 85.7334 239.26 83.4354 239.26 81.0004H235.365C235.365 82.1695 234.97 83.0645 233.842 83.0645H232.221C231.092 83.0645 230.366 82.4517 230.366 81.0004V76.8238H237.631V74.155H230.366V71.9054H226.48Z" fill="#246EE9"/>
</svg>
