<svg width="375" height="812" viewBox="0 0 375 812" fill="none" xmlns="http://www.w3.org/2000/svg">
<g clip-path="url(#clip0_3_227)">
<rect width="375" height="812" fill="white"/>
<circle cx="334.5" cy="164.5" r="98.5" fill="url(#paint0_linear_3_227)"/>
<circle cx="334.5" cy="164.5" r="120" stroke="#246EE9" stroke-width="3" stroke-miterlimit="1.723" stroke-linecap="round" stroke-dasharray="306 108"/>
<circle cx="173.5" cy="53.5" r="21" fill="#AEDEFF" stroke="#2479ED" stroke-width="3"/>
<circle cx="109.5" cy="757.5" r="182.5" fill="url(#paint1_linear_3_227)"/>
<circle cx="109.5" cy="757.5" r="224" stroke="#246EE9" stroke-width="3" stroke-miterlimit="1.723" stroke-linecap="round" stroke-dasharray="306 108"/>
<circle cx="274.5" cy="594.5" r="21" fill="#DDEEFF" stroke="#246EE9" stroke-width="3"/>
<circle opacity="0.4" r="6.5" transform="matrix(-1 0 0 1 248.5 78.5)" fill="#2474EB"/>
<circle opacity="0.4" r="6.5" transform="matrix(-1 0 0 1 374.5 631.5)" fill="#2474EB"/>
<path fill-rule="evenodd" clip-rule="evenodd" d="M140.196 367.178L148.436 358.986H162.078L146.525 374.491L140.196 367.178Z" fill="#246EE9"/>
<path fill-rule="evenodd" clip-rule="evenodd" d="M193.669 327H76.4177H68L72.2734 334.265L125.473 424.497L130.947 414.854L95.1883 354.204H166.005L171.391 344.553H89.5039L84.8435 336.651H185.251L185.243 336.659H196.402L197.822 334.265L202.095 327H193.669Z" fill="#246EE9"/>
<path fill-rule="evenodd" clip-rule="evenodd" d="M154.04 389.633L127.48 358.986H114.636L148.879 398.397L140.042 413.403L129.665 431.681L130.899 433.778L135.043 440.817L139.196 433.778L191.75 344.561H180.591L154.04 389.633Z" fill="#246EE9"/>
<path fill-rule="evenodd" clip-rule="evenodd" d="M119.022 388.601L127.416 380.167L133.802 387.424L124.086 397.188L119.022 388.601Z" fill="#246EE9"/>
<path fill-rule="evenodd" clip-rule="evenodd" d="M212.037 350.576V366.847H215.931V360.05H228.283V356.809H215.931V353.809H228.662V350.576H212.037Z" fill="#246EE9"/>
<path fill-rule="evenodd" clip-rule="evenodd" d="M236.725 355.269H232.831V366.847H236.725V355.269ZM232.831 350.576V353.809H236.725V350.576H232.831Z" fill="#246EE9"/>
<path fill-rule="evenodd" clip-rule="evenodd" d="M244.901 355.269H241.007V366.847H244.901V361.106C244.901 359.042 246.03 357.938 247.997 357.938H249.916C251.908 357.938 252.658 358.784 252.658 360.8V366.847H256.552V360.026C256.552 357.026 254.819 355.269 251.392 355.269H248.247C245.812 355.269 245.079 356.462 244.893 356.914V355.269H244.901Z" fill="#246EE9"/>
<path fill-rule="evenodd" clip-rule="evenodd" d="M272.347 366.847H276.242V350.576H272.347V357.026C272.251 356.841 271.461 355.269 268.993 355.269H265.526C262.365 355.269 260.487 357.051 260.487 359.889V362.3C260.487 364.968 262.059 366.847 265.526 366.847H268.993C271.146 366.847 272.347 365.347 272.347 365.347V366.847ZM269.679 357.938C271.34 357.938 272.347 358.945 272.347 360.139V361.993C272.347 363.187 271.34 364.17 269.679 364.17H267.05C265.131 364.17 264.381 363.42 264.381 361.993V360.163C264.381 358.776 265.083 357.938 267.05 357.938H269.679Z" fill="#246EE9"/>
<path fill-rule="evenodd" clip-rule="evenodd" d="M211.98 373.523L220.35 384.303V389.794H224.244V384.303L232.613 373.523H227.711L222.277 381.094L216.882 373.523H211.98Z" fill="#246EE9"/>
<path fill-rule="evenodd" clip-rule="evenodd" d="M238.612 378.159C235.193 378.159 233.524 380.248 233.524 382.804V385.223C233.524 387.891 235.355 389.794 238.612 389.794H244.055C247.36 389.794 249.118 387.916 249.118 385.271V382.812C249.118 380.232 247.433 378.167 244.03 378.167H238.612V378.159ZM245.224 383.11V384.965C245.224 386.513 244.426 387.117 242.716 387.117H240.063C238.257 387.117 237.411 386.44 237.411 384.981V383.078C237.411 381.578 238.257 380.828 240.063 380.828H242.716C244.426 380.836 245.224 381.747 245.224 383.11Z" fill="#246EE9"/>
<path fill-rule="evenodd" clip-rule="evenodd" d="M253.053 378.208V384.892C253.053 388.319 255.141 389.794 258.092 389.794H261.817C263.478 389.794 264.607 389.157 265.171 388.319V389.794H269.066V378.216H265.171V383.957C265.171 385.997 263.785 387.117 261.817 387.117H260.293C258.044 387.117 256.939 386.158 256.939 383.957V378.216H253.053V378.208Z" fill="#246EE9"/>
<path fill-rule="evenodd" clip-rule="evenodd" d="M276.895 378.208H273V389.786H276.895V383.666C276.895 382.094 278 380.877 279.564 380.877H280.991C282.724 380.877 283.079 381.747 283.337 382.917H287.232C287.232 380.457 286.337 378.208 282.168 378.208H280.225C278.604 378.208 277.838 378.7 276.895 379.893V378.208Z" fill="#246EE9"/>
<path fill-rule="evenodd" clip-rule="evenodd" d="M204.772 405.63H197.031C197.031 404.501 197.475 403.517 198.999 403.517H202.587C204.264 403.525 204.772 404.509 204.772 405.63ZM208.505 407.791V405.823C208.505 403.501 207.36 401.115 203.538 401.115H198.007C194.54 401.115 193.153 403.34 193.153 405.38V408.307C193.153 410.839 194.677 412.741 197.934 412.741H203.635C207.554 412.741 208.513 410.984 208.513 408.944H204.788C204.788 409.855 204.344 410.322 203.401 410.322H198.902C197.305 410.322 197.047 409.242 197.047 408.234V407.791H208.505Z" fill="#246EE9"/>
<path fill-rule="evenodd" clip-rule="evenodd" d="M212.061 396.462L219.567 404.364L211.15 412.733H216.866L222.639 406.315L228.404 412.733H234.129L225.711 404.364L233.21 396.462H227.937L222.639 402.397L217.342 396.462H212.061Z" fill="#246EE9"/>
<path fill-rule="evenodd" clip-rule="evenodd" d="M240.878 401.155H236.983V417.426H240.878V411.145C241.297 411.822 242.539 412.741 244.256 412.741H247.747C251.214 412.741 252.811 410.726 252.811 408.194V405.662C252.811 402.711 251.005 401.163 247.747 401.163H244.232C242.45 401.163 241.539 401.937 240.878 402.55V401.155ZM248.916 407.888C248.916 409.363 248.046 410.065 246.199 410.065H243.409C241.7 410.065 240.878 409.291 240.878 407.888V406.009C240.878 404.622 241.7 403.832 243.409 403.832H246.199C248.054 403.832 248.916 404.582 248.916 406.009V407.888Z" fill="#246EE9"/>
<path fill-rule="evenodd" clip-rule="evenodd" d="M268.372 405.63H260.64C260.64 404.501 261.083 403.517 262.607 403.517H266.195C267.856 403.525 268.372 404.509 268.372 405.63ZM272.097 407.791V405.823C272.097 403.501 270.953 401.115 267.131 401.115H261.599C258.132 401.115 256.746 403.34 256.746 405.38V408.307C256.746 410.839 258.269 412.741 261.527 412.741H267.227C271.146 412.741 272.106 410.984 272.106 408.944H268.38C268.38 409.855 267.937 410.322 266.994 410.322H262.494C260.898 410.322 260.64 409.242 260.64 408.234V407.791H272.097Z" fill="#246EE9"/>
<path fill-rule="evenodd" clip-rule="evenodd" d="M279.814 401.155H275.919V412.733H279.814V406.614C279.814 405.041 280.918 403.824 282.482 403.824H283.91C285.643 403.824 285.998 404.695 286.256 405.864H290.15C290.15 403.405 289.255 401.155 285.087 401.155H283.144C281.523 401.155 280.757 401.647 279.814 402.84V401.155Z" fill="#246EE9"/>
<path fill-rule="evenodd" clip-rule="evenodd" d="M294.48 398.905V401.155H293.069V403.824H294.48V408.42C294.48 411.089 296.165 412.733 299.173 412.733H301.632C306.599 412.733 307.26 410.435 307.26 408H303.365C303.365 409.17 302.97 410.065 301.842 410.065H300.221C299.092 410.065 298.366 409.452 298.366 408V403.824H305.631V401.155H298.366V398.905H294.48Z" fill="#246EE9"/>
</g>
<defs>
<linearGradient id="paint0_linear_3_227" x1="248.468" y1="136.654" x2="379.802" y2="183.203" gradientUnits="userSpaceOnUse">
<stop stop-color="#246EE9"/>
<stop offset="1" stop-color="#25A9FF"/>
</linearGradient>
<linearGradient id="paint1_linear_3_227" x1="42" y1="613" x2="130" y2="857" gradientUnits="userSpaceOnUse">
<stop stop-color="#246EE9"/>
<stop offset="1" stop-color="#25A9FF"/>
</linearGradient>
<clipPath id="clip0_3_227">
<rect width="375" height="812" fill="white"/>
</clipPath>
</defs>
</svg>
