<svg width="60" height="18" viewBox="0 0 60 18" fill="none" xmlns="http://www.w3.org/2000/svg">
<circle cx="9" cy="9" r="9" fill="#246EE9"/>
<path d="M7.143 6.411V5.234H9.629V13H8.309V6.411H7.143Z" fill="white"/>
<circle cx="51" cy="9" r="9" fill="#246EE9"/>
<path d="M48.44 12.021C49.628 11.207 50.5777 10.4113 51.289 9.634C52.0077 8.84933 52.367 8.12333 52.367 7.456C52.367 7.06 52.268 6.74467 52.07 6.51C51.8793 6.27533 51.5677 6.158 51.135 6.158C50.6877 6.158 50.3503 6.30467 50.123 6.598C49.8957 6.884 49.7673 7.29467 49.738 7.83H48.517C48.5683 6.94267 48.8397 6.26433 49.331 5.795C49.8297 5.32567 50.464 5.091 51.234 5.091C51.9893 5.091 52.5797 5.29267 53.005 5.696C53.4377 6.092 53.654 6.642 53.654 7.346C53.654 7.91067 53.478 8.48267 53.126 9.062C52.7813 9.64133 52.3413 10.1767 51.806 10.668C51.2707 11.152 50.717 11.57 50.145 11.922H53.83V12.945H48.44V12.021Z" fill="white"/>
<rect x="18" y="9" width="24" height="1" fill="#246EE9"/>
</svg>
