<svg width="44" height="44" viewBox="0 0 44 44" fill="none" xmlns="http://www.w3.org/2000/svg">
<circle opacity="0.2" cx="22" cy="22" r="22" fill="#687282"/>
<g opacity="0.6">
<path d="M22.0195 11C15.9434 11 11 15.9383 11 22.0082C11 28.0781 15.9434 33.0164 22.0195 33.0164C28.0957 33.0164 33.0391 28.0781 33.0391 22.0082C33.0391 15.9383 28.0957 11 22.0195 11ZM22.0195 30.8148C17.1588 30.8148 13.2039 26.8639 13.2039 22.0082C13.2039 17.1525 17.1588 13.2016 22.0195 13.2016C26.8802 13.2016 30.8352 17.1525 30.8352 22.0082C30.8352 26.8639 26.8802 30.8148 22.0195 30.8148Z" fill="#687282"/>
<path d="M23.1219 16.5042H20.918V22.464L24.5467 26.089L26.1049 24.5324L23.1219 21.5525V16.5042Z" fill="#687282"/>
</g>
</svg>
