<svg width="47" height="47" viewBox="0 0 47 47" fill="none" xmlns="http://www.w3.org/2000/svg">
<circle cx="23.5" cy="23.5" r="23.5" fill="#FFF5DD"/>
<path d="M24.0158 13.0396C18.5103 13.0396 14.0312 17.5054 14.0312 22.9946C14.0312 28.4837 18.5103 32.9496 24.0158 32.9496C29.5213 32.9496 34.0004 28.4837 34.0004 22.9946C34.0004 17.5054 29.5213 13.0396 24.0158 13.0396ZM24.0158 30.9586C19.6116 30.9586 16.0282 27.3857 16.0282 22.9946C16.0282 18.6034 19.6116 15.0306 24.0158 15.0306C28.42 15.0306 32.0035 18.6034 32.0035 22.9946C32.0035 27.3857 28.42 30.9586 24.0158 30.9586Z" fill="#F2AD07"/>
<path d="M25.015 18.0171H23.0181V23.4067L26.306 26.6849L27.7178 25.2773L25.015 22.5825V18.0171Z" fill="#F2AD07"/>
</svg>
