<svg width="44" height="308" viewBox="0 0 44 308" fill="none" xmlns="http://www.w3.org/2000/svg">
<rect x="22" y="44" width="2" height="44" fill="#0FCE16"/>
<circle cx="22" cy="22" r="22" fill="#0FCE16"/>
<path d="M30.5102 15.0511L18.931 26.7651L13.4902 21.2624L13.4901 21.2624C13.092 20.8599 12.4454 20.8599 12.0473 21.2624L12.0471 21.2626C11.651 21.6638 11.6509 22.3129 12.0472 22.7141L12.0472 22.7142L18.208 28.948L18.2081 28.9482C18.6065 29.3506 19.2527 29.3506 19.6511 28.9482L19.6512 28.948L31.9528 16.5032L31.9529 16.5031C32.349 16.1019 32.3491 15.4527 31.9528 15.0515L31.9525 15.0512C31.7558 14.8528 31.4867 14.7436 31.2075 14.7503L31.2075 14.7502C30.9449 14.7561 30.6955 14.8644 30.5105 15.0508L30.5102 15.0511Z" fill="white" stroke="white" stroke-width="0.5"/>
<circle cx="22" cy="110" r="22" fill="#0FCE16"/>
<path d="M30.5102 103.051L18.931 114.765L13.4902 109.262L13.4901 109.262C13.092 108.86 12.4454 108.86 12.0473 109.262L12.0471 109.263C11.651 109.664 11.6509 110.313 12.0472 110.714L12.0472 110.714L18.208 116.948L18.2081 116.948C18.6065 117.351 19.2527 117.351 19.6511 116.948L19.6512 116.948L31.9528 104.503L31.9529 104.503C32.349 104.102 32.3491 103.453 31.9528 103.052L31.9525 103.051C31.7558 102.853 31.4867 102.744 31.2075 102.75L31.2075 102.75C30.9449 102.756 30.6955 102.864 30.5105 103.051L30.5102 103.051Z" fill="white" stroke="white" stroke-width="0.5"/>
<rect x="21" y="220" width="2" height="44" fill="#E1E3E6"/>
<circle opacity="0.2" cx="22" cy="286" r="22" fill="#687282"/>
<g opacity="0.6">
<path d="M22.0195 275C15.9434 275 11 279.938 11 286.008C11 292.078 15.9434 297.016 22.0195 297.016C28.0957 297.016 33.0391 292.078 33.0391 286.008C33.0391 279.938 28.0957 275 22.0195 275ZM22.0195 294.815C17.1588 294.815 13.2039 290.864 13.2039 286.008C13.2039 281.152 17.1588 277.202 22.0195 277.202C26.8802 277.202 30.8352 281.152 30.8352 286.008C30.8352 290.864 26.8802 294.815 22.0195 294.815Z" fill="#687282"/>
<path d="M23.1219 280.504H20.918V286.464L24.5467 290.089L26.1049 288.532L23.1219 285.553V280.504Z" fill="#687282"/>
</g>
<rect x="21" y="132" width="2" height="44" fill="#FF3E01"/>
<circle cx="22" cy="198" r="22" fill="#FF3E01"/>
<path d="M23.441 198.239L30.9995 205.798L29.797 207L22.2385 199.442L14.68 207L13.4775 205.798L21.036 198.239L13.4775 190.681L14.68 189.478L22.2385 197.037L29.797 189.478L30.9995 190.681L23.441 198.239Z" fill="white"/>
</svg>
