<svg width="300" height="122" viewBox="0 0 300 122" fill="none" xmlns="http://www.w3.org/2000/svg">
<rect x="0.5" y="0.5" width="299" height="121" rx="9.5" fill="white" stroke="black" stroke-dasharray="2 2"/>
<path d="M150 51.0001V66.0001M150 51.0001L145.833 54.3334M150 51.0001L154.167 54.3334M138.39 46.1951C136.814 46.5917 135.436 47.5503 134.517 48.8908C133.598 50.2313 133.199 51.8613 133.397 53.4747C133.595 55.0881 134.375 56.5738 135.591 57.6526C136.807 58.7314 138.375 59.3291 140 59.3334H141.667" stroke="#246EE9" stroke-width="2" stroke-linecap="round" stroke-linejoin="round"/>
<path d="M156.383 42.8967C155.814 40.641 154.408 38.6863 152.45 37.4288C150.493 36.1713 148.131 35.7052 145.842 36.1249C143.554 36.5446 141.511 37.8187 140.127 39.689C138.743 41.5592 138.122 43.8857 138.39 46.1967C138.39 46.1967 138.645 47.6667 139.167 48.5001" stroke="#246EE9" stroke-width="2" stroke-linecap="round" stroke-linejoin="round"/>
<path d="M158.334 59.3334C159.51 59.3326 160.674 59.0826 161.747 58.5998C162.82 58.1171 163.779 57.4125 164.56 56.5325C165.341 55.6525 165.927 54.6171 166.279 53.4943C166.631 52.3715 166.742 51.1869 166.603 50.0183C166.465 48.8498 166.08 47.7239 165.475 46.7146C164.87 45.7054 164.058 44.8358 163.092 44.1631C162.127 43.4903 161.03 43.0296 159.874 42.8113C158.717 42.5931 157.528 42.6222 156.384 42.8967L154.167 43.5001" stroke="#246EE9" stroke-width="2" stroke-linecap="round" stroke-linejoin="round"/>
<path d="M41.94 78.03H39.77V85H41.94C44.23 85 45.64 83.69 45.64 81.53C45.64 79.37 44.23 78.03 41.94 78.03ZM40.68 84.25V78.77H41.94C43.76 78.77 44.71 79.83 44.71 81.53C44.71 83.23 43.76 84.25 41.94 84.25H40.68ZM47.7503 82.02C47.7503 80.75 48.4103 80.36 49.2803 80.36H49.5203V79.42C48.6503 79.42 48.0603 79.8 47.7503 80.41V79.52H46.8403V85H47.7503V82.02ZM50.2308 82.24C50.2308 83.94 51.3608 85.09 52.8208 85.09C53.8308 85.09 54.5408 84.57 54.8708 83.98V85H55.7908V79.52H54.8708V80.52C54.5508 79.95 53.8508 79.43 52.8308 79.43C51.3608 79.43 50.2308 80.53 50.2308 82.24ZM54.8708 82.25C54.8708 83.54 54.0108 84.29 53.0108 84.29C52.0108 84.29 51.1608 83.53 51.1608 82.24C51.1608 80.95 52.0108 80.22 53.0108 80.22C54.0108 80.22 54.8708 80.98 54.8708 82.25ZM56.9886 82.24C56.9886 83.94 58.1186 85.09 59.5886 85.09C60.5886 85.09 61.2986 84.56 61.6286 83.97V85.12C61.6286 86.29 60.8986 86.91 59.9286 86.91C59.0286 86.91 58.3786 86.46 58.1786 85.8H57.2786C57.4586 86.97 58.4886 87.7 59.9286 87.7C61.5386 87.7 62.5486 86.63 62.5486 85.12V79.52H61.6286V80.52C61.3086 79.93 60.5886 79.43 59.5886 79.43C58.1186 79.43 56.9886 80.53 56.9886 82.24ZM61.6286 82.25C61.6286 83.54 60.7686 84.29 59.7686 84.29C58.7686 84.29 57.9186 83.53 57.9186 82.24C57.9186 80.95 58.7686 80.22 59.7686 80.22C60.7686 80.22 61.6286 80.98 61.6286 82.25ZM71.4324 85H72.3924L69.8824 78.07H68.8324L66.3124 85H67.2724L67.8324 83.45H70.8724L71.4324 85ZM70.6124 82.71H68.0924L69.3524 79.19L70.6124 82.71ZM77.5007 85H78.4007V81.77C78.4007 80.2 77.4307 79.42 76.1607 79.42C75.4207 79.42 74.7607 79.73 74.4007 80.3V79.52H73.4907V85H74.4007V81.97C74.4007 80.79 75.0407 80.21 75.9707 80.21C76.8907 80.21 77.5007 80.78 77.5007 81.9V85ZM79.5472 82.24C79.5472 83.94 80.6772 85.09 82.1472 85.09C83.1472 85.09 83.8572 84.58 84.1872 83.97V85H85.1072V77.6H84.1872V80.5C83.8072 79.87 83.0172 79.43 82.1572 79.43C80.6772 79.43 79.5472 80.53 79.5472 82.24ZM84.1872 82.25C84.1872 83.54 83.3272 84.29 82.3272 84.29C81.3272 84.29 80.4772 83.53 80.4772 82.24C80.4772 80.95 81.3272 80.22 82.3272 80.22C83.3272 80.22 84.1872 80.98 84.1872 82.25ZM91.481 78.03H89.311V85H91.481C93.771 85 95.181 83.69 95.181 81.53C95.181 79.37 93.771 78.03 91.481 78.03ZM90.221 84.25V78.77H91.481C93.301 78.77 94.251 79.83 94.251 81.53C94.251 83.23 93.301 84.25 91.481 84.25H90.221ZM97.2913 82.02C97.2913 80.75 97.9513 80.36 98.8213 80.36H99.0613V79.42C98.1913 79.42 97.6013 79.8 97.2913 80.41V79.52H96.3813V85H97.2913V82.02ZM105.312 82.25C105.312 80.52 104.102 79.43 102.542 79.43C100.992 79.43 99.7718 80.52 99.7718 82.25C99.7718 83.99 100.952 85.09 102.502 85.09C104.062 85.09 105.312 83.99 105.312 82.25ZM100.702 82.25C100.702 80.87 101.572 80.22 102.532 80.22C103.472 80.22 104.382 80.87 104.382 82.25C104.382 83.64 103.452 84.29 102.502 84.29C101.552 84.29 100.702 83.64 100.702 82.25ZM107.418 80.53V79.52H106.508V87.6H107.418V83.99C107.758 84.55 108.468 85.09 109.468 85.09C110.938 85.09 112.068 83.94 112.068 82.24C112.068 80.53 110.938 79.43 109.468 79.43C108.468 79.43 107.748 79.95 107.418 80.53ZM111.138 82.24C111.138 83.53 110.288 84.29 109.278 84.29C108.288 84.29 107.418 83.54 107.418 82.25C107.418 80.98 108.288 80.22 109.278 80.22C110.288 80.22 111.138 80.95 111.138 82.24ZM122.592 81.51C122.592 79.42 121.062 77.95 119.092 77.95C117.132 77.95 115.592 79.42 115.592 81.51C115.592 83.6 117.132 85.07 119.092 85.07C121.062 85.07 122.592 83.6 122.592 81.51ZM116.522 81.51C116.522 79.8 117.622 78.74 119.092 78.74C120.562 78.74 121.662 79.8 121.662 81.51C121.662 83.21 120.562 84.28 119.092 84.28C117.622 84.28 116.522 83.21 116.522 81.51ZM124.703 82.02C124.703 80.75 125.363 80.36 126.233 80.36H126.473V79.42C125.603 79.42 125.013 79.8 124.703 80.41V79.52H123.793V85H124.703V82.02ZM134.15 83.04C134.15 83.8 133.61 84.25 132.71 84.25H131.1V81.79H132.68C133.57 81.79 134.15 82.27 134.15 83.04ZM133.97 79.91C133.97 80.62 133.48 81.04 132.63 81.04H131.1V78.78H132.61C133.5 78.78 133.97 79.22 133.97 79.91ZM135.06 83.13C135.06 82.27 134.44 81.54 133.68 81.41C134.35 81.19 134.9 80.68 134.9 79.8C134.9 78.83 134.16 78.03 132.69 78.03H130.19V85H132.79C134.23 85 135.06 84.18 135.06 83.13ZM137.233 82.02C137.233 80.75 137.893 80.36 138.763 80.36H139.003V79.42C138.133 79.42 137.543 79.8 137.233 80.41V79.52H136.323V85H137.233V82.02ZM145.253 82.25C145.253 80.52 144.043 79.43 142.483 79.43C140.933 79.43 139.713 80.52 139.713 82.25C139.713 83.99 140.893 85.09 142.443 85.09C144.003 85.09 145.253 83.99 145.253 82.25ZM140.643 82.25C140.643 80.87 141.513 80.22 142.473 80.22C143.413 80.22 144.323 80.87 144.323 82.25C144.323 83.64 143.393 84.29 142.443 84.29C141.493 84.29 140.643 83.64 140.643 82.25ZM147.52 85H148.46L149.78 80.65L151.1 85H152.04L153.75 79.52H152.85L151.61 84.13L150.28 79.52H149.35L147.99 84.12L146.73 79.52H145.8L147.52 85ZM158.593 83.51C158.553 81.55 155.373 82.26 155.373 80.96C155.373 80.52 155.773 80.2 156.443 80.2C157.173 80.2 157.593 80.6 157.633 81.15H158.543C158.483 80.08 157.683 79.43 156.473 79.43C155.253 79.43 154.463 80.12 154.463 80.96C154.463 83 157.703 82.29 157.703 83.51C157.703 83.96 157.303 84.32 156.583 84.32C155.813 84.32 155.343 83.92 155.293 83.39H154.353C154.413 84.39 155.313 85.09 156.593 85.09C157.803 85.09 158.593 84.41 158.593 83.51ZM162.207 80.2C163.147 80.2 163.947 80.79 163.937 81.86H160.477C160.577 80.79 161.317 80.2 162.207 80.2ZM164.767 83.31H163.787C163.587 83.9 163.067 84.32 162.247 84.32C161.317 84.32 160.537 83.71 160.467 82.6H164.847C164.867 82.41 164.877 82.25 164.877 82.05C164.877 80.55 163.837 79.43 162.247 79.43C160.647 79.43 159.537 80.52 159.537 82.25C159.537 83.99 160.687 85.09 162.247 85.09C163.607 85.09 164.487 84.31 164.767 83.31ZM166.989 82.02C166.989 80.75 167.649 80.36 168.519 80.36H168.759V79.42C167.889 79.42 167.299 79.8 166.989 80.41V79.52H166.079V85H166.989V82.02ZM172.045 78.77H173.955V85H174.865V78.77H176.765V78.03H172.045V78.77ZM183.085 82.25C183.085 80.52 181.875 79.43 180.315 79.43C178.765 79.43 177.545 80.52 177.545 82.25C177.545 83.99 178.725 85.09 180.275 85.09C181.835 85.09 183.085 83.99 183.085 82.25ZM178.475 82.25C178.475 80.87 179.345 80.22 180.305 80.22C181.245 80.22 182.155 80.87 182.155 82.25C182.155 83.64 181.225 84.29 180.275 84.29C179.325 84.29 178.475 83.64 178.475 82.25ZM186.608 81.51C186.608 83.6 188.138 85.06 190.088 85.06C191.598 85.06 192.798 84.31 193.318 82.97H192.228C191.848 83.8 191.108 84.27 190.088 84.27C188.628 84.27 187.538 83.21 187.538 81.51C187.538 79.8 188.628 78.74 190.088 78.74C191.108 78.74 191.848 79.21 192.228 80.05H193.318C192.798 78.7 191.598 77.94 190.088 77.94C188.138 77.94 186.608 79.42 186.608 81.51ZM194.672 85H195.582V81.97C195.582 80.79 196.222 80.21 197.152 80.21C198.072 80.21 198.682 80.78 198.682 81.9V85H199.582V81.77C199.582 80.2 198.612 79.42 197.392 79.42C196.622 79.42 195.942 79.73 195.582 80.31V77.6H194.672V85ZM206.269 82.25C206.269 80.52 205.059 79.43 203.499 79.43C201.949 79.43 200.729 80.52 200.729 82.25C200.729 83.99 201.909 85.09 203.459 85.09C205.019 85.09 206.269 83.99 206.269 82.25ZM201.659 82.25C201.659 80.87 202.529 80.22 203.489 80.22C204.429 80.22 205.339 80.87 205.339 82.25C205.339 83.64 204.409 84.29 203.459 84.29C202.509 84.29 201.659 83.64 201.659 82.25ZM212.665 82.25C212.665 80.52 211.455 79.43 209.895 79.43C208.345 79.43 207.125 80.52 207.125 82.25C207.125 83.99 208.305 85.09 209.855 85.09C211.415 85.09 212.665 83.99 212.665 82.25ZM208.055 82.25C208.055 80.87 208.925 80.22 209.885 80.22C210.825 80.22 211.735 80.87 211.735 82.25C211.735 83.64 210.805 84.29 209.855 84.29C208.905 84.29 208.055 83.64 208.055 82.25ZM217.802 83.51C217.762 81.55 214.582 82.26 214.582 80.96C214.582 80.52 214.982 80.2 215.652 80.2C216.382 80.2 216.802 80.6 216.842 81.15H217.752C217.692 80.08 216.892 79.43 215.682 79.43C214.462 79.43 213.672 80.12 213.672 80.96C213.672 83 216.912 82.29 216.912 83.51C216.912 83.96 216.512 84.32 215.792 84.32C215.022 84.32 214.552 83.92 214.502 83.39H213.562C213.622 84.39 214.522 85.09 215.802 85.09C217.012 85.09 217.802 84.41 217.802 83.51ZM221.416 80.2C222.356 80.2 223.156 80.79 223.146 81.86H219.686C219.786 80.79 220.526 80.2 221.416 80.2ZM223.976 83.31H222.996C222.796 83.9 222.276 84.32 221.456 84.32C220.526 84.32 219.746 83.71 219.676 82.6H224.056C224.076 82.41 224.086 82.25 224.086 82.05C224.086 80.55 223.046 79.43 221.456 79.43C219.856 79.43 218.746 80.52 218.746 82.25C218.746 83.99 219.896 85.09 221.456 85.09C222.816 85.09 223.696 84.31 223.976 83.31ZM227.954 85H228.864V78.03H227.954V85ZM238.325 85H239.225V81.77C239.225 80.2 238.255 79.42 237.005 79.42C236.165 79.42 235.385 79.85 235.065 80.64C234.705 79.82 233.955 79.42 233.055 79.42C232.335 79.42 231.685 79.73 231.325 80.31V79.52H230.415V85H231.325V81.98C231.325 80.8 231.955 80.21 232.875 80.21C233.775 80.21 234.375 80.78 234.375 81.9V85H235.275V81.98C235.275 80.8 235.905 80.21 236.825 80.21C237.725 80.21 238.325 80.78 238.325 81.9V85ZM240.377 82.24C240.377 83.94 241.507 85.09 242.967 85.09C243.977 85.09 244.687 84.57 245.017 83.98V85H245.937V79.52H245.017V80.52C244.697 79.95 243.997 79.43 242.977 79.43C241.507 79.43 240.377 80.53 240.377 82.24ZM245.017 82.25C245.017 83.54 244.157 84.29 243.157 84.29C242.157 84.29 241.307 83.53 241.307 82.24C241.307 80.95 242.157 80.22 243.157 80.22C244.157 80.22 245.017 80.98 245.017 82.25ZM247.135 82.24C247.135 83.94 248.265 85.09 249.735 85.09C250.735 85.09 251.445 84.56 251.775 83.97V85.12C251.775 86.29 251.045 86.91 250.075 86.91C249.175 86.91 248.525 86.46 248.325 85.8H247.425C247.605 86.97 248.635 87.7 250.075 87.7C251.685 87.7 252.695 86.63 252.695 85.12V79.52H251.775V80.52C251.455 79.93 250.735 79.43 249.735 79.43C248.265 79.43 247.135 80.53 247.135 82.24ZM251.775 82.25C251.775 83.54 250.915 84.29 249.915 84.29C248.915 84.29 248.065 83.53 248.065 82.24C248.065 80.95 248.915 80.22 249.915 80.22C250.915 80.22 251.775 80.98 251.775 82.25ZM256.563 80.2C257.503 80.2 258.303 80.79 258.293 81.86H254.833C254.933 80.79 255.673 80.2 256.563 80.2ZM259.123 83.31H258.143C257.943 83.9 257.423 84.32 256.603 84.32C255.673 84.32 254.893 83.71 254.823 82.6H259.203C259.223 82.41 259.233 82.25 259.233 82.05C259.233 80.55 258.193 79.43 256.603 79.43C255.003 79.43 253.893 80.52 253.893 82.25C253.893 83.99 255.043 85.09 256.603 85.09C257.963 85.09 258.843 84.31 259.123 83.31Z" fill="#687282"/>
</svg>
