<svg width="51" height="51" viewBox="0 0 51 51" fill="none" xmlns="http://www.w3.org/2000/svg">
<g clip-path="url(#clip0_77_53)">
<path d="M43.5302 43.5762C53.4884 33.7142 53.4884 17.7248 43.5302 7.86278C33.5719 -1.99921 17.4263 -1.99921 7.46806 7.86278C-2.49021 17.7248 -2.49021 33.7142 7.46806 43.5762C17.4263 53.4382 33.5719 53.4382 43.5302 43.5762Z" fill="#FCE8E3"/>
<path d="M32.3067 22.4214H18.8167V37.5137H32.3067V22.4214Z" fill="#E2988F"/>
<path d="M47.3545 38.8619C40.155 35.6814 32.3067 34.5549 32.3067 34.5549C28.7069 38.2737 21.9961 38.3235 18.8166 34.5549C18.8166 34.5549 10.9684 35.6814 3.7688 38.8619C8.24569 46.1366 16.3315 51 25.5639 51C34.7964 51 42.8822 46.1411 47.3545 38.8619Z" fill="#D85D63"/>
<path d="M25.372 39.0745C25.3308 39.0745 25.2852 39.0745 25.2441 39.0745C21.7585 39.0383 18.8211 37.5182 17.1765 34.8987L17.4689 34.7178C19.0449 37.2332 21.8818 38.6944 25.2486 38.7306C25.2897 38.7306 25.3308 38.7306 25.372 38.7306C28.8438 38.7306 32.0005 37.197 33.6314 34.7133L33.9192 34.8987C32.2243 37.482 28.958 39.0745 25.372 39.0745Z" fill="#B73D49"/>
<path d="M38.3185 14.1016C38.3185 21.0777 34.4492 30.1394 25.8883 29.9675C16.6787 29.9675 13.1794 21.9237 13.1794 14.9476C11.5668 10.4144 13.5038 5.49224 16.8614 4.58742C18.9583 1.11745 22.6037 0 26.2675 0C33.3163 0 40.2646 5.13031 38.3185 14.1016Z" fill="#4C224B"/>
<path d="M38.3002 15.0743C37.5829 13.3777 36.1165 14.2102 36.1165 14.2102C36.4226 7.55525 32.9964 2.93616 25.5639 2.93616C18.1313 2.93616 14.7462 8.47816 15.0112 14.2102C15.0112 14.2102 13.5448 13.3777 12.8276 15.0743C12.1103 16.7708 13.4214 20.7565 14.23 22.0233C15.0386 23.29 16.2675 22.7562 16.2675 22.7562C16.2675 22.7562 16.569 25.6697 16.9436 26.6559C17.3182 27.6422 21.5575 32.1889 22.8046 32.8811C24.4401 33.8356 26.8475 33.8356 28.3185 32.8811C29.5657 32.1844 33.805 27.6422 34.1796 26.6559C34.5542 25.6697 34.8466 22.7019 34.8466 22.7019C34.8466 22.7019 36.08 23.29 36.8931 22.0233C37.7063 20.7565 39.0174 16.7753 38.3002 15.0743Z" fill="#E2988F"/>
<path d="M25.6234 33.1074C22.5946 33.1074 20.3516 31.0308 18.9309 29.4655L19.1867 29.2393C20.5663 30.7548 22.7317 32.768 25.6234 32.768C28.3552 32.768 30.347 30.9856 31.9367 29.2393L32.1926 29.4655C30.5526 31.266 28.4923 33.1074 25.6234 33.1074Z" fill="#C46966"/>
<path d="M16.2323 20.9163L15.8918 20.9541L16.0981 22.775L16.4386 22.7372L16.2323 20.9163Z" fill="#C46966"/>
<path d="M34.8685 20.9154L34.6816 22.6837L35.0224 22.719L35.2093 20.9507L34.8685 20.9154Z" fill="#C46966"/>
<path d="M13.7779 18.8972C13.7094 18.6484 13.1247 16.4316 13.9332 15.8209C14.2028 15.649 14.422 15.6625 14.5637 15.7078C14.9748 15.839 15.1804 16.3457 15.2032 16.4045L14.8834 16.5266C14.8378 16.4135 14.6733 16.1014 14.454 16.0335C14.3535 16.0018 14.2484 16.0245 14.1297 16.1014C13.6683 16.4497 13.8693 17.9472 14.1068 18.8113L13.7779 18.8972Z" fill="#C46966"/>
<path d="M37.3455 18.8971L37.0165 18.8067C37.2541 17.9471 37.4551 16.4451 36.9846 16.0922C36.8749 16.0244 36.7699 16.0017 36.6694 16.0334C36.4501 16.1013 36.2856 16.4134 36.2399 16.5265L35.9202 16.4044C35.943 16.3456 36.1486 15.8434 36.5597 15.7077C36.6968 15.6624 36.9206 15.6443 37.1764 15.8117C37.9987 16.427 37.414 18.6438 37.3455 18.8971Z" fill="#C46966"/>
<path d="M15.0112 14.2102C15.6462 12.0386 16.6193 10.1476 18.1451 8.71795C22.4346 13.6673 27.7201 16.893 36.1166 14.2102L36.7653 12.102C36.7653 12.102 35.7511 7.63216 35.7511 7.4693C35.7511 7.31096 32.43 4.24363 32.43 4.24363L28.1084 2.48828H23.6589L20.114 3.47906L16.9847 6.0985L15.0112 10.0254V14.2102Z" fill="#4C224B"/>
</g>
<defs>
<clipPath id="clip0_77_53">
<rect width="51" height="51" fill="white"/>
</clipPath>
</defs>
</svg>
