<svg width="12" height="12" viewBox="0 0 12 12" fill="none" xmlns="http://www.w3.org/2000/svg">
<path d="M7.16131 0C4.56271 0 2.36445 1.7296 1.6304 4.09222H0.681986C0.305661 4.09222 0 4.39766 0 4.77421C0 5.15101 0.305673 5.45619 0.681986 5.45619H1.38541C1.37851 5.57085 1.36424 5.68099 1.36424 5.79731C1.36424 6.02639 1.38065 6.25714 1.40682 6.4793H0.682263C0.305938 6.4793 0.000276906 6.78474 0.000276906 7.16129C0.000276906 7.53809 0.30595 7.84327 0.682263 7.84327H1.74796C2.57866 10.0334 4.68673 11.5947 7.16159 11.5947C9.01797 11.5947 10.3018 10.7678 11.3818 9.68711L11.3813 9.68735C11.5107 9.56033 11.5842 9.38667 11.5857 9.20541C11.5869 9.0239 11.516 8.8493 11.3885 8.72038C11.261 8.59145 11.0873 8.51865 10.9061 8.51818C10.7248 8.5177 10.5507 8.58931 10.4222 8.71752C9.4576 9.68286 8.64694 10.2309 7.16087 10.2309C5.4415 10.2309 3.96664 9.26559 3.2285 7.84383H7.4913C7.86762 7.84383 8.17328 7.53839 8.17328 7.16184C8.17328 6.78529 7.86761 6.47986 7.4913 6.47986H2.78079C2.74653 6.25768 2.7275 6.03003 2.7275 5.79787C2.7275 5.68083 2.74011 5.57165 2.74867 5.45675H7.49103C7.86736 5.45675 8.17302 5.15131 8.17302 4.77476C8.17302 4.3982 7.86735 4.09278 7.49103 4.09278H3.06863C3.73612 2.48875 5.30873 1.36453 7.16085 1.36453C8.64662 1.36453 9.45734 1.9019 10.4219 2.86722L10.4222 2.86699C10.5504 2.9952 10.7245 3.0668 10.9058 3.06632C11.0871 3.06585 11.2607 2.99306 11.3882 2.86413C11.5157 2.7352 11.5868 2.56059 11.5854 2.3791C11.5842 2.19783 11.5107 2.02418 11.3813 1.89715C10.3014 0.816228 9.01753 0.000328942 7.16109 0.000328942L7.16131 0Z" fill="#246EE9"/>
</svg>
