<svg width="151" height="18" viewBox="0 0 151 18" fill="none" xmlns="http://www.w3.org/2000/svg">
<g opacity="0.6">
<path d="M33.4414 5.99858V5.9986L33.4418 12.4778C33.4418 12.4779 33.4418 12.4779 33.4418 12.4779C33.4418 13.4507 32.6895 14.2027 31.717 14.2027C30.7442 14.2027 29.9922 13.4503 29.9922 12.4778V5.9371C29.9922 4.96425 30.7445 4.21228 31.717 4.21228H31.717C32.6795 4.21228 33.4414 5.01599 33.4414 5.99858Z" fill="#687282" stroke="white" stroke-width="0.5"/>
<path d="M26.0371 2.97482V2.97483L26.0375 15.5012C26.0375 16.4604 25.3061 17.2049 24.3534 17.2256H24.3127C23.3262 17.2256 22.5349 16.4639 22.5875 15.515L22.5879 15.515L22.5879 15.5012L22.5874 2.97482C22.5874 2.97482 22.5874 2.97481 22.5874 2.97481C22.5874 2.00197 23.3398 1.25 24.3123 1.25C25.2851 1.25 26.0371 2.00236 26.0371 2.97482Z" fill="#687282" stroke="white" stroke-width="0.5"/>
<path d="M18.5707 12.5392C18.5707 13.5121 17.8184 14.2641 16.8459 14.2641C15.8785 14.2641 15.1211 13.4552 15.1211 12.5392V5.9985C15.1211 5.02566 15.8735 4.27368 16.8459 4.27368C17.8188 4.27368 18.5707 5.02604 18.5707 5.9985V12.5392Z" fill="#687282" stroke="white" stroke-width="0.5"/>
<path d="M11.1049 15.5012C11.1049 16.4604 10.3735 17.2049 9.4208 17.2256H9.38008C8.46411 17.2256 7.6557 16.4686 7.6557 15.5012L7.65527 2.97482C7.65527 2.97482 7.65527 2.97481 7.65527 2.97481C7.65528 2.00197 8.40764 1.25 9.38009 1.25C10.3529 1.25 11.1049 2.00236 11.1049 2.97482V15.5012Z" fill="#687282" stroke="white" stroke-width="0.5"/>
<path d="M3.69964 5.9985V12.4778C3.69964 13.4603 2.93776 14.2641 1.97482 14.2641C1.00197 14.2641 0.25 13.5117 0.25 12.5392V5.9985C0.25 5.02566 1.00236 4.27368 1.97482 4.27368C2.94766 4.27368 3.69964 5.02604 3.69964 5.9985Z" fill="#687282" stroke="white" stroke-width="0.5"/>
<path d="M72.4414 5.99858V5.9986L72.4418 12.4778C72.4418 12.4779 72.4418 12.4779 72.4418 12.4779C72.4418 13.4507 71.6895 14.2027 70.717 14.2027C69.7442 14.2027 68.9922 13.4503 68.9922 12.4778V5.9371C68.9922 4.96425 69.7445 4.21228 70.717 4.21228H70.717C71.6795 4.21228 72.4414 5.01599 72.4414 5.99858Z" fill="#687282" stroke="white" stroke-width="0.5"/>
<path d="M65.0371 2.97482V2.97483L65.0375 15.5012C65.0375 16.4604 64.3061 17.2049 63.3534 17.2256H63.3127C62.3262 17.2256 61.5349 16.4639 61.5875 15.515L61.5879 15.515L61.5879 15.5012L61.5874 2.97482C61.5874 2.97482 61.5874 2.97481 61.5874 2.97481C61.5874 2.00197 62.3398 1.25 63.3123 1.25C64.2851 1.25 65.0371 2.00236 65.0371 2.97482Z" fill="#687282" stroke="white" stroke-width="0.5"/>
<path d="M57.5707 12.5392C57.5707 13.5121 56.8184 14.2641 55.8459 14.2641C54.8785 14.2641 54.1211 13.4552 54.1211 12.5392V5.9985C54.1211 5.02566 54.8735 4.27368 55.8459 4.27368C56.8188 4.27368 57.5707 5.02604 57.5707 5.9985V12.5392Z" fill="#687282" stroke="white" stroke-width="0.5"/>
<path d="M50.1049 15.5012C50.1049 16.4604 49.3735 17.2049 48.4208 17.2256H48.3801C47.4641 17.2256 46.6557 16.4686 46.6557 15.5012L46.6553 2.97482C46.6553 2.97482 46.6553 2.97481 46.6553 2.97481C46.6553 2.00197 47.4076 1.25 48.3801 1.25C49.3529 1.25 50.1049 2.00236 50.1049 2.97482V15.5012Z" fill="#687282" stroke="white" stroke-width="0.5"/>
<path d="M42.6996 5.9985V12.4778C42.6996 13.4603 41.9378 14.2641 40.9748 14.2641C40.002 14.2641 39.25 13.5117 39.25 12.5392V5.9985C39.25 5.02566 40.0024 4.27368 40.9748 4.27368C41.9477 4.27368 42.6996 5.02604 42.6996 5.9985Z" fill="#687282" stroke="white" stroke-width="0.5"/>
<path d="M111.441 4.99858V4.9986L111.442 11.4778C111.442 11.4779 111.442 11.4779 111.442 11.4779C111.442 12.4507 110.689 13.2027 109.717 13.2027C108.744 13.2027 107.992 12.4503 107.992 11.4778V4.9371C107.992 3.96425 108.745 3.21228 109.717 3.21228H109.717C110.68 3.21228 111.441 4.01599 111.441 4.99858Z" fill="#687282" stroke="white" stroke-width="0.5"/>
<path d="M104.037 1.97482V1.97483L104.038 14.5012C104.038 15.4604 103.306 16.2049 102.353 16.2256H102.313C101.326 16.2256 100.535 15.4639 100.587 14.515L100.588 14.515L100.588 14.5012L100.587 1.97482C100.587 1.97482 100.587 1.97481 100.587 1.97481C100.587 1.00197 101.34 0.25 102.312 0.25C103.285 0.25 104.037 1.00236 104.037 1.97482Z" fill="#687282" stroke="white" stroke-width="0.5"/>
<path d="M96.5707 11.5392C96.5707 12.5121 95.8184 13.2641 94.8459 13.2641C93.8785 13.2641 93.1211 12.4552 93.1211 11.5392V4.9985C93.1211 4.02566 93.8735 3.27368 94.8459 3.27368C95.8188 3.27368 96.5707 4.02604 96.5707 4.9985V11.5392Z" fill="#687282" stroke="white" stroke-width="0.5"/>
<path d="M89.1049 14.5012C89.1049 15.4604 88.3735 16.2049 87.4208 16.2256H87.3801C86.4641 16.2256 85.6557 15.4686 85.6557 14.5012L85.6553 1.97482C85.6553 1.97482 85.6553 1.97481 85.6553 1.97481C85.6553 1.00197 86.4076 0.25 87.3801 0.25C88.3529 0.25 89.1049 1.00236 89.1049 1.97482V14.5012Z" fill="#687282" stroke="white" stroke-width="0.5"/>
<path d="M81.6996 4.9985V11.4778C81.6996 12.4603 80.9378 13.2641 79.9748 13.2641C79.002 13.2641 78.25 12.5117 78.25 11.5392V4.9985C78.25 4.02566 79.0024 3.27368 79.9748 3.27368C80.9477 3.27368 81.6996 4.02604 81.6996 4.9985Z" fill="#687282" stroke="white" stroke-width="0.5"/>
<path d="M111.441 4.99858V4.9986L111.442 11.4778C111.442 11.4779 111.442 11.4779 111.442 11.4779C111.442 12.4507 110.689 13.2027 109.717 13.2027C108.744 13.2027 107.992 12.4503 107.992 11.4778V4.9371C107.992 3.96425 108.745 3.21228 109.717 3.21228H109.717C110.68 3.21228 111.441 4.01599 111.441 4.99858Z" fill="#687282" stroke="white" stroke-width="0.5"/>
<path d="M104.037 1.97482V1.97483L104.038 14.5012C104.038 15.4604 103.306 16.2049 102.353 16.2256H102.313C101.326 16.2256 100.535 15.4639 100.587 14.515L100.588 14.515L100.588 14.5012L100.587 1.97482C100.587 1.97482 100.587 1.97481 100.587 1.97481C100.587 1.00197 101.34 0.25 102.312 0.25C103.285 0.25 104.037 1.00236 104.037 1.97482Z" fill="#687282" stroke="white" stroke-width="0.5"/>
<path d="M96.5707 11.5392C96.5707 12.5121 95.8184 13.2641 94.8459 13.2641C93.8785 13.2641 93.1211 12.4552 93.1211 11.5392V4.9985C93.1211 4.02566 93.8735 3.27368 94.8459 3.27368C95.8188 3.27368 96.5707 4.02604 96.5707 4.9985V11.5392Z" fill="#687282" stroke="white" stroke-width="0.5"/>
<path d="M89.1049 14.5012C89.1049 15.4604 88.3735 16.2049 87.4208 16.2256H87.3801C86.4641 16.2256 85.6557 15.4686 85.6557 14.5012L85.6553 1.97482C85.6553 1.97482 85.6553 1.97481 85.6553 1.97481C85.6553 1.00197 86.4076 0.25 87.3801 0.25C88.3529 0.25 89.1049 1.00236 89.1049 1.97482V14.5012Z" fill="#687282" stroke="white" stroke-width="0.5"/>
<path d="M81.6996 4.9985V11.4778C81.6996 12.4603 80.9378 13.2641 79.9748 13.2641C79.002 13.2641 78.25 12.5117 78.25 11.5392V4.9985C78.25 4.02566 79.0024 3.27368 79.9748 3.27368C80.9477 3.27368 81.6996 4.02604 81.6996 4.9985Z" fill="#687282" stroke="white" stroke-width="0.5"/>
<path d="M150.441 4.99858V4.9986L150.442 11.4778C150.442 11.4779 150.442 11.4779 150.442 11.4779C150.442 12.4507 149.689 13.2027 148.717 13.2027C147.744 13.2027 146.992 12.4503 146.992 11.4778V4.9371C146.992 3.96425 147.745 3.21228 148.717 3.21228H148.717C149.68 3.21228 150.441 4.01599 150.441 4.99858Z" fill="#687282" stroke="white" stroke-width="0.5"/>
<path d="M143.037 1.97482V1.97483L143.038 14.5012C143.038 15.4604 142.306 16.2049 141.353 16.2256H141.313C140.326 16.2256 139.535 15.4639 139.587 14.515L139.588 14.515L139.588 14.5012L139.587 1.97482C139.587 1.97482 139.587 1.97481 139.587 1.97481C139.587 1.00197 140.34 0.25 141.312 0.25C142.285 0.25 143.037 1.00236 143.037 1.97482Z" fill="#687282" stroke="white" stroke-width="0.5"/>
<path d="M135.571 11.5392C135.571 12.5121 134.818 13.2641 133.846 13.2641C132.878 13.2641 132.121 12.4552 132.121 11.5392V4.9985C132.121 4.02566 132.873 3.27368 133.846 3.27368C134.819 3.27368 135.571 4.02604 135.571 4.9985V11.5392Z" fill="#687282" stroke="white" stroke-width="0.5"/>
<path d="M128.105 14.5012C128.105 15.4604 127.373 16.2049 126.421 16.2256H126.38C125.464 16.2256 124.656 15.4686 124.656 14.5012L124.655 1.97482C124.655 1.97482 124.655 1.97481 124.655 1.97481C124.655 1.00197 125.408 0.25 126.38 0.25C127.353 0.25 128.105 1.00236 128.105 1.97482V14.5012Z" fill="#687282" stroke="white" stroke-width="0.5"/>
<path d="M120.7 4.9985V11.4778C120.7 12.4603 119.938 13.2641 118.975 13.2641C118.002 13.2641 117.25 12.5117 117.25 11.5392V4.9985C117.25 4.02566 118.002 3.27368 118.975 3.27368C119.948 3.27368 120.7 4.02604 120.7 4.9985Z" fill="#687282" stroke="white" stroke-width="0.5"/>
</g>
</svg>
