 <svg width="48" height="48" viewBox="0 0 48 48" fill="none" xmlns="http://www.w3.org/2000/svg">
                    <circle cx="24" cy="24" r="24" fill="#E9F4FE"/>
                    <path d="M14.6855 34.1819C14.6855 34.5172 14.8188 34.839 15.0559 35.0761C15.2929 35.3131 15.6147 35.4464 15.95 35.4464C16.2853 35.4464 16.6071 35.3131 16.8441 35.0761C17.0812 34.839 17.2144 34.5172 17.2144 34.1819C17.2144 33.8467 17.0812 33.5248 16.8441 33.2878C16.607 33.0507 16.2853 32.9175 15.95 32.9175C15.6147 32.9175 15.2929 33.0507 15.0559 33.2878C14.8188 33.5249 14.6855 33.8467 14.6855 34.1819ZM15.95 33.7604C16.1205 33.7604 16.2742 33.8632 16.3393 34.0207C16.4046 34.1782 16.3687 34.3594 16.2481 34.48C16.1275 34.6006 15.9463 34.6365 15.7888 34.5712C15.6313 34.5061 15.5285 34.3524 15.5285 34.1819C15.5285 33.9492 15.7173 33.7604 15.95 33.7604Z" fill="#246EE9"/>
                    <path d="M21.8513 13.5289C21.963 13.5289 22.0703 13.4845 22.1493 13.4055C22.2284 13.3265 22.2728 13.2192 22.2728 13.1074C22.272 12.5488 22.0498 12.0131 21.6548 11.6179C21.2597 11.223 20.724 11.0008 20.1653 11H14.686C14.2389 11 13.81 11.1776 13.4937 11.4937C13.1776 11.81 13 12.2389 13 12.686V34.1819C13 34.94 13.292 35.669 13.8151 36.2177C14.3382 36.7662 15.0525 37.0924 15.8097 37.1286C16.5669 37.1649 17.309 36.9081 17.8821 36.4119C18.4551 35.9155 18.815 35.2176 18.8875 34.463C18.9597 33.7083 18.7388 32.9549 18.2704 32.3588C17.8019 31.7627 17.1223 31.3698 16.3719 31.2614V27.8596C16.3726 27.1891 16.6392 26.5462 17.1133 26.072C17.5874 25.598 18.2304 25.3314 18.9008 25.3306H20.1653C20.7239 25.3299 21.2596 25.1077 21.6548 24.7127C22.0497 24.3176 22.2719 23.7819 22.2727 23.2232C22.2727 23.1114 22.2283 23.0042 22.1493 22.9251C22.0702 22.8461 21.963 22.8017 21.8512 22.8017H16.3719V21.9587H21.8512V21.1157H16.3719V20.2728H21.8512V19.4298H16.3719V18.5868H21.8512V17.7438H16.3719V16.9008H21.8512V16.0579H16.3719V15.2149H21.8512V14.3719H16.3719V13.5289H21.8513ZM21.3577 23.6447C21.2702 23.891 21.1086 24.1044 20.8952 24.2553C20.6816 24.4062 20.4267 24.4873 20.1653 24.4877H18.9009C18.0069 24.4886 17.1498 24.8442 16.5177 25.4765C15.8855 26.1085 15.5299 26.9656 15.529 27.8596V31.653C15.529 31.7648 15.5734 31.872 15.6524 31.951C15.7314 32.0301 15.8387 32.0745 15.9504 32.0745C16.5093 32.0745 17.0454 32.2965 17.4407 32.6916C17.8359 33.087 18.0579 33.623 18.0579 34.1819C18.0579 34.7408 17.8359 35.2768 17.4407 35.6722C17.0454 36.0674 16.5093 36.2894 15.9504 36.2894C15.3916 36.2894 14.8555 36.0673 14.4602 35.6722C14.065 35.2769 13.843 34.7408 13.843 34.1819V12.686C13.843 12.4624 13.9318 12.2479 14.0899 12.0899C14.2479 11.9318 14.4624 11.843 14.686 11.843H20.1653C20.4267 11.8434 20.6817 11.9245 20.8952 12.0754C21.1086 12.2263 21.2702 12.4397 21.3577 12.686H15.9506C15.7179 12.686 15.5291 12.8747 15.5291 13.1075V23.2232C15.5291 23.335 15.5735 23.4422 15.6526 23.5213C15.7316 23.6003 15.8388 23.6447 15.9506 23.6447L21.3577 23.6447Z" fill="#246EE9"/>
                    <path d="M33.6529 28.7406V27.8398C33.6523 27.1423 33.4356 26.4623 33.0329 25.8929C32.6301 25.3235 32.0608 24.8928 31.4034 24.66L30.9153 24.4877L33.3718 23.6206C33.5108 23.5715 33.614 23.4535 33.6441 23.3092L35.7515 13.1935C35.7805 13.0544 35.7374 12.9099 35.6369 12.8094L33.951 11.1235C33.8445 11.017 33.6892 10.9756 33.5438 11.0145C33.3981 11.0536 33.2847 11.1673 33.2457 11.3127L29.8738 23.9574H29.8796L29.6486 24.0387L29.4175 23.9574H29.4233L26.0514 11.3127H26.0518C26.0128 11.1673 25.8994 11.0536 25.7537 11.0145C25.6083 10.9756 25.4531 11.017 25.3466 11.1235L23.6606 12.8094C23.5601 12.9099 23.517 13.0544 23.546 13.1935L25.6535 23.3092C25.6836 23.4535 25.7867 23.5715 25.9257 23.6206L28.3843 24.4877L27.8962 24.66C27.2384 24.8924 26.6688 25.323 26.2655 25.8923C25.8623 26.4617 25.6453 27.1421 25.6446 27.8398V28.7406C25.056 28.8405 24.5216 29.1453 24.1361 29.6012C23.7503 30.057 23.5383 30.6344 23.5371 31.2315V34.6034C23.5371 35.507 24.0192 36.3419 24.8016 36.7935C25.584 37.2453 26.5481 37.2453 27.3305 36.7935C28.1129 36.3419 28.595 35.507 28.595 34.6034V31.2315C28.5939 30.6344 28.3818 30.057 27.996 29.6012C27.6105 29.1453 27.0761 28.8405 26.4875 28.7406V27.8398C26.4881 27.3168 26.6503 26.8068 26.9521 26.3797C27.2541 25.9528 27.6807 25.6295 28.1735 25.4547L29.6487 24.9346L31.1239 25.4547C31.6167 25.6295 32.0433 25.9528 32.3452 26.3797C32.6471 26.8068 32.8093 27.3168 32.8098 27.8398V28.7406C32.2212 28.8405 31.6869 29.1453 31.3013 29.6012C30.9156 30.057 30.7035 30.6344 30.7024 31.2315V34.6034C30.7024 35.507 31.1845 36.3419 31.9668 36.7935C32.7492 37.2453 33.7134 37.2453 34.4958 36.7935C35.2782 36.3419 35.7603 35.507 35.7603 34.6034V31.2315C35.7591 30.6344 35.5471 30.057 35.1613 29.6012C34.7758 29.1453 34.2413 28.8405 33.6528 28.7406H33.6529ZM33.8721 12.237L34.8799 13.2448L32.8673 22.9053L30.8357 23.6219L33.8721 12.237ZM24.4178 13.2446L25.4256 12.2368L28.4603 23.6218L26.4287 22.9053L24.4178 13.2446ZM27.7522 31.2318V34.6038C27.7522 35.2061 27.4309 35.7627 26.9093 36.0639C26.3877 36.365 25.7449 36.365 25.2233 36.0639C24.7017 35.7626 24.3803 35.206 24.3803 34.6038V31.2318C24.3803 30.6295 24.7017 30.0729 25.2233 29.7717C25.7449 29.4706 26.3877 29.4706 26.9093 29.7717C27.4309 30.073 27.7522 30.6296 27.7522 31.2318ZM34.9176 34.6038C34.9176 35.2061 34.5962 35.7627 34.0746 36.0639C33.553 36.365 32.9102 36.365 32.3886 36.0639C31.867 35.7626 31.5456 35.206 31.5456 34.6038V31.2318C31.5456 30.6295 31.867 30.0729 32.3886 29.7717C32.9102 29.4706 33.553 29.4706 34.0746 29.7717C34.5962 30.073 34.9176 30.6296 34.9176 31.2318V34.6038Z" fill="#246EE9"/>
                    </svg>