<svg width="901" height="900" viewBox="0 0 901 900" fill="none" xmlns="http://www.w3.org/2000/svg">
<path d="M900.5 450C900.5 698.528 699.028 900 450.5 900C201.972 900 0.5 698.528 0.5 450C0.5 201.472 201.972 0 450.5 0C699.028 0 900.5 201.472 900.5 450Z" fill="#FFB61D" fill-opacity="0.35"/>
<circle cx="450" cy="450" r="400" fill="#FFCD1D"/>
<path d="M526.175 654.439H373.826C285.844 654.439 269.466 613.495 265.276 573.694L250.994 421.154C248.899 401.158 248.328 371.641 268.133 349.55C285.272 330.506 313.647 321.365 354.782 321.365H545.218C586.543 321.365 614.918 330.697 631.867 349.55C651.672 371.641 651.101 401.158 649.006 421.344L634.724 573.504C630.534 613.495 614.156 654.439 526.175 654.439ZM354.782 349.74C322.598 349.74 300.507 356.025 289.272 368.594C279.94 378.877 276.893 394.683 279.369 418.297L293.652 570.837C296.889 600.927 305.078 625.874 373.826 625.874H526.175C594.732 625.874 603.111 600.927 606.348 570.647L620.631 418.488C623.107 394.683 620.06 378.877 610.729 368.594C599.493 356.025 577.402 349.74 545.218 349.74H354.782Z" fill="white"/>
<path d="M526.171 349.74C518.363 349.74 511.888 343.265 511.888 335.458V320.223C511.888 286.325 511.888 273.566 465.231 273.566H434.761C388.104 273.566 388.104 286.325 388.104 320.223V335.458C388.104 343.265 381.629 349.74 373.821 349.74C366.013 349.74 359.539 343.265 359.539 335.458V320.223C359.539 286.706 359.539 245 434.761 245H465.231C540.454 245 540.454 286.706 540.454 320.223V335.458C540.454 343.265 533.979 349.74 526.171 349.74Z" fill="white"/>
<path d="M449.996 540.177C397.625 540.177 397.625 507.803 397.625 488.378V468.763C397.625 441.912 404.1 435.437 430.952 435.437H469.039C495.891 435.437 502.366 441.912 502.366 468.763V487.807C502.366 507.612 502.366 540.177 449.996 540.177ZM426.191 464.002V468.763V488.378C426.191 507.993 426.191 511.612 449.996 511.612C473.8 511.612 473.8 508.565 473.8 488.188V468.763C473.8 467.24 473.8 465.526 473.8 464.002C472.277 464.002 470.563 464.002 469.039 464.002H430.952C429.428 464.002 427.715 464.002 426.191 464.002Z" fill="white"/>
<path d="M488.074 502.471C481.028 502.471 474.743 497.139 473.982 489.902C473.03 482.094 478.552 474.857 486.36 473.905C536.636 467.621 584.816 448.577 625.379 419.059C631.664 414.298 640.614 415.822 645.375 422.297C649.945 428.581 648.612 437.532 642.138 442.293C597.575 474.667 545.015 495.425 489.788 502.471C489.217 502.471 488.645 502.471 488.074 502.471Z" fill="white"/>
<path d="M411.922 502.659C411.351 502.659 410.779 502.659 410.208 502.659C358.028 496.756 307.182 477.712 263.191 447.623C256.716 443.243 255.002 434.292 259.382 427.818C263.762 421.343 272.713 419.629 279.187 424.009C319.37 451.432 365.646 468.762 413.255 474.284C421.063 475.236 426.776 482.283 425.824 490.09C425.252 497.327 419.158 502.659 411.922 502.659Z" fill="white"/>
</svg>
