<svg width="901" height="900" viewBox="0 0 901 900" fill="none" xmlns="http://www.w3.org/2000/svg">
<path d="M900.5 450C900.5 698.528 699.028 900 450.5 900C201.972 900 0.5 698.528 0.5 450C0.5 201.472 201.972 0 450.5 0C699.028 0 900.5 201.472 900.5 450Z" fill="#C4E8FF"/>
<circle cx="450" cy="450" r="400" fill="#5595FF"/>
<path d="M450.013 539.711C442.588 539.711 435.163 539.154 428.11 537.855C388.758 532.1 352.933 509.455 330.288 475.858C314.51 452.098 306.157 424.441 306.157 395.855C306.157 316.596 370.753 252 450.013 252C529.272 252 593.868 316.596 593.868 395.855C593.868 424.441 585.515 452.098 569.738 475.858C546.906 509.64 511.082 532.1 471.359 538.04C464.862 539.154 457.437 539.711 450.013 539.711ZM450.013 279.843C385.974 279.843 334 331.817 334 395.855C334 419.058 340.683 441.332 353.305 460.266C371.681 487.366 400.452 505.557 432.379 510.197C444.258 512.239 455.953 512.239 466.904 510.197C499.388 505.557 528.159 487.18 546.535 460.08C559.157 441.147 565.84 418.872 565.84 395.67C566.025 331.816 514.052 279.843 450.013 279.843Z" fill="white"/>
<path d="M347.352 648.112C344.754 648.112 342.341 647.741 339.742 647.184C327.677 644.4 318.396 635.119 315.611 623.054L309.115 595.768C308.744 594.097 307.444 592.798 305.588 592.241L274.961 585.002C263.452 582.217 254.357 573.679 251.201 562.356C248.046 551.033 251.201 538.782 259.554 530.429L331.946 458.038C334.916 455.068 339 453.583 343.083 453.954C347.167 454.325 350.879 456.553 353.292 460.079C371.669 487.18 400.44 505.556 432.551 510.197C444.431 512.239 456.125 512.239 467.077 510.197C499.56 505.556 528.331 487.18 546.708 460.079C548.935 456.553 552.833 454.325 556.917 453.954C561 453.583 565.084 455.068 568.054 458.038L640.446 530.429C648.799 538.782 651.954 551.033 648.799 562.356C645.643 573.679 636.362 582.403 625.039 585.002L594.412 592.241C592.741 592.612 591.442 593.911 590.885 595.768L584.389 623.054C581.604 635.119 572.323 644.4 560.258 647.184C548.193 650.154 535.756 645.885 527.96 636.418L450 546.764L372.04 636.604C365.729 644.029 356.819 648.112 347.352 648.112ZM340.299 489.222L279.23 550.291C277.559 551.961 277.745 553.817 278.116 554.931C278.302 555.859 279.23 557.715 281.457 558.087L312.085 565.326C324.15 568.11 333.431 577.391 336.215 589.456L342.712 616.743C343.269 619.156 345.125 619.898 346.239 620.269C347.352 620.455 349.209 620.641 350.879 618.784L421.971 536.926C390.416 530.801 361.46 513.909 340.299 489.222ZM478.028 536.74L549.121 618.413C550.791 620.455 552.833 620.455 553.947 620.084C555.061 619.898 556.731 618.97 557.474 616.557L563.97 589.271C566.755 577.206 576.036 567.925 588.101 565.14L618.728 557.901C620.956 557.344 621.884 555.674 622.069 554.746C622.441 553.817 622.626 551.776 620.956 550.105L559.887 489.036C538.54 513.724 509.769 530.615 478.028 536.74Z" fill="white"/>
<path d="M485.115 468.061C480.289 468.061 474.535 466.762 467.667 462.678L450.033 452.098L432.399 462.493C416.25 472.145 405.67 466.576 401.772 463.792C397.874 461.008 389.521 452.655 393.79 434.279L398.245 415.16L383.396 401.424C375.228 393.256 372.259 383.419 375.043 374.509C377.827 365.599 385.994 359.288 397.503 357.432L417.364 354.091L426.83 333.301C432.213 322.721 440.566 316.781 450.033 316.781C459.5 316.781 468.038 322.907 473.235 333.487L484.187 355.39L502.563 357.618C513.886 359.474 522.053 365.785 525.023 374.694C527.808 383.604 524.838 393.442 516.67 401.61L501.264 417.016L506.09 434.279C510.359 452.655 502.007 461.008 498.109 463.792C496.067 465.463 491.612 468.061 485.115 468.061ZM405.67 384.533L418.478 397.34C424.417 403.28 427.387 413.304 425.531 421.471L422.004 436.32L436.854 427.596C444.836 422.956 455.602 422.956 463.398 427.596L478.247 436.32L474.906 421.471C473.05 413.118 475.834 403.28 481.774 397.34L494.582 384.533L478.433 381.748C470.637 380.449 462.841 374.695 459.314 367.641L450.033 349.45L440.752 368.012C437.411 374.88 429.615 380.82 421.819 382.12L405.67 384.533Z" fill="white"/>
</svg>
