<svg width="901" height="900" viewBox="0 0 901 900" fill="none" xmlns="http://www.w3.org/2000/svg">
<path d="M900.5 450C900.5 698.528 699.028 900 450.5 900C201.972 900 0.5 698.528 0.5 450C0.5 201.472 201.972 0 450.5 0C699.028 0 900.5 201.472 900.5 450Z" fill="#0FCE16" fill-opacity="0.31"/>
<circle cx="450" cy="450" r="400" fill="#0FCE16"/>
<path d="M374.448 466.335H269.112C244.3 466.335 224 486.635 224 511.446V646.782H374.448V466.335Z" stroke="white" stroke-width="33.8338" stroke-miterlimit="10" stroke-linecap="round" stroke-linejoin="round"/>
<path d="M479.555 376.111H419.331C394.52 376.111 374.22 396.412 374.22 421.223V646.782H524.667V421.223C524.667 396.412 504.592 376.111 479.555 376.111Z" stroke="white" stroke-width="33.8338" stroke-miterlimit="10" stroke-linecap="round" stroke-linejoin="round"/>
<path d="M630.007 534.002H524.671V646.782H675.119V579.114C675.119 554.303 654.819 534.002 630.007 534.002Z" stroke="white" stroke-width="33.8338" stroke-miterlimit="10" stroke-linecap="round" stroke-linejoin="round"/>
<path d="M461.288 197.615L473.242 221.524C474.821 224.907 479.107 228.065 482.716 228.516L504.369 232.125C518.128 234.381 521.512 244.531 511.587 254.23L494.67 271.146C491.738 274.079 490.159 279.492 491.061 283.327L495.798 304.079C499.633 320.544 490.836 326.86 476.4 318.289L456.1 306.334C452.491 304.078 446.401 304.078 442.792 306.334L422.492 318.289C408.056 326.86 399.259 320.544 403.093 304.079L407.83 283.327C408.732 279.492 407.154 273.853 404.221 271.146L387.53 254.455C377.605 244.531 380.763 234.606 394.748 232.35L416.401 228.742C420.01 228.065 424.296 224.907 425.875 221.75L437.83 197.84C444.371 184.758 454.746 184.758 461.288 197.615Z" stroke="white" stroke-width="33.8338" stroke-linecap="round" stroke-linejoin="round"/>
</svg>
